<svg width="9" height="15" viewBox="0 0 9 15" fill="none" xmlns="http://www.w3.org/2000/svg">
<path d="M0.244364 8.08579L7.06168 14.7609C7.21935 14.9154 7.42984 15.0005 7.65427 15.0005C7.87871 15.0005 8.08919 14.9154 8.24687 14.7609L8.74891 14.2694C9.0756 13.9492 9.0756 13.4287 8.74891 13.1089L3.02425 7.5036L8.75527 1.89206C8.91294 1.73755 9 1.53157 9 1.31194C9 1.09206 8.91294 0.88609 8.75527 0.731457L8.25322 0.24012C8.09542 0.0856084 7.88506 0.000488122 7.66063 0.00048809C7.43619 0.000488058 7.22571 0.0856082 7.06803 0.24012L0.244364 6.92128C0.0863134 7.07628 -0.000494807 7.28323 2.9799e-06 7.50323C-0.00049487 7.72408 0.0863133 7.93091 0.244364 8.08579Z" fill="#0C0042"/>
</svg>
