<?xml version="1.0" encoding="UTF-8"?> <svg xmlns="http://www.w3.org/2000/svg" width="100" height="28" viewBox="0 0 100 28" fill="none"><path fill-rule="evenodd" clip-rule="evenodd" d="M27.841 0.941105C28.1841 1.28422 28.3802 1.67634 28.4782 2.31355C28.4782 2.41158 28.5273 2.95076 28.7233 3.04879V5.40155L28.6743 5.98974C28.6498 6.23483 28.6375 6.46766 28.6253 6.70049C28.613 6.93331 28.6008 7.16613 28.5763 7.4112C28.5272 8.68562 28.3802 10.2051 27.89 11.7246C27.3019 13.7343 25.9784 15.1067 24.0178 15.6949C23.9198 15.7194 23.8095 15.7439 23.6992 15.7684C23.5889 15.7929 23.4786 15.8174 23.3806 15.8419C24.1158 16.3321 24.655 16.8223 25.0471 17.5085C25.8314 18.8319 25.9294 20.1063 25.3412 21.2827C25.0961 21.8219 24.8511 22.361 24.5079 22.8512C23.5766 24.2727 22.5963 25.253 21.4199 25.9392C20.7827 26.3313 20.1945 26.5274 19.6064 26.5274C19.0182 26.5274 18.528 26.3804 17.9888 26.0372C16.5184 25.1059 15.293 23.9786 14.3617 22.5571C13.3813 23.9296 12.1559 25.155 10.7345 26.0372C10.1953 26.3313 9.70515 26.5274 9.11696 26.5274C8.52877 26.5274 7.94057 26.3313 7.30337 25.9392C6.12699 25.253 5.14667 24.2727 4.21537 22.8512C4.03848 22.5564 3.87932 22.2438 3.71656 21.9242C3.60872 21.7125 3.4993 21.4976 3.3821 21.2827C2.79391 20.1063 2.89194 18.8809 3.67619 17.5085C4.06832 16.8713 4.60749 16.3321 5.34273 15.8419C5.09765 15.7929 4.90159 15.7439 4.70553 15.6949C2.79391 15.1067 1.47048 13.7833 0.83327 11.6756C0.392127 10.2051 0.245079 8.6366 0.147048 7.36219C0.123152 7.12323 0.110906 6.88427 0.0989505 6.651C0.0863825 6.40577 0.0741362 6.16681 0.049016 5.94073L0 5.35254V3.04879C0 2.99977 0.012254 2.84047 0.024508 2.68117C0.036762 2.52187 0.049016 2.36257 0.049016 2.31355C0.147048 1.72536 0.392127 1.28422 0.686222 0.941105C1.42146 0.156851 2.35276 -0.137245 3.62718 0.0588191C4.70553 0.205867 5.68584 0.745042 6.42108 1.2352C9.70515 3.3919 12.303 6.03876 14.2146 9.22479C16.1752 6.03876 18.7731 3.3919 22.0572 1.2352C22.7434 0.794057 23.7237 0.205867 24.8511 0.0588191C26.1745 -0.137245 27.1058 0.156851 27.841 0.941105ZM14.3126 18.979C14.5577 18.3908 14.9008 17.1654 14.9498 15.7929C14.9989 15.0087 14.8518 14.0774 14.5577 13.4402C14.5304 13.3309 14.4574 13.1454 14.3811 12.9517C14.3206 12.798 14.258 12.639 14.2146 12.5089C14.1946 12.5588 14.1706 12.6169 14.1445 12.6798C14.0428 12.9256 13.9105 13.245 13.8715 13.4402C13.6754 14.0774 13.4794 14.9597 13.5284 15.7929C13.6264 17.1654 13.9695 18.3417 14.1656 18.979V19.028C14.1656 19.0525 14.1778 19.077 14.1901 19.1015C14.2024 19.126 14.2146 19.1505 14.2146 19.175C14.2146 19.1505 14.2269 19.126 14.2391 19.1015C14.2514 19.077 14.2636 19.0525 14.2636 19.028C14.3126 19.028 14.3126 18.979 14.3126 18.979ZM9.60711 24.9099C10.7345 24.3217 11.8128 23.3904 12.7441 22.165C12.9892 21.8219 13.2343 21.4298 13.3813 21.0376C13.2833 20.7925 13.1363 20.4494 12.9892 20.1553L12.9402 20.0083C12.9402 20.0083 12.8912 19.8612 12.7931 19.6162C12.78 19.5768 12.7669 19.5409 12.7547 19.5076C12.7214 19.4166 12.6951 19.3448 12.6951 19.2731C12.45 18.4888 12.1069 17.2634 12.0579 15.8419C12.0089 14.5185 12.352 13.1461 12.6951 12.3128C12.8422 11.8226 13.3813 10.7443 13.4304 10.6463C13.4058 10.6217 13.3936 10.5972 13.3813 10.5727C13.3691 10.5482 13.3568 10.5237 13.3323 10.4992C12.45 8.9307 11.2737 7.4112 9.75416 5.84269C8.03861 4.07812 6.51911 2.90174 4.90159 2.06847C4.3134 1.77438 3.72521 1.48028 3.03899 1.48028C3.02104 1.48028 2.98997 1.48685 2.95057 1.49517C2.88232 1.5096 2.7891 1.5293 2.69587 1.5293C1.96064 1.67634 1.61752 2.01945 1.61752 2.75469C1.56851 3.88206 1.56851 4.96041 1.61752 5.94073C1.66654 7.60727 1.76457 9.42085 2.30375 11.1854C2.79391 12.803 3.67619 13.7833 5.09765 14.1754C5.73486 14.3715 6.4701 14.5185 7.4014 14.6165L7.64648 14.6656C8.28369 14.7146 8.92089 14.7636 8.96991 15.4008C9.06373 16.1514 8.52901 16.2734 7.92433 16.4114C7.89719 16.4176 7.86991 16.4238 7.84254 16.4301C7.79353 16.4301 7.74451 16.4424 7.69549 16.4546C7.64648 16.4669 7.59746 16.4791 7.54845 16.4791C6.42108 16.7732 5.5388 17.3614 4.99962 18.2437C4.50946 19.126 4.36241 19.7632 4.65651 20.4494C5.19568 21.7729 6.02895 22.9492 7.05829 23.9296C7.64648 24.4197 8.13664 24.7628 8.77385 24.9589C9.06794 25.0569 9.31302 25.0569 9.60711 24.9099ZM26.3215 11.1854C26.8607 9.51889 26.9587 7.65628 27.0078 5.94073C27.0078 4.91139 27.0078 3.88206 26.9587 2.75469C26.9587 2.01945 26.6156 1.67634 25.8804 1.5293C25.7824 1.48028 25.6353 1.48028 25.4883 1.48028C24.802 1.48028 24.2139 1.77438 23.6257 2.06847C22.0081 2.90174 20.5377 4.07812 18.7731 5.84269C17.2536 7.36219 16.0772 8.88168 15.1949 10.4992C15.1704 10.5237 15.1582 10.5482 15.1459 10.5727C15.1337 10.5972 15.1214 10.6217 15.0969 10.6463C15.1949 10.7443 15.6851 11.8226 15.8321 12.3128C16.1752 13.1951 16.5184 14.5185 16.4693 15.8419C16.3713 17.2634 16.0772 18.5378 15.8321 19.2731C15.8321 19.3448 15.8059 19.4166 15.7726 19.5076C15.7604 19.5409 15.7472 19.5768 15.7341 19.6162C15.6361 19.8612 15.5871 20.0083 15.5871 20.0083L15.538 20.1553C15.4554 20.2931 15.3882 20.4619 15.319 20.6356C15.2652 20.7708 15.2103 20.9089 15.1459 21.0376C15.342 21.4298 15.5871 21.8219 15.8811 22.165C16.7634 23.3904 17.8418 24.2727 19.0182 24.9099C19.2632 25.0569 19.5083 25.0569 19.8514 24.9589C20.4396 24.7628 20.9788 24.4687 21.567 23.9296C22.5963 22.9492 23.4296 21.7729 23.9688 20.4494C24.2629 19.7632 24.1158 19.028 23.6257 18.2437C23.1355 17.3124 22.2532 16.7732 21.0768 16.4791C21.0278 16.4791 20.9788 16.4669 20.9298 16.4546C20.8808 16.4424 20.8318 16.4301 20.7827 16.4301C20.1945 16.3321 19.5573 16.185 19.6554 15.4008C19.7044 14.8126 20.2926 14.7146 20.9788 14.6656L21.2239 14.6165C22.1552 14.5185 22.8414 14.3715 23.5276 14.1754C24.9491 13.7833 25.8314 12.803 26.3215 11.1854ZM85.827 8.63663L85.4349 8.39155V8.48958H77.4453L77.3963 8.97974C77.8374 9.07778 78.1805 9.17581 78.4256 9.32286C78.6707 9.4699 78.7687 9.56794 78.7687 9.66597L77.2002 20.8906C77.2002 20.9886 77.0531 21.1357 76.7591 21.2337C76.465 21.3808 76.1218 21.4788 75.6807 21.5768L75.6317 22.067H80.3372L80.3862 21.5768C79.798 21.4298 79.3569 21.2827 79.1118 21.1847C78.8667 21.0867 78.7687 20.9886 78.7687 20.8906L79.553 15.0087H80.2882C80.7293 15.0087 81.1215 15.0087 81.4646 15.1067C81.7587 15.2048 82.0528 15.3518 82.2979 15.5969L82.5429 15.3518L82.837 15.0577C82.9351 14.9107 83.0331 14.8126 83.1311 14.7146C83.1574 14.6752 83.1801 14.6393 83.2012 14.606C83.2589 14.515 83.3044 14.4433 83.3762 14.3715L83.1311 14.0774H79.651L80.3372 9.42089H84.0134C84.1605 9.42089 84.2585 9.4699 84.3565 9.51892C84.4546 9.56793 84.5036 9.66597 84.5526 9.81301C84.6016 9.96006 84.6506 10.1071 84.6506 10.3522C84.6996 10.4992 84.6996 10.7933 84.6506 11.1364H85.0918C85.1033 11.1017 85.1149 11.0643 85.1271 11.0248C85.1666 10.8969 85.2129 10.7471 85.2878 10.5973C85.3086 10.514 85.3383 10.4308 85.3692 10.3439C85.4112 10.2259 85.4557 10.1011 85.4839 9.96006C85.5819 9.71498 85.6309 9.51892 85.68 9.27384C85.729 9.02876 85.778 8.8327 85.827 8.63663ZM89.7483 20.5965L89.8953 21.1357C89.5522 21.3317 89.2581 21.5278 89.062 21.6749C88.9001 21.7558 88.7531 21.8368 88.6209 21.9095C88.513 21.969 88.4149 22.0229 88.3268 22.067C88.0817 22.165 87.8857 22.214 87.6896 22.2631C87.4935 22.3121 87.2975 22.3121 87.1014 22.3121C86.9053 22.3121 86.7093 22.165 86.5622 21.969C86.4152 21.7729 86.3172 21.4788 86.3172 21.0377C86.3172 20.9468 86.3359 20.7997 86.3618 20.5965C86.3777 20.4709 86.3965 20.3239 86.4152 20.1554C86.4346 19.9806 86.4617 19.7981 86.4904 19.6048C86.5342 19.3104 86.5817 18.991 86.6113 18.6359C86.7093 18.0477 86.8073 17.4105 86.9053 16.6752C86.9557 16.3226 86.9284 16.6431 86.9033 16.9382C86.8795 17.2174 86.8577 17.4738 86.9053 17.1164C86.9544 16.7488 87.0156 16.3689 87.0769 15.989C87.1382 15.6091 87.1994 15.2293 87.2485 14.8617C87.3465 14.1264 87.4445 13.4402 87.5425 12.803C87.6298 12.2355 87.6783 11.7458 87.7225 11.2993C87.7279 11.2444 87.7333 11.1901 87.7386 11.1364C87.7458 11.0721 87.7529 11.0089 87.7599 10.947C87.8009 10.5841 87.8366 10.2675 87.8366 10.0581C87.8366 9.91105 87.8366 9.764 87.7876 9.66597C87.7386 9.56794 87.6896 9.4699 87.6406 9.42089C87.5916 9.37187 87.5425 9.32286 87.4445 9.32286H87.2485C87.1994 9.32286 87.1014 9.32286 86.9544 9.37187C86.8808 9.39638 86.8196 9.40863 86.7583 9.42089C86.697 9.43314 86.6358 9.44539 86.5622 9.4699C86.4152 9.51892 86.2681 9.56793 86.0721 9.61695L85.925 9.17581C86.1701 9.02876 86.5132 8.88171 86.8073 8.78368C86.8953 8.7485 86.9895 8.707 87.0879 8.66372C87.2635 8.58641 87.452 8.50342 87.6406 8.44057C87.8857 8.34254 88.1307 8.24451 88.3758 8.19549C88.4284 8.18235 88.4774 8.16922 88.5229 8.15703C88.6472 8.12372 88.7452 8.09746 88.817 8.09746C89.013 8.09746 89.2091 8.14647 89.3071 8.29352C89.4052 8.44057 89.5032 8.68565 89.5032 8.97974C89.5032 9.19502 89.4769 9.43655 89.4436 9.74279C89.4314 9.85493 89.4183 9.97574 89.4052 10.1071C89.3864 10.2946 89.3605 10.4892 89.3329 10.6965C89.2883 11.0312 89.2394 11.3989 89.2091 11.8227C89.1111 12.4599 89.013 13.1461 88.915 13.8813C88.866 14.249 88.8047 14.6166 88.7434 14.9842C88.6822 15.3518 88.6209 15.7194 88.5719 16.087C88.5146 16.5449 88.4407 16.9861 88.3696 17.4106C88.3189 17.7131 88.2696 18.0072 88.2288 18.2928C88.1856 18.5949 88.209 18.3934 88.2403 18.1233C88.2801 17.7801 88.3326 17.3264 88.2778 17.6556C88.1798 18.2926 88.1308 18.7827 88.0817 19.2728L88.0817 19.2731C88.0702 19.3765 88.0587 19.4746 88.0479 19.5673C88.0124 19.8698 87.9837 20.1148 87.9837 20.3024C87.9837 20.5475 88.0327 20.7436 88.0817 20.8416C88.1307 20.9396 88.2288 20.9886 88.3758 20.9886C88.4922 20.9886 88.6392 20.958 88.8169 20.9209C88.8638 20.9111 88.9129 20.9008 88.964 20.8906C89.1601 20.8416 89.4052 20.7436 89.7483 20.5965ZM99.7475 11.9697C99.8455 12.0187 99.8946 12.1168 99.9436 12.2148C99.9926 12.2638 100.042 12.4599 99.9436 12.705C99.9436 12.901 99.8946 13.2441 99.7475 13.6363C99.6005 14.0284 99.4044 14.5185 99.0613 15.1557L97.8849 17.5085L97.8843 17.5097C97.3943 18.4898 96.8063 19.6657 96.1203 20.9886C96.0434 21.1348 95.9677 21.2797 95.8929 21.423C95.4905 22.1932 95.1121 22.9176 94.6989 23.5375C94.2087 24.3217 93.7676 24.9589 93.2284 25.4981C92.6892 26.0373 92.1991 26.4294 91.6599 26.7725C91.1207 27.0666 90.5325 27.2137 89.9443 27.2137C89.6993 27.2137 89.5032 27.2137 89.3071 27.1646C89.1111 27.1156 88.964 27.0666 88.817 27.0176C88.6699 26.9686 88.5719 26.9196 88.4739 26.8215C88.3758 26.7725 88.3268 26.6745 88.3268 26.6255C88.3268 26.5649 88.3455 26.5043 88.3714 26.4206C88.3874 26.3688 88.4061 26.3082 88.4248 26.2333C88.4739 26.0863 88.5719 25.8902 88.6699 25.7432C88.768 25.5471 88.866 25.4001 89.013 25.253C89.1601 25.106 89.2581 25.0079 89.3561 24.9589C89.5522 25.057 89.6993 25.155 89.8463 25.253C89.9198 25.2775 89.9811 25.302 90.0424 25.3265C90.1036 25.3511 90.1649 25.3756 90.2384 25.4001C90.3365 25.4491 90.4835 25.4491 90.5815 25.4491H90.9737C91.5619 25.4491 92.101 25.204 92.6892 24.6158C93.2774 24.0766 93.8166 23.2434 94.4048 22.2631C94.3676 22.0959 94.3375 21.9288 94.3065 21.7564C94.2555 21.4736 94.202 21.1765 94.1107 20.8416C94.0659 20.5953 94.0109 20.3592 93.955 20.1194C93.8885 19.8342 93.8208 19.5436 93.7676 19.2241C93.694 18.9299 93.6328 18.6603 93.5715 18.3907C93.5102 18.1211 93.449 17.8516 93.3755 17.5575C93.2284 16.9695 93.0814 16.4794 92.9344 15.9894L92.9343 15.989C92.8862 15.8287 92.8381 15.6789 92.7917 15.5344C92.6963 15.2371 92.6081 14.9624 92.5422 14.6656C92.4715 14.5006 92.4121 14.3356 92.3586 14.187C92.3008 14.0265 92.2499 13.8851 92.1991 13.7833C92.052 13.3912 91.905 13.1461 91.7579 13.0481C91.6599 12.95 91.5128 12.901 91.4148 12.901C91.3658 12.901 91.2678 12.901 91.1207 12.95C91.0717 12.9745 91.0104 12.9868 90.9492 12.999C90.8879 13.0113 90.8266 13.0236 90.7776 13.0481L90.3365 13.1951L90.1894 12.803C90.4345 12.6559 90.7286 12.5089 91.0227 12.4109C91.1846 12.3299 91.3316 12.2638 91.4638 12.2044C91.5717 12.1559 91.6698 12.1118 91.7579 12.0677C91.8654 12.0248 91.9634 11.9818 92.052 11.9429C92.1655 11.8932 92.2635 11.8502 92.3461 11.8227C92.4932 11.7737 92.6402 11.7246 92.7382 11.7246C92.8363 11.7246 92.9343 11.7737 93.0323 11.8227C93.0956 11.8543 93.1385 11.9064 93.1873 11.9657C93.2141 11.9983 93.2427 12.033 93.2774 12.0677C93.3755 12.1658 93.4245 12.3128 93.4735 12.5089C93.5079 12.6465 93.5664 12.784 93.6321 12.9385C93.6601 13.0042 93.6893 13.073 93.7186 13.1461C93.8656 13.5382 94.0126 13.9794 94.1597 14.5185C94.2159 14.7247 94.2793 14.9309 94.3444 15.1426C94.4495 15.4844 94.559 15.8406 94.6499 16.2341C94.7162 16.5217 94.7926 16.7993 94.8699 17.0804C94.9639 17.4222 95.0593 17.7692 95.14 18.1457C95.2135 18.4888 95.2871 18.8074 95.3606 19.126C95.4341 19.4446 95.5076 19.7632 95.5812 20.1064C95.8262 19.6652 96.0713 19.2241 96.3164 18.7339C96.4 18.5667 96.4836 18.4052 96.5652 18.2475C96.723 17.9428 96.8734 17.6521 97.0026 17.3615L97.0028 17.3612C97.2478 16.8712 97.4438 16.4791 97.6398 16.038C97.7787 15.7602 97.8931 15.4824 98.0002 15.222C98.0443 15.1149 98.0871 15.0107 98.13 14.9107C98.2267 14.7173 98.3022 14.5027 98.3704 14.3087C98.406 14.2077 98.4395 14.1123 98.4731 14.0284C98.5711 13.7833 98.5711 13.5872 98.5711 13.4402C98.5711 13.0481 98.3751 12.852 97.9829 12.852C97.7379 12.852 97.4438 12.901 97.0026 13.0971L96.8066 12.705C96.9191 12.6436 97.0252 12.5843 97.1267 12.5277C97.5116 12.3128 97.8299 12.1351 98.179 12.0187C98.5221 11.8717 98.8652 11.8227 99.1103 11.8227C99.2574 11.8227 99.3554 11.8227 99.4534 11.8717C99.5514 11.8717 99.6495 11.9207 99.7475 11.9697ZM43.6733 14.9107C44.1635 14.1754 44.4086 13.1951 44.4086 12.1168C44.4086 10.7933 44.0655 9.91105 43.2812 9.32286C42.4969 8.73466 41.3696 8.44057 39.7521 8.44057H38.4286H37.0072H34.4583L34.3603 9.51892L35.6347 9.81301L34.1642 20.9396L32.9389 21.1847L32.8408 22.018H38.8208L38.9188 21.1847L36.7131 20.9396L37.1542 17.3124C37.3993 17.3615 37.7914 17.3615 38.4286 17.3615C39.556 17.3615 40.6343 17.1654 41.5166 16.7243C42.4479 16.2831 43.1342 15.6949 43.6733 14.9107ZM41.2225 10.1071C41.6147 10.4992 41.8107 11.1364 41.8107 11.9697C41.8107 13.2931 41.5656 14.3225 40.9775 15.0577C40.4873 15.7439 39.605 16.1361 38.4776 16.1851C38.0855 16.1851 37.6934 16.1361 37.3013 16.087L38.1835 9.61695C38.6247 9.51892 39.0168 9.4699 39.458 9.4699C40.2912 9.4699 40.8304 9.66597 41.2225 10.1071ZM47.6436 17.6556C48.3789 17.6556 49.2121 17.5085 50.0944 17.2144C50.9767 16.9203 51.761 16.5282 52.4472 15.891C53.0354 15.3028 53.3785 14.5676 53.3785 13.7343C53.3785 13.3422 53.2804 12.95 53.0844 12.6069C52.9373 12.3128 52.6432 12.0187 52.2021 11.8227C51.761 11.6266 51.2708 11.5286 50.6336 11.5286C49.6043 11.5286 48.673 11.7737 47.7907 12.3618C46.9084 12.95 46.2712 13.7833 45.781 14.7146C45.2909 15.6949 45.0458 16.7733 45.0458 17.9497C45.0458 18.6849 45.1438 19.3221 45.4379 19.9103C45.683 20.4985 46.0751 20.9396 46.6633 21.3317C47.2515 21.7239 47.9867 21.9199 48.82 21.9199C49.4572 21.9199 50.0454 21.8219 50.5846 21.5768C51.1728 21.4298 51.5649 21.1357 51.957 20.8416C52.3001 20.5475 52.5942 20.2534 52.7903 19.9593L52.2511 19.175C51.3688 20.0573 50.3885 20.5475 49.4082 20.5475C49.0161 20.5475 48.6239 20.4004 48.3789 20.1554C48.1338 19.9103 47.9377 19.5672 47.7907 19.126C47.6926 18.6359 47.6436 18.1947 47.6436 17.6556ZM50.4865 15.4008C50.0944 15.7439 49.7023 16.038 49.1631 16.2831C48.6239 16.5282 48.1338 16.6262 47.7416 16.6752C47.7907 16.087 47.8887 15.4989 48.0848 14.9107C48.1828 14.2735 48.4769 13.8323 48.82 13.3912C49.1631 12.95 49.5552 12.754 50.0454 12.754C50.3395 12.754 50.5846 12.901 50.7316 13.0971C50.8787 13.2931 50.9767 13.5872 51.0257 14.0284C51.0257 14.5676 50.8787 15.0087 50.4865 15.4008ZM58.6722 7.01911L59.1133 7.26419L57.2997 19.8613V20.1064C57.2997 20.4004 57.3978 20.5475 57.5938 20.5475C57.6656 20.5475 57.7374 20.5212 57.8284 20.4879C57.8617 20.4757 57.8976 20.4626 57.937 20.4495C58.084 20.4004 58.2801 20.2534 58.4761 20.0573L58.7212 20.6455C58.6232 20.7926 58.4761 20.9396 58.231 21.1847C58.084 21.3808 57.7899 21.5768 57.4468 21.7239C57.1037 21.8709 56.7606 21.969 56.3684 21.969C55.9273 21.969 55.5842 21.8709 55.2901 21.6749C54.996 21.5278 54.849 21.1847 54.849 20.7926C54.849 20.5965 54.849 20.3514 54.898 20.0573L56.5155 8.5386L55.3881 8.14647L55.5842 7.41124L58.6722 7.01911ZM66.6618 11.8717C66.8088 11.6756 67.1029 11.5776 67.4951 11.5776C67.9852 11.5776 68.3773 11.7737 68.5244 12.0677C68.7695 12.4109 68.8675 12.852 68.8675 13.4402C68.8675 14.2244 68.5734 15.2538 67.9362 16.4302C67.348 17.6556 66.5147 18.7829 65.5344 19.9593L64.309 21.5278C64.113 21.8219 63.7698 21.969 63.3777 21.969C62.8385 21.969 62.3484 21.5768 62.2013 21.0377L61.7602 18.7339L60.7309 13.5382C60.6818 13.3422 60.6328 13.2441 60.5838 13.1461C60.5348 13.0481 60.4368 13.0481 60.3387 13.0481C60.2407 13.0481 60.1427 13.0481 60.0937 13.0971C60.0446 13.1216 60.0079 13.1461 59.9711 13.1706C59.9344 13.1951 59.8976 13.2196 59.8486 13.2441L59.6035 12.5579C59.6261 12.5353 59.6486 12.5102 59.673 12.483C59.7544 12.3922 59.856 12.279 60.0446 12.1658C60.2407 12.0187 60.4368 11.8717 60.7799 11.7246C61.025 11.5776 61.3681 11.5286 61.7112 11.5286C62.1523 11.5286 62.4954 11.6266 62.7405 11.8227C62.9856 11.9697 63.1326 12.3128 63.1817 12.705L63.9169 18.0967L64.113 19.9103L64.8482 18.881C65.3384 18.0967 65.7795 17.3615 66.0736 16.6262C66.3677 15.94 66.5638 15.1557 66.6128 14.3715C66.6128 14.2244 66.6128 14.0774 66.5638 13.9303C66.5377 13.8522 66.5255 13.7603 66.5124 13.6619C66.5009 13.575 66.4887 13.4831 66.4657 13.3912C66.3677 13.0971 66.3187 12.852 66.3187 12.6559C66.3187 12.3618 66.4167 12.0677 66.6618 11.8717ZM73.0339 20.5965C73.1319 20.5965 73.2789 20.5475 73.377 20.4985C73.3939 20.4872 73.4115 20.4759 73.4295 20.4643C73.5673 20.3759 73.7257 20.2742 73.7691 20.0573L74.0142 20.6455C73.9161 20.7926 73.7691 20.9886 73.524 21.1847C73.3279 21.3808 73.0829 21.5768 72.6907 21.7239C72.3476 21.8709 72.0045 21.969 71.5634 21.969C71.1222 21.969 70.7301 21.8709 70.485 21.6749C70.2399 21.5278 70.0929 21.2337 70.0929 20.8906V20.6945C70.1179 20.5194 70.1461 20.3091 70.1792 20.063C70.2756 19.3445 70.413 18.3201 70.6321 16.9693L71.1712 13.0971L70.0929 12.6069L70.2399 11.8717L73.426 11.3815L73.9161 11.6266L72.7398 19.9103V20.1554C72.7398 20.4495 72.8378 20.5965 73.0339 20.5965ZM73.2299 6.97009C73.524 6.97009 73.7201 7.01911 73.9651 7.16616C74.1612 7.26419 74.3573 7.46025 74.4553 7.65632C74.5533 7.85238 74.6024 8.04844 74.6024 8.29352C74.6024 8.5386 74.5533 8.8327 74.4063 9.07778C74.2592 9.32286 74.0632 9.51892 73.8181 9.66597C73.622 9.81301 73.3279 9.91105 72.9848 9.91105C72.7398 9.91105 72.5437 9.86203 72.3476 9.71498C72.1516 9.56793 72.0045 9.42089 71.8575 9.22482C71.7594 9.02876 71.6614 8.8327 71.6614 8.58762C71.6124 8.29352 71.7104 8.04844 71.8575 7.80336C72.0045 7.55828 72.2006 7.36222 72.4457 7.21517C72.6417 7.06812 72.9358 6.97009 73.2299 6.97009Z" fill="#3FC6FB"></path></svg> 