<?xml version="1.0" encoding="UTF-8"?> <svg xmlns="http://www.w3.org/2000/svg" width="36" height="36" viewBox="0 0 36 36" fill="none"><path d="M26.0461 28.0172V26.0057C26.0461 24.9388 25.6222 23.9155 24.8677 23.1611C24.1133 22.4066 23.09 21.9828 22.0231 21.9828H13.9771C12.9101 21.9828 11.8869 22.4066 11.1324 23.1611C10.378 23.9155 9.9541 24.9388 9.9541 26.0057V28.0172" stroke="#BECDE3" stroke-width="1.50862" stroke-linecap="round" stroke-linejoin="round"></path><path d="M17.9996 17.9598C20.2214 17.9598 22.0225 16.1586 22.0225 13.9368C22.0225 11.7149 20.2214 9.91379 17.9996 9.91379C15.7777 9.91379 13.9766 11.7149 13.9766 13.9368C13.9766 16.1586 15.7777 17.9598 17.9996 17.9598Z" stroke="#BECDE3" stroke-width="1.50862" stroke-linecap="round" stroke-linejoin="round"></path><circle cx="18" cy="18" r="13.2759" stroke="#BECDE3" stroke-width="1.44828"></circle></svg> 