<?xml version="1.0" encoding="UTF-8"?> <svg xmlns="http://www.w3.org/2000/svg" width="688" height="474" viewBox="0 0 688 474" fill="none"><g clip-path="url(#clip0)"><path d="M509.642 316.653H501.671L499.609 308.299H508.075L509.642 316.653Z" fill="#F8AC8F"></path><path d="M469.495 258.177H456.37C456.37 258.177 433.962 204.357 439.691 180.405C442.383 169.154 473.343 165.089 492.149 167.629L486.776 199.368C486.165 202.437 471.244 193.238 468.117 196.578C464.864 200.058 469.495 258.177 469.495 258.177Z" fill="#0C0042"></path><path d="M497.812 195.76L485.555 195.637C485.555 195.637 497.883 130.32 515.62 110.6C531.582 134.825 529.534 190.844 529.534 190.844C529.588 190.844 501.338 188.358 499.993 191.76C498.648 195.162 497.813 195.76 497.813 195.76" fill="#0C0042"></path><path d="M498.143 109.854C499.042 110.283 504.922 107.641 504.922 107.641L507.7 116.548C510.196 114.383 512.841 112.395 515.614 110.6L514.364 102.057C514.364 102.057 512.084 100.783 511.906 100.133C511.472 98.5462 514.032 95.8654 511.288 93.5872C510.219 92.7041 506.784 96.8231 506.784 96.8231C506.784 96.8231 502.797 93.3436 501.123 93.163C499.074 92.9327 493.373 95.9896 493.373 95.9896L492.445 102.846L495.738 102.514C495.738 102.514 496.401 109.021 498.143 109.854Z" fill="#F8AC8F"></path><path d="M470.767 139.935L465.273 128.683L465.409 122.949L475.915 136.6L470.767 139.935Z" fill="#F8AC8F"></path><path d="M502.245 329.57H493.512C492.838 327.693 498.515 326.076 499.566 324.386C500.187 323.358 500.589 322.213 500.747 321.022C500.905 319.832 500.816 318.621 500.486 317.467L509.443 309.31C511.671 310.221 515.022 313.258 514.424 314.466L502.245 329.57Z" fill="#0D3BFB"></path><path d="M499.989 191.762C498.647 195.165 497.809 195.76 497.809 195.76L489.637 195.677C482.478 234.749 497.027 308.301 497.027 308.301H509.781C509.781 308.301 512.62 232.923 521.134 190.269C512.705 189.818 500.852 189.584 499.991 191.76" fill="#0C0042"></path><path d="M500.938 190.993L500.109 191.518C500.199 191.371 502.796 180.648 508.803 161.892C511.217 154.36 517.499 140.671 517.499 140.671C517.499 140.671 512.179 154.815 509.736 162.154C503.442 181.01 501.029 190.842 500.936 190.993" fill="#1D0E44"></path><path d="M489.147 216.57C483.926 216.434 487.406 195.652 487.406 195.652H492.146C492.146 195.652 490.031 211.657 489.147 216.57Z" fill="#F8AC8F"></path><path d="M470.155 129.115L459.965 115.638L462.347 113.496L472.505 126.773L470.155 129.115Z" fill="#0C0042"></path><path d="M516.094 102.841C516.094 102.841 512.233 101.335 511.906 100.132C511.472 98.548 514.032 95.8638 511.284 93.589C510.218 92.7025 506.782 96.8232 506.782 96.8232C506.782 96.8232 502.797 93.3438 501.121 93.1615C499.072 92.9312 493.371 95.9881 493.371 95.9881C493.371 95.9881 483.695 89.8063 485.081 87.1023C485.87 85.5714 490.226 87.7651 491.947 87.6789C496.584 87.4486 501.474 80.899 510.218 84.3105C521.567 88.7343 516.094 102.841 516.094 102.841Z" fill="#0C0042"></path><path d="M441.693 274.886C441.015 273.008 451.165 269.762 452.879 268.745C457.926 265.743 460.424 266.532 460.424 266.532H468.393C470.622 267.443 470.94 273.671 470.342 274.886H441.693Z" fill="#0D3BFB"></path><path fill-rule="evenodd" clip-rule="evenodd" d="M391.555 330.576H458.363V274.885H391.555V330.576Z" fill="#C6D1EA"></path><path d="M451.477 113.147C451.477 110.717 452.443 108.388 454.161 106.671C455.878 104.953 458.208 103.989 460.636 103.989" stroke="#0C0042" stroke-width="0.6" stroke-miterlimit="10"></path><path d="M446.852 111.703C446.851 110.083 447.17 108.478 447.79 106.981C448.41 105.483 449.319 104.123 450.464 102.977C451.61 101.831 452.97 100.922 454.467 100.302C455.964 99.6819 457.568 99.3628 459.188 99.363" stroke="#0C0042" stroke-width="0.6" stroke-miterlimit="10"></path><path d="M442.871 110.053C442.871 106.162 444.416 102.43 447.167 99.6776C449.917 96.9257 453.648 95.3792 457.538 95.3783" stroke="#0C0042" stroke-width="0.6" stroke-miterlimit="10"></path><path d="M438.457 108.226C438.457 103.648 440.275 99.258 443.511 96.0212C446.746 92.7844 451.135 90.9659 455.711 90.9659" stroke="#0C0042" stroke-width="0.6" stroke-miterlimit="10"></path><path d="M481.274 162.974C482.41 157.708 484.005 152.551 486.043 147.565L475.913 136.604L468.547 141.383C468.547 141.383 475.094 159.806 481.274 162.982V162.974Z" fill="#0C0042"></path><path d="M491.999 167.614C497.321 147.376 505.606 121.719 515.613 110.598C485.948 129.791 480.875 164.591 480.57 166.902C484.391 166.895 488.209 167.133 491.999 167.614Z" fill="#0D3BFB"></path><path d="M468.392 266.531H460.425L458.359 258.177H466.825L468.392 266.531Z" fill="#F8AC8F"></path><path d="M138.716 192.458L133.645 175.061C133.645 175.061 149.711 171.424 153.236 169.034C158.962 165.147 170.508 146.705 170.508 146.705L176.075 150.121C176.075 150.121 166.708 171.555 161.63 177.352C157.365 182.22 138.715 192.449 138.715 192.449" fill="#2CBCFA"></path><path d="M123.437 172.327L129.576 160.434C129.576 160.434 124.189 154.868 124.979 152.786C125.38 151.714 129.372 151.448 129.372 151.448C129.372 151.448 135.908 141.272 141.074 146.239C141.074 146.239 145.758 148.433 145.97 150.111C146.081 150.99 144.338 152.713 144.338 152.713C144.338 152.713 147.817 161.526 137.415 163.676L134.006 174.617C134.006 174.617 122.644 174.409 123.434 172.323" fill="#F8AC8F"></path><path d="M173.047 279.674C173.047 279.674 180.643 291.106 182.157 294.345C183.671 297.584 183.293 298.502 183.293 298.502C184.761 298.655 186.218 298.894 187.657 299.218C189.264 299.642 195.773 297.561 196.303 296.401C196.833 295.242 188.704 294.605 187.04 292.577C185.375 290.549 180.729 277.168 180.729 277.168L173.047 279.674Z" fill="#F8AC8F"></path><path d="M182.954 295.957C182.941 297.564 183.116 299.167 183.477 300.732L183.787 302.028C183.855 302.313 184.032 302.559 184.28 302.714C184.528 302.869 184.827 302.92 185.112 302.857C186.571 302.54 188.009 302.134 189.418 301.64C191.558 300.838 192.11 301.748 195.741 300.179C199.371 298.61 202.2 296.84 201.869 296.211C201.538 295.581 191.91 294.615 191.91 294.615C191.89 295.166 191.695 295.696 191.354 296.129C191.013 296.561 190.542 296.874 190.011 297.021C188.024 297.762 184.592 297.994 182.955 295.957" fill="#0D3BFB"></path><path d="M146.879 315.948L153.647 320.607C153.53 319.653 153.276 318.722 152.891 317.841C151.059 312.606 156.494 294.645 156.494 294.645L147.692 292.952L146.879 315.948Z" fill="#F8AC8F"></path><path d="M153.184 325.927H157.974C156.667 324.583 155.593 323.03 154.797 321.332C153.965 320.147 153.337 318.831 152.939 317.439C152.939 317.439 148.669 319.992 147.004 312.427C147.004 312.427 143.741 316.403 144.079 317.397C144.51 318.658 146.158 318.542 146.628 319.414C147.687 321.382 153.184 325.927 153.184 325.927Z" fill="#0D3BFB"></path><path fill-rule="evenodd" clip-rule="evenodd" d="M55 325.927H140.844V263.107H55V325.927Z" fill="#C6D1EA"></path><path d="M157.452 295L146.877 292.803V248.7C146.877 248.7 86.4141 293.346 86.4141 236.65C107.082 241.166 121.06 240.094 134.401 229.543C142.777 230.141 160.359 222.646 165.706 229.123C172.066 238.161 157.456 295 157.456 295" fill="#0C0042"></path><path d="M183.811 276.131L169.566 280.926L134.402 229.545C134.402 229.545 153.49 214.342 162.008 220.999C174.491 231.328 183.809 276.131 183.809 276.131" fill="#0C0042"></path><path d="M129.573 160.434C129.573 160.434 116.968 167.693 109.707 162.152C108.345 161.11 110.853 158.712 108.181 155.463C105.45 152.149 100.545 144.278 100.728 139.986C100.893 136.119 104.82 133.644 109.885 127.5C114.434 122.006 113.514 116.27 123.633 116.29C126.974 116.29 130.459 118.609 136.814 122.023C146.061 126.993 154.537 134.93 141.399 146.48C136.233 141.509 129.366 151.45 129.366 151.45C129.366 151.45 125.37 151.715 124.973 152.791C124.18 154.873 129.563 160.437 129.563 160.437" fill="#0C0042"></path><path d="M175.352 147.533L171.488 145.164L176.085 131.972V138.755L178.1 142.145L175.352 147.533Z" fill="#F8AC8F"></path><path d="M135.028 229.025C135.028 229.025 116.756 249.061 82.7578 235.072C88.6229 207.257 99.1439 187.083 109.284 178.477C115.096 173.175 121.706 172.015 129.574 172.015C131.962 172.015 136.706 174.646 137.914 181.526C141.12 199.778 137.201 206.945 137.201 206.945L135.028 229.025Z" fill="#2CBCFA"></path><path d="M163.672 216.626V210.662L172.036 208.647L171.39 211.464L169.62 214.847L163.672 216.626Z" fill="#F8AC8F"></path><path d="M137.203 206.94L163.669 209.956V217.708C163.669 217.708 137.776 227.191 129.67 224.17C119.649 220.434 109.367 192.332 120.133 177.421C123.058 173.372 133.077 166.357 136.706 180.667C141.263 198.633 137.203 206.942 137.203 206.942" fill="#2CBCFA"></path><path d="M201.442 25.9951H333.818C335.36 25.9949 336.888 26.2987 338.314 26.8891C339.739 27.4795 341.034 28.3449 342.125 29.4361C343.217 30.5272 344.082 31.8226 344.673 33.2484C345.263 34.6742 345.567 36.2023 345.568 37.7456V113.6C345.567 115.144 345.263 116.672 344.673 118.098C344.082 119.523 343.217 120.819 342.125 121.91C341.034 123.001 339.739 123.867 338.314 124.457C336.888 125.047 335.36 125.351 333.818 125.351H237.351L219.889 141.423V125.351H201.442C198.327 125.351 195.339 124.113 193.136 121.909C190.933 119.706 189.695 116.717 189.695 113.6V37.7589C189.694 36.2147 189.996 34.6853 190.586 33.2581C191.175 31.8309 192.04 30.534 193.131 29.4414C194.222 28.3489 195.518 27.4822 196.944 26.8908C198.37 26.2995 199.898 25.9951 201.442 25.9951Z" fill="#0D3BFB"></path><path d="M213.309 53.529H321.947V47.1368H213.309V53.529Z" fill="white"></path><path d="M213.309 71.1102H321.947V64.718H213.309V71.1102Z" fill="white"></path><path d="M213.309 88.6877H321.947V82.2955H213.309V88.6877Z" fill="white"></path><path d="M213.309 104.672H261.958V98.2794H213.309V104.672Z" fill="white"></path><path d="M255.3 251.81C256.198 249.86 256.796 247.785 257.073 245.656C257.036 243.569 253.152 244.936 253.152 244.936C253.152 244.936 252.682 239.538 251.208 237.559C249.733 235.581 249.949 237.596 250.56 240.51C251.171 243.425 250.991 242.848 250.991 242.848C250.991 242.848 248.294 238.64 246.136 238.098C243.978 237.556 249.516 244.038 249.516 244.038C249.051 244.195 248.648 244.496 248.364 244.896C248.079 245.297 247.929 245.777 247.933 246.268C247.625 246.507 247.383 246.821 247.232 247.181C247.081 247.541 247.025 247.933 247.07 248.321C247.07 248.321 246.063 251.199 251.28 253.934C256.498 256.67 255.309 251.81 255.309 251.81" fill="#F7AB8F"></path><path d="M353.71 437.843C353.71 443.454 326.687 448 293.347 448C260.006 448 232.988 443.454 232.988 437.843C232.988 432.233 260.011 427.687 293.347 427.687C326.682 427.687 353.707 432.233 353.707 437.843" fill="#C6D1EA"></path><path fill-rule="evenodd" clip-rule="evenodd" d="M357.529 181.32L359.646 181.651L350.761 237.73L348.645 237.399L357.529 181.32Z" fill="#472D87"></path><path d="M306.746 240.329C313.54 243.661 319.876 247.854 325.598 252.806C325.598 252.806 332.408 258.467 333.849 260.096L346.513 240.711L350.733 243.302C350.733 243.302 342.675 267.103 334.137 269.315C325.598 271.527 313.125 259.334 313.125 259.334L306.746 240.329Z" fill="#F7AB8F"></path><path d="M350.398 243.784C350.398 243.784 354.19 239.993 354.86 237.931C355.531 235.868 353.997 234.956 354.044 234.188C354.099 233.246 353.79 232.319 353.181 231.598C352.606 231.164 351.934 229.389 350.973 228.957C350.206 228.667 349.422 228.428 348.624 228.24C348.096 228.046 348.432 229.964 350.016 230.539C349.335 230.407 348.63 230.545 348.05 230.925C347.329 231.548 348.48 231.644 348.48 232.604C348.48 233.563 345.267 236.249 346.514 240.714C347.761 245.179 350.398 243.784 350.398 243.784Z" fill="#F7AB8F"></path><path d="M316.48 283.843L298.383 283.099L295.756 282.985C294.791 276.149 292.548 269.557 289.144 263.551C286.675 259.047 285.27 254.036 285.037 248.904C284.931 247.06 285.053 245.21 285.399 243.395C292.878 235.631 306.846 240.517 306.846 240.517C310.41 243.655 313.087 247.676 314.609 252.175C317.484 260.098 316.48 283.843 316.48 283.843Z" fill="#0C0042"></path><path d="M298.744 281.837C298.597 282.209 298.451 282.571 298.292 282.909L295.663 282.795C294.699 275.96 292.457 269.368 289.053 263.363C286.584 258.858 285.179 253.847 284.945 248.715L291.748 243.353C292.019 248.407 292.649 253.434 293.633 258.398C295.234 266.207 304.233 267.471 298.744 281.837Z" fill="#0C0042"></path><path d="M327.54 425.671C326.462 422.504 325.387 402.865 325.387 402.865H325.374C324.449 387.576 323.386 368.578 323.495 363.929C323.645 359.506 323.452 355.078 322.917 350.686L308.145 349.917L311.598 362.106C310.254 372.512 311.17 383.086 314.285 393.105C315.475 396.592 316.487 400.079 317.344 403.377H317.294C317.294 403.377 320.569 421.048 320.926 425.579C321.284 430.111 320.43 431.047 320.43 431.047C322.111 431.895 323.741 432.84 325.312 433.877C327.04 435.1 335.747 435.534 336.897 434.374C338.046 433.214 328.615 428.832 327.542 425.666" fill="#F7AB8F"></path><path d="M321.065 427.47C320.33 429.382 319.823 431.375 319.554 433.406C319.465 434.122 319.388 434.669 319.344 435.09C319.296 435.461 319.397 435.836 319.625 436.133C319.852 436.43 320.189 436.624 320.559 436.674C322.443 436.949 324.341 437.108 326.244 437.151C329.159 437.151 329.409 438.476 334.448 438.23C339.486 437.983 342.469 436.684 342.362 435.782C342.254 434.881 332.397 430.421 332.397 430.421C332.397 430.421 331.713 431.899 329.015 431.899C326.317 431.899 322.108 430.638 321.065 427.472" fill="#0C0042"></path><path d="M270.947 398.309C280.461 388.287 293.924 373.86 296.241 370.079C299.885 364.131 301.045 348.007 301.045 348.007L284.16 347.239L285.982 366.24C273.737 375.779 258.858 401.697 258.101 403.023C256.733 404.806 255.545 406.299 254.806 407.125C251.775 410.517 250.5 410.535 250.5 410.535C251.055 412.334 251.505 414.164 251.847 416.016C252.155 418.11 257.851 424.71 259.479 424.748C261.107 424.786 257.776 414.934 259.322 411.967C260.367 409.96 266.856 402.758 270.952 398.302" fill="#F7AB8F"></path><path d="M309.123 209.664C310.88 210.776 312.245 212.412 313.025 214.341C313.804 216.269 313.959 218.394 313.467 220.416C312.485 226.347 315.067 227.436 315.067 227.436C315.067 227.436 313.949 232.551 310.004 234.454C306.059 236.358 303.667 234.559 303.667 234.559C303.667 234.559 307.63 240.979 307.66 241.199C308.184 245.08 296.318 240.131 296.318 240.131C296.318 240.131 296.294 233.818 295.453 232.13C294.612 230.441 287.68 223.227 291.975 215.639C296.27 208.05 304.339 206.649 309.114 209.664" fill="#F7AB8F"></path><path d="M310.272 217.226C306.391 218.015 304.518 217.586 303.865 219.889C303.213 222.192 303.221 223.7 301.712 224.213C301.46 223.817 301.063 223.535 300.606 223.427C300.148 223.319 299.667 223.393 299.264 223.635C298.105 224.298 297.923 226.988 299.163 228.49C299.553 228.98 300.098 229.322 300.708 229.46C300.708 229.46 300.347 238.454 295.382 241.693C290.416 244.932 283.943 242.777 279.194 247.02C274.446 251.263 266.818 251.049 264.37 245.295C263.922 244.488 263.644 243.598 263.553 242.68C263.461 241.762 263.559 240.834 263.839 239.955C264.615 238.026 266.692 236.774 269.119 235.081C273.225 232.201 270.482 230.542 273.361 228.377C276.24 226.211 280.625 227.089 282.433 226.006C284.24 224.922 286.752 223.189 286.966 221.4C286.966 221.4 288.185 214.133 291.209 212.121C294.234 210.11 296.818 209.457 298.113 206.218C298.677 204.64 299.84 203.347 301.35 202.621C302.859 201.894 304.595 201.792 306.179 202.336C309.34 203.635 308.188 205.79 310.062 205.79C311.354 205.759 312.616 206.192 313.618 207.009C314.62 207.826 315.297 208.975 315.528 210.247C316.531 213.927 314.153 216.444 310.27 217.234" fill="#292570"></path><path d="M279.115 250.047C281.634 243.713 286.6 240.041 290.124 241.552C293.649 243.063 292.138 249.974 287.971 257.316C283.804 264.657 274.012 276.751 268.686 278.479C263.361 280.207 251.273 253.932 251.273 253.932L255.227 250.832L269.187 268.892C272.833 262.789 276.147 256.494 279.115 250.034" fill="#F7AB8F"></path><path d="M329.823 353.955L286.669 349.758L266.688 347.816C268.415 300.212 296.429 281.602 296.429 281.602L298.747 281.838L316.392 283.66C325.216 306.651 329.83 353.961 329.83 353.961" fill="#188EF8"></path><path d="M366.633 184.332H350.511C350.22 184.332 349.934 184.252 349.687 184.099C349.439 183.947 349.238 183.729 349.106 183.469L345.959 177.264C345.837 177.024 345.779 176.756 345.79 176.487C345.801 176.218 345.881 175.956 346.022 175.726C346.163 175.496 346.361 175.307 346.596 175.175C346.831 175.044 347.096 174.974 347.365 174.974H363.486C363.778 174.975 364.063 175.056 364.312 175.208C364.56 175.361 364.761 175.579 364.893 175.839L368.04 182.044C368.161 182.285 368.22 182.552 368.209 182.821C368.198 183.09 368.118 183.352 367.977 183.582C367.836 183.811 367.638 184.001 367.403 184.132C367.168 184.264 366.903 184.333 366.633 184.332Z" fill="#472D87"></path><path d="M364.282 183.385H351.398C351.172 183.389 350.949 183.332 350.752 183.222C350.555 183.111 350.391 182.95 350.276 182.755L347.765 178.24C347.678 178.057 347.64 177.855 347.656 177.653C347.671 177.451 347.739 177.257 347.853 177.089C347.966 176.921 348.122 176.787 348.304 176.698C348.486 176.609 348.688 176.57 348.89 176.583H361.773C361.999 176.579 362.222 176.635 362.419 176.745C362.617 176.856 362.781 177.016 362.896 177.211L365.405 181.728C365.494 181.911 365.534 182.114 365.52 182.317C365.505 182.52 365.438 182.716 365.324 182.885C365.21 183.053 365.054 183.189 364.871 183.279C364.688 183.368 364.485 183.407 364.282 183.393" fill="#00B7D2"></path><path d="M359.991 184.152L359.345 187.355H355.789L356.329 184.261L359.991 184.152Z" fill="#472D87"></path><path d="M284.13 334.205C284.463 339.459 285.313 344.668 286.668 349.756L266.688 347.816C268.413 300.212 296.427 281.601 296.427 281.601L298.746 281.838C297.707 283.925 282.691 314.591 284.135 334.205" fill="#188EF8"></path><path d="M300.704 229.459C300.704 229.459 300.345 238.452 295.379 241.692C290.413 244.931 283.94 242.775 279.188 247.02C274.436 251.265 266.812 251.05 264.364 245.292C263.917 244.485 263.64 243.595 263.549 242.677C263.458 241.76 263.555 240.833 263.834 239.954C264.026 241.133 264.582 242.222 265.424 243.068C267.207 244.48 265.989 239.773 269.656 242.595C273.323 245.416 277.275 245.791 280.182 242.313C283.089 238.835 284.232 238.926 292.31 236.58C300.388 234.234 299.079 228.488 299.079 228.488H299.16C299.549 228.978 300.094 229.321 300.704 229.459Z" fill="#201B58"></path><path d="M253.549 408.669C251.657 409.458 249.865 410.467 248.209 411.675C247.632 412.104 247.188 412.43 246.849 412.684C246.699 412.793 246.572 412.931 246.476 413.089C246.379 413.248 246.315 413.424 246.286 413.607C246.258 413.79 246.266 413.977 246.31 414.158C246.354 414.338 246.433 414.508 246.542 414.657C247.643 416.211 248.837 417.696 250.12 419.103C252.133 421.212 251.342 422.315 255.001 425.785C258.66 429.254 261.658 430.523 262.235 429.826C262.811 429.128 259.237 418.91 259.237 418.91C259.237 418.91 257.698 419.434 255.833 417.481C253.968 415.527 251.977 411.612 253.549 408.671" fill="#0C0042"></path><path d="M586.519 283.547L586.43 283.481L586.519 283.547Z" fill="#0E356C"></path></g><path d="M596.914 346.273C601.893 343.695 607.762 343.367 613.315 344.281C616.291 344.773 619.395 345.663 621.41 347.889C623.425 350.115 623.824 354.063 621.492 355.973C619.999 356.992 618.195 357.452 616.396 357.273C612.062 357.273 607.247 356.465 603.791 359.065C601.811 360.553 600.499 363.025 598.133 363.751C596.95 364.022 595.712 363.902 594.605 363.407C593.497 362.913 592.581 362.071 591.994 361.01C590.871 358.843 590.619 356.328 591.291 353.981C591.573 352.35 592.227 350.807 593.202 349.47C594.177 348.133 595.448 347.039 596.914 346.273Z" fill="#EDF7FC"></path><path d="M585.483 324.213C588.541 328.571 594.469 327.13 597.199 324.471C599.928 321.812 601.111 317.957 602.166 314.291C604.579 305.891 607.016 297.081 605.223 288.517C604.793 285.916 603.654 283.484 601.931 281.488C601.065 280.52 599.961 279.794 598.728 279.383C597.495 278.972 596.177 278.89 594.902 279.145C591.915 279.93 590.052 282.859 588.705 285.647C584.755 293.867 582.686 302.863 582.648 311.983C582.648 316.224 583.129 320.675 585.519 324.178" fill="#EDF7FC"></path><path d="M577.141 330.469C580.444 326.533 581.077 320.804 579.601 315.884C577.926 310.993 574.94 306.657 570.967 303.349C566.452 299.333 561.2 296.234 555.503 294.223C553.296 293.332 550.921 292.932 548.544 293.051C547.355 293.113 546.199 293.465 545.177 294.078C544.156 294.691 543.301 295.545 542.687 296.566C541.058 299.729 542.617 303.442 544.339 306.523C547.302 311.935 550.686 317.106 554.46 321.987C557.506 325.912 560.997 329.789 565.637 331.558C570.276 333.327 575.091 333.128 577.551 329.907" fill="#EDF7FC"></path><path d="M585.342 389.935C585.504 389.287 585.595 388.623 585.611 387.955L586.138 382.554C586.395 379.896 586.786 377.253 587.31 374.635C588.018 371.439 588.982 368.305 590.192 365.263C591.371 362.231 592.977 359.383 594.96 356.804C596.574 354.703 598.635 352.987 600.993 351.779C602.596 350.991 604.311 350.457 606.077 350.197C606.742 350.173 607.401 350.079 608.045 349.916C607.38 349.839 606.708 349.839 606.042 349.916C604.206 350.044 602.408 350.505 600.735 351.275C598.25 352.45 596.069 354.181 594.362 356.336C592.297 358.954 590.631 361.864 589.419 364.97C588.174 368.042 587.202 371.217 586.513 374.459C585.999 377.106 585.647 379.782 585.459 382.472C585.283 384.815 585.225 386.631 585.189 387.908C585.165 388.587 585.216 389.267 585.342 389.935Z" fill="#C1C7D7"></path><path d="M585.656 385.752C585.684 385.448 585.684 385.142 585.656 384.838C585.656 384.147 585.656 383.28 585.656 382.214C585.656 379.871 585.656 376.638 585.773 372.561C585.984 364.419 586.687 355.656 588.034 343.273C589.323 331.652 591.045 318.133 592.861 309.3C593.247 307.297 593.634 305.504 594.032 303.923C594.431 302.341 594.688 300.982 594.97 299.881C595.251 298.78 595.426 298.006 595.59 297.327C595.675 297.033 595.73 296.73 595.754 296.425C595.606 296.697 595.496 296.989 595.426 297.292C595.227 297.948 594.981 298.78 594.665 299.799C594.349 300.818 593.986 302.247 593.587 303.817C593.189 305.387 592.744 307.179 592.31 309.183C590.068 319.602 588.383 330.133 587.261 340.731C585.902 353.114 585.293 364.384 585.234 372.549C585.234 376.638 585.234 379.942 585.375 382.214C585.445 383.28 585.492 384.147 585.539 384.838C585.536 385.147 585.576 385.454 585.656 385.752Z" fill="#C1C7D7"></path><path d="M585.706 364.009C585.777 363.097 585.777 362.18 585.706 361.268C585.6 359.499 585.354 356.957 584.862 353.829C584.258 350.179 583.452 346.565 582.449 343.004C581.26 338.623 579.741 334.339 577.903 330.188C574.761 322.539 570.256 315.525 564.607 309.487C563.626 308.455 562.581 307.484 561.479 306.582C560.999 306.172 560.577 305.774 560.143 305.411L558.972 304.579C558.233 304.023 557.449 303.529 556.629 303.103C559.292 305.189 561.82 307.443 564.197 309.851C569.657 315.951 574.036 322.94 577.142 330.516C578.939 334.644 580.461 338.886 581.699 343.215C582.871 347.186 583.667 350.853 584.265 353.934C584.862 357.015 585.167 359.546 585.366 361.291C585.404 362.205 585.518 363.114 585.706 364.009Z" fill="#C1C7D7"></path><path d="M563.234 399.073L565.413 428.922H603.768L605.947 399.073H563.234Z" fill="#0D3BFB"></path><path d="M610.531 387.299H559.535V399.061H610.531V387.299Z" fill="#0D3BFB"></path><path d="M559.52 427.786V431.043H561.921H609.672V427.786H559.52Z" fill="#E4E9F2"></path><path d="M564.277 436.42L561.922 430.68H607.845L605.104 436.42H564.277Z" fill="#0D3BFB"></path><path d="M605.256 408.819C605.203 408.919 605.14 409.013 605.069 409.101C604.917 409.3 604.729 409.546 604.507 409.862C603.956 410.553 603.206 411.514 602.269 412.72L602.164 412.838L602.07 412.709L596.564 405.164H596.88L591.468 412.814L591.304 413.06L591.116 412.826C589.113 410.483 586.946 407.882 584.708 405.211H585.071L584.72 405.656L578.991 412.838L578.792 413.084L578.616 412.826L573.216 405.164H573.532L566.866 412.744L566.749 412.884L566.667 412.732L564.582 409.218L564.043 408.28C563.976 408.178 563.921 408.068 563.879 407.952C563.879 407.952 563.961 408.046 564.101 408.245L564.699 409.147L566.878 412.58H566.679L573.228 404.895L573.392 404.707L573.544 404.918L578.991 412.533H578.628L584.345 405.34L584.697 404.895L584.884 404.661L585.071 404.883L591.456 412.533H591.105L596.564 404.918L596.716 404.696L596.88 404.918L602.246 412.592H602.058L604.401 409.815L605.022 409.089C605.086 408.988 605.165 408.897 605.256 408.819Z" fill="#F5F5F5" stroke="white" stroke-width="1.17151" stroke-miterlimit="10" stroke-linecap="square"></path><path d="M606.428 398.873C606.428 399.002 596.822 399.107 584.966 399.107C573.11 399.107 563.504 399.002 563.504 398.873C563.504 398.744 573.11 398.627 584.966 398.627C596.822 398.627 606.428 398.733 606.428 398.873Z" fill="#F5F5F5"></path><defs><clipPath id="clip0"><rect width="572.16" height="422" fill="white" transform="translate(55 26)"></rect></clipPath></defs></svg> 