<?xml version="1.0" encoding="UTF-8"?> <svg xmlns="http://www.w3.org/2000/svg" width="16" height="25" viewBox="0 0 16 25" fill="none"><path d="M3.95349 24.2448C5.00203 24.2448 6.00762 23.8283 6.74904 23.0869C7.49046 22.3454 7.90699 21.3399 7.90699 20.2913V16.3378H3.95349C2.90496 16.3378 1.89937 16.7544 1.15795 17.4958C0.416525 18.2372 0 19.2428 0 20.2913C0 21.3399 0.416525 22.3454 1.15795 23.0869C1.89937 23.8283 2.90496 24.2448 3.95349 24.2448Z" fill="#D3D3D3"></path><path d="M0 12.3843C0 11.3358 0.416525 10.3302 1.15795 9.5888C1.89937 8.84737 2.90496 8.43085 3.95349 8.43085H7.90699V16.3378H3.95349C2.90496 16.3378 1.89937 15.9213 1.15795 15.1799C0.416525 14.4385 0 13.4329 0 12.3843Z" fill="#EBEBEB"></path><path d="M0 4.47736C0 3.42883 0.416525 2.42324 1.15795 1.68182C1.89937 0.940392 2.90496 0.523865 3.95349 0.523865H7.90699V8.43085H3.95349C2.90496 8.43085 1.89937 8.01433 1.15795 7.2729C0.416525 6.53148 0 5.52589 0 4.47736Z" fill="#D3D3D3"></path><path d="M7.90698 0.523865H11.8605C12.909 0.523865 13.9146 0.940392 14.656 1.68182C15.3974 2.42324 15.814 3.42883 15.814 4.47736C15.814 5.52589 15.3974 6.53148 14.656 7.2729C13.9146 8.01433 12.909 8.43085 11.8605 8.43085H7.90698V0.523865Z" fill="#EBEBEB"></path><path d="M15.814 12.3843C15.814 13.1663 15.5821 13.9306 15.1477 14.5808C14.7133 15.2309 14.0958 15.7377 13.3734 16.0369C12.651 16.3361 11.8561 16.4144 11.0892 16.2619C10.3223 16.1093 9.61784 15.7328 9.06493 15.1799C8.51203 14.627 8.1355 13.9225 7.98295 13.1556C7.8304 12.3887 7.9087 11.5938 8.20793 10.8714C8.50716 10.149 9.01388 9.53155 9.66403 9.09713C10.3142 8.66272 11.0786 8.43085 11.8605 8.43085C12.909 8.43085 13.9146 8.84737 14.656 9.5888C15.3974 10.3302 15.814 11.3358 15.814 12.3843Z" fill="#D3D3D3"></path></svg> 