<?xml version="1.0" encoding="UTF-8"?> <svg xmlns="http://www.w3.org/2000/svg" width="25" height="24" viewBox="0 0 25 24" fill="none"><path fill-rule="evenodd" clip-rule="evenodd" d="M0 0V23.4249H24.3194V0H0ZM1.01269 1.00044H23.3314V22.4489H1.01269V1.00044Z" fill="#EBEBEB"></path><path fill-rule="evenodd" clip-rule="evenodd" d="M8.47703 6.93477C8.25968 8.10602 7.71134 10.0874 7.29639 11.6393H9.71696C9.43538 10.5315 8.72897 8.10602 8.49679 6.93477H8.47703Z" fill="#D3D3D3"></path><path fill-rule="evenodd" clip-rule="evenodd" d="M16.6526 9.55052C15.6646 9.55052 15.2645 10.3948 15.1707 11.2879H17.2059C17.4558 11.3081 17.7069 11.3081 17.9568 11.2879C17.9568 11.2244 17.9568 11.1659 17.9568 11.1171C17.9765 10.551 17.7098 9.55052 16.6526 9.55052Z" fill="#D3D3D3"></path><path fill-rule="evenodd" clip-rule="evenodd" d="M1.0127 1.00044V22.4489H23.3314V1.00044H1.0127ZM12.7747 16.3682H11.105C11.0718 16.373 11.038 16.3657 11.0099 16.3478C10.9817 16.3298 10.9611 16.3024 10.9519 16.2706L10.117 13.2644H6.87147L6.0712 16.2559C6.0712 16.334 6.0218 16.3682 5.91806 16.3682H4.43608C4.33728 16.3682 4.32246 16.334 4.33728 16.2169L7.21233 6.27592C7.28365 6.00849 7.3169 5.73255 7.31113 5.45605C7.31113 5.38773 7.34571 5.35357 7.39511 5.35357H9.49952C9.56868 5.35357 9.59832 5.35357 9.61808 5.45605L12.8587 16.2364C12.8735 16.3194 12.8587 16.3682 12.7747 16.3682ZM19.6116 12.464C19.6103 12.4981 19.5957 12.5304 19.5708 12.554C19.5459 12.5777 19.5127 12.5909 19.4782 12.5909C18.917 12.6478 18.3528 12.6707 17.7887 12.6592H15.1508C15.1508 14.011 15.8177 14.9236 17.354 14.9236C17.9198 14.9475 18.4842 14.851 19.0089 14.6406C19.0781 14.6064 19.1275 14.6406 19.1275 14.7089V15.9631C19.1302 16.0019 19.122 16.0408 19.1036 16.0752C19.0853 16.1097 19.0577 16.1385 19.0237 16.1583C18.3851 16.4417 17.6878 16.5722 16.9885 16.539C14.311 16.539 13.3082 14.5869 13.3082 12.4103C13.3082 10.0483 14.5481 8.11575 16.7217 8.11575C18.8953 8.11575 19.6857 9.95071 19.6857 11.4343C19.6999 11.7808 19.6751 12.1278 19.6116 12.4689V12.464Z" fill="#D3D3D3"></path></svg> 