<?xml version="1.0" encoding="UTF-8"?> <svg xmlns="http://www.w3.org/2000/svg" width="35" height="48" viewBox="0 0 35 48" fill="none"><path fill-rule="evenodd" clip-rule="evenodd" d="M11.2708 36.7001C11.2708 36.7001 9.45838 37.7547 12.5621 38.111C16.3231 38.5405 18.2442 38.4787 22.3876 37.6949C22.3876 37.6949 23.4784 38.3779 25.0011 38.9688C15.7102 42.95 3.9742 38.7385 11.2708 36.7001ZM10.1351 31.5049C10.1351 31.5049 8.1018 33.0099 11.2082 33.3311C15.226 33.746 18.3974 33.7799 23.8886 32.7233C23.8886 32.7233 24.6468 33.4929 25.84 33.9133C14.6083 37.1985 2.09917 34.172 10.1351 31.5049Z" fill="#D3D3D3"></path><path fill-rule="evenodd" clip-rule="evenodd" d="M19.7047 22.6909C21.995 25.3272 19.1043 27.6983 19.1043 27.6983C19.1043 27.6983 24.9172 24.6982 22.2474 20.9398C19.7547 17.4366 17.8426 15.6962 28.1925 9.69434C28.1921 9.69394 11.9459 13.7503 19.7047 22.6909Z" fill="#D3D3D3"></path><path fill-rule="evenodd" clip-rule="evenodd" d="M31.993 40.5428C31.993 40.5428 33.3346 41.649 30.5152 42.5044C25.1538 44.1283 8.19664 44.618 3.48641 42.569C1.79443 41.832 4.96896 40.8105 5.9677 40.5947C7.00934 40.3696 7.60378 40.4105 7.60378 40.4105C5.72087 39.0846 -4.56683 43.0146 2.37903 44.1421C21.3191 47.2131 36.9052 42.7595 31.993 40.5428ZM12.1431 26.1212C12.1431 26.1212 3.51869 28.1702 9.08948 28.915C11.4424 29.2296 16.1294 29.1571 20.4987 28.7906C24.0685 28.491 27.6517 27.8501 27.6517 27.8501C27.6517 27.8501 26.3939 28.3899 25.4826 29.0111C16.7231 31.3152 -0.195949 30.2421 4.67529 27.8868C8.79383 25.8944 12.1431 26.1212 12.1431 26.1212ZM27.6158 34.7689C36.5194 30.1433 32.4028 25.6972 29.5287 26.2963C28.826 26.4432 28.5106 26.5699 28.5106 26.5699C28.5106 26.5699 28.7728 26.1597 29.2712 25.9834C34.9562 23.9855 39.3274 31.8774 27.4383 35.0027C27.4379 35.0027 27.5749 34.8791 27.6158 34.7689Z" fill="#D3D3D3"></path><path fill-rule="evenodd" clip-rule="evenodd" d="M22.2473 0C22.2473 0 27.1772 4.93304 17.5701 12.5163C9.86564 18.6016 15.8136 22.0702 17.5677 26.0348C13.0697 21.9773 9.77037 18.4047 11.9836 15.0806C15.2329 10.2011 24.2365 7.83477 22.2473 0Z" fill="#D3D3D3"></path><path fill-rule="evenodd" clip-rule="evenodd" d="M13.0198 47.3071C21.5648 47.8535 34.6892 47.0036 35.0006 42.9595C35.0006 42.9595 34.403 44.4924 27.9378 45.7085C20.6436 47.0816 11.6455 46.9217 6.31055 46.0411C6.31055 46.0411 7.40376 46.9458 13.0198 47.3071Z" fill="#D3D3D3"></path></svg> 