<?xml version="1.0" encoding="UTF-8"?> <svg xmlns="http://www.w3.org/2000/svg" width="25" height="25" viewBox="0 0 25 25" fill="none"><path d="M0.390137 0.523888V24.2449H24.719V0.523888H0.390137ZM1.37851 1.53697H23.6812V23.2565H1.40322L1.37851 1.53697Z" fill="#EBEBEB"></path><path d="M15.3442 13.0021C15.3442 14.8701 16.214 15.6164 17.3506 15.6164C17.5876 15.6228 17.8237 15.586 18.0474 15.5076V10.4867C17.8608 10.4119 17.6602 10.3781 17.4594 10.3879C16.2041 10.4076 15.3442 11.396 15.3442 13.0021Z" fill="#D3D3D3"></path><path d="M1.40332 1.53695V23.2565H23.706V1.53695H1.40332ZM12.8388 17.1088H11.0746C11.0292 17.1146 10.9832 17.1044 10.9444 17.0801C10.9057 17.0558 10.8766 17.0187 10.8621 16.9754C10.2031 15.6345 9.54422 14.2458 8.88531 12.8094C8.27746 14.1684 7.60536 15.6509 6.95798 16.9852C6.94283 17.0206 6.91717 17.0505 6.88446 17.0709C6.85175 17.0912 6.81358 17.101 6.77513 17.0989H5.09489C4.99111 17.0989 4.98123 17.0149 5.03065 16.9556L7.80304 11.6134L5.1196 6.30091C5.10617 6.28821 5.09704 6.27163 5.09347 6.25349C5.0899 6.23535 5.09207 6.21654 5.09968 6.19969C5.10729 6.18284 5.11996 6.16878 5.13593 6.15947C5.1519 6.15015 5.17038 6.14604 5.18879 6.14772H6.93327C7.03705 6.14772 7.08647 6.17243 7.11612 6.26138C7.75362 7.61051 8.401 8.93987 9.01379 10.2939C9.60188 8.95964 10.2493 7.61051 10.867 6.28115C10.9164 6.20208 10.9461 6.14772 11.0498 6.14772H12.6807C12.7647 6.14772 12.7943 6.21196 12.74 6.30091L10.0664 11.4405L12.903 16.9457C12.9525 17.0248 12.9179 17.1088 12.8388 17.1088ZM19.8859 16.6146C19.0738 17.0011 18.1859 17.202 17.2865 17.2027C15.0874 17.2027 13.5158 15.8437 13.5158 13.091C13.5158 10.7288 15.0379 8.88057 17.5336 8.88057C17.708 8.87052 17.8829 8.87052 18.0574 8.88057V6.26138C18.0587 6.23472 18.0702 6.20958 18.0895 6.19117C18.1088 6.17276 18.1345 6.16251 18.1612 6.16254H19.792C19.876 6.16254 19.8958 6.19219 19.8958 6.24161V15.5076C19.8902 15.8378 19.9067 16.168 19.9452 16.496C19.9452 16.5701 19.9452 16.58 19.8859 16.6097V16.6146Z" fill="#D3D3D3"></path></svg> 