<?xml version="1.0" encoding="UTF-8"?> <svg xmlns="http://www.w3.org/2000/svg" width="27" height="25" viewBox="0 0 27 25" fill="none"><path d="M5.71774 1.3047L13.1058 0.523888L20.4939 1.3047L26.2117 8.98437L13.1058 24.2449L0 8.98437L5.71774 1.3047Z" fill="#EBEBEB"></path><path d="M5.30757 8.9844L13.1058 24.2449L0 8.9844H5.30757Z" fill="#D3D3D3"></path><path d="M20.9045 8.9844L13.1062 24.2449L26.212 8.9844H20.9045Z" fill="#D3D3D3"></path><path opacity="0.6" d="M5.30762 8.9844H20.9042L13.1059 24.2449L5.30762 8.9844Z" fill="#D3D3D3"></path><path d="M13.1059 0.523911L5.71779 1.30473L5.30762 8.98439L13.1059 0.523911Z" fill="#D3D3D3"></path><path d="M13.1062 0.523911L20.4943 1.30473L20.9045 8.98439L13.1062 0.523911Z" fill="#D3D3D3"></path><path opacity="0.6" d="M13.1059 0.523911L5.30762 8.98439H20.9042L13.1059 0.523911Z" fill="#EBEBEB"></path></svg> 