<?xml version="1.0" encoding="UTF-8"?> <svg xmlns="http://www.w3.org/2000/svg" width="24" height="24" viewBox="0 0 24 24" fill="none"><path d="M17.9543 5.90203H6.50332C5.93077 5.90203 5.54907 5.52033 5.54907 4.94778V3.99353H18.9085V4.94778C18.9085 5.52033 18.5269 5.90203 17.9543 5.90203Z" stroke="#008BFF" stroke-width="0.954248" stroke-miterlimit="10" stroke-linecap="round"></path><path d="M17.0002 12.5817C14.6145 14.9673 12.2289 15.4445 12.2289 15.4445C12.2289 15.4445 9.84329 14.9673 7.45767 12.5817L6.50342 5.90198H17.9544L17.0002 12.5817Z" stroke="#008BFF" stroke-width="0.954248" stroke-miterlimit="10" stroke-linecap="round"></path><path d="M14.1375 19.2615H10.3205C9.74791 19.2615 9.36621 18.8798 9.36621 18.3073C9.36621 17.7347 9.74791 17.353 10.3205 17.353H14.1375C14.71 17.353 15.0917 17.7347 15.0917 18.3073C15.0917 18.8798 14.71 19.2615 14.1375 19.2615Z" stroke="#008BFF" stroke-width="0.954248" stroke-miterlimit="10" stroke-linecap="round"></path><path d="M13.1832 15.4445H11.2747V17.353H13.1832V15.4445Z" stroke="#008BFF" stroke-width="0.954248" stroke-miterlimit="10" stroke-linecap="round"></path><path d="M17.0957 11.6275L17.9545 7.81055H18.3362C19.0042 7.81055 19.4813 8.57395 19.195 9.14649L17.0957 11.6275Z" stroke="#008BFF" stroke-width="0.954248" stroke-miterlimit="10" stroke-linecap="round"></path><path d="M20.8171 19.2615H3.64062" stroke="#008BFF" stroke-width="0.954248" stroke-miterlimit="10" stroke-linecap="round"></path><path d="M7.36208 11.5321L6.50326 7.81055H6.12156C5.45358 7.81055 4.97646 8.57395 5.26273 9.14649L7.36208 11.5321Z" stroke="#008BFF" stroke-width="0.954248" stroke-miterlimit="10" stroke-linecap="round"></path><path d="M12.2288 7.90601L12.8014 9.14653L14.1373 9.33738L13.1831 10.1962L13.3739 11.5321L12.2288 10.9596L11.0837 11.5321L11.2746 10.1962L10.3203 9.33738L11.6563 9.14653L12.2288 7.90601Z" fill="#008BFF"></path></svg> 