<?xml version="1.0" encoding="UTF-8"?> <svg xmlns="http://www.w3.org/2000/svg" width="24" height="24" viewBox="0 0 24 24" fill="none"><path d="M18.7234 8.33967C18.552 8.14726 18.3177 8.02212 18.0624 7.98659V7.98606L14.0759 7.43536L12.4984 3.66581C12.268 3.11405 11.634 2.8535 11.0823 3.08385C10.8192 3.19368 10.6101 3.40278 10.5003 3.66581L8.92275 7.43536L4.93624 7.98606C4.3423 8.06873 3.92783 8.61729 4.0105 9.21123C4.04603 9.46647 4.17117 9.70075 4.36358 9.87219L7.36713 12.5506L6.74999 16.7535C6.68314 17.1802 6.87915 17.6054 7.2471 17.8318C7.60988 18.0638 8.07651 18.0551 8.43041 17.8098L11.4993 15.7228L14.5682 17.8119C15.0634 18.148 15.7373 18.0191 16.0735 17.5239C16.2262 17.2988 16.2887 17.0246 16.2487 16.7556L15.6315 12.5511L18.6351 9.87269C19.0828 9.47375 19.1224 8.78738 18.7234 8.33967ZM14.7027 11.9458C14.5683 12.0658 14.5033 12.2454 14.5296 12.4236L15.1724 16.9233L11.802 14.6317C11.6203 14.5082 11.3816 14.5082 11.1999 14.6317L7.80957 16.9094L8.46898 12.4215C8.49459 12.2439 8.42962 12.0654 8.29594 11.9458L5.08188 9.04883L9.37159 8.4569C9.55941 8.431 9.71952 8.30775 9.79262 8.13282L11.5057 4.07133C11.5077 4.07372 11.5091 4.07645 11.51 4.07937L13.2054 8.13069C13.2785 8.30561 13.4387 8.42887 13.6265 8.45476L17.9215 9.07294L14.7027 11.9458Z" fill="#008BFF"></path><rect x="13" y="20" width="5" height="1" rx="0.5" fill="#008BFF"></rect></svg> 