<?xml version="1.0" encoding="UTF-8"?> <svg xmlns="http://www.w3.org/2000/svg" width="150" height="40" viewBox="0 0 150 40" fill="none"><path d="M49.8887 26.1248C48.003 26.1248 46.4145 25.5055 45.148 24.2406C43.8816 22.9757 43.2638 21.3857 43.2638 19.4736C43.2638 17.5616 43.8831 15.9715 45.148 14.7066C46.4129 13.4417 48.003 12.7946 49.8887 12.7946C51.9618 12.7946 53.6865 13.5485 55.0319 15.0828L57.3218 13.1181C55.3555 10.8825 52.8783 9.75075 49.8903 9.75075C47.1143 9.75384 44.744 10.6673 42.8056 12.5252C40.8935 14.383 39.9243 16.7054 39.9243 19.4736C39.9243 22.2418 40.8935 24.5626 42.8056 26.4221C44.7455 28.2521 47.1143 29.1686 49.8887 29.1686C51.3061 29.1758 52.7079 28.8735 53.9963 28.2828C55.2847 27.6921 56.4286 26.8272 57.3481 25.7486L55.0861 23.7823C53.767 25.3445 52.0206 26.1248 49.8887 26.1248Z" fill="#0C0042"></path><path d="M62.7576 17.2922V15.2795H59.5527V28.8528H62.7576V21.7093C62.7576 19.4737 64.185 18.0725 66.4191 18.0725C66.8714 18.0733 67.3226 18.1184 67.7661 18.2072V15.0829C67.4463 15.0254 67.1218 14.9984 66.7969 15.0024C64.8848 15.0024 63.4032 15.8647 62.7576 17.2922Z" fill="#0C0042"></path><path d="M78.9195 23.163C78.9195 25.2098 77.7614 26.2332 75.9577 26.2332C74.1541 26.2332 72.9944 25.2361 72.9944 23.1893V15.2717H69.7432V23.4587C69.7432 25.3166 70.3346 26.71 71.4927 27.7148C72.6507 28.7196 74.1246 29.1949 75.9361 29.1949C77.7475 29.1949 79.2214 28.7103 80.4074 27.7148C81.5933 26.7193 82.1847 25.264 82.1847 23.3798V15.2717H78.9334L78.9195 23.163Z" fill="#0C0042"></path><path d="M91.0634 20.8469C90.5246 20.658 89.7706 20.3824 89.3603 20.2818C88.9821 20.1447 88.6134 19.9828 88.2565 19.7972C87.8802 19.5541 87.6372 19.311 87.6372 18.8543C87.6372 18.1266 88.2828 17.642 89.2798 17.642C90.4379 17.642 91.3266 18.0182 91.9118 18.7722L93.7155 16.8617C92.6921 15.5411 91.2383 14.8676 89.3263 14.8676C87.9793 14.8676 86.8491 15.2454 85.9063 15.9715C84.9897 16.6992 84.533 17.6745 84.533 18.9348C84.533 20.8732 85.6911 21.9771 87.8725 22.7589C88.337 22.9478 89.1374 23.1893 89.5415 23.324C89.9796 23.4525 90.4038 23.6242 90.8079 23.8365C91.2724 24.078 91.5821 24.4558 91.5821 24.9125C91.5821 25.7485 90.8544 26.3942 89.1575 26.3942C87.5149 26.3942 86.1958 25.668 85.5765 24.6911L83.5034 26.4421C84.3642 28.1452 86.3847 29.1887 89.1049 29.1887C92.7943 29.1887 94.6785 27.385 94.6785 24.88C94.6986 22.9478 93.5684 21.7355 91.0634 20.8469Z" fill="#0C0042"></path><path d="M100.646 9.7523H97.4128V15.2717H95.3413V18.2056H97.4128V28.8466H100.646V18.2056H103.901V15.2717H100.646V9.7523Z" fill="#0C0042"></path><path d="M109.858 9.7523H106.492V28.8466H117.315V25.8028H109.858V9.7523Z" fill="#0C0042"></path><path d="M129.618 17.238C129.153 15.9189 127.517 14.976 125.283 14.976C124.375 14.9581 123.474 15.1318 122.639 15.4858C121.803 15.8398 121.052 16.3662 120.433 17.0305C119.141 18.3774 118.495 20.0464 118.495 22.0669C118.495 24.0873 119.141 25.7563 120.433 27.1296C121.058 27.7825 121.811 28.2986 122.646 28.645C123.48 28.9915 124.378 29.1608 125.281 29.1423C127.517 29.1423 129.152 28.201 129.616 26.8803V28.8466H132.847V15.2717H129.618V17.238ZM128.647 25.0209C128.262 25.4072 127.803 25.7114 127.298 25.915C126.792 26.1186 126.25 26.2173 125.705 26.2053C125.169 26.2163 124.637 26.1168 124.141 25.913C123.646 25.7092 123.197 25.4056 122.824 25.0209C122.07 24.2468 121.694 23.2435 121.694 22.0591C121.694 20.8747 122.07 19.8777 122.824 19.0958C123.198 18.7098 123.649 18.4053 124.146 18.2015C124.644 17.9977 125.178 17.899 125.716 17.9114C126.261 17.8994 126.803 17.9982 127.308 18.2018C127.814 18.4054 128.273 18.7095 128.658 19.0958C129.434 19.8863 129.87 20.9501 129.87 22.0584C129.87 23.1666 129.434 24.2305 128.658 25.0209H128.647Z" fill="#0C0042"></path><path d="M148.038 17.0212C146.746 15.651 145.129 14.976 143.216 14.976C140.982 14.976 139.345 15.9173 138.881 17.2364V9.75384H135.648V28.8466H138.876V26.8788C139.331 28.1979 140.975 29.1423 143.211 29.1423C145.125 29.1423 146.741 28.4673 148.034 27.1296C149.354 25.7563 150 24.0858 150 22.0669C150 20.048 149.359 18.3697 148.038 17.0212ZM145.64 25.0225C145.274 25.4089 144.831 25.714 144.339 25.918C143.848 26.1221 143.319 26.2205 142.787 26.2068C142.239 26.2157 141.695 26.1155 141.186 25.9122C140.677 25.7089 140.213 25.4064 139.822 25.0225C139.062 24.2232 138.638 23.1623 138.638 22.0591C138.638 20.956 139.062 19.8951 139.822 19.0958C140.213 18.7119 140.677 18.4094 141.186 18.2061C141.695 18.0028 142.239 17.9026 142.787 17.9114C143.319 17.8978 143.848 17.9962 144.339 18.2003C144.831 18.4043 145.274 18.7094 145.64 19.0958C146.414 19.87 146.8 20.8748 146.8 22.0591C146.8 23.2435 146.421 24.2391 145.64 25.0225Z" fill="#0C0042"></path><path d="M30.1161 27.4439L0 39.9195V24.9497L12.0468 19.9598L30.1161 27.4439Z" fill="url(#paint0_linear)"></path><path d="M30.1162 12.4741V27.4439L12.0469 19.9597L30.1162 12.4741Z" fill="url(#paint1_linear)"></path><path d="M30.1161 12.4741L12.0468 19.9597L0 14.9698V0L30.1161 12.4741Z" fill="url(#paint2_linear)"></path><defs><linearGradient id="paint0_linear" x1="8.00124" y1="43.2327" x2="16.8215" y2="21.9384" gradientUnits="userSpaceOnUse"><stop stop-color="#D770FF"></stop><stop offset="1" stop-color="#7400FF"></stop></linearGradient><linearGradient id="paint1_linear" x1="21.0808" y1="16.2161" x2="26.3742" y2="28.9952" gradientUnits="userSpaceOnUse"><stop stop-color="#00D1FF"></stop><stop offset="1" stop-color="#0096FF"></stop></linearGradient><linearGradient id="paint2_linear" x1="8.00124" y1="-3.31475" x2="16.823" y2="17.9811" gradientUnits="userSpaceOnUse"><stop stop-color="#00DFDF"></stop><stop offset="1" stop-color="#49FCE3"></stop></linearGradient></defs></svg> 