<?xml version="1.0" encoding="UTF-8"?> <svg xmlns="http://www.w3.org/2000/svg" width="29" height="29" viewBox="0 0 29 29" fill="none"><path d="M27.1919 21.751L26.1538 11.3699C26.1322 11.2514 26.072 11.1435 25.9825 11.063C25.8931 10.9825 25.7794 10.9339 25.6594 10.9249H21.8036C21.6835 10.9339 21.5699 10.9825 21.4805 11.063C21.391 11.1435 21.3308 11.2514 21.3092 11.3699L20.3205 21.3061H19.3319L18.2937 5.9321C18.2814 5.80974 18.224 5.69635 18.1326 5.61408C18.0412 5.53182 17.9224 5.48657 17.7994 5.48719H12.3616C12.2387 5.48657 12.1199 5.53182 12.0285 5.61408C11.9371 5.69635 11.8796 5.80974 11.8673 5.9321L11.1258 16.9065L7.96201 14.4842C7.88044 14.4112 7.77484 14.3709 7.66541 14.3709C7.55597 14.3709 7.45037 14.4112 7.3688 14.4842L0.200851 19.922C0.13628 19.9649 0.0840628 20.024 0.0493774 20.0934C0.0146921 20.1628 -0.0012562 20.24 0.00311424 20.3174V27.7325C-0.00483501 27.7994 0.00248186 27.8671 0.0245141 27.9307C0.0465464 27.9943 0.0827197 28.0521 0.13031 28.0997C0.177901 28.1473 0.235669 28.1835 0.299264 28.2055C0.362859 28.2275 0.430623 28.2348 0.497456 28.2269H26.6975C26.7644 28.2348 26.8321 28.2275 26.8957 28.2055C26.9593 28.1835 27.0171 28.1473 27.0647 28.0997C27.1123 28.0521 27.1485 27.9943 27.1705 27.9307C27.1925 27.8671 27.1998 27.7994 27.1919 27.7325V21.8005V21.751ZM22.2485 11.9136H25.2145L26.1538 21.3061H21.3092L22.2485 11.9136ZM12.8066 6.47587H17.3545L18.3432 21.3061H15.3277V20.3174C15.3321 20.24 15.3161 20.1628 15.2814 20.0934C15.2467 20.024 15.1945 19.9649 15.13 19.922L12.065 17.5986L12.8066 6.47587ZM0.991797 20.5646L7.66541 15.5223L14.339 20.5646V27.2382H10.3843V22.7891C10.3922 22.7223 10.3849 22.6545 10.3629 22.5909C10.3409 22.5273 10.3047 22.4696 10.2571 22.422C10.2095 22.3744 10.1517 22.3382 10.0881 22.3162C10.0245 22.2942 9.95677 22.2868 9.88994 22.2948H5.93521C5.86838 22.2868 5.80061 22.2942 5.73702 22.3162C5.67342 22.3382 5.61566 22.3744 5.56807 22.422C5.52047 22.4696 5.4843 22.5273 5.46227 22.5909C5.44024 22.6545 5.43292 22.7223 5.44087 22.7891V27.2382H0.991797V20.5646ZM6.42955 27.2382V23.2835H9.3956V27.2382H6.42955ZM26.2032 27.2382H15.3277V22.2948H26.2032V27.2382ZM15.2288 1.28529C15.5912 1.12558 15.8879 0.846397 16.0692 0.494341L15.2288 0C15.1173 0.198501 14.9436 0.354829 14.7345 0.444907C14.3743 0.607887 14.0786 0.886174 13.8941 1.23585C13.6838 1.59482 13.5809 2.00657 13.5975 2.42227C13.6342 2.64155 13.5996 2.86682 13.4986 3.06492C13.3846 3.24997 13.2099 3.38974 13.0043 3.46039C12.6365 3.65393 12.3287 3.94459 12.1145 4.30077L13.0043 4.79511C13.097 4.60007 13.2542 4.44295 13.4492 4.3502C13.8257 4.19316 14.1389 3.91476 14.339 3.55926C14.5661 3.20828 14.6542 2.78529 14.5862 2.37284C14.5644 2.1482 14.6165 1.92259 14.7345 1.73019C14.8488 1.53391 15.0216 1.37833 15.2288 1.28529ZM19.1341 1.58189C19.502 1.38835 19.8097 1.0977 20.0239 0.741512L19.1341 0.247171C19.0414 0.442213 18.8843 0.599337 18.6892 0.692078C18.3127 0.849119 17.9995 1.12752 17.7994 1.48302C17.5979 1.84403 17.5117 2.25802 17.5522 2.66944C17.5705 2.89384 17.5187 3.11839 17.4039 3.31209C17.3532 3.4085 17.2831 3.49339 17.1981 3.56144C17.113 3.62949 17.0148 3.67924 16.9096 3.70756C16.5584 3.90629 16.2679 4.19678 16.0692 4.54794L16.9096 5.04228C17.0211 4.84378 17.1948 4.68745 17.4039 4.59737C17.7641 4.43439 18.0598 4.15611 18.2443 3.80643C18.4546 3.44746 18.5575 3.03571 18.5409 2.62001C18.5042 2.40073 18.5389 2.17547 18.6398 1.97737C18.7538 1.79231 18.9285 1.65254 19.1341 1.58189Z" fill="#008BFF"></path><path d="M24.6212 6.72279C24.9836 6.56308 25.2802 6.2839 25.4616 5.93184L24.6212 5.4375C24.5097 5.636 24.336 5.79233 24.1268 5.88241C23.7666 6.04539 23.471 6.32367 23.2865 6.67335C23.0762 7.03232 22.9732 7.44407 22.9899 7.85977C23.0266 8.07905 22.9919 8.30432 22.891 8.50242C22.7769 8.68747 22.6022 8.82724 22.3966 8.89789C22.0288 9.09143 21.7211 9.38209 21.5068 9.73827L22.3966 10.2326C22.4894 10.0376 22.6465 9.88045 22.8416 9.7877C23.2181 9.63066 23.5313 9.35226 23.7314 8.99676C23.9584 8.64578 24.0466 8.22279 23.9785 7.81034C23.9568 7.5857 24.0089 7.36009 24.1268 7.1677C24.2411 6.97141 24.414 6.81583 24.6212 6.72279ZM27.0929 6.12958C26.7164 6.28662 26.4032 6.56502 26.2031 6.92052C26.0016 7.28153 25.9154 7.69552 25.9559 8.10694C25.9742 8.33134 25.9224 8.55589 25.8076 8.74959C25.7569 8.846 25.6868 8.93089 25.6017 8.99894C25.5167 9.06699 25.4185 9.11674 25.3133 9.14506C24.9621 9.34379 24.6716 9.63428 24.4729 9.98544L25.3133 10.4798C25.4248 10.2813 25.5985 10.125 25.8076 10.0349C26.1678 9.8719 26.4635 9.59361 26.648 9.24393C26.8583 8.88496 26.9612 8.47321 26.9446 8.05751C26.9079 7.83824 26.9425 7.61297 27.0435 7.41487C27.1575 7.22981 27.3322 7.09004 27.5378 7.01939C27.9056 6.82585 28.2134 6.5352 28.4276 6.17901L27.5378 5.68467C27.4451 5.87971 27.2879 6.03684 27.0929 6.12958Z" fill="#008BFF"></path></svg> 