<?xml version="1.0" encoding="UTF-8"?> <svg xmlns="http://www.w3.org/2000/svg" width="33" height="28" viewBox="0 0 33 28" fill="none"><mask id="mask0_175_1199" style="mask-type:alpha" maskUnits="userSpaceOnUse" x="0" y="0" width="33" height="28"><rect width="33" height="28" fill="#C4C4C4"></rect></mask><g mask="url(#mask0_175_1199)"><path d="M17.3158 14.6143C17.3158 14.6143 26.4526 18.6932 26.7789 20.1616C27.1053 21.63 27.4316 24.2406 27.4316 24.4037C23.6789 26.0353 19.2737 27.1774 14.2158 27.1774C9.1579 27.1774 4.75263 26.0353 1 24.4037C1 24.2406 1.32632 21.63 1.65263 20.1616C1.97895 18.53 11.1158 14.6143 11.1158 14.6143" stroke="#008BFF" stroke-width="1.2" stroke-miterlimit="10" stroke-linecap="round" stroke-linejoin="round"></path><path d="M8.34216 7.27252C8.34216 4.00936 10.7895 1.07251 13.8895 1.07251C14.5422 1.07251 17.1527 0.909357 17.6422 1.07251C18.1316 1.23567 17.6422 2.21462 17.9685 2.37778C19.6001 3.35673 19.7632 4.9883 19.7632 7.10936C19.7632 7.10936 20.579 7.76199 20.579 8.57778C20.579 9.39357 19.4369 10.3725 19.4369 10.3725C19.2737 11.5146 18.2948 13.4725 16.9895 14.1251C16.8264 14.1251 17.9685 16.7357 18.1316 17.062C18.4579 18.6936 14.0527 19.5094 14.0527 19.5094C14.0527 19.5094 9.64742 18.8567 9.97374 17.062C10.1369 16.7357 11.1158 14.1251 11.1158 14.1251C9.81058 13.4725 8.83163 11.5146 8.66847 10.3725C8.66847 10.3725 7.52637 9.39357 7.52637 8.57778C7.52637 7.92515 8.34216 7.27252 8.34216 7.27252Z" stroke="#008BFF" stroke-width="1.2" stroke-miterlimit="10" stroke-linecap="round" stroke-linejoin="round"></path><path d="M19.1104 22.2832H20.7419" stroke="#008BFF" stroke-width="1.2" stroke-miterlimit="10" stroke-linecap="round" stroke-linejoin="round"></path><path d="M24.4949 12.8193C24.4949 12.8193 31.3475 15.7562 31.5107 17.0614C31.837 18.2035 32.0001 20.1614 32.0001 20.1614C30.5317 20.8141 28.9001 21.3035 27.1054 21.793" stroke="#008BFF" stroke-width="1.2" stroke-miterlimit="10" stroke-linecap="round" stroke-linejoin="round"></path><path d="M22.0474 2.70435C22.5368 2.70435 24.4947 2.54119 24.821 2.70435C25.1474 2.86751 24.821 3.52014 25.1474 3.6833C26.4526 4.49909 26.4526 5.64119 26.4526 7.10961C26.4526 7.10961 27.1053 7.59909 27.1053 8.25172C27.1053 8.90435 26.2895 9.55698 26.2895 9.55698C26.1263 10.3728 25.4737 11.8412 24.4947 12.3307C24.4947 12.3307 25.1474 14.2886 25.3105 14.4517C25.6368 15.757 22.2105 16.4096 22.2105 16.4096" stroke="#008BFF" stroke-width="1.2" stroke-miterlimit="10" stroke-linecap="round" stroke-linejoin="round"></path></g></svg> 