<?xml version="1.0" encoding="UTF-8"?> <svg xmlns="http://www.w3.org/2000/svg" width="29" height="28" viewBox="0 0 29 28" fill="none"><mask id="mask0_135_2731" style="mask-type:alpha" maskUnits="userSpaceOnUse" x="0" y="0" width="29" height="28"><rect width="29" height="28" fill="#C4C4C4"></rect></mask><g mask="url(#mask0_135_2731)"><path d="M-0.0474293 16.6002C-0.0474293 16.8882 0.186289 17.122 0.474293 17.122C0.762297 17.122 0.996015 16.8882 0.996015 16.6002V1.42288C0.996015 1.18821 1.18821 0.996015 1.42288 0.996015H27.0347C27.2694 0.996015 27.4615 1.18821 27.4615 1.42288V2.84576C27.4615 3.13376 27.6953 3.36748 27.9833 3.36748C28.2713 3.36748 28.505 3.13376 28.505 2.84576V1.42288C28.505 0.612203 27.8454 -0.0474293 27.0347 -0.0474293H1.42288C0.612203 -0.0474293 -0.0474293 0.612203 -0.0474293 1.42288V16.6002ZM9.01156 27.5564H14.2288C14.5168 27.5564 14.7505 27.3227 14.7505 27.0347C14.7505 26.7467 14.5168 26.513 14.2288 26.513H11.9491C12.2197 26.1224 12.379 25.6487 12.379 25.1375V22.766C12.379 22.478 12.1453 22.2443 11.8573 22.2443C11.5693 22.2443 11.3356 22.478 11.3356 22.766V25.1375C11.3356 25.8958 10.7184 26.513 9.96015 26.513H9.01156C8.72356 26.513 8.48984 26.7467 8.48984 27.0347C8.48984 27.3227 8.72356 27.5564 9.01156 27.5564Z" fill="#008BFF" stroke="#008BFF" stroke-width="0.0948585"></path><path d="M1.42288 22.8134H13.7545C14.0425 22.8134 14.2762 22.5797 14.2762 22.2916C14.2762 22.0036 14.0425 21.7699 13.7545 21.7699H1.42288C1.18821 21.7699 0.996015 21.5777 0.996015 21.3431V19.019H13.7545C14.0425 19.019 14.2762 18.7853 14.2762 18.4973C14.2762 18.2093 14.0425 17.9756 13.7545 17.9756H0.474293C0.186289 17.9756 -0.0474293 18.2093 -0.0474293 18.4973V21.3431C-0.0474293 22.1537 0.612203 22.8134 1.42288 22.8134ZM19.446 6.68742H24.1889C24.4769 6.68742 24.7106 6.4537 24.7106 6.1657C24.7106 5.87769 24.4769 5.64398 24.1889 5.64398H19.446C19.158 5.64398 18.9243 5.8777 18.9243 6.1657C18.9243 6.4537 19.158 6.68742 19.446 6.68742ZM21.3432 25.6591H22.2918C22.5798 25.6591 22.8135 25.4254 22.8135 25.1374C22.8135 24.8494 22.5798 24.6157 22.2918 24.6157H21.3432C21.0552 24.6157 20.8214 24.8494 20.8214 25.1374C20.8214 25.4254 21.0552 25.6591 21.3432 25.6591Z" fill="#008BFF" stroke="#008BFF" stroke-width="0.0948585"></path><path d="M17.5487 27.556H26.086C27.4203 27.556 28.5049 26.4714 28.5049 25.1371V6.16541C28.5049 4.83112 27.4203 3.74652 26.086 3.74652H17.5487C16.2144 3.74652 15.1298 4.83112 15.1298 6.16541V25.1371C15.1298 26.4714 16.2144 27.556 17.5487 27.556ZM16.1733 6.16541C16.1733 5.40712 16.7904 4.78996 17.5487 4.78996H26.086C26.8443 4.78996 27.4614 5.40712 27.4614 6.16541V25.1371C27.4614 25.8954 26.8443 26.5126 26.086 26.5126H17.5487C16.7904 26.5126 16.1733 25.8954 16.1733 25.1371V6.16541Z" fill="#008BFF" stroke="#008BFF" stroke-width="0.0948585"></path></g></svg> 