<?xml version="1.0" encoding="UTF-8"?> <svg xmlns="http://www.w3.org/2000/svg" width="74" height="35" viewBox="0 0 74 35" fill="none"><path d="M46.0884 30.0102L39.6658 26.3153C39.5475 26.2483 39.449 26.1511 39.3803 26.0338C39.3116 25.9164 39.2751 25.783 39.2746 25.647V18.2572C39.2762 18.1214 39.3132 17.9884 39.3817 17.8712C39.4503 17.754 39.5482 17.6567 39.6658 17.5888L46.0667 13.8939C46.1844 13.8272 46.3173 13.7922 46.4525 13.7922C46.5877 13.7922 46.7206 13.8272 46.8383 13.8939L48.4684 14.8176C48.5092 14.8418 48.5556 14.8547 48.6031 14.8549C48.6505 14.8551 48.6971 14.8427 48.738 14.8189C48.779 14.7951 48.8129 14.7607 48.8362 14.7194C48.8595 14.6782 48.8713 14.6314 48.8705 14.584V4.76535C48.8708 4.697 48.8891 4.62993 48.9234 4.57083C48.9577 4.51172 49.0069 4.46263 49.0661 4.42846C49.1239 4.39508 49.1895 4.3775 49.2563 4.3775C49.323 4.3775 49.3886 4.39508 49.4465 4.42846L53.25 6.55303C53.3699 6.61964 53.4696 6.71742 53.5384 6.83603C53.6073 6.95464 53.6428 7.08966 53.6413 7.2268V25.647C53.6413 25.7831 53.6051 25.9167 53.5363 26.0342C53.4675 26.1517 53.3687 26.2487 53.25 26.3153L46.8492 30.0102C46.7323 30.0788 46.5989 30.1145 46.4634 30.1134C46.3314 30.1134 46.2019 30.0777 46.0884 30.0102ZM46.3601 19.2407L44.1867 20.5121C44.1567 20.5288 44.1318 20.5532 44.1146 20.5829C44.0973 20.6125 44.0885 20.6463 44.0889 20.6806V23.2181C44.0895 23.2522 44.0989 23.2855 44.116 23.315C44.1331 23.3444 44.1574 23.3691 44.1867 23.3865L46.3601 24.6526C46.3892 24.6688 46.4219 24.6773 46.4552 24.6773C46.4885 24.6773 46.5212 24.6688 46.5503 24.6526L48.7238 23.3865C48.7524 23.3688 48.7759 23.344 48.7921 23.3144C48.8082 23.2849 48.8165 23.2518 48.8161 23.2181V20.6806C48.8177 20.6467 48.8099 20.6131 48.7936 20.5834C48.7773 20.5537 48.7531 20.529 48.7238 20.5121L46.5503 19.2407C46.5183 19.2319 46.4845 19.2319 46.4525 19.2407C46.4222 19.2326 46.3904 19.2326 46.3601 19.2407ZM63.574 29.8363L57.2166 26.2121C57.0987 26.144 57.0013 26.0456 56.9344 25.9271C56.8675 25.8086 56.8336 25.6743 56.8363 25.5383V18.1539C56.8357 18.0183 56.8711 17.885 56.9389 17.7676C57.0066 17.6502 57.1044 17.5529 57.222 17.4856L63.6229 13.7907C63.7396 13.7213 63.8729 13.6847 64.0087 13.6847C64.1445 13.6847 64.2778 13.7213 64.3945 13.7907L70.7519 17.4856C70.8696 17.5529 70.9673 17.6502 71.0351 17.7676C71.1029 17.885 71.1383 18.0183 71.1377 18.1539V19.947C71.1383 20.0826 71.1029 20.2159 71.0351 20.3333C70.9673 20.4507 70.8696 20.5481 70.7519 20.6154L66.9212 22.8214C66.8627 22.8558 66.7961 22.874 66.7283 22.874C66.6604 22.874 66.5938 22.8558 66.5354 22.8214C66.4762 22.7886 66.4269 22.7405 66.3925 22.6823C66.3581 22.624 66.3399 22.5576 66.3397 22.49V20.686C66.3407 20.6188 66.3235 20.5525 66.2901 20.4942C66.2566 20.4359 66.2081 20.3877 66.1496 20.3546L64.1445 19.1972C64.0861 19.1628 64.0195 19.1446 63.9516 19.1446C63.8838 19.1446 63.8172 19.1628 63.7587 19.1972L61.7537 20.3546C61.6946 20.3874 61.6453 20.4355 61.6109 20.4937C61.5765 20.552 61.5583 20.6184 61.5581 20.686V23.0008C61.5584 23.0691 61.5767 23.1362 61.611 23.1953C61.6453 23.2544 61.6945 23.3035 61.7537 23.3376L68.1926 27.0325C68.2515 27.0671 68.3004 27.1163 68.3346 27.1753C68.3689 27.2343 68.3874 27.3012 68.3882 27.3694C68.3885 27.4386 68.3699 27.5064 68.3345 27.5658C68.2991 27.6252 68.2481 27.6737 68.1872 27.7063L64.3402 29.8472C64.2244 29.9076 64.0958 29.9392 63.9652 29.9396C63.8322 29.9393 63.7015 29.9057 63.5849 29.8417L63.574 29.8363ZM18.0561 28.304L14.2526 26.1306C14.136 26.062 14.0391 25.9644 13.9715 25.8472C13.9039 25.7301 13.8678 25.5975 13.8668 25.4622V20.8219C13.8673 20.6863 13.8319 20.553 13.7642 20.4356C13.6964 20.3181 13.5987 20.2208 13.481 20.1535L11.8509 19.2189C11.733 19.1526 11.6003 19.1171 11.4651 19.1157C11.3298 19.1164 11.1969 19.1519 11.0793 19.2189L9.44919 20.1535C9.3315 20.2208 9.23378 20.3181 9.166 20.4356C9.09822 20.553 9.06282 20.6863 9.0634 20.8219V25.4568C9.06252 25.5902 9.02824 25.7212 8.9637 25.838C8.89916 25.9547 8.8064 26.0534 8.69391 26.1251L4.89033 28.2986C4.83289 28.3331 4.76715 28.3513 4.70016 28.3513C4.63316 28.3513 4.56742 28.3331 4.50998 28.2986C4.45804 28.2619 4.41598 28.2129 4.38754 28.156C4.3591 28.0992 4.34516 28.0361 4.34697 27.9726V18.0561C4.34341 17.9249 4.3729 17.795 4.43272 17.6782C4.49253 17.5614 4.58077 17.4615 4.68929 17.3878L11.0902 13.7037C11.1983 13.6425 11.3192 13.6072 11.4433 13.6005H11.5085C11.6327 13.6072 11.7536 13.6425 11.8617 13.7037L18.2626 17.3878C18.3803 17.4564 18.478 17.5548 18.5457 17.673C18.6134 17.7913 18.6488 17.9253 18.6484 18.0615V27.978C18.6477 28.0455 18.6292 28.1117 18.5949 28.1699C18.5605 28.228 18.5115 28.2762 18.4528 28.3095C18.3955 28.3445 18.3298 28.3633 18.2626 28.3638C18.1956 28.3625 18.13 28.3438 18.0724 28.3095L18.0561 28.304Z" fill="#D3D3D3"></path><path d="M28.5919 29.8852L22.2236 26.1903C22.1104 26.1225 22.0161 26.0272 21.9496 25.9132C21.8831 25.7992 21.8465 25.6702 21.8433 25.5382V18.1648C21.8436 18.0307 21.8789 17.8991 21.9456 17.7829C22.0123 17.6667 22.1081 17.5698 22.2236 17.5018L28.5919 13.8287C28.7085 13.762 28.8406 13.7269 28.975 13.7269C29.1093 13.7269 29.2414 13.762 29.358 13.8287L35.7263 17.5018C35.8418 17.5698 35.9376 17.6667 36.0043 17.7829C36.071 17.8991 36.1063 18.0307 36.1067 18.1648V25.5382C36.1063 25.6723 36.071 25.8039 36.0043 25.9201C35.9376 26.0363 35.8418 26.1332 35.7263 26.2012L29.3417 29.8852C29.2254 29.953 29.0933 29.9887 28.9587 29.9887C28.8241 29.9887 28.6919 29.953 28.5756 29.8852H28.5919ZM63.9108 23.3648L62.6828 22.6584C62.6609 22.6458 62.6428 22.6275 62.6304 22.6056C62.618 22.5836 62.6116 22.5587 62.6121 22.5334V21.0989C62.6127 21.0739 62.6194 21.0494 62.6318 21.0276C62.6441 21.0058 62.6616 20.9874 62.6828 20.974L63.9108 20.2676C63.9329 20.2541 63.9582 20.247 63.9841 20.247C64.01 20.247 64.0354 20.2541 64.0575 20.2676L65.2855 20.974C65.308 20.9863 65.3269 21.0044 65.3402 21.0263C65.3536 21.0482 65.3609 21.0733 65.3615 21.0989V22.5226C65.3609 22.5482 65.3536 22.5733 65.3402 22.5952C65.3269 22.6171 65.308 22.6352 65.2855 22.6475L64.0629 23.3648C64.0396 23.3695 64.0156 23.3695 63.9923 23.3648C63.9672 23.3704 63.9412 23.3704 63.9162 23.3648H63.9108Z" fill="#EBEBEB"></path></svg> 