<?xml version="1.0" encoding="UTF-8"?> <svg xmlns="http://www.w3.org/2000/svg" width="35" height="35" viewBox="0 0 35 35" fill="none"><path d="M17.1215 4.01007C16.1016 4.00984 15.0836 4.09709 14.0786 4.27088C11.3618 4.74361 10.8945 5.74341 10.8945 7.57999V10.0034H17.2573V10.8076H8.50913C7.57309 10.7921 6.66158 11.1073 5.93504 11.6977C5.20849 12.2881 4.71348 13.1158 4.53711 14.0352C3.93945 16.1491 3.93945 18.3873 4.53711 20.5013C4.98811 22.3868 6.06941 23.7289 7.91686 23.7289H10.0903V20.8219C10.1086 19.7708 10.5349 18.768 11.2793 18.0257C12.0236 17.2834 13.0275 16.8598 14.0786 16.8444H20.436C20.857 16.8416 21.2734 16.7558 21.6612 16.5921C22.0491 16.4283 22.4009 16.1898 22.6966 15.8901C22.9923 15.5904 23.226 15.2354 23.3845 14.8453C23.543 14.4552 23.623 14.0378 23.6202 13.6168V7.57456C23.6202 5.85208 22.164 4.55887 20.436 4.27088C19.3404 4.09186 18.2317 4.00462 17.1215 4.01007ZM13.682 5.97706C13.9225 5.97167 14.1592 6.03799 14.3618 6.16757C14.5645 6.29715 14.724 6.48413 14.8201 6.70469C14.9161 6.92526 14.9444 7.16941 14.9012 7.40607C14.8579 7.64272 14.7453 7.86116 14.5775 8.03356C14.4097 8.20596 14.1944 8.32451 13.959 8.37413C13.7236 8.42374 13.4788 8.40215 13.2557 8.31213C13.0326 8.22211 12.8414 8.06772 12.7063 7.86863C12.5713 7.66954 12.4986 7.43476 12.4974 7.1942C12.4945 6.87613 12.6174 6.56978 12.8392 6.34183C13.0611 6.11388 13.364 5.98277 13.682 5.97706Z" fill="#D3D3D3"></path><path d="M24.408 10.8076V13.6331C24.3971 14.6893 23.9772 15.7001 23.2364 16.453C22.4957 17.2059 21.4918 17.6423 20.436 17.6703H14.0786C13.2328 17.6915 12.4284 18.0406 11.8352 18.6438C11.2421 19.2471 10.9067 20.0574 10.8999 20.9034V26.9619C10.8999 28.6844 12.3996 29.6788 14.0786 30.2221C16.1484 30.8687 18.3662 30.8687 20.436 30.2221C22.0661 29.7548 23.6201 28.8257 23.6201 26.9619V24.5385H17.2627V23.7235H26.7934C28.6408 23.7235 29.3309 22.4357 29.9775 20.5013C30.6241 18.5669 30.6133 16.589 29.9775 14.0352C29.5211 12.1932 28.6463 10.8076 26.7934 10.8076H24.408ZM20.8327 26.1523C21.0723 26.1491 21.3075 26.217 21.5085 26.3475C21.7095 26.478 21.8673 26.6651 21.962 26.8852C22.0567 27.1054 22.0839 27.3487 22.0403 27.5843C21.9967 27.82 21.8843 28.0374 21.7171 28.2091C21.5499 28.3808 21.3356 28.4991 21.1012 28.549C20.8668 28.599 20.6229 28.5783 20.4003 28.4895C20.1777 28.4008 19.9864 28.2481 19.8505 28.0507C19.7147 27.8532 19.6405 27.6199 19.6372 27.3803C19.6372 27.0623 19.7628 26.7571 19.9867 26.5312C20.2106 26.3053 20.5146 26.1769 20.8327 26.174V26.1523Z" fill="#EBEBEB"></path></svg> 