<?xml version="1.0" encoding="UTF-8"?> <svg xmlns="http://www.w3.org/2000/svg" width="45" height="42" viewBox="0 0 45 42" fill="none"><path d="M0.132812 20.9545C0.132812 24.4632 3.4309 27.7387 8.63062 29.5849C7.59228 35.0153 8.44453 39.3922 11.2911 41.0976C14.2171 42.8505 18.5762 41.6371 22.7135 37.8802C26.7464 41.4855 30.8224 42.9043 33.6663 41.194C36.5895 39.4361 37.4786 34.7624 36.4116 29.1625C41.8274 27.3024 44.8568 24.5094 44.8568 20.9545C44.8568 17.5271 41.5526 14.562 36.423 12.7275C37.5717 6.89622 36.5984 2.62559 33.634 0.849687C30.7759 -0.862393 26.6526 0.629859 22.5604 4.32957C18.3031 0.402619 14.2205 -0.796328 11.2589 0.98475C8.40369 2.7017 7.58892 7.15807 8.63062 12.689C3.60648 14.5087 0.132812 17.5408 0.132812 20.9545Z" fill="white"></path><path d="M35.3366 14.5494C34.9246 14.4021 34.4976 14.2627 34.058 14.1308C34.1303 13.8245 34.1966 13.5221 34.2555 13.2249C35.2234 8.34424 34.5906 4.41235 32.4297 3.11781C30.3576 1.87651 26.9689 3.17076 23.5465 6.26486C23.2174 6.56238 22.8874 6.87739 22.5575 7.20753C22.3377 6.9891 22.1183 6.77802 21.8994 6.57612C18.3126 3.26771 14.7174 1.8735 12.5586 3.17179C10.4885 4.41669 9.87552 8.11303 10.7467 12.7385C10.8309 13.1852 10.9292 13.6415 11.0404 14.1053C10.5316 14.2554 10.0404 14.4154 9.57038 14.5855C5.36527 16.1086 2.67969 18.4955 2.67969 20.9714C2.67969 23.5286 5.56266 26.0934 9.94261 27.6486C10.2883 27.7714 10.6469 27.8874 11.0165 27.9976C10.8966 28.4993 10.7922 28.9909 10.7046 29.4704C9.87389 34.0156 10.5226 37.6246 12.5872 38.8616C14.7197 40.1391 18.2986 38.826 21.7836 35.6614C22.059 35.4113 22.3355 35.146 22.6124 34.8679C22.9713 35.227 23.3297 35.5668 23.6862 35.8856C27.0618 38.9032 30.3957 40.1217 32.4584 38.8813C34.5888 37.6001 35.2811 33.7231 34.3822 29.0062C34.3136 28.6459 34.2337 28.2779 34.144 27.9033C34.3953 27.8261 34.6421 27.7465 34.8826 27.6636C39.436 26.0964 42.3986 23.5627 42.3986 20.9714C42.3986 18.4866 39.6264 16.0835 35.3366 14.5494Z" fill="#D3D3D3"></path><path d="M34.3496 25.9904C34.1324 26.065 33.9095 26.1372 33.6825 26.2072C33.1798 24.5541 32.5014 22.7962 31.6711 20.9799C32.4634 19.207 33.1156 17.4715 33.6042 15.8291C34.0105 15.9512 34.4049 16.08 34.7849 16.216C38.4604 17.5304 40.7024 19.4739 40.7024 20.9713C40.7024 22.5664 38.2811 24.6371 34.3496 25.9904ZM32.7183 29.3484C33.1157 31.4342 33.1725 33.32 32.9092 34.7941C32.6727 36.1188 32.1969 37.002 31.6087 37.3557C30.357 38.1084 27.6802 37.13 24.7933 34.5493C24.4624 34.2534 24.129 33.9376 23.7946 33.6032C24.9138 32.3317 26.0323 30.8534 27.124 29.2117C29.0441 29.0347 30.8582 28.7454 32.5033 28.3503C32.5843 28.6898 32.6563 29.0228 32.7183 29.3484ZM16.2213 37.2256C14.9984 37.6743 14.0243 37.6872 13.4356 37.3345C12.1827 36.5838 11.6619 33.6861 12.3723 29.7991C12.4537 29.3539 12.5506 28.8967 12.6622 28.4292C14.2893 28.803 16.09 29.072 18.0147 29.2341C19.1138 30.8405 20.2646 32.3171 21.4244 33.6101C21.171 33.8642 20.9186 34.1061 20.6676 34.3341C19.1266 35.7334 17.5823 36.7263 16.2213 37.2256ZM10.4919 25.9806C8.5552 25.2929 6.95578 24.3992 5.85944 23.4239C4.87432 22.5475 4.37695 21.6774 4.37695 20.9713C4.37695 19.4689 6.53321 17.5525 10.1295 16.2499C10.5658 16.0919 11.0226 15.9429 11.4966 15.803C11.9937 17.4825 12.6456 19.2385 13.4325 21.0142C12.6355 22.8163 11.9742 24.6003 11.4723 26.2995C11.1344 26.1986 10.807 26.0924 10.4919 25.9806ZM12.4125 12.3998C11.666 8.43689 12.1618 5.44738 13.4093 4.69721C14.7381 3.89805 17.6764 5.03748 20.7733 7.89413C20.9712 8.07672 21.17 8.26782 21.3693 8.46553C20.2153 9.75281 19.075 11.2183 17.9857 12.8153C16.1177 12.9952 14.3296 13.2841 12.6855 13.671C12.5822 13.2391 12.4906 12.8147 12.4125 12.3998ZM29.5454 16.7947C29.1524 16.0895 28.7489 15.401 28.3376 14.7312C29.6049 14.8976 30.8191 15.1186 31.9593 15.3889C31.617 16.5286 31.1903 17.7203 30.6881 18.9419C30.3278 18.2313 29.9467 17.5149 29.5454 16.7947ZM22.5587 9.72526C23.3413 10.6061 24.1251 11.5895 24.896 12.6565C24.1191 12.6184 23.3327 12.5986 22.5397 12.5986C21.7542 12.5986 20.9736 12.618 20.2015 12.6554C20.9732 11.5983 21.7638 10.6162 22.5587 9.72526ZM15.5271 16.8069C15.1345 17.5141 14.7605 18.2267 14.4059 18.9406C13.9118 17.7232 13.4891 16.5261 13.1438 15.3703C14.277 15.1068 15.4855 14.8914 16.7447 14.7281C16.3276 15.404 15.9208 16.0977 15.5271 16.8068V16.8069ZM16.781 27.3403C15.48 27.1895 14.2533 26.9852 13.1204 26.729C13.4712 25.5525 13.9032 24.3298 14.4078 23.0863C14.7634 23.7996 15.1388 24.5125 15.5338 25.2212H15.5339C15.9363 25.9433 16.3531 26.6506 16.781 27.3403ZM22.6056 32.3417C21.8014 31.4403 20.9992 30.4432 20.2158 29.3707C20.9763 29.4017 21.7517 29.4175 22.5397 29.4175C23.3493 29.4175 24.1496 29.3986 24.9373 29.3621C24.1639 30.454 23.3829 31.4526 22.6056 32.3417ZM30.7043 23.0229C31.2351 24.2799 31.6827 25.4961 32.038 26.6526C30.8864 26.9255 29.643 27.1454 28.3329 27.3087C28.7453 26.6299 29.1523 25.9295 29.5522 25.2091C29.9568 24.4802 30.341 23.7503 30.7043 23.0229ZM28.0824 24.3285C27.4616 25.4469 26.8241 26.5145 26.177 27.5222C24.9984 27.6097 23.7808 27.6548 22.5397 27.6548C21.3037 27.6548 20.1014 27.615 18.9436 27.5369C18.2704 26.5159 17.6191 25.4452 17.0022 24.3381H17.0023C16.387 23.2341 15.8207 22.1207 15.3076 21.0136C15.8206 19.904 16.3854 18.7894 16.9972 17.6873L16.997 17.6875C17.6104 16.5825 18.256 15.517 18.9229 14.5024C20.1042 14.4097 21.3155 14.3613 22.5396 14.3613H22.5397C23.7694 14.3613 24.9822 14.41 26.1631 14.5036C26.8199 15.5108 27.4611 16.5728 28.0769 17.678C28.6997 18.7955 29.2717 19.9027 29.7891 20.9886C29.2733 22.0931 28.7025 23.2115 28.0824 24.3285ZM31.5827 4.64477C32.9128 5.44158 33.43 8.6551 32.5943 12.869C32.541 13.1379 32.481 13.4118 32.4158 13.6893C30.768 13.2943 28.9786 13.0004 27.1051 12.8178C26.0137 11.2033 24.8827 9.73547 23.7475 8.46473C24.0527 8.15971 24.3575 7.86887 24.661 7.5944C27.5933 4.9434 30.334 3.89673 31.5827 4.64477Z" fill="white"></path><path d="M22.539 17.2869C24.4977 17.2869 26.0857 18.9364 26.0857 20.9714C26.0857 23.0063 24.4977 24.6559 22.539 24.6559C20.5802 24.6559 18.9922 23.0063 18.9922 20.9714C18.9922 18.9364 20.5802 17.2869 22.539 17.2869Z" fill="#D3D3D3"></path></svg> 