<?xml version="1.0" encoding="UTF-8"?> <svg xmlns="http://www.w3.org/2000/svg" width="33" height="32" viewBox="0 0 33 32" fill="none"><path d="M28.287 8.56982C27.402 8.9588 26.4571 9.22379 25.4621 9.34479C26.4761 8.73381 27.256 7.77085 27.625 6.6219C26.6741 7.17688 25.6201 7.58086 24.4981 7.80585C23.6022 6.84689 22.3252 6.24692 20.9073 6.24692C18.1904 6.24692 15.9875 8.44983 15.9875 11.1637C15.9875 11.5537 16.0325 11.9287 16.1145 12.2877C12.0247 12.0947 8.39982 10.1308 5.97392 7.16188C5.54693 7.88385 5.30794 8.72281 5.30794 9.63678C5.30794 11.3467 6.17791 12.8496 7.49585 13.7326C6.68889 13.7066 5.92992 13.4846 5.26795 13.1166V13.1776C5.26795 15.5625 6.96088 17.5514 9.21378 18.0044C8.8008 18.1154 8.36482 18.1754 7.91784 18.1754C7.60385 18.1754 7.30286 18.1454 7.00187 18.0894C7.63285 20.0423 9.44677 21.4663 11.6057 21.5063C9.92575 22.8252 7.79684 23.6112 5.50394 23.6112C5.11395 23.6112 4.72497 23.5882 4.33398 23.5442C6.52289 24.9381 9.10179 25.7531 11.8907 25.7531C20.9443 25.7531 25.8891 18.2574 25.8891 11.7677C25.8891 11.5587 25.8891 11.3477 25.8741 11.1377C26.835 10.4487 27.674 9.57778 28.334 8.58982L28.287 8.56982Z" fill="#002EFF"></path></svg> 