<?xml version="1.0" encoding="UTF-8"?> <svg xmlns="http://www.w3.org/2000/svg" width="32" height="32" viewBox="0 0 32 32" fill="none"><path d="M24.4509 24.4482H20.8945V18.8798C20.8945 17.5526 20.8713 15.8422 19.0457 15.8422C17.194 15.8422 16.9099 17.2889 16.9099 18.7822V24.4482H13.3534V12.9968H16.7671V14.5557H16.8152C17.1568 13.9714 17.6505 13.4908 18.2436 13.165C18.8368 12.8392 19.5073 12.6803 20.1836 12.7054C23.788 12.7054 24.4524 15.0758 24.4524 18.1601L24.4509 24.4482ZM9.34112 11.4306C8.93309 11.4306 8.53424 11.3096 8.19498 11.0829C7.85572 10.8562 7.59127 10.534 7.43513 10.157C7.27898 9.78008 7.23815 9.36528 7.31775 8.96509C7.39735 8.56491 7.59381 8.19731 7.88232 7.9088C8.17084 7.62028 8.53847 7.4238 8.93865 7.3442C9.33883 7.26459 9.75362 7.30545 10.1306 7.46159C10.5076 7.61774 10.8298 7.88216 11.0565 8.22142C11.2831 8.56068 11.4042 8.95954 11.4042 9.36757C11.4042 9.91471 11.1868 10.4394 10.7999 10.8263C10.413 11.2132 9.88826 11.4306 9.34112 11.4306ZM11.1185 24.4482H7.55926V12.9968H11.1185V24.4482ZM26.2225 4.00024H5.77163C5.54167 3.99716 5.31339 4.03949 5.09981 4.12479C4.88623 4.21009 4.69153 4.33668 4.52696 4.49733C4.36239 4.65798 4.23119 4.84951 4.14077 5.06097C4.05034 5.27243 4.00247 5.49965 4 5.72962V26.2723C4.00209 26.5025 4.04962 26.73 4.13988 26.9418C4.23013 27.1536 4.36137 27.3455 4.52598 27.5065C4.69059 27.6674 4.88533 27.7943 5.0991 27.8798C5.31287 27.9653 5.54143 28.0077 5.77163 28.0046H26.2225C26.6879 28.0104 27.1365 27.8312 27.4698 27.5064C27.8031 27.1816 27.9939 26.7377 28 26.2723V5.72962C27.9975 5.49915 27.9495 5.27145 27.8587 5.0596C27.7679 4.84776 27.6362 4.65596 27.471 4.49524C27.3058 4.33452 27.1104 4.20804 26.8962 4.12309C26.6819 4.03814 26.4529 3.99639 26.2225 4.00024Z" fill="#002EFF"></path></svg> 