<?xml version="1.0" encoding="UTF-8"?> <svg xmlns="http://www.w3.org/2000/svg" width="24" height="24" viewBox="0 0 24 24" fill="none"><path fill-rule="evenodd" clip-rule="evenodd" d="M0.5625 0.610352C0.214844 0.969727 0 1.45996 0 2V22C0 23.1045 0.894531 24 2 24H22C23.1055 24 24 23.1045 24 22V2C24 0.895508 23.1055 0 22 0H2C1.43359 0 0.925781 0.234375 0.5625 0.610352ZM14 8.33301H18.668V7H14V8.33301ZM16.418 17C18.4648 17 19.5234 15.8643 19.8164 15H17.707C16.9688 15.8555 14.7344 15.7881 14.6484 13.6475H19.9961C20.0078 13.0127 19.9883 12.5576 19.9336 12.2207C19.6602 10.458 18.4062 9.26953 16.3516 9.26953C15.1758 9.26953 14.1719 9.69141 13.5156 10.5205C13.0039 11.1709 12.707 12.0713 12.707 13.2168C12.707 15.8477 14.3672 17 16.418 17ZM18.0039 12.333H14.6914C14.7539 11.9199 14.8867 11.5898 15.0977 11.3467C15.3789 11.0215 15.793 10.8535 16.3516 10.8535C17.2461 10.8535 17.9336 11.3018 18.0039 12.333ZM4 16.9922H8.3125C12.832 16.9922 12.7578 12.458 10.4492 11.6182C11.4883 11.0869 11.9375 9.78516 11.543 8.70117C11.2148 7.79395 10.2969 7.03906 8.63672 7.01367H4V16.9922ZM8.39062 11H6V9H8.17969C10.3281 9 10.0625 11 8.39062 11ZM6 13H8.26172C10.1406 13 10.2656 15.0107 8.22656 15.0107H6V13Z" fill="#0433EF"></path></svg> 