<?xml version="1.0" encoding="UTF-8"?> <svg xmlns="http://www.w3.org/2000/svg" width="34" height="35" viewBox="0 0 34 35" fill="none"><path d="M22.9447 26.7969C20.1928 28.4375 16.405 28.6016 12.5959 26.9172C9.59234 25.5861 7.0524 23.3471 5.3125 20.4969C6.1331 21.1785 7.03681 21.7466 8.00062 22.1867C11.9372 24.0844 15.8684 23.9531 18.6256 22.1867C14.6891 19.0805 11.3422 15.0281 8.85062 11.7195C8.35612 11.1564 7.91661 10.5446 7.53844 9.89297C10.5173 12.6238 13.7005 15.1088 17.0584 17.325C14.617 14.6223 12.3792 11.7319 10.3647 8.67891C13.7052 12.1752 17.4009 15.292 21.3881 17.9758C21.5634 18.0797 21.7016 18.1617 21.8078 18.2383C21.9262 17.9328 22.0273 17.6206 22.1106 17.3031C23.0297 13.8578 21.9778 9.93672 19.6828 6.69922C24.9953 10.0297 28.1562 16.2422 26.8334 21.443C26.8016 21.5852 26.7644 21.7219 26.7219 21.8586L26.7697 21.9187C29.3941 25.293 28.6716 28.875 28.3634 28.1969C26.9397 25.3312 24.3047 26.2062 22.9659 26.7914L22.9447 26.7969Z" fill="#D3D3D3"></path></svg> 