<?xml version="1.0" encoding="UTF-8"?> <svg xmlns="http://www.w3.org/2000/svg" xmlns:xlink="http://www.w3.org/1999/xlink" version="1.1" id="Warstwa_1" x="0px" y="0px" viewBox="0 0 379 293" style="enable-background:new 0 0 379 293;" xml:space="preserve"> <style type="text/css"> .st0{fill:#ECECEC;} .st1{fill:#E7E7E7;} .st2{fill:#E1E1E1;} .st3{fill:#F0F0F0;} .st4{fill:#F5F5F5;} .st5{fill:#FFFFFF;} .st6{fill:#007CFF;} .st7{opacity:0.5;} .st8{opacity:0.3;} .st9{opacity:0.4;} .st10{fill:#188EF8;} .st11{font-family:'Montserrat-Bold';} .st12{font-size:5.0001px;} .st13{opacity:0.1;} .st14{opacity:0.2;} .st15{fill:#1A2E35;} .st16{fill:#2B454E;} </style> <rect x="253.7" y="210.3" class="st0" width="12.8" height="0.1"></rect> <rect x="217.4" y="211.3" class="st0" width="3.3" height="0.1"></rect> <rect x="246" y="206.7" class="st0" width="7.4" height="0.1"></rect> <rect x="113.4" y="207.4" class="st0" width="16.6" height="0.1"></rect> <rect x="133.5" y="207.4" class="st0" width="2.4" height="0.1"></rect> <rect x="143.8" y="209" class="st0" width="36.1" height="0.1"></rect> <path class="st0" d="M184.5,186.9h-74.4c-1.2,0-2.2-1-2.2-2.2V80.2c0-1.2,1-2.2,2.2-2.2h74.4c1.2,0,2.2,1,2.2,2.2v104.5 C186.7,185.9,185.7,186.9,184.5,186.9z M110.1,78.1c-1.2,0-2.1,0.9-2.1,2.1v104.5c0,1.2,0.9,2.1,2.1,2.1h74.4c1.2,0,2.1-0.9,2.1-2.1 V80.2c0-1.2-0.9-2.1-2.1-2.1H110.1z"></path> <path class="st0" d="M267.8,186.9h-74.4c-1.2,0-2.2-1-2.2-2.2V80.2c0-1.2,1-2.2,2.2-2.2h74.4c1.2,0,2.2,1,2.2,2.2v104.5 C270,185.9,269,186.9,267.8,186.9z M193.4,78.1c-1.2,0-2.1,0.9-2.1,2.1v104.5c0,1.2,0.9,2.1,2.1,2.1h74.4c1.2,0,2.1-0.9,2.1-2.1 V80.2c0-1.2-0.9-2.1-2.1-2.1H193.4z"></path> <rect x="93.2" y="204.1" class="st0" width="192.6" height="0.1"></rect> <g> <rect x="142" y="150.2" class="st1" width="8.6" height="36.6"></rect> <g> <rect x="156.4" y="137.8" class="st2" width="8.6" height="49"></rect> </g> <g> <rect x="170.8" y="150.2" class="st0" width="8.6" height="36.6"></rect> </g> <g> <rect x="113.3" y="162.7" class="st3" width="8.6" height="24.1"></rect> </g> <g> <rect x="127.7" y="156.7" class="st0" width="8.6" height="30.1"></rect> </g> <rect x="185.2" y="162.7" class="st4" width="8.6" height="24.1"></rect> <g> <rect x="257.1" y="125.3" class="st2" width="8.6" height="61.5"></rect> </g> <g> <rect x="199.6" y="150.2" class="st3" width="8.6" height="36.6"></rect> </g> <g> <rect x="242.7" y="137.8" class="st1" width="8.6" height="49"></rect> </g> <rect x="228.3" y="144.2" class="st0" width="8.6" height="42.6"></rect> <g> <rect x="213.9" y="156.7" class="st3" width="8.6" height="30.1"></rect> </g> </g> <g> <g> <g> <ellipse transform="matrix(0.2298 -0.9732 0.9732 0.2298 12.9658 219.5658)" class="st2" cx="145.2" cy="101.6" rx="6" ry="6"></ellipse> </g> <ellipse transform="matrix(0.7071 -0.7071 0.7071 0.7071 -29.0965 132.9378)" class="st1" cx="145.9" cy="101.6" rx="6" ry="6"></ellipse> <circle class="st3" cx="145.9" cy="101.6" r="4.5"></circle> </g> <g> <path class="st5" d="M147.9,102.6c0.2,1-0.5,1.7-1.7,1.8l0,0.8h-0.7l0-0.8c-0.7-0.1-1.4-0.3-1.8-0.6l0.3-0.9 c0.4,0.3,1,0.5,1.5,0.5l0-1.3c-0.7-0.2-1.5-0.5-1.7-1.4c-0.2-1,0.5-1.7,1.8-1.8l0-0.8h0.7l0,0.8c0.5,0.1,1.1,0.2,1.5,0.4l-0.3,0.9 c-0.4-0.2-0.8-0.3-1.2-0.4l0,1.3C147,101.4,147.7,101.7,147.9,102.6z M145.5,101l0-1.1c-0.4,0.1-0.6,0.3-0.6,0.6 C145,100.8,145.2,100.9,145.5,101z M146.7,102.7c0-0.2-0.2-0.4-0.5-0.4l0,1C146.6,103.2,146.8,103,146.7,102.7z"></path> </g> </g> <g> <g> <g> <ellipse transform="matrix(0.2298 -0.9732 0.9732 0.2298 -15.9351 217.8909)" class="st2" cx="129.7" cy="119" rx="6" ry="6"></ellipse> </g> <ellipse transform="matrix(0.7071 -0.7071 0.7071 0.7071 -45.9577 127.0742)" class="st1" cx="130.4" cy="119" rx="6" ry="6"></ellipse> <circle class="st3" cx="130.4" cy="119" r="4.5"></circle> </g> <g> <path class="st5" d="M132.4,120c0.2,1-0.5,1.7-1.7,1.8l0,0.8h-0.7l0-0.8c-0.7-0.1-1.4-0.3-1.8-0.6l0.3-0.9c0.4,0.3,1,0.5,1.5,0.5 l0-1.3c-0.7-0.2-1.5-0.5-1.7-1.4c-0.2-1,0.5-1.7,1.8-1.8l0-0.8h0.7l0,0.8c0.5,0.1,1.1,0.2,1.5,0.4l-0.3,0.9 c-0.4-0.2-0.8-0.3-1.2-0.4l0,1.3C131.5,118.8,132.2,119.1,132.4,120z M130,118.4l0-1.1c-0.4,0.1-0.6,0.3-0.6,0.6 C129.5,118.2,129.7,118.3,130,118.4z M131.2,120.2c0-0.2-0.2-0.4-0.5-0.4l0,1C131.1,120.7,131.3,120.5,131.2,120.2z"></path> </g> </g> <g> <path class="st3" d="M248.3,113.6H217c-1.6,0-2.9-1.3-2.9-2.9l0-11.8c0-1.6,1.3-2.9,2.9-2.9h31.3c1.6,0,2.9,1.3,2.9,2.9v11.8 C251.2,112.3,249.9,113.6,248.3,113.6z"></path> </g> <g> <path class="st5" d="M223.7,111.5h-2.6c-0.2,0-0.3-0.1-0.3-0.3V98.7c0-0.2,0.1-0.3,0.3-0.3h2.6c0.2,0,0.3,0.1,0.3,0.3v12.5 C224,111.3,223.9,111.5,223.7,111.5z"></path> <path class="st5" d="M245.1,111.5h-2.6c-0.2,0-0.3-0.1-0.3-0.3V98.7c0-0.2,0.1-0.3,0.3-0.3h2.6c0.2,0,0.3,0.1,0.3,0.3l0,12.5 C245.4,111.3,245.3,111.5,245.1,111.5z"></path> <path class="st5" d="M234.8,111.5h-2.6c-0.2,0-0.3-0.1-0.3-0.3l0-8.2c0-0.2,0.1-0.3,0.3-0.3h2.6c0.2,0,0.3,0.1,0.3,0.3v8.2 C235.1,111.3,234.9,111.5,234.8,111.5z"></path> <path class="st5" d="M229.3,111.5h-2.6c-0.2,0-0.3-0.1-0.3-0.3v-6.1c0-0.2,0.1-0.3,0.3-0.3h2.6c0.2,0,0.3,0.1,0.3,0.3v6.1 C229.6,111.3,229.5,111.5,229.3,111.5z"></path> <path class="st5" d="M239.9,111.5h-2.6c-0.2,0-0.3-0.1-0.3-0.3l0-1c0-0.2,0.1-0.3,0.3-0.3h2.6c0.2,0,0.3,0.1,0.3,0.3l0,1 C240.2,111.3,240.1,111.5,239.9,111.5z"></path> </g> <ellipse id="_x3C_Path_x3E__00000005268116448211377060000012829815389421818770_" class="st4" cx="189.5" cy="216.9" rx="74.7" ry="4.4"></ellipse> <g> <g> <rect x="176.9" y="161.2" class="st6" width="25.4" height="57.3"></rect> <rect x="183.4" y="161.2" class="st7" width="19" height="57.3"></rect> </g> <g> <rect x="210.4" y="180.7" class="st6" width="25.4" height="37.7"></rect> <rect x="216.9" y="180.6" class="st8" width="19" height="37.8"></rect> </g> <g> <rect x="143.5" y="171.4" class="st6" width="25.4" height="47.1"></rect> <rect x="150" y="171.3" class="st9" width="19" height="47.2"></rect> </g> </g> <g> <path class="st10" d="M258.5,133.4h-27.1c-1.3,0-2.3,1-2.3,2.3v17.1c0,1.3,1,2.3,2.3,2.3h27.1c1.3,0,2.3-1,2.3-2.3v-17.1 C260.9,134.4,259.8,133.4,258.5,133.4z"></path> <polygon class="st10" points="242,152.9 233.6,161.2 233.6,152.9 "></polygon> <g> <path class="st6" d="M236.4,143.7l-1.5-2.7l2.8,0.7c0,0-1-3.6-0.9-3.4c0.1,0.2,3.5,2.2,3.5,2.2s-0.1-3.9-0.1-3.8 c0.1,0.1,2.8,2.7,2.8,2.7l1.4-3.3l2,2.8l2.8-3.3l0.5,3.5l4.6-3.3l-1.3,4.1l2-0.3l-0.6,1.8l1.1,1l-0.8,1.4l0.8,1.5l-2.3,0l1.7,3.3 l-3.8-0.8l0.8,2.7l-4-2.1l-0.4,2.5l-1.2-2l-1.4,3l-2-2.8l-2.1,3l0.5-2.5l-4.5,3.1l1.5-4.4l-3.1,0.8l1.4-2.8l-2.1-1.1L236.4,143.7z "></path> <text transform="matrix(0.7061 -9.641893e-02 1.380007e-02 0.9999 237.0269 146.6238)" class="st5 st11 st12">YOU WIN</text> <polygon class="st5" points="245,140.5 244.2,138 244.7,137.9 "></polygon> <polygon class="st5" points="247.4,140.2 247.7,136.9 248.4,136.8 "></polygon> <polygon class="st5" points="250.4,140.2 251.8,138.3 252.1,138.6 "></polygon> <polygon class="st5" points="241.6,141 240.3,137.9 239.6,138.2 "></polygon> <polygon class="st5" points="238.8,141.8 237.2,139.9 236.8,140.3 "></polygon> <polygon class="st5" points="238.5,147.7 236.5,149.6 237,150 "></polygon> <polygon class="st5" points="240.6,147.4 239.4,151.2 240.1,151.3 "></polygon> <polygon class="st5" points="244.8,147.1 244.7,151.2 245.3,151.1 "></polygon> <polygon class="st5" points="248,146.7 250.2,149.6 250.8,149.1 "></polygon> <polygon class="st5" points="251.6,146.6 253.4,147.7 253.7,147.1 "></polygon> <polygon class="st5" points="236.5,145.1 235.2,145.1 235.2,145.4 "></polygon> <polygon class="st5" points="254.4,142.4 255.1,142.3 255.1,142.7 "></polygon> </g> </g> <g> <g> <g> <g> <g> <g> <g> <g> <g> <path class="st6" d="M200.7,122.8c-0.5,3.8-4,6.6-7.9,6.1c-3.8-0.5-6.6-4-6.1-7.9c0.5-3.8,4-6.6,7.9-6.1 C198.4,115.5,201.2,119,200.7,122.8z"></path> </g> </g> <g class="st13"> <g> <path class="st5" d="M194.6,115c-3.8-0.5-7.4,2.2-7.9,6.1c0,0,4.9,0.9,6.3-1C194.5,118.3,194.6,115,194.6,115z"></path> </g> </g> <g> <g> <path class="st6" d="M198.9,122.5c-0.4,2.9-3.1,5-6,4.6c-2.9-0.4-5-3.1-4.6-6c0.4-2.9,3.1-5,6-4.6 C197.2,116.9,199.3,119.6,198.9,122.5z"></path> </g> </g> <g class="st14"> <g> <path d="M199,122.5c-0.4,2.9-3.1,5-6,4.6c-2.9-0.4-5-3.1-4.6-6c0.4-2.9,3.1-5,6-4.6C197.3,116.9,199.4,119.6,199,122.5z"></path> </g> </g> <g> <g> <path class="st6" d="M199,122.7c-0.4,2.9-3,4.9-5.9,4.6c-2.9-0.4-4.9-3-4.6-5.9c0.4-2.9,3-4.9,5.9-4.6 C197.3,117.2,199.4,119.9,199,122.7z"></path> </g> </g> <g class="st14"> <g> <path class="st5" d="M199,122.7c-0.4,2.9-3,4.9-5.9,4.6c-2.9-0.4-4.9-3-4.6-5.9c0.4-2.9,3-4.9,5.9-4.6 C197.3,117.2,199.4,119.9,199,122.7z"></path> </g> </g> </g> </g> </g> </g> <g> <g> <g> <g> <path class="st6" d="M194.1,121.6l0.2-1.3c0,0,0,0,0,0c0.2,0.1,0.5,0.1,0.7,0.3c0.2,0.1,0.3,0.3,0.3,0.3l0,0l0.3-0.5l0.1-0.1 l-0.2-0.3l-0.1,0c-0.3-0.2-0.6-0.3-0.9-0.4l0.1-0.7l-0.2-0.2l0,0.2l-0.3,0l-0.1,0.7c-1,0-1.6,0.5-1.7,1.2 c-0.1,0.9,0.6,1.3,1.4,1.5l-0.2,1.3c-0.5-0.1-1-0.4-1.3-0.7l-0.4,0.6c0.3,0.3,0.9,0.6,1.6,0.8l-0.1,0.6l-0.3,0l0.2,0.2 l0.5,0.1l0.1-0.7c1.1,0,1.6-0.5,1.7-1.2C195.5,122.3,194.8,121.9,194.1,121.6z M193.5,121.4c-0.4-0.2-0.6-0.3-0.6-0.7 c0-0.3,0.3-0.5,0.7-0.5L193.5,121.4z M194.2,120.3L194.2,120.3L194.2,120.3L194.2,120.3z M193.8,123.6l0.2-1.2 c0.4,0.2,0.7,0.4,0.6,0.7C194.5,123.4,194.3,123.6,193.8,123.6z"></path> </g> </g> </g> <g class="st8"> <g> <g> <path d="M194.1,121.6l0.2-1.3c0,0,0,0,0,0c0.2,0.1,0.5,0.1,0.7,0.3c0.2,0.1,0.3,0.3,0.3,0.3l0,0l0.3-0.5l0.1-0.1l-0.2-0.3 l-0.1,0c-0.3-0.2-0.6-0.3-0.9-0.4l0.1-0.7l-0.2-0.2l0,0.2l-0.3,0l-0.1,0.7c-1,0-1.6,0.5-1.7,1.2c-0.1,0.9,0.6,1.3,1.4,1.5 l-0.2,1.3c-0.5-0.1-1-0.4-1.3-0.7l-0.4,0.6c0.3,0.3,0.9,0.6,1.6,0.8l-0.1,0.6l-0.3,0l0.2,0.2l0.5,0.1l0.1-0.7 c1.1,0,1.6-0.5,1.7-1.2C195.5,122.3,194.8,121.9,194.1,121.6z M193.5,121.4c-0.4-0.2-0.6-0.3-0.6-0.7c0-0.3,0.3-0.5,0.7-0.5 L193.5,121.4z M194.2,120.3L194.2,120.3L194.2,120.3L194.2,120.3z M193.8,123.6l0.2-1.2c0.4,0.2,0.7,0.4,0.6,0.7 C194.5,123.4,194.3,123.6,193.8,123.6z"></path> </g> </g> </g> <g> <g> <path class="st6" d="M193.5,124.1l-0.1,0.7l-0.5-0.1l0.1-0.7c-0.6-0.1-1.2-0.4-1.6-0.8l0.4-0.6c0.3,0.3,0.8,0.6,1.3,0.7 l0.2-1.3c-0.7-0.3-1.5-0.6-1.4-1.5c0.1-0.7,0.7-1.2,1.7-1.2l0.1-0.7l0.5,0.1l-0.1,0.7c0.5,0.1,1,0.3,1.3,0.6l-0.4,0.6 c-0.3-0.3-0.7-0.4-1-0.5l-0.2,1.3c0.7,0.3,1.5,0.6,1.4,1.5C195.1,123.6,194.6,124.2,193.5,124.1z M193.3,121.2l0.2-1.2 c-0.5,0-0.7,0.2-0.7,0.5C192.7,120.9,193,121.1,193.3,121.2z M194.4,122.9c0-0.3-0.2-0.5-0.6-0.7l-0.2,1.2 C194.1,123.4,194.3,123.2,194.4,122.9z"></path> </g> </g> </g> </g> <g> <g> <g> <path class="st15" d="M193,127.3C193,127.3,193,127.3,193,127.3c0.1,0,0.1,0,0.2,0c0.1,0,0.1,0,0.2,0c0.1,0,0.2,0,0.3,0 c0.1,0,0.2,0,0.4,0c0.1,0,0.1,0,0.2,0c0.1,0,0.1,0,0.2,0c0.1,0,0.2,0,0.2,0c0.1,0,0.2,0,0.2-0.1c0.1,0,0.2,0,0.3-0.1 c0.1,0,0.2-0.1,0.3-0.1c0.4-0.1,0.7-0.3,1.1-0.5c0.1-0.1,0.2-0.1,0.3-0.2c0,0,0.1-0.1,0.1-0.1c0,0,0.1-0.1,0.1-0.1 c0.1-0.1,0.2-0.2,0.3-0.2c0.1-0.1,0.2-0.2,0.3-0.3l0.1-0.1c0,0,0,0,0.1-0.1c0,0,0.1-0.1,0.1-0.1c0-0.1,0.1-0.1,0.1-0.2 c0,0,0.1-0.1,0.1-0.2c0.1-0.1,0.1-0.2,0.2-0.3c0.1-0.1,0.1-0.2,0.2-0.4c0.2-0.5,0.4-1,0.5-1.6c0.1-0.6,0-1.1-0.1-1.7 c0-0.1-0.1-0.3-0.1-0.4c0-0.1-0.1-0.3-0.1-0.4c0-0.1,0-0.1-0.1-0.2c0-0.1-0.1-0.1-0.1-0.2c0-0.1-0.1-0.1-0.1-0.2 c0,0,0-0.1,0-0.1l0-0.1c-0.1-0.1-0.1-0.2-0.2-0.3c-0.1-0.1-0.1-0.2-0.2-0.3c0,0-0.1-0.1-0.1-0.1c0,0-0.1-0.1-0.1-0.1 c-0.1-0.1-0.1-0.2-0.2-0.3c-0.3-0.3-0.6-0.6-0.9-0.8c-0.1-0.1-0.2-0.1-0.2-0.2c-0.1,0-0.2-0.1-0.2-0.1c-0.1,0-0.1-0.1-0.2-0.1 c-0.1,0-0.1-0.1-0.2-0.1c-0.1,0-0.1-0.1-0.2-0.1c-0.1,0-0.1-0.1-0.2-0.1c-0.1,0-0.2-0.1-0.3-0.1c-0.1,0-0.2,0-0.3-0.1 c-0.1,0-0.1,0-0.2,0c-0.1,0-0.1,0-0.1,0c0,0,0,0,0,0c0,0,0,0,0,0c0,0,0.1,0,0.1,0c0.1,0,0.1,0,0.2,0c0.1,0,0.2,0,0.3,0.1 c0.1,0,0.2,0.1,0.3,0.1c0.1,0,0.1,0,0.2,0.1c0.1,0,0.1,0.1,0.2,0.1c0.1,0,0.1,0.1,0.2,0.1c0.1,0,0.1,0.1,0.2,0.1 c0.1,0,0.2,0.1,0.2,0.1c0.1,0,0.2,0.1,0.2,0.2c0.3,0.2,0.6,0.5,1,0.8c0.1,0.1,0.1,0.2,0.2,0.3c0,0,0.1,0.1,0.1,0.1 c0,0,0.1,0.1,0.1,0.1c0.1,0.1,0.1,0.2,0.2,0.3c0.1,0.1,0.1,0.2,0.2,0.3l0,0.1c0,0,0,0.1,0,0.1c0,0.1,0.1,0.1,0.1,0.2 c0,0.1,0.1,0.1,0.1,0.2c0,0.1,0,0.1,0.1,0.2c0,0.1,0.1,0.3,0.1,0.4c0,0.1,0.1,0.3,0.1,0.4c0.1,0.5,0.1,1.1,0.1,1.7 c-0.1,0.6-0.2,1.1-0.5,1.6c-0.1,0.1-0.1,0.2-0.2,0.4c-0.1,0.1-0.1,0.2-0.2,0.3c0,0.1-0.1,0.1-0.1,0.2c0,0.1-0.1,0.1-0.1,0.2 c0,0.1-0.1,0.1-0.1,0.2c0,0,0,0.1-0.1,0.1l-0.1,0.1c-0.1,0.1-0.2,0.2-0.3,0.3c-0.1,0.1-0.2,0.2-0.3,0.2c0,0-0.1,0.1-0.1,0.1 c0,0-0.1,0.1-0.1,0.1c-0.1,0.1-0.2,0.1-0.3,0.2c-0.4,0.2-0.8,0.4-1.1,0.5c-0.1,0-0.2,0.1-0.3,0.1c-0.1,0-0.2,0-0.3,0.1 c-0.1,0-0.2,0-0.2,0.1c-0.1,0-0.2,0-0.2,0c-0.1,0-0.1,0-0.2,0c-0.1,0-0.1,0-0.2,0c-0.1,0-0.2,0-0.4,0c-0.1,0-0.2,0-0.3,0 c-0.1,0-0.1,0-0.2,0C193.1,127.4,193.1,127.3,193,127.3C193,127.3,193,127.3,193,127.3z"></path> </g> </g> </g> <g> <g> <g> <path class="st5" d="M187.3,124.5C187.3,124.5,187.3,124.4,187.3,124.5c0-0.1-0.1-0.2-0.1-0.2c0-0.1-0.1-0.2-0.1-0.3 c0-0.1-0.1-0.2-0.1-0.4c0-0.1,0-0.1,0-0.2c0-0.1,0-0.2,0-0.2c0-0.2,0-0.3-0.1-0.5c0-0.4,0-0.8,0-1.2c0-0.4,0.1-0.8,0.2-1.2 c0.1-0.2,0.1-0.4,0.2-0.5c0-0.1,0.1-0.2,0.1-0.2c0-0.1,0.1-0.1,0.1-0.2c0.1-0.1,0.1-0.2,0.2-0.3c0-0.1,0.1-0.2,0.1-0.3 c0-0.1,0.1-0.1,0.1-0.2c0,0,0-0.1,0-0.1c0,0,0,0,0,0.1c0,0,0,0.1-0.1,0.2c0,0.1-0.1,0.2-0.1,0.3c0,0.1-0.1,0.2-0.2,0.3 c0,0.1-0.1,0.1-0.1,0.2c0,0.1-0.1,0.1-0.1,0.2c-0.1,0.2-0.1,0.3-0.2,0.5c-0.1,0.4-0.2,0.8-0.2,1.2c0,0.4,0,0.8,0,1.2 c0,0.2,0,0.4,0.1,0.5c0,0.1,0,0.2,0,0.2c0,0.1,0,0.1,0,0.2c0,0.1,0.1,0.3,0.1,0.4c0,0.1,0.1,0.2,0.1,0.3 C187.3,124.3,187.3,124.3,187.3,124.5C187.3,124.4,187.3,124.5,187.3,124.5z"></path> </g> </g> </g> <g> <g> <g> <path class="st5" d="M192.3,121.1c0,0-0.1-0.1-0.1-0.2c-0.1-0.1-0.1-0.3-0.1-0.5c0-0.2,0.1-0.4,0.2-0.5 c0.1-0.1,0.2-0.1,0.2-0.1c0,0-0.1,0-0.2,0.1c-0.1,0.1-0.2,0.3-0.2,0.4c0,0.2,0,0.4,0.1,0.5C192.2,121,192.3,121.1,192.3,121.1z "></path> </g> </g> </g> <g> <g> <g> <path class="st5" d="M193.7,119.2c0,0,0-0.1,0-0.2c0-0.1,0-0.2,0.1-0.2c0,0,0,0.1,0,0.2C193.7,119.1,193.7,119.2,193.7,119.2z"></path> </g> </g> </g> <g> <g> <g> <path class="st5" d="M194.8,116.5c0,0-0.1,0-0.2,0c-0.1,0-0.1,0-0.2,0c-0.1,0-0.2,0-0.3,0c-0.1,0-0.2,0-0.3,0 c-0.1,0-0.2,0-0.4,0c-0.3,0-0.5,0-0.8,0.1c-0.3,0-0.6,0.1-0.8,0.2c-0.1,0-0.2,0.1-0.3,0.1c-0.1,0-0.2,0.1-0.3,0.1 c-0.1,0-0.2,0.1-0.2,0.1c-0.1,0-0.1,0.1-0.2,0.1c-0.1,0.1-0.1,0.1-0.2,0.1c0,0,0,0,0.1-0.1c0,0,0.1-0.1,0.2-0.1 c0.1,0,0.1-0.1,0.2-0.1c0.1,0,0.2-0.1,0.3-0.1c0.1,0,0.2-0.1,0.3-0.1c0.2-0.1,0.5-0.2,0.8-0.2c0.3,0,0.6-0.1,0.9-0.1 c0.1,0,0.3,0,0.4,0c0.1,0,0.2,0,0.3,0c0.1,0,0.2,0,0.3,0c0.1,0,0.1,0,0.2,0C194.7,116.4,194.8,116.4,194.8,116.5z"></path> </g> </g> </g> <g> <g> <g> <path class="st5" d="M193.7,128.7c0,0,0,0-0.1,0c-0.1,0-0.2,0-0.4,0c-0.3,0-0.7,0-1.2-0.1c-0.4-0.1-0.8-0.3-1.1-0.4 c-0.1-0.1-0.2-0.1-0.3-0.2c-0.1,0-0.1-0.1-0.1-0.1c0,0,0,0,0.1,0.1c0.1,0,0.2,0.1,0.3,0.2c0.3,0.1,0.7,0.3,1.1,0.4 c0.4,0.1,0.9,0.1,1.1,0.1c0.1,0,0.3,0,0.4,0C193.6,128.7,193.7,128.7,193.7,128.7z"></path> </g> </g> </g> </g> <g> <g> <g> <path class="st15" d="M200.7,122.8c0,0,0,0,0-0.1c0-0.1,0-0.2,0-0.3c0-0.3,0-0.7,0-1.3c0-0.3-0.1-0.6-0.2-0.9 c-0.1-0.3-0.2-0.7-0.4-1c-0.3-0.7-0.8-1.5-1.5-2.2c-0.4-0.4-0.8-0.7-1.2-1c-0.5-0.3-1-0.5-1.5-0.7c-0.6-0.2-1.2-0.3-1.8-0.3 c-0.3,0-0.6,0-0.9,0c-0.3,0-0.6,0.1-1,0.1c-1.3,0.3-2.6,1-3.5,2c-0.2,0.3-0.5,0.5-0.7,0.8c-0.2,0.3-0.4,0.6-0.6,0.9 c-0.3,0.7-0.5,1.4-0.6,2.1c-0.1,0.8-0.1,1.5,0.1,2.2c0,0.2,0.1,0.4,0.1,0.5c0.1,0.2,0.1,0.4,0.2,0.5c0.1,0.3,0.3,0.7,0.4,1 c0.7,1.3,1.7,2.2,2.9,2.8c0.3,0.1,0.6,0.3,0.9,0.4c0.3,0.1,0.6,0.2,0.9,0.3c0.6,0.1,1.2,0.2,1.8,0.1c0.6,0,1.1-0.1,1.7-0.3 c0.5-0.2,1-0.4,1.4-0.6c0.9-0.5,1.5-1.1,2-1.7c0.2-0.3,0.4-0.6,0.6-0.9c0.2-0.3,0.3-0.6,0.4-0.8c0.2-0.5,0.3-0.9,0.4-1.2 c0-0.1,0-0.3,0.1-0.3C200.6,122.9,200.7,122.8,200.7,122.8s0,0.2-0.1,0.4c-0.1,0.3-0.2,0.7-0.4,1.2c-0.1,0.3-0.2,0.5-0.4,0.8 c-0.2,0.3-0.4,0.6-0.6,0.9c-0.5,0.6-1.2,1.3-2,1.8c-0.4,0.3-0.9,0.5-1.4,0.6c-0.5,0.2-1.1,0.3-1.7,0.3c-0.6,0-1.2,0-1.8-0.1 c-0.3-0.1-0.6-0.1-0.9-0.3c-0.3-0.1-0.6-0.2-0.9-0.4c-1.2-0.6-2.2-1.6-2.9-2.9c-0.2-0.3-0.3-0.6-0.5-1c-0.1-0.2-0.1-0.3-0.2-0.5 c0-0.2-0.1-0.4-0.1-0.5c-0.1-0.7-0.2-1.5-0.1-2.3c0.1-0.8,0.3-1.5,0.6-2.2c0.2-0.3,0.3-0.7,0.6-1c0.2-0.3,0.4-0.6,0.7-0.8 c1-1,2.3-1.7,3.6-2c0.3-0.1,0.6-0.1,1-0.1c0.3,0,0.6,0,1,0c0.6,0,1.2,0.2,1.8,0.3c0.6,0.2,1.1,0.4,1.5,0.7 c0.5,0.3,0.9,0.6,1.2,1c0.7,0.7,1.2,1.5,1.5,2.2c0.2,0.4,0.3,0.7,0.4,1c0.1,0.3,0.1,0.6,0.2,0.9c0.1,0.6,0.1,1,0,1.3 C200.7,122.7,200.7,122.8,200.7,122.8z"></path> </g> </g> </g> </g> <g> <g> <g> <g> <path class="st6" d="M175.4,138c1.7,2,4.5,2.5,6.2,1c1.7-1.4,1.6-4.3-0.1-6.3c-1.7-2-4.5-2.5-6.2-1 C173.7,133.2,173.7,136,175.4,138z"></path> </g> </g> <g class="st14"> <g> <path d="M175.5,138c1.7,2,4.5,2.5,6.2,1c1.7-1.4,1.6-4.3-0.1-6.3c-1.7-2-4.5-2.5-6.2-1C173.7,133.2,173.7,136,175.5,138z"></path> </g> </g> <g> <g> <ellipse transform="matrix(0.7592 -0.6508 0.6508 0.7592 -44.658 149.0232)" class="st6" cx="179.1" cy="134.9" rx="4" ry="4.8"></ellipse> </g> </g> <g class="st13"> <g> <path class="st5" d="M174.9,132.7c0.2-0.6,0.5-1.1,1-1.5c1.7-1.4,4.5-1,6.2,1c0.7,0.8,1.1,1.8,1.3,2.7c-1.1,0.5-2.2,0.7-3.4,0.7 c-1.2,0-2.3-0.3-3.2-1.1C176.2,134.1,175.4,133.5,174.9,132.7z"></path> </g> </g> <g> <g> <path class="st5" d="M176.8,136.7c1.3,1.6,3.4,1.9,4.7,0.8c1.3-1.1,1.2-3.2-0.1-4.8c-1.3-1.6-3.4-1.9-4.7-0.8 C175.4,133,175.4,135.2,176.8,136.7z"></path> </g> </g> <g class="st14"> <g> <path d="M176.8,136.7c1.3,1.6,3.4,1.9,4.7,0.8c1.3-1.1,1.2-3.2-0.1-4.8c-1.3-1.6-3.4-1.9-4.7-0.8 C175.4,133,175.4,135.2,176.8,136.7z"></path> </g> </g> <g> <g> <path class="st6" d="M176.7,136.9c1.3,1.5,3.4,1.9,4.6,0.8c1.2-1.1,1.2-3.1-0.1-4.7c-1.3-1.5-3.4-1.9-4.6-0.8 C175.4,133.3,175.4,135.4,176.7,136.9z"></path> </g> </g> </g> <g class="st14"> <g> <path class="st5" d="M176.7,136.9c1.3,1.5,3.4,1.9,4.6,0.8c1.2-1.1,1.2-3.1-0.1-4.7c-1.3-1.5-3.4-1.9-4.6-0.8 C175.4,133.3,175.4,135.4,176.7,136.9z"></path> </g> </g> <g> <g> <g> <g> <path class="st6" d="M178.5,136.1c0.3,0.4,0.8,0.5,1.3,0.2l0.3,0.4l0.2-0.2l0-0.2l-0.1,0.1L180,136c0.3-0.3,0.4-0.6,0.4-0.9 l-0.4-0.3c0,0.3-0.1,0.6-0.3,0.8l-0.6-0.7c0.2-0.4,0.5-0.8,0-1.3c-0.3-0.4-0.8-0.5-1.3-0.2l-0.4-0.4l-0.1,0.1l-0.1-0.1l0,0.2 l0.3,0.4c-0.1,0.1-0.2,0.3-0.3,0.5l-0.1,0l0,0.2l0.1,0l0.3,0.2l0,0c0,0,0-0.1,0-0.2c0.1-0.1,0.1-0.3,0.2-0.4c0,0,0,0,0,0 l0.6,0.7C178.3,135.1,178.1,135.5,178.5,136.1z M178.2,133.8c0.2-0.1,0.4-0.1,0.6,0.1c0.1,0.2,0.1,0.4,0,0.6L178.2,133.8z M177.9,134L177.9,134L177.9,134L177.9,134z M178.9,135.8c-0.2-0.2-0.1-0.4,0-0.6l0.5,0.6C179.2,136,179,135.9,178.9,135.8z"></path> </g> </g> </g> <g class="st8"> <g> <g> <path d="M178.5,136.1c0.3,0.4,0.8,0.5,1.3,0.2l0.3,0.4l0.2-0.2l0-0.2l-0.1,0.1L180,136c0.3-0.3,0.4-0.6,0.4-0.9l-0.4-0.3 c0,0.3-0.1,0.6-0.3,0.8l-0.6-0.7c0.2-0.4,0.5-0.8,0-1.3c-0.3-0.4-0.8-0.5-1.3-0.2l-0.4-0.4l-0.1,0.1l-0.1-0.1l0,0.2l0.3,0.4 c-0.1,0.1-0.2,0.3-0.3,0.5l-0.1,0l0,0.2l0.1,0l0.3,0.2l0,0c0,0,0-0.1,0-0.2c0.1-0.1,0.1-0.3,0.2-0.4c0,0,0,0,0,0l0.6,0.7 C178.3,135.1,178.1,135.5,178.5,136.1z M178.2,133.8c0.2-0.1,0.4-0.1,0.6,0.1c0.1,0.2,0.1,0.4,0,0.6L178.2,133.8z M177.9,134 L177.9,134L177.9,134L177.9,134z M178.9,135.8c-0.2-0.2-0.1-0.4,0-0.6l0.5,0.6C179.2,136,179,135.9,178.9,135.8z"></path> </g> </g> </g> <g> <g> <path class="st6" d="M178.5,135.9c-0.4-0.5-0.2-0.9,0-1.3l-0.6-0.7c-0.1,0.2-0.2,0.4-0.3,0.6l-0.4-0.3c0-0.3,0.2-0.5,0.4-0.7 l-0.3-0.4l0.2-0.2l0.4,0.4c0.5-0.3,1-0.2,1.3,0.2c0.4,0.5,0.2,0.9,0,1.3l0.6,0.7c0.2-0.2,0.3-0.5,0.3-0.8l0.4,0.3 c0,0.3-0.2,0.6-0.4,0.9l0.3,0.4l-0.2,0.2l-0.3-0.4C179.3,136.4,178.8,136.2,178.5,135.9z M179.5,135.6l-0.5-0.6 c-0.1,0.2-0.2,0.4,0,0.6C179,135.7,179.2,135.8,179.5,135.6z M178.8,133.7c-0.1-0.2-0.3-0.2-0.6-0.1l0.6,0.6 C178.8,134.1,178.9,133.9,178.8,133.7z"></path> </g> </g> </g> <g> <g> <g> <path class="st15" d="M176.2,134.7c0,0,0,0.1,0.1,0.3c0,0.2,0.1,0.5,0.3,0.8c0.1,0.3,0.4,0.7,0.7,1c0.2,0.2,0.3,0.3,0.5,0.5 c0.2,0.1,0.4,0.3,0.7,0.4c0.5,0.2,1,0.4,1.4,0.4c0.5,0,0.9-0.1,1.2-0.2c0.3-0.1,0.5-0.3,0.7-0.5c0.1-0.1,0.1-0.1,0.2-0.2 c0,0,0.1-0.1,0.1-0.1c0,0,0,0,0,0.1c0,0-0.1,0.1-0.1,0.2c-0.1,0.1-0.3,0.3-0.7,0.5c-0.3,0.2-0.7,0.3-1.2,0.2 c-0.5,0-1-0.2-1.5-0.4c-0.2-0.1-0.5-0.2-0.7-0.4c-0.2-0.2-0.4-0.3-0.5-0.5c-0.3-0.3-0.5-0.7-0.7-1c-0.1-0.3-0.2-0.6-0.2-0.8 C176.2,134.9,176.2,134.9,176.2,134.7C176.2,134.8,176.2,134.7,176.2,134.7z"></path> </g> </g> </g> <g> <g> <g> <path class="st15" d="M177.5,138.2c0,0,0.2,0.2,0.7,0.3c0.1,0,0.1,0,0.2,0.1c0.1,0,0.1,0,0.2,0.1c0.1,0,0.3,0.1,0.4,0.1 c0.3,0.1,0.6,0.1,1,0.1c0.4,0,0.7,0,1-0.1c0.1,0,0.3-0.1,0.4-0.1c0.1,0,0.1,0,0.2-0.1c0.1,0,0.1,0,0.2-0.1 c0.4-0.2,0.7-0.3,0.7-0.3c0,0-0.1,0-0.2,0.1c-0.1,0-0.1,0.1-0.2,0.1c-0.1,0-0.2,0.1-0.3,0.1c-0.1,0-0.1,0-0.2,0.1 c-0.1,0-0.1,0-0.2,0.1c-0.1,0-0.3,0.1-0.4,0.1c-0.3,0.1-0.6,0.1-1,0.1c-0.4,0-0.7-0.1-1-0.1c-0.1,0-0.3-0.1-0.4-0.1 c-0.1,0-0.1,0-0.2-0.1c-0.1,0-0.1-0.1-0.2-0.1c-0.1,0-0.2-0.1-0.3-0.1c-0.1,0-0.1-0.1-0.2-0.1 C177.6,138.2,177.5,138.2,177.5,138.2z"></path> </g> </g> </g> <g> <g> <g> <path class="st5" d="M182.4,132.7c0,0-0.1-0.2-0.3-0.4c-0.2-0.2-0.5-0.6-1-0.9c-0.4-0.3-0.8-0.5-1.1-0.6 c-0.3-0.1-0.5-0.2-0.5-0.2c0,0,0.1,0,0.1,0c0.1,0,0.2,0.1,0.4,0.1c0.3,0.1,0.7,0.3,1.1,0.6c0.4,0.3,0.7,0.6,0.9,0.9 c0.1,0.1,0.2,0.2,0.2,0.3C182.4,132.7,182.4,132.7,182.4,132.7z"></path> </g> </g> </g> <g> <g> <g> <path class="st5" d="M182.7,133.6c0,0-0.1-0.1-0.2-0.3c-0.1-0.2-0.2-0.3-0.2-0.3c0,0,0.1,0.1,0.2,0.3 C182.6,133.4,182.7,133.6,182.7,133.6z"></path> </g> </g> </g> <g> <g> <g> <path class="st5" d="M176.2,132.9c0,0,0,0,0.1-0.1c0,0,0.1-0.1,0.1-0.1c0,0,0.1-0.1,0.1-0.1c0.1-0.1,0.2-0.2,0.4-0.3 c0.2-0.1,0.3-0.2,0.6-0.3c0.2-0.1,0.4-0.1,0.6-0.2c0.2,0,0.4,0,0.5,0c0.1,0,0.1,0,0.2,0c0.1,0,0.1,0,0.1,0c0.1,0,0.1,0,0.1,0 c0,0-0.2,0-0.5,0c-0.1,0-0.3,0-0.5,0c-0.2,0-0.4,0.1-0.6,0.2c-0.2,0.1-0.4,0.2-0.5,0.3c-0.2,0.1-0.3,0.2-0.4,0.3 C176.3,132.8,176.2,132.9,176.2,132.9z"></path> </g> </g> </g> <g> <g> <g> <path class="st5" d="M179,133.6c0,0-0.1-0.1-0.2-0.2c-0.2-0.1-0.3-0.1-0.3-0.1c0,0,0,0,0.1,0c0.1,0,0.2,0,0.2,0.1 c0.1,0.1,0.1,0.1,0.2,0.2C179,133.5,179,133.5,179,133.6z"></path> </g> </g> </g> <g> <g> <g> <path class="st5" d="M180.5,135C180.5,135,180.5,135,180.5,135c-0.1-0.1-0.1-0.1-0.1-0.1c0,0,0,0,0,0c0,0,0.1,0,0.1,0 C180.5,134.9,180.6,135,180.5,135C180.5,135,180.5,135,180.5,135z"></path> </g> </g> </g> </g> <g> <g> <g> <g> <g> <g> <path class="st6" d="M197,144.9c-1.8-0.4-4.5,0.1-7.3,1.2c-2.8,1.1-5.1,2.7-6.1,4.1l-1.2,0.5l0.7,1.8c0.8,2,5,2.2,9.3,0.4 c4.4-1.7,7.3-4.7,6.5-6.7l-0.7-1.8L197,144.9z"></path> </g> </g> <g class="st8"> <g> <path d="M197,144.9c-1.8-0.4-4.5,0.1-7.3,1.2c-2.8,1.1-5.1,2.7-6.1,4.1l-1.2,0.5l0.7,1.8c0.8,2,5,2.2,9.3,0.4 c4.4-1.7,7.3-4.7,6.5-6.7l-0.7-1.8L197,144.9z"></path> </g> </g> <g> <g> <path class="st6" d="M191.7,151.2c-4.4,1.7-8.5,1.5-9.3-0.4c-0.8-2,2.1-5,6.5-6.7c4.4-1.7,8.5-1.5,9.3,0.4 C199,146.5,196.1,149.5,191.7,151.2z"></path> </g> </g> <g class="st13"> <g> <path class="st5" d="M186.2,148.2c0.9,0,1.8,0,2.6-0.1c3.1-0.4,5.9-2.3,7.4-5c-1.8-0.4-4.5-0.1-7.2,1c-2.6,1-4.8,2.6-5.8,4 C184.1,148.2,185.1,148.2,186.2,148.2z"></path> </g> </g> <g> <g> <path class="st6" d="M191.3,149.7c-3.4,1.3-6.3,1.8-6.9,0.4c-0.6-1.4,1.6-3.9,5-5.2c3.4-1.3,6.5-1.3,7,0 c0.1,0.3,0.3,0.7-0.1,1.5C195.9,147.7,193.8,148.7,191.3,149.7z"></path> </g> </g> <g class="st8"> <g> <path d="M191.3,149.7c-3.4,1.3-6.3,1.8-6.9,0.4c-0.6-1.4,1.6-3.9,5-5.2c3.4-1.3,6.5-1.3,7,0c0.1,0.3,0.3,0.7-0.1,1.5 C195.9,147.7,193.8,148.7,191.3,149.7z"></path> </g> </g> <g> <g> <path class="st6" d="M191.4,150.3c-3.3,1.3-6.4,1.3-6.9,0c-0.5-1.3,1.7-3.4,5-4.7c3.3-1.3,6.4-1.3,6.9,0 C196.9,146.9,194.7,149,191.4,150.3z"></path> </g> </g> <g class="st14"> <g> <path class="st5" d="M191.4,150.3c-3.3,1.3-6.4,1.3-6.9,0c-0.5-1.3,1.7-3.4,5-4.7c3.3-1.3,6.4-1.3,6.9,0 C196.9,146.9,194.7,149,191.4,150.3z"></path> </g> </g> </g> </g> <g> <g> <g> <g> <path class="st6" d="M191.1,147.9l1.5-0.6c0,0,0,0,0,0c0,0.2,0,0.4,0,0.6c-0.1,0.2-0.1,0.3-0.1,0.3l0,0l0.6-0.1l0.1,0l0.2-0.3 l-0.1-0.1c0.1-0.3,0.1-0.5,0-0.8l0.8-0.3l0.1-0.2l-0.2,0.1l-0.1-0.2l-0.8,0.3c-0.4-0.6-1.2-0.7-1.9-0.4c-1,0.4-1,1-1,1.6 l-1.4,0.6c-0.1-0.4,0-0.8,0.2-1.1l-0.8,0.1c-0.2,0.4-0.3,0.9-0.2,1.3l-0.6,0.2l-0.1-0.2l-0.1,0.2l0.1,0.4l0.8-0.3 c0.4,0.6,1.2,0.7,1.9,0.4C191.1,149.1,191.1,148.5,191.1,147.9z M191.1,147.5c0-0.3,0.1-0.6,0.4-0.7c0.3-0.1,0.6-0.1,0.8,0.2 L191.1,147.5z M192.6,147.3L192.6,147.3L192.6,147.3C192.6,147.3,192.6,147.3,192.6,147.3z M189,148.8l1.3-0.5 c0,0.3-0.1,0.6-0.5,0.7C189.5,149.1,189.2,149.1,189,148.8z"></path> </g> </g> </g> <g class="st8"> <g> <g> <path d="M191.1,147.9l1.5-0.6c0,0,0,0,0,0c0,0.2,0,0.4,0,0.6c-0.1,0.2-0.1,0.3-0.1,0.3l0,0l0.6-0.1l0.1,0l0.2-0.3l-0.1-0.1 c0.1-0.3,0.1-0.5,0-0.8l0.8-0.3l0.1-0.2l-0.2,0.1l-0.1-0.2l-0.8,0.3c-0.4-0.6-1.2-0.7-1.9-0.4c-1,0.4-1,1-1,1.6l-1.4,0.6 c-0.1-0.4,0-0.8,0.2-1.1l-0.8,0.1c-0.2,0.4-0.3,0.9-0.2,1.3l-0.6,0.2l-0.1-0.2l-0.1,0.2l0.1,0.4l0.8-0.3 c0.4,0.6,1.2,0.7,1.9,0.4C191.1,149.1,191.1,148.5,191.1,147.9z M191.1,147.5c0-0.3,0.1-0.6,0.4-0.7c0.3-0.1,0.6-0.1,0.8,0.2 L191.1,147.5z M192.6,147.3L192.6,147.3L192.6,147.3C192.6,147.3,192.6,147.3,192.6,147.3z M189,148.8l1.3-0.5 c0,0.3-0.1,0.6-0.5,0.7C189.5,149.1,189.2,149.1,189,148.8z"></path> </g> </g> </g> <g> <g> <path class="st6" d="M188.2,148.7l-0.8,0.3l-0.1-0.4l0.8-0.3c-0.1-0.5,0-1,0.2-1.3l0.8-0.1c-0.2,0.3-0.3,0.7-0.3,1.1l1.5-0.5 c0-0.6,0.1-1.2,1.1-1.5c0.8-0.3,1.5-0.1,1.9,0.5l0.8-0.3l0.1,0.4l-0.8,0.3c0.1,0.3,0,0.7-0.1,1.1l-0.8,0.1 c0.1-0.3,0.2-0.6,0.2-0.9l-1.5,0.5c0,0.6-0.1,1.2-1.1,1.5C189.4,149.5,188.6,149.4,188.2,148.7z M189.9,148.7 c0.4-0.1,0.5-0.4,0.5-0.7l-1.3,0.4C189.2,148.8,189.5,148.8,189.9,148.7z M191.3,147.3l1.3-0.4c-0.2-0.3-0.5-0.3-0.8-0.2 C191.4,146.8,191.3,147,191.3,147.3z"></path> </g> </g> </g> <g> <g> <g> <path class="st15" d="M196.1,147.1C196.1,147.1,196.1,147.1,196.1,147.1c-0.1,0.1-0.2,0.2-0.3,0.3c-0.1,0.1-0.2,0.2-0.3,0.3 c-0.1,0.1-0.3,0.3-0.5,0.4c-0.7,0.6-1.7,1.4-3,1.9c-1.3,0.6-2.5,0.9-3.4,1c-0.5,0.1-0.8,0.1-1.1,0.2c-0.1,0-0.2,0-0.3,0 c-0.1,0-0.1,0-0.1,0c0,0,0,0,0.1,0c0.1,0,0.2,0,0.3-0.1c0.3,0,0.6-0.1,1.1-0.2c0.9-0.2,2.1-0.5,3.4-1c1.3-0.6,2.3-1.3,3-1.9 c0.2-0.1,0.3-0.3,0.5-0.4c0.1-0.1,0.2-0.2,0.3-0.3C195.9,147.3,196,147.2,196.1,147.1C196.1,147.1,196.1,147.1,196.1,147.1z"></path> </g> </g> </g> </g> <g> <g> <g> <path class="st15" d="M189.8,151.9C189.8,151.9,189.8,151.9,189.8,151.9c-0.1,0-0.2,0.1-0.3,0.1c-0.2,0.1-0.5,0.1-0.8,0.2 c-0.7,0.1-1.7,0.3-2.8,0.3c-0.6,0-1.1-0.1-1.6-0.2c-0.5-0.1-0.9-0.3-1.2-0.5c-0.3-0.2-0.5-0.5-0.6-0.7c-0.1-0.1-0.1-0.2-0.1-0.2 c0-0.1,0-0.1,0-0.1c0,0,0,0.1,0.2,0.3c0.1,0.2,0.3,0.4,0.6,0.6c0.3,0.2,0.7,0.4,1.2,0.5c0.5,0.1,1,0.2,1.5,0.2 c1.1,0,2.1-0.1,2.8-0.2c0.4-0.1,0.7-0.1,0.9-0.2C189.7,151.9,189.8,151.9,189.8,151.9z"></path> </g> </g> </g> <g> <g> <g> <path class="st5" d="M184.7,146.9c0,0-0.2,0.2-0.5,0.5c-0.3,0.3-0.7,0.7-1.1,1.3c-0.3,0.5-0.5,1.1-0.6,1.5c0,0.4,0,0.7,0,0.7 c0,0,0-0.1,0-0.2c0-0.1,0-0.3,0-0.5c0-0.4,0.2-1,0.5-1.6c0.4-0.6,0.8-1,1.1-1.3c0.2-0.1,0.3-0.3,0.4-0.3 C184.6,146.9,184.7,146.9,184.7,146.9z"></path> </g> </g> </g> <g> <g> <g> <path class="st5" d="M188.3,147.5c0,0-0.1,0.2-0.1,0.5c-0.1,0.2-0.1,0.5-0.1,0.5c0,0,0-0.2,0-0.5 C188.2,147.7,188.3,147.5,188.3,147.5z"></path> </g> </g> </g> <g> <g> <g> <path class="st5" d="M184.4,153.3c0,0-0.4-0.1-0.7-0.4c-0.4-0.3-0.5-0.7-0.5-0.7c0,0,0.2,0.3,0.5,0.6 C184.1,153.2,184.4,153.3,184.4,153.3z"></path> </g> </g> </g> </g> <g> <g> <g> <g> <g> <g> <path class="st6" d="M229.1,167.6c-1.8-0.4-4.5,0.1-7.3,1.2c-2.8,1.1-5.1,2.7-6.1,4.1l-1.2,0.5l0.7,1.8c0.8,2,5,2.2,9.3,0.4 c4.4-1.7,7.3-4.7,6.5-6.7l-0.7-1.8L229.1,167.6z"></path> </g> </g> <g class="st8"> <g> <path d="M229.1,167.6c-1.8-0.4-4.5,0.1-7.3,1.2c-2.8,1.1-5.1,2.7-6.1,4.1l-1.2,0.5l0.7,1.8c0.8,2,5,2.2,9.3,0.4 c4.4-1.7,7.3-4.7,6.5-6.7l-0.7-1.8L229.1,167.6z"></path> </g> </g> <g> <g> <path class="st6" d="M223.9,173.9c-4.4,1.7-8.5,1.5-9.3-0.4c-0.8-2,2.1-5,6.5-6.7c4.4-1.7,8.5-1.5,9.3,0.4 C231.2,169.2,228.3,172.2,223.9,173.9z"></path> </g> </g> <g class="st13"> <g> <path class="st5" d="M218.3,170.9c0.9,0,1.8,0,2.6-0.1c3.1-0.4,5.9-2.3,7.4-5c-1.8-0.4-4.5-0.1-7.2,1c-2.6,1-4.8,2.6-5.8,4 C216.3,170.9,217.3,170.9,218.3,170.9z"></path> </g> </g> <g> <g> <path class="st6" d="M223.5,172.4c-3.4,1.3-6.3,1.8-6.9,0.4c-0.6-1.4,1.6-3.9,5-5.2c3.4-1.3,6.5-1.3,7,0 c0.1,0.3,0.3,0.7-0.1,1.5C228,170.4,226,171.4,223.5,172.4z"></path> </g> </g> <g class="st8"> <g> <path d="M223.5,172.4c-3.4,1.3-6.3,1.8-6.9,0.4c-0.6-1.4,1.6-3.9,5-5.2c3.4-1.3,6.5-1.3,7,0c0.1,0.3,0.3,0.7-0.1,1.5 C228,170.4,226,171.4,223.5,172.4z"></path> </g> </g> <g> <g> <path class="st6" d="M223.5,173c-3.3,1.3-6.4,1.3-6.9,0c-0.5-1.3,1.7-3.4,5-4.7c3.3-1.3,6.4-1.3,6.9,0 C229.1,169.6,226.8,171.7,223.5,173z"></path> </g> </g> <g class="st14"> <g> <path class="st5" d="M223.5,173c-3.3,1.3-6.4,1.3-6.9,0c-0.5-1.3,1.7-3.4,5-4.7c3.3-1.3,6.4-1.3,6.9,0 C229.1,169.6,226.8,171.7,223.5,173z"></path> </g> </g> </g> </g> <g> <g> <g> <g> <path class="st6" d="M223.3,170.6l1.5-0.6c0,0,0,0,0,0c0,0.2,0,0.4,0,0.6c-0.1,0.2-0.1,0.3-0.1,0.3l0,0l0.6-0.1l0.1,0l0.2-0.3 l-0.1-0.1c0.1-0.3,0.1-0.5,0-0.8l0.8-0.3l0.1-0.2l-0.2,0.1l-0.1-0.2l-0.8,0.3c-0.4-0.6-1.2-0.7-1.9-0.4c-1,0.4-1,1-1,1.6 l-1.4,0.6c-0.1-0.4,0-0.8,0.2-1.1l-0.8,0.1c-0.2,0.4-0.3,0.9-0.2,1.3l-0.6,0.2l-0.1-0.2l-0.1,0.2l0.1,0.4l0.8-0.3 c0.4,0.6,1.2,0.7,1.9,0.4C223.2,171.8,223.3,171.2,223.3,170.6z M223.3,170.2c0-0.3,0.1-0.6,0.4-0.7c0.3-0.1,0.6-0.1,0.8,0.2 L223.3,170.2z M224.7,170L224.7,170L224.7,170C224.7,170,224.7,170,224.7,170z M221.1,171.5l1.3-0.5c0,0.3-0.1,0.6-0.5,0.7 C221.6,171.8,221.3,171.8,221.1,171.5z"></path> </g> </g> </g> <g class="st8"> <g> <g> <path d="M223.3,170.6l1.5-0.6c0,0,0,0,0,0c0,0.2,0,0.4,0,0.6c-0.1,0.2-0.1,0.3-0.1,0.3l0,0l0.6-0.1l0.1,0l0.2-0.3l-0.1-0.1 c0.1-0.3,0.1-0.5,0-0.8l0.8-0.3l0.1-0.2l-0.2,0.1l-0.1-0.2l-0.8,0.3c-0.4-0.6-1.2-0.7-1.9-0.4c-1,0.4-1,1-1,1.6l-1.4,0.6 c-0.1-0.4,0-0.8,0.2-1.1l-0.8,0.1c-0.2,0.4-0.3,0.9-0.2,1.3l-0.6,0.2l-0.1-0.2l-0.1,0.2l0.1,0.4l0.8-0.3 c0.4,0.6,1.2,0.7,1.9,0.4C223.2,171.8,223.3,171.2,223.3,170.6z M223.3,170.2c0-0.3,0.1-0.6,0.4-0.7c0.3-0.1,0.6-0.1,0.8,0.2 L223.3,170.2z M224.7,170L224.7,170L224.7,170C224.7,170,224.7,170,224.7,170z M221.1,171.5l1.3-0.5c0,0.3-0.1,0.6-0.5,0.7 C221.6,171.8,221.3,171.8,221.1,171.5z"></path> </g> </g> </g> <g> <g> <path class="st6" d="M220.4,171.4l-0.8,0.3l-0.1-0.4l0.8-0.3c-0.1-0.5,0-1,0.2-1.3l0.8-0.1c-0.2,0.3-0.3,0.7-0.3,1.1l1.5-0.5 c0-0.6,0.1-1.2,1.1-1.5c0.8-0.3,1.5-0.1,1.9,0.5l0.8-0.3l0.1,0.4l-0.8,0.3c0.1,0.3,0,0.7-0.1,1.1l-0.8,0.1 c0.1-0.3,0.2-0.6,0.2-0.9l-1.5,0.5c0,0.6-0.1,1.2-1.1,1.5C221.5,172.2,220.8,172.1,220.4,171.4z M222,171.4 c0.4-0.1,0.5-0.4,0.5-0.7l-1.3,0.4C221.4,171.5,221.7,171.5,222,171.4z M223.4,170l1.3-0.4c-0.2-0.3-0.5-0.3-0.8-0.2 C223.6,169.5,223.5,169.7,223.4,170z"></path> </g> </g> </g> <g> <g> <g> <path class="st15" d="M228.3,169.8C228.3,169.8,228.3,169.8,228.3,169.8c-0.1,0.1-0.2,0.2-0.3,0.3c-0.1,0.1-0.2,0.2-0.3,0.3 c-0.1,0.1-0.3,0.3-0.5,0.4c-0.7,0.6-1.7,1.4-3,1.9c-1.3,0.6-2.5,0.9-3.4,1c-0.5,0.1-0.8,0.1-1.1,0.2c-0.1,0-0.2,0-0.3,0 c-0.1,0-0.1,0-0.1,0c0,0,0,0,0.1,0c0.1,0,0.2,0,0.3-0.1c0.3,0,0.6-0.1,1.1-0.2c0.9-0.2,2.1-0.5,3.4-1c1.3-0.6,2.3-1.3,3-1.9 c0.2-0.1,0.3-0.3,0.5-0.4c0.1-0.1,0.2-0.2,0.3-0.3C228.1,170,228.2,169.9,228.3,169.8C228.3,169.8,228.3,169.8,228.3,169.8z"></path> </g> </g> </g> </g> <g> <g> <g> <path class="st15" d="M222,174.6C222,174.6,222,174.6,222,174.6c-0.1,0-0.2,0.1-0.3,0.1c-0.2,0.1-0.5,0.1-0.8,0.2 c-0.7,0.1-1.7,0.3-2.8,0.3c-0.6,0-1.1-0.1-1.6-0.2c-0.5-0.1-0.9-0.3-1.2-0.5c-0.3-0.2-0.5-0.5-0.6-0.7c-0.1-0.1-0.1-0.2-0.1-0.2 c0-0.1,0-0.1,0-0.1c0,0,0,0.1,0.2,0.3c0.1,0.2,0.3,0.4,0.6,0.6c0.3,0.2,0.7,0.4,1.2,0.5c0.5,0.1,1,0.2,1.5,0.2 c1.1,0,2.1-0.1,2.8-0.2c0.4-0.1,0.7-0.1,0.9-0.2C221.9,174.6,222,174.6,222,174.6z"></path> </g> </g> </g> <g> <g> <g> <path class="st5" d="M216.8,169.6c0,0-0.2,0.2-0.5,0.5c-0.3,0.3-0.7,0.7-1.1,1.3c-0.3,0.5-0.5,1.1-0.6,1.5c0,0.4,0,0.7,0,0.7 c0,0,0-0.1,0-0.2c0-0.1,0-0.3,0-0.5c0-0.4,0.2-1,0.5-1.6c0.4-0.6,0.8-1,1.1-1.3c0.2-0.1,0.3-0.3,0.4-0.3 C216.8,169.6,216.8,169.6,216.8,169.6z"></path> </g> </g> </g> <g> <g> <g> <path class="st5" d="M220.5,170.2c0,0-0.1,0.2-0.1,0.5c-0.1,0.2-0.1,0.5-0.1,0.5c0,0,0-0.2,0-0.5 C220.3,170.4,220.5,170.2,220.5,170.2z"></path> </g> </g> </g> <g> <g> <g> <path class="st5" d="M216.6,176c0,0-0.4-0.1-0.7-0.4c-0.4-0.3-0.5-0.7-0.5-0.7c0,0,0.2,0.3,0.5,0.6 C216.3,175.9,216.6,176,216.6,176z"></path> </g> </g> </g> </g> <g> <g> <g> <g> <g> <g> <path class="st6" d="M162.8,157.5c-1.8-0.4-4.5,0.1-7.3,1.2c-2.8,1.1-5.1,2.7-6.1,4.1l-1.2,0.5l0.7,1.8c0.8,2,5,2.2,9.3,0.4 c4.4-1.7,7.3-4.7,6.5-6.7l-0.7-1.8L162.8,157.5z"></path> </g> </g> <g class="st8"> <g> <path d="M162.8,157.5c-1.8-0.4-4.5,0.1-7.3,1.2c-2.8,1.1-5.1,2.7-6.1,4.1l-1.2,0.5l0.7,1.8c0.8,2,5,2.2,9.3,0.4 c4.4-1.7,7.3-4.7,6.5-6.7l-0.7-1.8L162.8,157.5z"></path> </g> </g> <g> <g> <path class="st6" d="M157.6,163.9c-4.4,1.7-8.5,1.5-9.3-0.4c-0.8-2,2.1-5,6.5-6.7c4.4-1.7,8.5-1.5,9.3,0.4 C164.8,159.2,161.9,162.2,157.6,163.9z"></path> </g> </g> <g class="st13"> <g> <path class="st5" d="M152,160.9c0.9,0,1.8,0,2.6-0.1c3.1-0.4,5.9-2.3,7.4-5c-1.8-0.4-4.5-0.1-7.2,1c-2.6,1-4.8,2.6-5.8,4 C149.9,160.8,151,160.9,152,160.9z"></path> </g> </g> <g> <g> <path class="st6" d="M157.1,162.4c-3.4,1.3-6.3,1.8-6.9,0.4c-0.6-1.4,1.6-3.9,5-5.2c3.4-1.3,6.5-1.3,7,0 c0.1,0.3,0.3,0.7-0.1,1.5C161.7,160.3,159.7,161.4,157.1,162.4z"></path> </g> </g> <g class="st8"> <g> <path d="M157.1,162.4c-3.4,1.3-6.3,1.8-6.9,0.4c-0.6-1.4,1.6-3.9,5-5.2c3.4-1.3,6.5-1.3,7,0c0.1,0.3,0.3,0.7-0.1,1.5 C161.7,160.3,159.7,161.4,157.1,162.4z"></path> </g> </g> <g> <g> <path class="st6" d="M157.2,163c-3.3,1.3-6.4,1.3-6.9,0c-0.5-1.3,1.7-3.4,5-4.7c3.3-1.3,6.4-1.3,6.9,0 C162.7,159.6,160.5,161.7,157.2,163z"></path> </g> </g> <g class="st14"> <g> <path class="st5" d="M157.2,163c-3.3,1.3-6.4,1.3-6.9,0c-0.5-1.3,1.7-3.4,5-4.7c3.3-1.3,6.4-1.3,6.9,0 C162.7,159.6,160.5,161.7,157.2,163z"></path> </g> </g> </g> </g> <g> <g> <g> <g> <path class="st6" d="M156.9,160.6l1.5-0.6c0,0,0,0,0,0c0,0.2,0,0.4,0,0.6c-0.1,0.2-0.1,0.3-0.1,0.3l0,0l0.6-0.1l0.1,0l0.2-0.3 l-0.1-0.1c0.1-0.3,0.1-0.5,0-0.8l0.8-0.3l0.1-0.2l-0.2,0.1l-0.1-0.2l-0.8,0.3c-0.4-0.6-1.2-0.7-1.9-0.4c-1,0.4-1,1-1,1.6 l-1.4,0.6c-0.1-0.4,0-0.8,0.2-1.1l-0.8,0.1c-0.2,0.4-0.3,0.9-0.2,1.3l-0.6,0.2l-0.1-0.2l-0.1,0.2l0.1,0.4l0.8-0.3 c0.4,0.6,1.2,0.7,1.9,0.4C156.9,161.8,156.9,161.1,156.9,160.6z M156.9,160.1c0-0.3,0.1-0.6,0.4-0.7c0.3-0.1,0.6-0.1,0.8,0.2 L156.9,160.1z M158.4,160L158.4,160L158.4,160C158.4,160,158.4,160,158.4,160z M154.8,161.4l1.3-0.5c0,0.3-0.1,0.6-0.5,0.7 C155.3,161.8,155,161.7,154.8,161.4z"></path> </g> </g> </g> <g class="st8"> <g> <g> <path d="M156.9,160.6l1.5-0.6c0,0,0,0,0,0c0,0.2,0,0.4,0,0.6c-0.1,0.2-0.1,0.3-0.1,0.3l0,0l0.6-0.1l0.1,0l0.2-0.3l-0.1-0.1 c0.1-0.3,0.1-0.5,0-0.8l0.8-0.3l0.1-0.2l-0.2,0.1l-0.1-0.2l-0.8,0.3c-0.4-0.6-1.2-0.7-1.9-0.4c-1,0.4-1,1-1,1.6l-1.4,0.6 c-0.1-0.4,0-0.8,0.2-1.1l-0.8,0.1c-0.2,0.4-0.3,0.9-0.2,1.3l-0.6,0.2l-0.1-0.2l-0.1,0.2l0.1,0.4l0.8-0.3 c0.4,0.6,1.2,0.7,1.9,0.4C156.9,161.7,156.9,161.1,156.9,160.6z M156.9,160.1c0-0.3,0.1-0.6,0.4-0.7c0.3-0.1,0.6-0.1,0.8,0.2 L156.9,160.1z M158.4,160L158.4,160L158.4,160C158.4,160,158.4,160,158.4,160z M154.8,161.4l1.3-0.5c0,0.3-0.1,0.6-0.5,0.7 C155.3,161.8,155,161.7,154.8,161.4z"></path> </g> </g> </g> <g> <g> <path class="st6" d="M154.1,161.4l-0.8,0.3l-0.1-0.4l0.8-0.3c-0.1-0.5,0-1,0.2-1.3l0.8-0.1c-0.2,0.3-0.3,0.7-0.3,1.1l1.5-0.5 c0-0.6,0.1-1.2,1.1-1.5c0.8-0.3,1.5-0.1,1.9,0.5l0.8-0.3l0.1,0.4l-0.8,0.3c0.1,0.3,0,0.7-0.1,1.1l-0.8,0.1 c0.1-0.3,0.2-0.6,0.2-0.9l-1.5,0.5c0,0.6-0.1,1.2-1.1,1.5C155.2,162.2,154.4,162.1,154.1,161.4z M155.7,161.4 c0.4-0.1,0.5-0.4,0.5-0.7l-1.3,0.4C155.1,161.4,155.4,161.5,155.7,161.4z M157.1,160l1.3-0.4c-0.2-0.3-0.5-0.3-0.8-0.2 C157.2,159.4,157.1,159.7,157.1,160z"></path> </g> </g> </g> <g> <g> <g> <path class="st15" d="M162,159.7C162,159.7,162,159.8,162,159.7c-0.1,0.1-0.2,0.2-0.3,0.3c-0.1,0.1-0.2,0.2-0.3,0.3 c-0.1,0.1-0.3,0.3-0.5,0.4c-0.7,0.6-1.7,1.4-3,1.9c-1.3,0.6-2.5,0.9-3.4,1c-0.5,0.1-0.8,0.1-1.1,0.2c-0.1,0-0.2,0-0.3,0 c-0.1,0-0.1,0-0.1,0c0,0,0,0,0.1,0c0.1,0,0.2,0,0.3-0.1c0.3,0,0.6-0.1,1.1-0.2c0.9-0.2,2.1-0.5,3.4-1c1.3-0.6,2.3-1.3,3-1.9 c0.2-0.1,0.3-0.3,0.5-0.4c0.1-0.1,0.2-0.2,0.3-0.3C161.8,159.9,161.8,159.9,162,159.7C161.9,159.8,162,159.7,162,159.7z"></path> </g> </g> </g> </g> <g> <g> <g> <path class="st15" d="M155.7,164.5C155.7,164.5,155.6,164.5,155.7,164.5c-0.1,0-0.2,0.1-0.3,0.1c-0.2,0.1-0.5,0.1-0.8,0.2 c-0.7,0.1-1.7,0.3-2.8,0.3c-0.6,0-1.1-0.1-1.6-0.2c-0.5-0.1-0.9-0.3-1.2-0.5c-0.3-0.2-0.5-0.5-0.6-0.7c-0.1-0.1-0.1-0.2-0.1-0.2 c0-0.1,0-0.1,0-0.1c0,0,0,0.1,0.2,0.3c0.1,0.2,0.3,0.4,0.6,0.6c0.3,0.2,0.7,0.4,1.2,0.5c0.5,0.1,1,0.2,1.5,0.2 c1.1,0,2.1-0.1,2.8-0.2c0.4-0.1,0.7-0.1,0.9-0.2C155.5,164.5,155.7,164.5,155.7,164.5z"></path> </g> </g> </g> <g> <g> <g> <path class="st5" d="M150.5,159.5c0,0-0.2,0.2-0.5,0.5c-0.3,0.3-0.7,0.7-1.1,1.3c-0.3,0.5-0.5,1.1-0.6,1.5c0,0.4,0,0.7,0,0.7 c0,0,0-0.1,0-0.2c0-0.1,0-0.3,0-0.5c0-0.4,0.2-1,0.5-1.6c0.4-0.6,0.8-1,1.1-1.3c0.2-0.1,0.3-0.3,0.4-0.3 C150.4,159.6,150.5,159.5,150.5,159.5z"></path> </g> </g> </g> <g> <g> <g> <path class="st5" d="M154.2,160.2c0,0-0.1,0.2-0.1,0.5c-0.1,0.2-0.1,0.5-0.1,0.5c0,0,0-0.2,0-0.5 C154,160.4,154.1,160.2,154.2,160.2z"></path> </g> </g> </g> <g> <g> <g> <path class="st5" d="M150.3,166c0,0-0.4-0.1-0.7-0.4c-0.4-0.3-0.5-0.7-0.5-0.7c0,0,0.2,0.3,0.5,0.6 C149.9,165.8,150.3,165.9,150.3,166z"></path> </g> </g> </g> </g> <g> <circle class="st10" cx="123.9" cy="145.5" r="7.1"></circle> <circle class="st10" cx="138.4" cy="138.1" r="7.1"></circle> <rect x="122.3" y="134.8" transform="matrix(0.8908 -0.4544 0.4544 0.8908 -49.5484 74.615)" class="st10" width="16.3" height="11.1"></rect> <g> <g> <path class="st13" d="M139,136.1c0.3-1-0.2-2.1-1.2-2.4c-1-0.3-2.1,0.2-2.4,1.2l-1.3,4c-0.3,1,0.2,2.1,1.2,2.4 c1,0.3,2.1-0.2,2.4-1.2L139,136.1z"></path> <path class="st13" d="M141.6,134.9c-1-0.3-2.1,0.2-2.4,1.2l-1.3,4c-0.3,1,0.2,2.1,1.2,2.4c1,0.3,2.1-0.2,2.4-1.2l1.3-4 C143.1,136.3,142.6,135.2,141.6,134.9z"></path> </g> <g> <path class="st16" d="M138.5,134.9c0.4,0.7,0.1,1.6-0.7,2c-0.7,0.4-1.6,0.1-2-0.7c-0.4-0.7-0.1-1.6,0.6-2 C137.2,133.8,138.1,134.1,138.5,134.9z"></path> <path class="st6" d="M138.1,135.1c0.3,0.5,0.1,1.2-0.5,1.4c-0.5,0.3-1.2,0.1-1.4-0.5c-0.3-0.5-0.1-1.2,0.5-1.4 C137.2,134.3,137.8,134.5,138.1,135.1z"></path> </g> <g> <path class="st16" d="M137.2,138.7c0.4,0.7,0.1,1.6-0.7,2c-0.7,0.4-1.6,0.1-2-0.7c-0.4-0.7-0.1-1.6,0.6-2 C135.9,137.7,136.8,138,137.2,138.7z"></path> <path class="st6" d="M136.8,138.9c0.3,0.5,0.1,1.2-0.5,1.4c-0.5,0.3-1.2,0.1-1.4-0.5c-0.3-0.5-0.1-1.2,0.5-1.4 C135.9,138.2,136.6,138.4,136.8,138.9z"></path> </g> <g> <path class="st16" d="M141.1,140c0.4,0.7,0.1,1.6-0.7,2c-0.7,0.4-1.6,0.1-2-0.7c-0.4-0.7-0.1-1.6,0.6-2 C139.8,138.9,140.7,139.2,141.1,140z"></path> <path class="st6" d="M140.7,140.2c0.3,0.5,0.1,1.2-0.5,1.4c-0.5,0.3-1.2,0.1-1.4-0.5c-0.3-0.5-0.1-1.2,0.5-1.4 C139.8,139.4,140.4,139.6,140.7,140.2z"></path> </g> <g> <path class="st16" d="M142.3,136.1c0.4,0.7,0.1,1.6-0.7,2c-0.7,0.4-1.6,0.1-2-0.7c-0.4-0.7-0.1-1.6,0.6-2 C141,135.1,141.9,135.4,142.3,136.1z"></path> <path class="st6" d="M141.9,136.3c0.3,0.5,0.1,1.2-0.5,1.4c-0.5,0.3-1.2,0.1-1.4-0.5c-0.3-0.5-0.1-1.2,0.5-1.4 C141,135.6,141.7,135.8,141.9,136.3z"></path> </g> </g> <g> <path class="st16" d="M125.7,149.6c-0.8,0.2-1.6-0.2-1.9-0.9l-2.6-5c-0.4-0.7-0.2-1.6,0.4-2.1c0.8-0.6,2-0.3,2.4,0.5l2.6,5.2 C127.1,148.2,126.7,149.3,125.7,149.6z"></path> <path class="st16" d="M122.1,148.2c-0.9,0.4-2,0-2.3-1c-0.2-0.8,0.2-1.6,0.9-1.9l5-2.6c0.7-0.4,1.6-0.2,2.1,0.4 c0.6,0.8,0.3,2-0.5,2.4L122.1,148.2z"></path> <path class="st6" d="M126,143.2l-1.6,0.8l-0.8-1.6c-0.3-0.5-1-0.8-1.5-0.5s-0.8,1-0.5,1.5l0.8,1.6l-1.6,0.8 c-0.5,0.3-0.8,1-0.5,1.5c0.3,0.5,1,0.8,1.5,0.5l1.6-0.8l0.8,1.6c0.3,0.5,1,0.8,1.5,0.5c0.5-0.3,0.8-1,0.5-1.5l-0.8-1.6l1.6-0.8 c0.5-0.3,0.8-1,0.5-1.5C127.2,143.1,126.5,142.9,126,143.2z"></path> </g> <rect x="126.7" y="137" transform="matrix(0.8908 -0.4544 0.4544 0.8908 -48.3384 73.5801)" class="st16" width="4.5" height="0.8"></rect> </g> <g> <g> <g> <g> <g> <g> <g> <g> <g> <path class="st6" d="M173.1,208.9c1,4.3-1.6,8.5-5.9,9.5c-4.3,1-8.5-1.6-9.5-5.9c-1-4.3,1.6-8.5,5.9-9.5 C167.8,202.1,172.1,204.7,173.1,208.9z"></path> </g> </g> <g class="st13"> <g> <path class="st5" d="M163.6,203.1c-4.3,1-6.9,5.3-5.9,9.5c0,0,5.5-1,6.3-3.5C164.7,206.6,163.6,203.1,163.6,203.1z"></path> </g> </g> <g> <g> <path class="st6" d="M171.1,209.3c0.8,3.2-1.2,6.5-4.5,7.2c-3.2,0.8-6.5-1.2-7.2-4.5c-0.8-3.2,1.2-6.5,4.5-7.2 C167.1,204,170.3,206,171.1,209.3z"></path> </g> </g> <g class="st14"> <g> <path d="M171,209.3c0.8,3.2-1.2,6.5-4.5,7.2c-3.2,0.8-6.5-1.2-7.2-4.5c-0.8-3.2,1.2-6.5,4.5-7.2 C167,204,170.2,206,171,209.3z"></path> </g> </g> <g> <g> <path class="st6" d="M171.3,209.5c0.8,3.2-1.2,6.4-4.4,7.1c-3.2,0.8-6.4-1.2-7.1-4.4c-0.8-3.2,1.2-6.4,4.4-7.1 C167.3,204.3,170.5,206.3,171.3,209.5z"></path> </g> </g> <g class="st14"> <g> <path class="st5" d="M171.3,209.5c0.8,3.2-1.2,6.4-4.4,7.1c-3.2,0.8-6.4-1.2-7.1-4.4c-0.8-3.2,1.2-6.4,4.4-7.1 C167.3,204.3,170.5,206.3,171.3,209.5z"></path> </g> </g> </g> </g> </g> </g> <g> <g> <g> <g> <path class="st6" d="M165.6,210.3l-0.3-1.5c0,0,0,0,0,0c0.3,0,0.5,0,0.8,0c0.2,0.1,0.4,0.1,0.4,0.1l0-0.1l0.1-0.6l0-0.1 l-0.3-0.2l-0.1,0.1c-0.4-0.1-0.8-0.1-1.1-0.1l-0.2-0.8l-0.3-0.1l0,0.2l-0.3,0.1l0.2,0.8c-1.1,0.4-1.5,1.2-1.3,1.9 c0.2,1,1.2,1.1,2,1.1l0.3,1.5c-0.6,0.1-1.2,0-1.6-0.2l-0.2,0.8c0.5,0.2,1.2,0.3,1.9,0.2l0.1,0.6l-0.3,0.1l0.3,0.1l0.6-0.1 l-0.2-0.8c1.1-0.4,1.5-1.2,1.3-1.9C167.4,210.3,166.5,210.3,165.6,210.3z M165,210.3c-0.5,0-0.8-0.1-0.9-0.5 c-0.1-0.3,0.1-0.6,0.6-0.8L165,210.3z M165.3,208.8L165.3,208.8L165.3,208.8C165.3,208.8,165.3,208.8,165.3,208.8z M166.2,212.5l-0.3-1.3c0.5,0,0.8,0.1,0.9,0.5C166.8,212,166.7,212.3,166.2,212.5z"></path> </g> </g> </g> <g class="st8"> <g> <g> <path d="M165.6,210.3l-0.3-1.5c0,0,0,0,0,0c0.3,0,0.5,0,0.8,0c0.2,0.1,0.4,0.1,0.4,0.1l0-0.1l0.1-0.6l0-0.1l-0.3-0.2 l-0.1,0.1c-0.4-0.1-0.8-0.1-1.1-0.1l-0.2-0.8l-0.3-0.1l0,0.2l-0.3,0.1l0.2,0.8c-1.1,0.4-1.5,1.2-1.3,1.9c0.2,1,1.2,1.1,2,1.1 l0.3,1.5c-0.6,0.1-1.2,0-1.6-0.2l-0.2,0.8c0.5,0.2,1.2,0.3,1.9,0.2l0.1,0.6l-0.3,0.1l0.3,0.1l0.6-0.1l-0.2-0.8 c1.1-0.4,1.5-1.2,1.3-1.9C167.4,210.4,166.5,210.3,165.6,210.3z M165,210.3c-0.5,0-0.8-0.1-0.9-0.5c-0.1-0.3,0.1-0.6,0.6-0.8 L165,210.3z M165.3,208.8L165.3,208.8L165.3,208.8C165.3,208.8,165.3,208.8,165.3,208.8z M166.2,212.5l-0.3-1.3 c0.5,0,0.8,0.1,0.9,0.5C166.8,212,166.7,212.3,166.2,212.5z"></path> </g> </g> </g> <g> <g> <path class="st6" d="M166,213.1l0.2,0.8l-0.6,0.1l-0.2-0.8c-0.7,0.1-1.5,0.1-1.9-0.2l0.2-0.8c0.4,0.2,1,0.3,1.6,0.2l-0.3-1.5 c-0.9,0-1.8-0.1-2-1.1c-0.2-0.7,0.2-1.5,1.3-1.9l-0.2-0.8l0.6-0.1l0.2,0.8c0.5-0.1,1.1-0.1,1.6,0.1l-0.1,0.8 c-0.4-0.1-0.9-0.2-1.3-0.1l0.3,1.5c0.9,0,1.8,0.1,2,1.1C167.6,212,167.2,212.7,166,213.1z M164.7,210.1l-0.3-1.3 c-0.5,0.2-0.7,0.5-0.6,0.8C163.9,210,164.3,210.1,164.7,210.1z M166.5,211.5c-0.1-0.4-0.4-0.5-0.9-0.5l0.3,1.3 C166.4,212.1,166.5,211.8,166.5,211.5z"></path> </g> </g> </g> </g> <g> <g> <g> <path class="st15" d="M166.8,216.7C166.8,216.7,166.8,216.7,166.8,216.7c0.1,0,0.1,0,0.2-0.1c0.1,0,0.1,0,0.2-0.1 c0.1,0,0.2-0.1,0.3-0.1c0.1,0,0.2-0.1,0.4-0.2c0.1,0,0.1-0.1,0.2-0.1c0.1,0,0.1-0.1,0.2-0.1c0.1,0,0.2-0.1,0.2-0.1 c0.1-0.1,0.2-0.1,0.2-0.2c0.1-0.1,0.2-0.1,0.2-0.2c0.1-0.1,0.2-0.1,0.2-0.2c0.3-0.3,0.7-0.6,1-1c0.1-0.1,0.1-0.2,0.2-0.3 c0-0.1,0.1-0.1,0.1-0.2c0-0.1,0.1-0.1,0.1-0.2c0.1-0.1,0.1-0.2,0.2-0.4c0.1-0.1,0.1-0.3,0.2-0.4l0-0.1c0,0,0-0.1,0-0.1 c0-0.1,0-0.1,0.1-0.2c0-0.1,0-0.1,0.1-0.2c0-0.1,0-0.1,0.1-0.2c0-0.1,0.1-0.3,0.1-0.4c0-0.1,0-0.3,0.1-0.5c0-0.6,0-1.2-0.1-1.9 c-0.2-0.6-0.4-1.2-0.7-1.7c-0.1-0.1-0.2-0.3-0.3-0.4c-0.1-0.1-0.2-0.2-0.3-0.3c0-0.1-0.1-0.1-0.1-0.2c-0.1-0.1-0.1-0.1-0.2-0.2 c-0.1-0.1-0.1-0.1-0.2-0.2c0,0,0-0.1-0.1-0.1l-0.1-0.1c-0.1-0.1-0.2-0.2-0.3-0.3c-0.1-0.1-0.2-0.2-0.3-0.2 c-0.1,0-0.1-0.1-0.2-0.1c-0.1,0-0.1-0.1-0.2-0.1c-0.1-0.1-0.2-0.1-0.3-0.2c-0.5-0.2-0.9-0.4-1.3-0.5c-0.1,0-0.2,0-0.3-0.1 c-0.1,0-0.2,0-0.3,0c-0.1,0-0.2,0-0.3,0c-0.1,0-0.2,0-0.3,0c-0.1,0-0.2,0-0.2,0c-0.1,0-0.2,0-0.2,0c-0.1,0-0.3,0-0.4,0 c-0.1,0-0.2,0-0.3,0c-0.1,0-0.2,0-0.2,0c-0.1,0-0.1,0-0.1,0c0,0,0,0,0,0c0,0,0,0,0,0c0,0,0.1,0,0.1,0c0.1,0,0.1,0,0.2,0 c0.1,0,0.2,0,0.3,0c0.1,0,0.3,0,0.4,0c0.1,0,0.1,0,0.2,0c0.1,0,0.2,0,0.2,0c0.1,0,0.2,0,0.3,0c0.1,0,0.2,0,0.3,0 c0.1,0,0.2,0,0.3,0c0.1,0,0.2,0,0.3,0.1c0.4,0.1,0.9,0.3,1.3,0.5c0.1,0.1,0.2,0.1,0.3,0.2c0.1,0,0.1,0.1,0.2,0.1 c0.1,0,0.1,0.1,0.2,0.1c0.1,0.1,0.2,0.1,0.3,0.2c0.1,0.1,0.2,0.2,0.3,0.3l0.1,0.1c0,0,0.1,0.1,0.1,0.1c0.1,0.1,0.1,0.1,0.2,0.2 c0.1,0.1,0.1,0.1,0.2,0.2c0.1,0.1,0.1,0.1,0.1,0.2c0.1,0.1,0.2,0.2,0.3,0.4c0.1,0.1,0.2,0.3,0.3,0.4c0.3,0.5,0.6,1.1,0.7,1.8 c0.1,0.6,0.2,1.3,0.1,1.9c0,0.2,0,0.3-0.1,0.5c0,0.1-0.1,0.3-0.1,0.4c0,0.1,0,0.1-0.1,0.2c0,0.1,0,0.1-0.1,0.2 c0,0.1,0,0.1-0.1,0.2c0,0,0,0.1,0,0.1l0,0.1c-0.1,0.1-0.1,0.3-0.2,0.4c-0.1,0.1-0.1,0.2-0.2,0.4c0,0.1-0.1,0.1-0.1,0.2 c0,0.1-0.1,0.1-0.1,0.2c-0.1,0.1-0.1,0.2-0.2,0.3c-0.3,0.4-0.6,0.7-1,1c-0.1,0.1-0.2,0.1-0.2,0.2c-0.1,0.1-0.2,0.1-0.2,0.2 c-0.1,0.1-0.2,0.1-0.2,0.2c-0.1,0.1-0.2,0.1-0.2,0.1c-0.1,0-0.1,0.1-0.2,0.1c-0.1,0-0.1,0.1-0.2,0.1c-0.1,0.1-0.3,0.1-0.4,0.1 c-0.1,0-0.2,0.1-0.3,0.1c-0.1,0-0.2,0-0.2,0.1C166.9,216.7,166.9,216.7,166.8,216.7C166.8,216.7,166.8,216.7,166.8,216.7z"></path> </g> </g> </g> <g> <g> <g> <path class="st5" d="M159.7,215.9C159.7,215.9,159.7,215.9,159.7,215.9c-0.1-0.1-0.1-0.1-0.2-0.2c-0.1-0.1-0.1-0.1-0.2-0.3 c-0.1-0.1-0.2-0.2-0.3-0.3c0-0.1-0.1-0.1-0.1-0.2c0-0.1-0.1-0.2-0.1-0.2c-0.1-0.2-0.2-0.3-0.3-0.5c-0.2-0.4-0.3-0.8-0.5-1.3 c-0.1-0.5-0.2-0.9-0.3-1.3c0-0.2,0-0.4,0-0.6c0-0.1,0-0.2,0-0.3c0-0.1,0-0.2,0-0.2c0-0.2,0-0.3,0-0.4c0-0.1,0-0.2,0-0.3 c0-0.1,0-0.1,0-0.2c0,0,0-0.1,0-0.1c0,0,0,0,0,0.1c0,0.1,0,0.1,0,0.2c0,0.1,0,0.2,0,0.3c0,0.1,0,0.3,0,0.4c0,0.1,0,0.2,0,0.2 c0,0.1,0,0.2,0,0.3c0,0.2,0,0.4,0,0.6c0,0.4,0.1,0.9,0.3,1.3c0.1,0.5,0.3,0.9,0.5,1.3c0.1,0.2,0.2,0.4,0.3,0.5 c0,0.1,0.1,0.2,0.1,0.2c0,0.1,0.1,0.1,0.1,0.2c0.1,0.1,0.2,0.2,0.2,0.4c0.1,0.1,0.1,0.2,0.2,0.3 C159.6,215.8,159.6,215.8,159.7,215.9C159.7,215.9,159.7,215.9,159.7,215.9z"></path> </g> </g> </g> <g> <g> <g> <path class="st5" d="M163.5,210.4c0,0-0.1,0-0.2-0.1c-0.1-0.1-0.2-0.3-0.3-0.5c0-0.2,0-0.5,0.1-0.6c0.1-0.1,0.1-0.2,0.1-0.2 c0,0-0.1,0.1-0.1,0.2c-0.1,0.1-0.1,0.3-0.1,0.6c0,0.2,0.2,0.4,0.3,0.5C163.4,210.4,163.5,210.4,163.5,210.4z"></path> </g> </g> </g> <g> <g> <g> <path class="st5" d="M164.3,207.9c0,0-0.1-0.1-0.1-0.2c0-0.1,0-0.2,0-0.2c0,0,0.1,0.1,0.1,0.2 C164.3,207.8,164.3,207.9,164.3,207.9z"></path> </g> </g> </g> <g> <g> <g> <path class="st5" d="M164.3,204.5c0,0-0.1,0-0.2,0c-0.1,0-0.1,0-0.2,0c-0.1,0-0.2,0-0.3,0.1c-0.1,0-0.2,0.1-0.3,0.1 c-0.1,0-0.3,0.1-0.4,0.1c-0.3,0.1-0.6,0.2-0.9,0.4c-0.3,0.2-0.6,0.4-0.8,0.5c-0.1,0.1-0.2,0.2-0.3,0.3 c-0.1,0.1-0.2,0.2-0.3,0.3c-0.1,0.1-0.1,0.2-0.2,0.2c-0.1,0.1-0.1,0.1-0.1,0.2c-0.1,0.1-0.1,0.1-0.1,0.1c0,0,0-0.1,0.1-0.2 c0-0.1,0.1-0.1,0.1-0.2c0.1-0.1,0.1-0.1,0.2-0.2c0.1-0.1,0.2-0.2,0.3-0.3c0.1-0.1,0.2-0.2,0.3-0.3c0.2-0.2,0.5-0.4,0.8-0.5 c0.3-0.2,0.6-0.3,0.9-0.4c0.1,0,0.3-0.1,0.4-0.1c0.1,0,0.2-0.1,0.4-0.1c0.1,0,0.2,0,0.3-0.1c0.1,0,0.2,0,0.2,0 C164.3,204.5,164.3,204.5,164.3,204.5z"></path> </g> </g> </g> <g> <g> <g> <path class="st5" d="M168,217.8c0,0,0,0-0.1,0.1c-0.1,0-0.2,0.1-0.4,0.2c-0.3,0.1-0.8,0.3-1.3,0.3c-0.5,0.1-1,0.1-1.3,0 c-0.2,0-0.3,0-0.4-0.1c-0.1,0-0.1,0-0.1,0c0,0,0.1,0,0.1,0c0.1,0,0.2,0,0.4,0c0.3,0,0.8,0,1.3,0c0.5-0.1,1-0.2,1.3-0.3 c0.2-0.1,0.3-0.1,0.4-0.1C168,217.8,168,217.8,168,217.8z"></path> </g> </g> </g> </g> <g> <g> <g> <path class="st15" d="M173.1,208.9c0,0,0,0,0-0.1c0-0.1-0.1-0.2-0.1-0.4c-0.1-0.3-0.3-0.8-0.5-1.3c-0.1-0.3-0.3-0.6-0.5-0.9 c-0.2-0.3-0.5-0.6-0.8-1c-0.6-0.6-1.4-1.3-2.5-1.7c-0.5-0.2-1.1-0.4-1.7-0.5c-0.6-0.1-1.2-0.2-1.9-0.1c-0.7,0-1.3,0.1-2,0.4 c-0.3,0.1-0.7,0.2-1,0.4c-0.3,0.2-0.6,0.3-1,0.5c-1.2,0.8-2.3,2-2.9,3.5c-0.2,0.4-0.3,0.8-0.4,1.2c-0.1,0.4-0.2,0.8-0.2,1.2 c-0.1,0.8,0,1.7,0.2,2.5c0.2,0.8,0.5,1.6,1,2.3c0.1,0.2,0.2,0.3,0.3,0.5c0.1,0.2,0.2,0.3,0.4,0.5c0.3,0.3,0.6,0.6,0.9,0.9 c1.2,1.1,2.7,1.7,4.2,1.8c0.4,0,0.7,0.1,1.1,0.1c0.4,0,0.7,0,1.1-0.1c0.7-0.1,1.4-0.3,2-0.6c0.6-0.3,1.1-0.6,1.6-1 c0.5-0.4,0.9-0.8,1.3-1.2c0.7-0.9,1.2-1.8,1.4-2.6c0.1-0.4,0.2-0.8,0.3-1.2c0.1-0.4,0.1-0.7,0.1-1c0-0.6-0.1-1.1-0.1-1.4 c0-0.2-0.1-0.3-0.1-0.4C173.1,209,173.1,208.9,173.1,208.9s0,0.2,0.1,0.5c0.1,0.3,0.1,0.8,0.1,1.4c0,0.3,0,0.7-0.1,1 c-0.1,0.4-0.1,0.8-0.3,1.2c-0.3,0.9-0.7,1.8-1.4,2.7c-0.4,0.4-0.8,0.9-1.3,1.2c-0.5,0.4-1,0.7-1.6,1c-0.6,0.3-1.3,0.5-2,0.6 c-0.3,0.1-0.7,0.1-1.1,0.1c-0.4,0-0.7,0-1.1,0c-1.5-0.2-3-0.8-4.2-1.8c-0.3-0.3-0.6-0.6-0.9-0.9c-0.1-0.2-0.3-0.3-0.4-0.5 c-0.1-0.2-0.2-0.3-0.3-0.5c-0.4-0.7-0.8-1.5-1-2.3c-0.2-0.8-0.3-1.7-0.2-2.5c0-0.4,0.1-0.8,0.2-1.2c0.1-0.4,0.2-0.8,0.4-1.2 c0.6-1.5,1.7-2.7,3-3.5c0.3-0.2,0.6-0.4,1-0.5c0.3-0.2,0.7-0.3,1-0.4c0.7-0.2,1.4-0.3,2-0.4c0.7,0,1.3,0,1.9,0.1 c0.6,0.1,1.2,0.3,1.7,0.5c1,0.5,1.9,1.1,2.5,1.7c0.3,0.3,0.6,0.6,0.8,1c0.2,0.3,0.4,0.6,0.5,0.9c0.3,0.6,0.4,1,0.5,1.3 C173,208.8,173.1,208.9,173.1,208.9z"></path> </g> </g> </g> </g> <g> <g> <g> <g> <g> <g> <g> <g> <g> <g> <rect x="186.5" y="196.3" transform="matrix(-1 -1.224647e-16 1.224647e-16 -1 390.5164 395.8148)" class="st6" width="17.5" height="3.2"></rect> </g> </g> </g> <g> <g> <g> <g> <path class="st15" d="M202.3,199.5c0,0,0.1-0.7,0.1-1.6c0-0.9,0-1.6-0.1-1.6s-0.1,0.7-0.1,1.6 C202.2,198.8,202.3,199.5,202.3,199.5z"></path> </g> </g> </g> </g> <g> <g> <g> <g> <path class="st15" d="M203.3,199.5c0,0,0.1-0.7,0.1-1.6c0-0.9,0-1.6-0.1-1.6c0,0-0.1,0.7-0.1,1.6 C203.2,198.8,203.2,199.5,203.3,199.5z"></path> </g> </g> </g> </g> <g> <g> <g> <g> <path class="st15" d="M200.2,199.5c0,0,0.1-0.7,0.1-1.6c0-0.9,0-1.6-0.1-1.6c0,0-0.1,0.7-0.1,1.6 C200.1,198.8,200.2,199.5,200.2,199.5z"></path> </g> </g> </g> </g> <g> <g> <g> <g> <path class="st15" d="M201.2,199.5c0,0,0.1-0.7,0.1-1.6c0-0.9,0-1.6-0.1-1.6c0,0-0.1,0.7-0.1,1.6 C201.1,198.8,201.1,199.5,201.2,199.5z"></path> </g> </g> </g> </g> <g> <g> <g> <g> <path class="st15" d="M198.1,199.5c0,0,0.1-0.7,0.1-1.6c0-0.9,0-1.6-0.1-1.6c0,0-0.1,0.7-0.1,1.6 C198,198.8,198,199.5,198.1,199.5z"></path> </g> </g> </g> </g> <g> <g> <g> <g> <path class="st15" d="M199,199.5c0,0,0.1-0.7,0.1-1.6c0-0.9,0-1.6-0.1-1.6c0,0-0.1,0.7-0.1,1.6 C199,198.8,199,199.5,199,199.5z"></path> </g> </g> </g> </g> <g> <g> <g> <g> <path class="st15" d="M196,199.5c0,0,0.1-0.7,0.1-1.6c0-0.9,0-1.6-0.1-1.6c0,0-0.1,0.7-0.1,1.6 C195.9,198.8,195.9,199.5,196,199.5z"></path> </g> </g> </g> </g> <g> <g> <g> <g> <path class="st15" d="M196.9,199.5c0,0,0.1-0.7,0.1-1.6c0-0.9,0-1.6-0.1-1.6c0,0-0.1,0.7-0.1,1.6 C196.9,198.8,196.9,199.5,196.9,199.5z"></path> </g> </g> </g> </g> <g> <g> <g> <g> <path class="st15" d="M193.9,199.5c0,0,0.1-0.7,0.1-1.6c0-0.9,0-1.6-0.1-1.6c0,0-0.1,0.7-0.1,1.6 C193.8,198.8,193.8,199.5,193.9,199.5z"></path> </g> </g> </g> </g> <g> <g> <g> <g> <path class="st15" d="M194.8,199.5c0,0,0.1-0.7,0.1-1.6c0-0.9,0-1.6-0.1-1.6c0,0-0.1,0.7-0.1,1.6 C194.8,198.8,194.8,199.5,194.8,199.5z"></path> </g> </g> </g> </g> <g> <g> <g> <g> <path class="st15" d="M191.8,199.5c0,0,0.1-0.7,0.1-1.6c0-0.9,0-1.6-0.1-1.6c0,0-0.1,0.7-0.1,1.6 C191.7,198.8,191.7,199.5,191.8,199.5z"></path> </g> </g> </g> </g> <g> <g> <g> <g> <path class="st15" d="M192.7,199.5c0,0,0.1-0.7,0.1-1.6c0-0.9,0-1.6-0.1-1.6c0,0-0.1,0.7-0.1,1.6 C192.7,198.8,192.7,199.5,192.7,199.5z"></path> </g> </g> </g> </g> <g> <g> <g> <g> <path class="st15" d="M189.7,199.5c0,0,0.1-0.7,0.1-1.6c0-0.9,0-1.6-0.1-1.6c0,0-0.1,0.7-0.1,1.6 C189.6,198.8,189.6,199.5,189.7,199.5z"></path> </g> </g> </g> </g> <g> <g> <g> <g> <path class="st15" d="M190.6,199.5c0,0,0.1-0.7,0.1-1.6c0-0.9,0-1.6-0.1-1.6c0,0-0.1,0.7-0.1,1.6 C190.6,198.8,190.6,199.5,190.6,199.5z"></path> </g> </g> </g> </g> <g> <g> <g> <g> <path class="st15" d="M187.6,199.5c0,0,0.1-0.7,0.1-1.6c0-0.9,0-1.6-0.1-1.6c0,0-0.1,0.7-0.1,1.6 C187.5,198.8,187.5,199.5,187.6,199.5z"></path> </g> </g> </g> </g> <g> <g> <g> <g> <path class="st15" d="M188.5,199.5c0,0,0.1-0.7,0.1-1.6c0-0.9,0-1.6-0.1-1.6c0,0-0.1,0.7-0.1,1.6 C188.5,198.8,188.5,199.5,188.5,199.5z"></path> </g> </g> </g> </g> </g> <g> <g> <g> <g> <path class="st15" d="M186.5,196.3c0,0,3.9,0.1,8.8,0.1c4.9,0,8.8,0,8.8-0.1c0,0-3.9-0.1-8.8-0.1 C190.4,196.2,186.5,196.3,186.5,196.3z"></path> </g> </g> </g> </g> </g> <g> <g> <g> <g> <g> <rect x="187.6" y="199.5" transform="matrix(-1 -1.224647e-16 1.224647e-16 -1 392.8086 402.2741)" class="st6" width="17.5" height="3.2"></rect> </g> </g> </g> <g> <g> <g> <g> <path class="st15" d="M203.4,202.7c0,0,0.1-0.7,0.1-1.6c0-0.9,0-1.6-0.1-1.6s-0.1,0.7-0.1,1.6 C203.4,202,203.4,202.7,203.4,202.7z"></path> </g> </g> </g> </g> <g> <g> <g> <g> <path class="st15" d="M204.4,202.7c0,0,0.1-0.7,0.1-1.6c0-0.9,0-1.6-0.1-1.6c0,0-0.1,0.7-0.1,1.6 C204.3,202,204.4,202.7,204.4,202.7z"></path> </g> </g> </g> </g> <g> <g> <g> <g> <path class="st15" d="M201.3,202.7c0,0,0.1-0.7,0.1-1.6c0-0.9,0-1.6-0.1-1.6c0,0-0.1,0.7-0.1,1.6 C201.3,202,201.3,202.7,201.3,202.7z"></path> </g> </g> </g> </g> <g> <g> <g> <g> <path class="st15" d="M202.3,202.7c0,0,0.1-0.7,0.1-1.6c0-0.9,0-1.6-0.1-1.6s-0.1,0.7-0.1,1.6 C202.2,202,202.3,202.7,202.3,202.7z"></path> </g> </g> </g> </g> <g> <g> <g> <g> <path class="st15" d="M199.2,202.7c0,0,0.1-0.7,0.1-1.6c0-0.9,0-1.6-0.1-1.6c0,0-0.1,0.7-0.1,1.6 C199.2,202,199.2,202.7,199.2,202.7z"></path> </g> </g> </g> </g> <g> <g> <g> <g> <path class="st15" d="M200.2,202.7c0,0,0.1-0.7,0.1-1.6c0-0.9,0-1.6-0.1-1.6c0,0-0.1,0.7-0.1,1.6 C200.1,202,200.2,202.7,200.2,202.7z"></path> </g> </g> </g> </g> <g> <g> <g> <g> <path class="st15" d="M197.1,202.7c0,0,0.1-0.7,0.1-1.6c0-0.9,0-1.6-0.1-1.6c0,0-0.1,0.7-0.1,1.6 C197.1,202,197.1,202.7,197.1,202.7z"></path> </g> </g> </g> </g> <g> <g> <g> <g> <path class="st15" d="M198.1,202.7c0,0,0.1-0.7,0.1-1.6c0-0.9,0-1.6-0.1-1.6c0,0-0.1,0.7-0.1,1.6 C198,202,198,202.7,198.1,202.7z"></path> </g> </g> </g> </g> <g> <g> <g> <g> <path class="st15" d="M195,202.7c0,0,0.1-0.7,0.1-1.6c0-0.9,0-1.6-0.1-1.6s-0.1,0.7-0.1,1.6C195,202,195,202.7,195,202.7 z"></path> </g> </g> </g> </g> <g> <g> <g> <g> <path class="st15" d="M196,202.7c0,0,0.1-0.7,0.1-1.6c0-0.9,0-1.6-0.1-1.6c0,0-0.1,0.7-0.1,1.6 C195.9,202,195.9,202.7,196,202.7z"></path> </g> </g> </g> </g> <g> <g> <g> <g> <path class="st15" d="M192.9,202.7c0,0,0.1-0.7,0.1-1.6c0-0.9,0-1.6-0.1-1.6c0,0-0.1,0.7-0.1,1.6 C192.9,202,192.9,202.7,192.9,202.7z"></path> </g> </g> </g> </g> <g> <g> <g> <g> <path class="st15" d="M193.9,202.7c0,0,0.1-0.7,0.1-1.6c0-0.9,0-1.6-0.1-1.6c0,0-0.1,0.7-0.1,1.6 C193.8,202,193.8,202.7,193.9,202.7z"></path> </g> </g> </g> </g> <g> <g> <g> <g> <path class="st15" d="M190.8,202.7c0,0,0.1-0.7,0.1-1.6c0-0.9,0-1.6-0.1-1.6c0,0-0.1,0.7-0.1,1.6 C190.7,202,190.8,202.7,190.8,202.7z"></path> </g> </g> </g> </g> <g> <g> <g> <g> <path class="st15" d="M191.8,202.7c0,0,0.1-0.7,0.1-1.6c0-0.9,0-1.6-0.1-1.6c0,0-0.1,0.7-0.1,1.6 C191.7,202,191.7,202.7,191.8,202.7z"></path> </g> </g> </g> </g> <g> <g> <g> <g> <path class="st15" d="M188.7,202.7c0,0,0.1-0.7,0.1-1.6c0-0.9,0-1.6-0.1-1.6s-0.1,0.7-0.1,1.6 C188.6,202,188.7,202.7,188.7,202.7z"></path> </g> </g> </g> </g> <g> <g> <g> <g> <path class="st15" d="M189.7,202.7c0,0,0.1-0.7,0.1-1.6c0-0.9,0-1.6-0.1-1.6c0,0-0.1,0.7-0.1,1.6 C189.6,202,189.6,202.7,189.7,202.7z"></path> </g> </g> </g> </g> </g> <g> <g> <g> <g> <path class="st15" d="M187.6,199.5c0,0,3.9,0.1,8.8,0.1c4.9,0,8.8,0,8.8-0.1c0,0-3.9-0.1-8.8-0.1 C191.6,199.5,187.6,199.5,187.6,199.5z"></path> </g> </g> </g> </g> </g> <g> <g> <g> <g> <g> <rect x="186.2" y="202.7" transform="matrix(-1 -1.224647e-16 1.224647e-16 -1 389.947 408.6771)" class="st6" width="17.5" height="3.2"></rect> </g> </g> </g> <g> <g> <g> <g> <path class="st15" d="M202,206c0,0,0.1-0.7,0.1-1.6c0-0.9,0-1.6-0.1-1.6c0,0-0.1,0.7-0.1,1.6 C201.9,205.2,202,206,202,206z"></path> </g> </g> </g> </g> <g> <g> <g> <g> <path class="st15" d="M203,206c0,0,0.1-0.7,0.1-1.6c0-0.9,0-1.6-0.1-1.6c0,0-0.1,0.7-0.1,1.6 C202.9,205.2,202.9,206,203,206z"></path> </g> </g> </g> </g> <g> <g> <g> <g> <path class="st15" d="M199.9,206c0,0,0.1-0.7,0.1-1.6c0-0.9,0-1.6-0.1-1.6s-0.1,0.7-0.1,1.6 C199.8,205.2,199.9,206,199.9,206z"></path> </g> </g> </g> </g> <g> <g> <g> <g> <path class="st15" d="M200.9,206c0,0,0.1-0.7,0.1-1.6c0-0.9,0-1.6-0.1-1.6c0,0-0.1,0.7-0.1,1.6 C200.8,205.2,200.8,206,200.9,206z"></path> </g> </g> </g> </g> <g> <g> <g> <g> <path class="st15" d="M197.8,206c0,0,0.1-0.7,0.1-1.6c0-0.9,0-1.6-0.1-1.6c0,0-0.1,0.7-0.1,1.6 C197.7,205.2,197.8,206,197.8,206z"></path> </g> </g> </g> </g> <g> <g> <g> <g> <path class="st15" d="M198.8,206c0,0,0.1-0.7,0.1-1.6c0-0.9,0-1.6-0.1-1.6c0,0-0.1,0.7-0.1,1.6 C198.7,205.2,198.7,206,198.8,206z"></path> </g> </g> </g> </g> <g> <g> <g> <g> <path class="st15" d="M195.7,206c0,0,0.1-0.7,0.1-1.6c0-0.9,0-1.6-0.1-1.6c0,0-0.1,0.7-0.1,1.6 C195.6,205.2,195.7,206,195.7,206z"></path> </g> </g> </g> </g> <g> <g> <g> <g> <path class="st15" d="M196.7,206c0,0,0.1-0.7,0.1-1.6c0-0.9,0-1.6-0.1-1.6c0,0-0.1,0.7-0.1,1.6 C196.6,205.2,196.6,206,196.7,206z"></path> </g> </g> </g> </g> <g> <g> <g> <g> <path class="st15" d="M193.6,206c0,0,0.1-0.7,0.1-1.6c0-0.9,0-1.6-0.1-1.6c0,0-0.1,0.7-0.1,1.6 C193.5,205.2,193.6,206,193.6,206z"></path> </g> </g> </g> </g> <g> <g> <g> <g> <path class="st15" d="M194.6,206c0,0,0.1-0.7,0.1-1.6c0-0.9,0-1.6-0.1-1.6c0,0-0.1,0.7-0.1,1.6 C194.5,205.2,194.5,206,194.6,206z"></path> </g> </g> </g> </g> <g> <g> <g> <g> <path class="st15" d="M191.5,206c0,0,0.1-0.7,0.1-1.6c0-0.9,0-1.6-0.1-1.6c0,0-0.1,0.7-0.1,1.6 C191.4,205.2,191.5,206,191.5,206z"></path> </g> </g> </g> </g> <g> <g> <g> <g> <path class="st15" d="M192.5,206c0,0,0.1-0.7,0.1-1.6c0-0.9,0-1.6-0.1-1.6c0,0-0.1,0.7-0.1,1.6 C192.4,205.2,192.4,206,192.5,206z"></path> </g> </g> </g> </g> <g> <g> <g> <g> <path class="st15" d="M189.4,206c0,0,0.1-0.7,0.1-1.6c0-0.9,0-1.6-0.1-1.6c0,0-0.1,0.7-0.1,1.6 C189.3,205.2,189.3,206,189.4,206z"></path> </g> </g> </g> </g> <g> <g> <g> <g> <path class="st15" d="M190.3,206c0,0,0.1-0.7,0.1-1.6c0-0.9,0-1.6-0.1-1.6c0,0-0.1,0.7-0.1,1.6 C190.3,205.2,190.3,206,190.3,206z"></path> </g> </g> </g> </g> <g> <g> <g> <g> <path class="st15" d="M187.3,206c0,0,0.1-0.7,0.1-1.6c0-0.9,0-1.6-0.1-1.6c0,0-0.1,0.7-0.1,1.6 C187.2,205.2,187.2,206,187.3,206z"></path> </g> </g> </g> </g> <g> <g> <g> <g> <path class="st15" d="M188.2,206c0,0,0.1-0.7,0.1-1.6c0-0.9,0-1.6-0.1-1.6c0,0-0.1,0.7-0.1,1.6 C188.2,205.2,188.2,206,188.2,206z"></path> </g> </g> </g> </g> </g> <g> <g> <g> <g> <path class="st15" d="M186.2,202.7c0,0,3.9,0.1,8.8,0.1c4.9,0,8.8,0,8.8-0.1c0,0-3.9-0.1-8.8-0.1 C190.2,202.7,186.2,202.7,186.2,202.7z"></path> </g> </g> </g> </g> </g> <g> <g> <g> <g> <g> <rect x="187.6" y="205.9" transform="matrix(-1 -1.224647e-16 1.224647e-16 -1 392.692 414.9855)" class="st6" width="17.5" height="3.2"></rect> </g> </g> </g> <g> <g> <g> <g> <path class="st15" d="M203.4,209.1c0,0,0.1-0.7,0.1-1.6c0-0.9,0-1.6-0.1-1.6c0,0-0.1,0.7-0.1,1.6 C203.3,208.4,203.3,209.1,203.4,209.1z"></path> </g> </g> </g> </g> <g> <g> <g> <g> <path class="st15" d="M204.3,209.1c0,0,0.1-0.7,0.1-1.6c0-0.9,0-1.6-0.1-1.6c0,0-0.1,0.7-0.1,1.6 C204.3,208.4,204.3,209.1,204.3,209.1z"></path> </g> </g> </g> </g> <g> <g> <g> <g> <path class="st15" d="M201.3,209.1c0,0,0.1-0.7,0.1-1.6c0-0.9,0-1.6-0.1-1.6c0,0-0.1,0.7-0.1,1.6 C201.2,208.4,201.2,209.1,201.3,209.1z"></path> </g> </g> </g> </g> <g> <g> <g> <g> <path class="st15" d="M202.2,209.1c0,0,0.1-0.7,0.1-1.6c0-0.9,0-1.6-0.1-1.6c0,0-0.1,0.7-0.1,1.6 C202.2,208.4,202.2,209.1,202.2,209.1z"></path> </g> </g> </g> </g> <g> <g> <g> <g> <path class="st15" d="M199.2,209.1c0,0,0.1-0.7,0.1-1.6c0-0.9,0-1.6-0.1-1.6c0,0-0.1,0.7-0.1,1.6 C199.1,208.4,199.1,209.1,199.2,209.1z"></path> </g> </g> </g> </g> <g> <g> <g> <g> <path class="st15" d="M200.1,209.1c0,0,0.1-0.7,0.1-1.6c0-0.9,0-1.6-0.1-1.6c0,0-0.1,0.7-0.1,1.6 C200.1,208.4,200.1,209.1,200.1,209.1z"></path> </g> </g> </g> </g> <g> <g> <g> <g> <path class="st15" d="M197.1,209.1c0,0,0.1-0.7,0.1-1.6c0-0.9,0-1.6-0.1-1.6c0,0-0.1,0.7-0.1,1.6 C197,208.4,197,209.1,197.1,209.1z"></path> </g> </g> </g> </g> <g> <g> <g> <g> <path class="st15" d="M198,209.1c0,0,0.1-0.7,0.1-1.6c0-0.9,0-1.6-0.1-1.6c0,0-0.1,0.7-0.1,1.6 C198,208.4,198,209.1,198,209.1z"></path> </g> </g> </g> </g> <g> <g> <g> <g> <path class="st15" d="M195,209.1c0,0,0.1-0.7,0.1-1.6c0-0.9,0-1.6-0.1-1.6c0,0-0.1,0.7-0.1,1.6 C194.9,208.4,194.9,209.1,195,209.1z"></path> </g> </g> </g> </g> <g> <g> <g> <g> <path class="st15" d="M195.9,209.1c0,0,0.1-0.7,0.1-1.6c0-0.9,0-1.6-0.1-1.6c0,0-0.1,0.7-0.1,1.6 C195.9,208.4,195.9,209.1,195.9,209.1z"></path> </g> </g> </g> </g> <g> <g> <g> <g> <path class="st15" d="M192.9,209.1c0,0,0.1-0.7,0.1-1.6c0-0.9,0-1.6-0.1-1.6c0,0-0.1,0.7-0.1,1.6 C192.8,208.4,192.8,209.1,192.9,209.1z"></path> </g> </g> </g> </g> <g> <g> <g> <g> <path class="st15" d="M193.8,209.1c0,0,0.1-0.7,0.1-1.6c0-0.9,0-1.6-0.1-1.6c0,0-0.1,0.7-0.1,1.6 C193.8,208.4,193.8,209.1,193.8,209.1z"></path> </g> </g> </g> </g> <g> <g> <g> <g> <path class="st15" d="M190.8,209.1c0,0,0.1-0.7,0.1-1.6c0-0.9,0-1.6-0.1-1.6c0,0-0.1,0.7-0.1,1.6 C190.7,208.4,190.7,209.1,190.8,209.1z"></path> </g> </g> </g> </g> <g> <g> <g> <g> <path class="st15" d="M191.7,209.1c0,0,0.1-0.7,0.1-1.6c0-0.9,0-1.6-0.1-1.6c0,0-0.1,0.7-0.1,1.6 C191.6,208.4,191.7,209.1,191.7,209.1z"></path> </g> </g> </g> </g> <g> <g> <g> <g> <path class="st15" d="M188.7,209.1c0,0,0.1-0.7,0.1-1.6c0-0.9,0-1.6-0.1-1.6c0,0-0.1,0.7-0.1,1.6 C188.6,208.4,188.6,209.1,188.7,209.1z"></path> </g> </g> </g> </g> <g> <g> <g> <g> <path class="st15" d="M189.6,209.1c0,0,0.1-0.7,0.1-1.6c0-0.9,0-1.6-0.1-1.6c0,0-0.1,0.7-0.1,1.6 C189.5,208.4,189.6,209.1,189.6,209.1z"></path> </g> </g> </g> </g> </g> <g> <g> <g> <g> <path class="st15" d="M187.6,205.9c0,0,3.9,0.1,8.8,0.1c4.9,0,8.8,0,8.8-0.1c0,0-3.9-0.1-8.8-0.1 C191.5,205.8,187.6,205.9,187.6,205.9z"></path> </g> </g> </g> </g> </g> <g> <g> <g> <g> <g> <rect x="185.8" y="209.1" transform="matrix(-1 -1.224647e-16 1.224647e-16 -1 389.1826 421.4357)" class="st6" width="17.5" height="3.2"></rect> </g> </g> </g> <g> <g> <g> <g> <path class="st15" d="M201.6,212.3c0,0,0.1-0.7,0.1-1.6c0-0.9,0-1.6-0.1-1.6c0,0-0.1,0.7-0.1,1.6 C201.6,211.6,201.6,212.3,201.6,212.3z"></path> </g> </g> </g> </g> <g> <g> <g> <g> <path class="st15" d="M202.6,212.3c0,0,0.1-0.7,0.1-1.6c0-0.9,0-1.6-0.1-1.6c0,0-0.1,0.7-0.1,1.6 C202.5,211.6,202.5,212.3,202.6,212.3z"></path> </g> </g> </g> </g> <g> <g> <g> <g> <path class="st15" d="M199.5,212.3c0,0,0.1-0.7,0.1-1.6c0-0.9,0-1.6-0.1-1.6c0,0-0.1,0.7-0.1,1.6 C199.5,211.6,199.5,212.3,199.5,212.3z"></path> </g> </g> </g> </g> <g> <g> <g> <g> <path class="st15" d="M200.5,212.3c0,0,0.1-0.7,0.1-1.6c0-0.9,0-1.6-0.1-1.6c0,0-0.1,0.7-0.1,1.6 C200.4,211.6,200.4,212.3,200.5,212.3z"></path> </g> </g> </g> </g> <g> <g> <g> <g> <path class="st15" d="M197.4,212.3c0,0,0.1-0.7,0.1-1.6c0-0.9,0-1.6-0.1-1.6c0,0-0.1,0.7-0.1,1.6 C197.3,211.6,197.4,212.3,197.4,212.3z"></path> </g> </g> </g> </g> <g> <g> <g> <g> <path class="st15" d="M198.4,212.3c0,0,0.1-0.7,0.1-1.6c0-0.9,0-1.6-0.1-1.6c0,0-0.1,0.7-0.1,1.6 C198.3,211.6,198.3,212.3,198.4,212.3z"></path> </g> </g> </g> </g> <g> <g> <g> <g> <path class="st15" d="M195.3,212.3c0,0,0.1-0.7,0.1-1.6c0-0.9,0-1.6-0.1-1.6c0,0-0.1,0.7-0.1,1.6 C195.2,211.6,195.3,212.3,195.3,212.3z"></path> </g> </g> </g> </g> <g> <g> <g> <g> <path class="st15" d="M196.3,212.3c0,0,0.1-0.7,0.1-1.6c0-0.9,0-1.6-0.1-1.6c0,0-0.1,0.7-0.1,1.6 C196.2,211.6,196.2,212.3,196.3,212.3z"></path> </g> </g> </g> </g> <g> <g> <g> <g> <path class="st15" d="M193.2,212.3c0,0,0.1-0.7,0.1-1.6c0-0.9,0-1.6-0.1-1.6c0,0-0.1,0.7-0.1,1.6 C193.1,211.6,193.2,212.3,193.2,212.3z"></path> </g> </g> </g> </g> <g> <g> <g> <g> <path class="st15" d="M194.2,212.3c0,0,0.1-0.7,0.1-1.6c0-0.9,0-1.6-0.1-1.6c0,0-0.1,0.7-0.1,1.6 C194.1,211.6,194.1,212.3,194.2,212.3z"></path> </g> </g> </g> </g> <g> <g> <g> <g> <path class="st15" d="M191.1,212.3c0,0,0.1-0.7,0.1-1.6c0-0.9,0-1.6-0.1-1.6c0,0-0.1,0.7-0.1,1.6 C191,211.6,191.1,212.3,191.1,212.3z"></path> </g> </g> </g> </g> <g> <g> <g> <g> <path class="st15" d="M192.1,212.3c0,0,0.1-0.7,0.1-1.6c0-0.9,0-1.6-0.1-1.6c0,0-0.1,0.7-0.1,1.6 C192,211.6,192,212.3,192.1,212.3z"></path> </g> </g> </g> </g> <g> <g> <g> <g> <path class="st15" d="M189,212.3c0,0,0.1-0.7,0.1-1.6c0-0.9,0-1.6-0.1-1.6c0,0-0.1,0.7-0.1,1.6 C188.9,211.6,189,212.3,189,212.3z"></path> </g> </g> </g> </g> <g> <g> <g> <g> <path class="st15" d="M190,212.3c0,0,0.1-0.7,0.1-1.6c0-0.9,0-1.6-0.1-1.6c0,0-0.1,0.7-0.1,1.6 C189.9,211.6,189.9,212.3,190,212.3z"></path> </g> </g> </g> </g> <g> <g> <g> <g> <path class="st15" d="M186.9,212.3c0,0,0.1-0.7,0.1-1.6c0-0.9,0-1.6-0.1-1.6c0,0-0.1,0.7-0.1,1.6 C186.8,211.6,186.9,212.3,186.9,212.3z"></path> </g> </g> </g> </g> <g> <g> <g> <g> <path class="st15" d="M187.9,212.3c0,0,0.1-0.7,0.1-1.6c0-0.9,0-1.6-0.1-1.6c0,0-0.1,0.7-0.1,1.6 C187.8,211.6,187.8,212.3,187.9,212.3z"></path> </g> </g> </g> </g> </g> <g> <g> <g> <g> <path class="st15" d="M185.8,209.1c0,0,3.9,0.1,8.8,0.1c4.9,0,8.8,0,8.8-0.1c0,0-3.9-0.1-8.8-0.1 C189.8,209.1,185.8,209.1,185.8,209.1z"></path> </g> </g> </g> </g> </g> <g> <g> <g> <g> <g> <rect x="186.9" y="212.3" transform="matrix(-1 -1.224647e-16 1.224647e-16 -1 391.3783 427.8676)" class="st6" width="17.5" height="3.2"></rect> </g> </g> </g> <g> <g> <g> <g> <path class="st15" d="M202.7,215.5c0,0,0.1-0.7,0.1-1.6c0-0.9,0-1.6-0.1-1.6c0,0-0.1,0.7-0.1,1.6 C202.7,214.8,202.7,215.5,202.7,215.5z"></path> </g> </g> </g> </g> <g> <g> <g> <g> <path class="st15" d="M203.7,215.5c0,0,0.1-0.7,0.1-1.6c0-0.9,0-1.6-0.1-1.6c0,0-0.1,0.7-0.1,1.6 C203.6,214.8,203.6,215.5,203.7,215.5z"></path> </g> </g> </g> </g> <g> <g> <g> <g> <path class="st15" d="M200.6,215.5c0,0,0.1-0.7,0.1-1.6c0-0.9,0-1.6-0.1-1.6c0,0-0.1,0.7-0.1,1.6 C200.6,214.8,200.6,215.5,200.6,215.5z"></path> </g> </g> </g> </g> <g> <g> <g> <g> <path class="st15" d="M201.6,215.5c0,0,0.1-0.7,0.1-1.6c0-0.9,0-1.6-0.1-1.6c0,0-0.1,0.7-0.1,1.6 C201.5,214.8,201.5,215.5,201.6,215.5z"></path> </g> </g> </g> </g> <g> <g> <g> <g> <path class="st15" d="M198.5,215.5c0,0,0.1-0.7,0.1-1.6c0-0.9,0-1.6-0.1-1.6c0,0-0.1,0.7-0.1,1.6 C198.4,214.8,198.5,215.5,198.5,215.5z"></path> </g> </g> </g> </g> <g> <g> <g> <g> <path class="st15" d="M199.5,215.5c0,0,0.1-0.7,0.1-1.6c0-0.9,0-1.6-0.1-1.6c0,0-0.1,0.7-0.1,1.6 C199.4,214.8,199.4,215.5,199.5,215.5z"></path> </g> </g> </g> </g> <g> <g> <g> <g> <path class="st15" d="M196.4,215.5c0,0,0.1-0.7,0.1-1.6c0-0.9,0-1.6-0.1-1.6c0,0-0.1,0.7-0.1,1.6 C196.3,214.8,196.4,215.5,196.4,215.5z"></path> </g> </g> </g> </g> <g> <g> <g> <g> <path class="st15" d="M197.4,215.5c0,0,0.1-0.7,0.1-1.6c0-0.9,0-1.6-0.1-1.6s-0.1,0.7-0.1,1.6 C197.3,214.8,197.3,215.5,197.4,215.5z"></path> </g> </g> </g> </g> <g> <g> <g> <g> <path class="st15" d="M194.3,215.5c0,0,0.1-0.7,0.1-1.6c0-0.9,0-1.6-0.1-1.6c0,0-0.1,0.7-0.1,1.6 C194.2,214.8,194.3,215.5,194.3,215.5z"></path> </g> </g> </g> </g> <g> <g> <g> <g> <path class="st15" d="M195.3,215.5c0,0,0.1-0.7,0.1-1.6c0-0.9,0-1.6-0.1-1.6c0,0-0.1,0.7-0.1,1.6 C195.2,214.8,195.2,215.5,195.3,215.5z"></path> </g> </g> </g> </g> <g> <g> <g> <g> <path class="st15" d="M192.2,215.5c0,0,0.1-0.7,0.1-1.6c0-0.9,0-1.6-0.1-1.6s-0.1,0.7-0.1,1.6 C192.1,214.8,192.2,215.5,192.2,215.5z"></path> </g> </g> </g> </g> <g> <g> <g> <g> <path class="st15" d="M193.2,215.5c0,0,0.1-0.7,0.1-1.6c0-0.9,0-1.6-0.1-1.6c0,0-0.1,0.7-0.1,1.6 C193.1,214.8,193.1,215.5,193.2,215.5z"></path> </g> </g> </g> </g> <g> <g> <g> <g> <path class="st15" d="M190.1,215.5c0,0,0.1-0.7,0.1-1.6c0-0.9,0-1.6-0.1-1.6c0,0-0.1,0.7-0.1,1.6 C190,214.8,190.1,215.5,190.1,215.5z"></path> </g> </g> </g> </g> <g> <g> <g> <g> <path class="st15" d="M191.1,215.5c0,0,0.1-0.7,0.1-1.6c0-0.9,0-1.6-0.1-1.6c0,0-0.1,0.7-0.1,1.6 C191,214.8,191,215.5,191.1,215.5z"></path> </g> </g> </g> </g> <g> <g> <g> <g> <path class="st15" d="M188,215.5c0,0,0.1-0.7,0.1-1.6c0-0.9,0-1.6-0.1-1.6c0,0-0.1,0.7-0.1,1.6 C187.9,214.8,188,215.5,188,215.5z"></path> </g> </g> </g> </g> <g> <g> <g> <g> <path class="st15" d="M189,215.5c0,0,0.1-0.7,0.1-1.6c0-0.9,0-1.6-0.1-1.6c0,0-0.1,0.7-0.1,1.6 C188.9,214.8,188.9,215.5,189,215.5z"></path> </g> </g> </g> </g> </g> <g> <g> <g> <g> <path class="st15" d="M186.9,212.3c0,0,3.9,0.1,8.8,0.1c4.9,0,8.8,0,8.8-0.1c0,0-3.9-0.1-8.8-0.1 C190.9,212.3,186.9,212.3,186.9,212.3z"></path> </g> </g> </g> </g> </g> <g> <g> <g> <g> <g> <rect x="188.3" y="215.5" transform="matrix(-1 -1.224647e-16 1.224647e-16 -1 394.1234 434.1761)" class="st6" width="17.5" height="3.2"></rect> </g> </g> </g> <g> <g> <g> <g> <path class="st15" d="M204.1,218.7c0,0,0.1-0.7,0.1-1.6c0-0.9,0-1.6-0.1-1.6c0,0-0.1,0.7-0.1,1.6 C204,218,204.1,218.7,204.1,218.7z"></path> </g> </g> </g> </g> <g> <g> <g> <g> <path class="st15" d="M205.1,218.7c0,0,0.1-0.7,0.1-1.6c0-0.9,0-1.6-0.1-1.6c0,0-0.1,0.7-0.1,1.6 C205,218,205,218.7,205.1,218.7z"></path> </g> </g> </g> </g> <g> <g> <g> <g> <path class="st15" d="M202,218.7c0,0,0.1-0.7,0.1-1.6c0-0.9,0-1.6-0.1-1.6c0,0-0.1,0.7-0.1,1.6 C201.9,218,202,218.7,202,218.7z"></path> </g> </g> </g> </g> <g> <g> <g> <g> <path class="st15" d="M203,218.7c0,0,0.1-0.7,0.1-1.6c0-0.9,0-1.6-0.1-1.6c0,0-0.1,0.7-0.1,1.6 C202.9,218,202.9,218.7,203,218.7z"></path> </g> </g> </g> </g> <g> <g> <g> <g> <path class="st15" d="M199.9,218.7c0,0,0.1-0.7,0.1-1.6c0-0.9,0-1.6-0.1-1.6c0,0-0.1,0.7-0.1,1.6 C199.8,218,199.9,218.7,199.9,218.7z"></path> </g> </g> </g> </g> <g> <g> <g> <g> <path class="st15" d="M200.9,218.7c0,0,0.1-0.7,0.1-1.6c0-0.9,0-1.6-0.1-1.6c0,0-0.1,0.7-0.1,1.6 C200.8,218,200.8,218.7,200.9,218.7z"></path> </g> </g> </g> </g> <g> <g> <g> <g> <path class="st15" d="M197.8,218.7c0,0,0.1-0.7,0.1-1.6c0-0.9,0-1.6-0.1-1.6c0,0-0.1,0.7-0.1,1.6 C197.7,218,197.7,218.7,197.8,218.7z"></path> </g> </g> </g> </g> <g> <g> <g> <g> <path class="st15" d="M198.7,218.7c0,0,0.1-0.7,0.1-1.6c0-0.9,0-1.6-0.1-1.6c0,0-0.1,0.7-0.1,1.6 C198.7,218,198.7,218.7,198.7,218.7z"></path> </g> </g> </g> </g> <g> <g> <g> <g> <path class="st15" d="M195.7,218.7c0,0,0.1-0.7,0.1-1.6c0-0.9,0-1.6-0.1-1.6c0,0-0.1,0.7-0.1,1.6 C195.6,218,195.6,218.7,195.7,218.7z"></path> </g> </g> </g> </g> <g> <g> <g> <g> <path class="st15" d="M196.6,218.7c0,0,0.1-0.7,0.1-1.6c0-0.9,0-1.6-0.1-1.6c0,0-0.1,0.7-0.1,1.6 C196.6,218,196.6,218.7,196.6,218.7z"></path> </g> </g> </g> </g> <g> <g> <g> <g> <path class="st15" d="M193.6,218.7c0,0,0.1-0.7,0.1-1.6c0-0.9,0-1.6-0.1-1.6c0,0-0.1,0.7-0.1,1.6 C193.5,218,193.5,218.7,193.6,218.7z"></path> </g> </g> </g> </g> <g> <g> <g> <g> <path class="st15" d="M194.5,218.7c0,0,0.1-0.7,0.1-1.6c0-0.9,0-1.6-0.1-1.6c0,0-0.1,0.7-0.1,1.6 C194.5,218,194.5,218.7,194.5,218.7z"></path> </g> </g> </g> </g> <g> <g> <g> <g> <path class="st15" d="M191.5,218.7c0,0,0.1-0.7,0.1-1.6c0-0.9,0-1.6-0.1-1.6c0,0-0.1,0.7-0.1,1.6 C191.4,218,191.4,218.7,191.5,218.7z"></path> </g> </g> </g> </g> <g> <g> <g> <g> <path class="st15" d="M192.4,218.7c0,0,0.1-0.7,0.1-1.6c0-0.9,0-1.6-0.1-1.6c0,0-0.1,0.7-0.1,1.6 C192.4,218,192.4,218.7,192.4,218.7z"></path> </g> </g> </g> </g> <g> <g> <g> <g> <path class="st15" d="M189.4,218.7c0,0,0.1-0.7,0.1-1.6c0-0.9,0-1.6-0.1-1.6c0,0-0.1,0.7-0.1,1.6 C189.3,218,189.3,218.7,189.4,218.7z"></path> </g> </g> </g> </g> <g> <g> <g> <g> <path class="st15" d="M190.3,218.7c0,0,0.1-0.7,0.1-1.6c0-0.9,0-1.6-0.1-1.6c0,0-0.1,0.7-0.1,1.6 C190.3,218,190.3,218.7,190.3,218.7z"></path> </g> </g> </g> </g> </g> <g> <g> <g> <g> <path class="st15" d="M188.3,215.5c0,0,3.9,0.1,8.8,0.1c4.9,0,8.8,0,8.8-0.1c0,0-3.9-0.1-8.8-0.1 C192.2,215.4,188.3,215.5,188.3,215.5z"></path> </g> </g> </g> </g> </g> </g> <g class="st8"> <g> <g> <g> <path d="M203.7,202.7c-2.6,0.6-5.4,0.8-8.1,0.6c-2.7-0.2-5.4-0.6-8.1-0.5L203.7,202.7z"></path> </g> </g> </g> </g> <g class="st8"> <g> <g> <g> <path d="M203.6,199.6c-2.6,0.6-5.4,0.8-8.1,0.6c-2.7-0.2-5.4-0.6-8.1-0.5L203.6,199.6z"></path> </g> </g> </g> </g> <g class="st8"> <g> <g> <g> <path d="M202.7,205.9c-2.6,0.6-5.4,0.8-8.1,0.6c-2.7-0.2-5.4-0.6-8.1-0.5L202.7,205.9z"></path> </g> </g> </g> </g> <g class="st8"> <g> <g> <g> <path d="M203.4,209.1c-2.6,0.6-5.4,0.8-8.1,0.6c-2.7-0.2-5.4-0.6-8.1-0.5L203.4,209.1z"></path> </g> </g> </g> </g> <g class="st8"> <g> <g> <g> <path d="M203.2,212.3c-2.6,0.6-5.4,0.8-8.1,0.6c-2.7-0.2-5.4-0.6-8.1-0.5L203.2,212.3z"></path> </g> </g> </g> </g> <g class="st8"> <g> <g> <g> <path d="M204.1,215.5c-2.6,0.6-5.4,0.8-8.1,0.6c-2.7-0.2-5.4-0.6-8.1-0.5L204.1,215.5z"></path> </g> </g> </g> </g> </g> <g> <g> <g> <g> <path class="st5" d="M203.7,198.5c0,0,0.1-0.4,0.1-0.9c0-0.5,0-0.9-0.1-0.9c0,0-0.1,0.4-0.1,0.9 C203.6,198.1,203.7,198.5,203.7,198.5z"></path> </g> </g> </g> </g> <g> <g> <g> <g> <path class="st5" d="M204.8,201.9c0,0,0.1-0.4,0.1-0.9c0-0.5,0-0.9-0.1-0.9c0,0-0.1,0.4-0.1,0.9 C204.7,201.5,204.8,201.9,204.8,201.9z"></path> </g> </g> </g> </g> <g> <g> <g> <g> <path class="st5" d="M203.2,205.2c0,0,0.1-0.4,0.1-0.8c0-0.5,0-0.8-0.1-0.8s-0.1,0.4-0.1,0.8 C203.2,204.8,203.2,205.2,203.2,205.2z"></path> </g> </g> </g> </g> <g> <g> <g> <g> <path class="st5" d="M204.8,208.2c0,0,0.1-0.3,0.1-0.7c0-0.4,0-0.7-0.1-0.7c0,0-0.1,0.3-0.1,0.7 C204.8,207.8,204.8,208.2,204.8,208.2z"></path> </g> </g> </g> </g> <g> <g> <g> <g> <path class="st5" d="M198.4,199.8c0,0,1.3,0.1,2.9,0.1c1.6,0,2.9,0,2.9-0.1c0,0-1.3-0.1-2.9-0.1 C199.7,199.7,198.4,199.8,198.4,199.8z"></path> </g> </g> </g> </g> <g> <g> <g> <g> <path class="st5" d="M196.6,196.8c0,0,1.3,0.1,2.9,0.1c1.6,0,2.9,0,2.9-0.1c0,0-1.3-0.1-2.9-0.1 C197.9,196.7,196.6,196.7,196.6,196.8z"></path> </g> </g> </g> </g> <g> <g> <g> <g> <path class="st5" d="M193.8,196.8c0,0,0.4,0.1,1,0.1c0.5,0,1,0,1-0.1c0,0-0.4-0.1-1-0.1C194.2,196.7,193.8,196.8,193.8,196.8 z"></path> </g> </g> </g> </g> </g> <g> <g> <g> <path class="st5" d="M203.1,212.2c0,0,0.1-0.5,0.1-1.2c0-0.7,0-1.2-0.1-1.2c0,0-0.1,0.5-0.1,1.2 C203,211.6,203.1,212.2,203.1,212.2z"></path> </g> </g> </g> <g> <g> <g> <path class="st5" d="M189.8,208.8c0,0,3.2,0.1,7.1,0.1c3.9,0,7.1,0,7.1-0.1c0,0-3.2-0.1-7.1-0.1 C193,208.7,189.8,208.7,189.8,208.8z"></path> </g> </g> </g> <g> <g> <g> <path class="st5" d="M192.6,215.2c0,0,2.5,0.1,5.6,0.1c3.1,0,5.6,0,5.6-0.1c0,0-2.5-0.1-5.6-0.1 C195.2,215.1,192.6,215.1,192.6,215.2z"></path> </g> </g> </g> <g> <g> <g> <path class="st5" d="M205.6,218.1c0,0,0.1-0.3,0.1-0.7c0-0.4,0-0.7-0.1-0.7c0,0-0.1,0.3-0.1,0.7 C205.5,217.8,205.5,218.1,205.6,218.1z"></path> </g> </g> </g> <g> <g> <g> <path class="st5" d="M193.2,218.3c0,0,2.6,0.1,5.8,0.1c3.2,0,5.8,0,5.8-0.1s-2.6-0.1-5.8-0.1 C195.8,218.3,193.2,218.3,193.2,218.3z"></path> </g> </g> </g> </g> <g> <g> <g> <path class="st15" d="M205.8,218.7C205.8,218.7,205.8,218.7,205.8,218.7c0-0.1,0-0.2,0-0.2c0-0.2,0-0.4,0-0.6c0-0.6,0-1.4,0-2.3 l0,0l0,0c-0.4,0-0.8,0-1.2,0l0,0c0-1,0-2,0-3.2l0-0.1l-0.1,0c-0.3,0-0.5,0-0.8,0c-0.1,0-0.2,0-0.3,0l0.1,0.1c0-1.2,0-2.2,0-3.2 l0,0c0.6,0,1.2,0,1.7,0l0,0l0,0c0-1,0-1.8,0-2.3c0-0.3,0-0.5,0-0.6c0-0.1,0-0.1,0-0.2c0,0,0-0.1,0-0.1c0,0,0,0,0,0.1 c0,0,0,0.1,0,0.2c0,0.2,0,0.4,0,0.6c0,0.6,0,1.4,0,2.3l0,0c-0.5,0-1.1,0-1.7,0l0,0l0,0c0,1,0,2.1,0,3.2l0,0.1l0.1,0 c0.1,0,0.2,0,0.3,0c0.3,0,0.6,0,0.8,0l-0.1-0.1c0,1.1,0,2.2,0,3.2l0,0l0,0c0.4,0,0.9,0,1.2,0l0,0c0,1,0,1.8,0,2.3 c0,0.3,0,0.5,0,0.6C205.8,218.5,205.8,218.6,205.8,218.7C205.8,218.7,205.8,218.7,205.8,218.7z"></path> </g> </g> </g> </g> </svg> 