<?xml version="1.0" encoding="UTF-8"?> <svg xmlns="http://www.w3.org/2000/svg" width="90" height="35" viewBox="0 0 90 35" fill="none"><g clip-path="url(#clip0_5403_33307)"><path d="M64.487 18.0802C64.9954 18.0785 65.4927 18.2257 65.9162 18.5032C66.3397 18.7808 66.6703 19.1761 66.866 19.6393C67.0618 20.1024 67.1139 20.6124 67.0158 21.1048C66.9177 21.5972 66.6738 22.0498 66.315 22.4052C65.9562 22.7607 65.4986 23.003 65.0002 23.1016C64.5018 23.2001 63.9849 23.1504 63.5152 22.9588C63.0454 22.7672 62.6438 22.4422 62.3612 22.0251C62.0786 21.6079 61.9278 21.1174 61.9277 20.6156C61.9266 20.283 61.9919 19.9536 62.12 19.646C62.2481 19.3384 62.4364 19.0589 62.6742 18.8233C62.912 18.5878 63.1945 18.4009 63.5056 18.2734C63.8167 18.1459 64.1502 18.0802 64.487 18.0802Z" fill="#0433EF"></path><path d="M27.1328 6.33972H30.6751V28.1964H27.1328V6.33972ZM43.0731 21.2022C43.1108 21.6912 43.0405 22.1825 42.8669 22.642C42.6932 23.1015 42.4205 23.5182 42.0676 23.8633C41.7146 24.2084 41.2899 24.4737 40.8228 24.6407C40.3557 24.8076 39.8575 24.8724 39.3625 24.8304C37.246 24.8304 36.8652 22.8721 36.8652 21.6918V13.3338H33.323V21.6743C33.28 22.5726 33.4184 23.4703 33.7301 24.3153C34.0417 25.1603 34.5204 25.9357 35.1384 26.5964C35.7032 27.1194 36.3672 27.5269 37.0921 27.7955C37.8171 28.0641 38.5887 28.1884 39.3625 28.1614C40.7007 28.1874 42.0106 27.7789 43.0908 26.9986V28.1964H46.6331V13.3338H43.0908L43.0731 21.2022ZM53.6999 8.08825H50.1576V13.3338H47.5009V16.8309H50.1576V28.1964H53.6999V16.8309H56.3566V13.3338H53.6999V8.08825ZM67.506 23.7463C66.7073 24.4486 65.6707 24.8292 64.6013 24.8129C64.0338 24.8301 63.4688 24.7319 62.9413 24.5246C62.4138 24.3172 61.9351 24.0051 61.5349 23.6075C61.1346 23.2099 60.8214 22.7354 60.6146 22.2133C60.4079 21.6913 60.312 21.1329 60.3328 20.5728C60.3099 20.0157 60.4049 19.4601 60.612 18.9414C60.8191 18.4227 61.1336 17.9524 61.5355 17.5607C61.9373 17.1689 62.4175 16.8644 62.9455 16.6664C63.4734 16.4685 64.0374 16.3816 64.6013 16.4113C65.6783 16.4058 66.7204 16.7881 67.5325 17.4866L68.0639 17.9412L70.4549 15.5807L69.8616 15.0474C68.4099 13.7844 66.5362 13.0962 64.6013 13.1153C63.5924 13.0764 62.5862 13.2429 61.6452 13.6045C60.7043 13.966 59.8488 14.5148 59.132 15.2168C58.4151 15.9187 57.8523 16.7588 57.4784 17.6848C57.1045 18.6107 56.9277 19.6027 56.9588 20.599C56.9347 21.5979 57.1157 22.5914 57.4908 23.5194C57.8659 24.4475 58.4273 25.291 59.1414 25.9992C59.8554 26.7074 60.7072 27.2656 61.6456 27.6402C62.5839 28.0148 63.5893 28.198 64.6013 28.1789C66.5622 28.2094 68.4615 27.5031 69.9147 26.203L70.4903 25.6785L68.0639 23.318L67.506 23.7463ZM83.1009 14.6278C82.1447 13.7045 80.8818 13.155 79.5465 13.081C78.2111 13.007 76.8939 13.4137 75.8392 14.2256V6.35721H72.2969V28.2138H75.8392V20.0045C75.8392 16.6648 78.2479 16.3938 79.0892 16.3938C81.2057 16.3938 81.1526 18.3521 81.1526 19.5324V28.1964H84.6949V19.5499C84.6949 17.4779 84.2521 15.7643 83.1009 14.6278ZM22.1736 22.7322C21.5099 23.4031 20.7163 23.9353 19.84 24.2973C18.9637 24.6592 18.0226 24.8435 17.0727 24.8392C13.1231 24.8392 10.2538 21.7792 10.2538 17.5828C10.2538 13.3863 13.1231 10.3001 17.0727 10.3001C18.0176 10.3012 18.9529 10.4863 19.8252 10.8449C20.6975 11.2034 21.4895 11.7284 22.1559 12.3896L22.6872 12.9229L25.0606 10.5887L24.5381 10.0553C23.5674 9.07423 22.4055 8.29732 21.1225 7.77143C19.8395 7.24554 18.4619 6.98157 17.0727 6.99542C11.2545 6.99542 6.88867 11.5066 6.88867 17.574C6.88867 23.6414 11.2722 28.1614 17.0727 28.1614C18.4679 28.1714 19.8507 27.9015 21.137 27.368C22.4234 26.8345 23.5865 26.0485 24.5558 25.0577L25.0783 24.5244L22.7315 22.1552L22.1736 22.7322Z" fill="#0433EF"></path></g><defs><clipPath id="clip0_5403_33307"><rect width="89.2354" height="34.9706" fill="white"></rect></clipPath></defs></svg> 