<?xml version="1.0" encoding="UTF-8"?> <svg xmlns="http://www.w3.org/2000/svg" width="108" height="23" viewBox="0 0 108 23" fill="none"><g clip-path="url(#clip0)"><path d="M41.2707 11.891C41.5935 11.8898 41.9095 11.9866 42.1785 12.1692C42.4475 12.3517 42.6574 12.6117 42.7817 12.9163C42.9061 13.2209 42.9392 13.5564 42.8769 13.8802C42.8146 14.2041 42.6596 14.5017 42.4317 14.7355C42.2038 14.9693 41.9132 15.1287 41.5966 15.1935C41.28 15.2583 40.9517 15.2256 40.6533 15.0996C40.3549 14.9735 40.0998 14.7598 39.9203 14.4855C39.7408 14.2111 39.645 13.8885 39.645 13.5585C39.6443 13.3398 39.6858 13.123 39.7672 12.9208C39.8485 12.7185 39.9681 12.5346 40.1192 12.3797C40.2702 12.2248 40.4497 12.1019 40.6473 12.018C40.8449 11.9341 41.0567 11.891 41.2707 11.891V11.891ZM75.6169 5.83046L74.4919 3.50171L73.3669 5.83046L70.9032 6.19846L72.7032 7.97521L72.2869 10.4937L74.5032 9.34371L76.725 10.4937L76.3032 7.97521L78.1032 6.19846L75.6169 5.83046ZM67.1794 5.83046L66.0544 3.50171L64.9294 5.83046L62.4713 6.19846L64.2713 7.97521L63.8494 10.4937L66.0994 9.34371L68.3494 10.4937L67.9275 7.97521L69.7275 6.19846L67.1794 5.83046ZM84.0544 5.83046L82.9294 3.50171L81.8044 5.83046L79.3407 6.19846L81.1407 7.97521L80.7244 10.4937L82.9407 9.34371L85.1907 10.4937L84.7688 7.97521L86.5688 6.19846L84.0544 5.83046ZM92.6382 5.83046L91.5132 3.50171L90.3882 5.83046L87.93 6.19846L89.73 7.97521L89.3082 10.4937L91.53 9.34371L93.78 10.4937L93.3582 7.97521L95.1582 6.19846L92.6382 5.83046ZM103.68 6.19846L101.25 5.83046L100.125 3.50171L99 5.83046L96.5419 6.19846L98.3419 7.97521L97.875 10.4937L100.125 9.34371L102.347 10.4937L101.925 7.97521L103.68 6.19846Z" fill="#FF3D2E"></path><path d="M17.5444 4.1687H19.7944V18.5437H17.5444V4.1687ZM27.6694 13.9437C27.6934 14.2653 27.6487 14.5884 27.5384 14.8906C27.4281 15.1928 27.2549 15.4669 27.0307 15.6939C26.8065 15.9209 26.5368 16.0953 26.2401 16.2051C25.9434 16.315 25.6269 16.3576 25.3125 16.33C23.9682 16.33 23.7263 15.042 23.7263 14.2657V8.7687H21.4763V14.2542C21.449 14.845 21.5369 15.4354 21.7349 15.9912C21.9328 16.5469 22.2369 17.0569 22.6294 17.4915C22.9882 17.8354 23.4099 18.1034 23.8704 18.28C24.3309 18.4567 24.821 18.5385 25.3125 18.5207C26.1626 18.5378 26.9945 18.2691 27.6807 17.756V18.5437H29.9307V8.7687H27.6807L27.6694 13.9437ZM34.4194 5.3187H32.1694V8.7687H30.4819V11.0687H32.1694V18.5437H34.4194V11.0687H36.1069V8.7687H34.4194V5.3187ZM43.1888 15.617C42.6815 16.0788 42.0231 16.3292 41.3438 16.3185C40.9833 16.3297 40.6244 16.2652 40.2894 16.1288C39.9543 15.9924 39.6503 15.7871 39.396 15.5256C39.1418 15.2641 38.9429 14.952 38.8115 14.6087C38.6802 14.2654 38.6193 13.8981 38.6325 13.5297C38.6179 13.1633 38.6783 12.7979 38.8099 12.4567C38.9414 12.1156 39.1412 11.8063 39.3964 11.5487C39.6516 11.291 39.9567 11.0907 40.292 10.9605C40.6274 10.8303 40.9856 10.7732 41.3438 10.7927C42.0279 10.7891 42.6898 11.0406 43.2057 11.5L43.5432 11.799L45.0619 10.2465L44.685 9.8957C43.7629 9.065 42.5728 8.61237 41.3438 8.62495C40.703 8.59939 40.0638 8.70891 39.4662 8.94669C38.8685 9.18448 38.3251 9.54543 37.8698 10.0071C37.4144 10.4688 37.0569 11.0213 36.8195 11.6303C36.582 12.2393 36.4696 12.8917 36.4894 13.547C36.4741 14.2039 36.5891 14.8573 36.8273 15.4677C37.0656 16.0781 37.4222 16.6329 37.8757 17.0987C38.3293 17.5644 38.8704 17.9316 39.4664 18.1779C40.0624 18.4243 40.701 18.5448 41.3438 18.5322C42.5893 18.5523 43.7958 18.0878 44.7188 17.2327L45.0844 16.8877L43.5432 15.3352L43.1888 15.617ZM53.0944 9.6197C52.4871 9.01249 51.6849 8.65105 50.8367 8.60241C49.9885 8.55377 49.1519 8.82124 48.4819 9.3552V4.1802H46.2319V18.5552H48.4819V13.156C48.4819 10.9595 50.0119 10.7812 50.5463 10.7812C51.8907 10.7812 51.8569 12.0692 51.8569 12.8455V18.5437H54.1069V12.857C54.1069 11.4942 53.8257 10.3672 53.0944 9.6197ZM14.3944 14.95C13.9728 15.3912 13.4687 15.7412 12.9121 15.9793C12.3555 16.2173 11.7578 16.3386 11.1544 16.3357C8.64567 16.3357 6.82317 14.3232 6.82317 11.5632C6.82317 8.8032 8.64567 6.77345 11.1544 6.77345C11.7546 6.77415 12.3487 6.8959 12.9027 7.13172C13.4568 7.36754 13.9599 7.71279 14.3832 8.1477L14.7207 8.49845L16.2282 6.9632L15.8963 6.61245C15.2797 5.96718 14.5417 5.4562 13.7268 5.11033C12.9118 4.76445 12.0368 4.59084 11.1544 4.59995C7.45879 4.59995 4.68567 7.56695 4.68567 11.5575C4.68567 15.548 7.47004 18.5207 11.1544 18.5207C12.0406 18.5273 12.9189 18.3498 13.736 17.9989C14.5531 17.648 15.2918 17.1311 15.9075 16.4795L16.2394 16.1287L14.7488 14.5705L14.3944 14.95ZM65.0194 17.9227C64.8253 17.9271 64.6329 17.8858 64.4569 17.802C64.2965 17.7304 64.1588 17.6144 64.0594 17.467C63.96 17.3197 63.9029 17.1469 63.8944 16.9682H63.1744C63.1755 17.1969 63.2266 17.4225 63.3239 17.6284C63.4213 17.8343 63.5624 18.0154 63.7369 18.1585C64.0794 18.4186 64.4972 18.5542 64.9238 18.5437C65.2092 18.5694 65.4965 18.5278 65.7637 18.4221C66.0309 18.3164 66.2709 18.1495 66.4651 17.9342C66.7823 17.539 66.9535 17.0424 66.9488 16.5312C66.9552 16.2938 66.9113 16.0578 66.82 15.8395C66.7288 15.6211 66.5923 15.4255 66.4201 15.2662C66.073 14.9344 65.6126 14.7549 65.1376 14.766C64.8941 14.7602 64.6518 14.8011 64.4232 14.8867C64.2944 14.949 64.1719 15.0241 64.0575 15.111L64.2938 13.547H66.6394V12.8455H63.7763L63.36 15.8757L63.9563 15.916C64.0715 15.7517 64.2215 15.6161 64.3951 15.5192C64.5849 15.4215 64.7957 15.3741 65.0082 15.3812C65.3191 15.3758 65.6205 15.4909 65.8519 15.7032C65.9717 15.8192 66.065 15.9608 66.1253 16.1178C66.1855 16.2748 66.2113 16.4434 66.2007 16.6117C66.2019 16.9336 66.0991 17.2469 65.9082 17.503C65.8017 17.6356 65.6664 17.741 65.5131 17.8109C65.3598 17.8807 65.1927 17.9131 65.025 17.9055L65.0194 17.9227ZM68.7825 17.5432H67.9782V18.4H68.7825V17.5432ZM73.1701 13.6735C73.0261 13.3854 72.8031 13.1466 72.5283 12.9862C72.2536 12.8259 71.939 12.751 71.6232 12.7707V12.7707C71.2498 12.7678 70.8861 12.8915 70.5888 13.1225C70.2916 13.3534 70.0777 13.6787 69.9807 14.0472C69.8082 14.5791 69.7264 15.1373 69.7388 15.6975C69.7058 16.3795 69.8452 17.0588 70.1438 17.6697C70.2808 17.9456 70.4926 18.1753 70.754 18.3313C71.0154 18.4873 71.3152 18.5631 71.6175 18.5494C71.9584 18.5608 72.2943 18.4633 72.5786 18.2706C72.8628 18.078 73.0813 17.7996 73.2038 17.4742C73.4443 16.8728 73.5574 16.2261 73.5357 15.5767C73.5719 14.916 73.4483 14.2564 73.1757 13.6562L73.1701 13.6735ZM72.4725 17.4282C72.383 17.5787 72.2564 17.7025 72.1053 17.7872C71.9543 17.872 71.7842 17.9147 71.6119 17.9112C71.3896 17.9077 71.1751 17.8265 71.0042 17.6811C70.8333 17.5357 70.7162 17.3348 70.6725 17.112C70.5378 16.6653 70.4751 16.1992 70.4869 15.732C70.4591 15.143 70.555 14.5548 70.7682 14.007C70.8424 13.8295 70.9677 13.6794 71.1275 13.5767C71.2873 13.4739 71.474 13.4234 71.6626 13.432C71.859 13.4172 72.0546 13.4704 72.2178 13.5831C72.3811 13.6957 72.5025 13.8612 72.5626 14.053C72.7285 14.5604 72.8065 15.0936 72.7932 15.6285C72.8408 16.2405 72.7323 16.8547 72.4782 17.411L72.4725 17.4282Z" fill="#17313A"></path></g><defs><clipPath id="clip0"><rect width="108" height="23" fill="white"></rect></clipPath></defs></svg> 