<?xml version="1.0" encoding="UTF-8"?> <svg xmlns="http://www.w3.org/2000/svg" width="71" height="70" viewBox="0 0 71 70" fill="none"><g clip-path="url(#clip0)"><path d="M39.9375 70H7.39583C3.31629 70 0 66.7275 0 62.7083L0 7.29167C0 3.2725 3.31629 0 7.39583 0L39.9375 0C44.017 0 47.3333 3.2725 47.3333 7.29167V13.125C47.3333 13.93 46.6707 14.5833 45.8542 14.5833C45.0377 14.5833 44.375 13.93 44.375 13.125V7.29167C44.375 4.87958 42.384 2.91667 39.9375 2.91667L7.39583 2.91667C4.94929 2.91667 2.95833 4.87958 2.95833 7.29167L2.95833 62.7083C2.95833 65.1204 4.94929 67.0833 7.39583 67.0833H39.9375C42.384 67.0833 44.375 65.1204 44.375 62.7083V56.875C44.375 56.07 45.0377 55.4167 45.8542 55.4167C46.6707 55.4167 47.3333 56.07 47.3333 56.875V62.7083C47.3333 66.7275 44.017 70 39.9375 70Z" fill="#188EF8"></path><path d="M29.583 8.75L17.7497 8.75C15.3031 8.75 13.3122 6.78708 13.3122 4.375C13.3122 3.57 12.6465 2.91667 11.833 2.91667L8.87467 2.91667C8.05817 2.91667 7.39551 2.26333 7.39551 1.45833C7.39551 0.653333 8.05817 0 8.87467 0L11.833 0C14.2795 0 16.2705 1.96292 16.2705 4.375C16.2705 5.18 16.9361 5.83333 17.7497 5.83333H29.583C30.3965 5.83333 31.0622 5.18 31.0622 4.375C31.0622 1.96292 33.0531 0 35.4997 0L38.458 0C39.2745 0 39.9372 0.653333 39.9372 1.45833C39.9372 2.26333 39.2745 2.91667 38.458 2.91667H35.4997C34.6861 2.91667 34.0205 3.57 34.0205 4.375C34.0205 6.78708 32.0295 8.75 29.583 8.75Z" fill="#188EF8"></path><path d="M66.5619 49.5832H34.0203C31.5737 49.5832 29.5828 47.6203 29.5828 45.2082V24.7915C29.5828 22.3794 31.5737 20.4165 34.0203 20.4165L66.5619 20.4165C69.0085 20.4165 70.9994 22.3794 70.9994 24.7915V45.2082C70.9994 47.6203 69.0085 49.5832 66.5619 49.5832ZM34.0203 23.3332C33.2067 23.3332 32.5411 23.9865 32.5411 24.7915V45.2082C32.5411 46.0132 33.2067 46.6665 34.0203 46.6665H66.5619C67.3755 46.6665 68.0411 46.0132 68.0411 45.2082V24.7915C68.0411 23.9865 67.3755 23.3332 66.5619 23.3332L34.0203 23.3332Z" fill="#188EF8"></path><path d="M50.292 38.3716C49.3512 38.3716 48.4105 38.15 47.5525 37.7096L30.3794 28.875C29.6546 28.5017 29.3736 27.6208 29.7523 26.9062C30.1309 26.1917 31.0303 25.9175 31.7491 26.2879L48.9252 35.1225C49.7802 35.5629 50.8097 35.5629 51.6646 35.1225L68.8407 26.2879C69.5655 25.9175 70.4589 26.1917 70.8376 26.9062C71.2163 27.6208 70.9352 28.5017 70.2104 28.875L53.0343 37.7096C52.1735 38.15 51.2298 38.3716 50.292 38.3716Z" fill="#188EF8"></path></g><defs><clipPath id="clip0"><rect width="71" height="70" fill="white"></rect></clipPath></defs></svg> 