<?xml version="1.0" encoding="UTF-8"?> <svg xmlns="http://www.w3.org/2000/svg" width="72" height="72" viewBox="0 0 72 72" fill="none"><rect width="72" height="72" fill="url(#paint0_linear)"></rect><path d="M62.891 9.54209H56.8187V3.46992C56.8188 1.56136 55.2572 0 53.3496 0H9.10796C7.19954 0 5.63818 1.56136 5.63818 3.46992V58.9879C5.63818 60.8963 7.19954 62.4578 9.1081 62.4578H15.1804V68.5301C15.1804 70.4385 16.7411 72 18.6503 72H48.1434C50.051 72 52.7506 70.9296 54.1394 69.6223L63.8325 60.4983C65.223 59.1911 66.3594 56.5591 66.3594 54.6507L66.3611 13.0123C66.3609 11.1036 64.7994 9.54209 62.891 9.54209ZM15.1801 13.0121V59.8554H9.10796C8.63785 59.8554 8.24058 59.4581 8.24058 58.988V3.46992C8.24058 2.99981 8.63785 2.60254 9.10796 2.60254H53.3498C53.819 2.60254 54.2171 2.99981 54.2171 3.46992V9.54223H18.65C16.7408 9.54223 15.1801 11.1036 15.1801 13.0121ZM62.0488 58.6035L52.3557 67.7268C52.1571 67.9135 51.8985 68.0964 51.613 68.2706V60.2891C51.613 59.6931 51.8534 59.1569 52.2498 58.7579C52.6497 58.3615 53.1858 58.1205 53.7818 58.1205H62.4608C62.3263 58.3033 62.1884 58.4716 62.0488 58.6035ZM63.7567 54.6504C63.7567 54.9081 63.7097 55.2065 63.6387 55.5178H53.7816C51.149 55.523 49.0159 57.6561 49.0105 60.2889V69.2923C48.7009 69.3549 48.4024 69.3972 48.1431 69.3972H18.65V69.3973C18.179 69.3973 17.7827 69.0001 17.7827 68.5299V13.012C17.7827 12.5419 18.1791 12.1446 18.65 12.1446H62.8909C63.361 12.1446 63.7582 12.5419 63.7582 13.012L63.7567 54.6504Z" fill="#188EF8"></path><path d="M53.3503 21.6865H28.1938C27.4746 21.6865 26.8926 22.2686 26.8926 22.9877C26.8926 23.7069 27.4748 24.2889 28.1938 24.2889H53.3503C54.0686 24.2889 54.6515 23.7069 54.6515 22.9877C54.6515 22.2686 54.0686 21.6865 53.3503 21.6865Z" fill="#188EF8"></path><path d="M53.3503 39.0361H28.1938C27.4746 39.0361 26.8926 39.6182 26.8926 40.3373C26.8926 41.0565 27.4748 41.6385 28.1938 41.6385H53.3503C54.0686 41.6385 54.6515 41.0565 54.6515 40.3373C54.6515 39.618 54.0686 39.0361 53.3503 39.0361Z" fill="#188EF8"></path><path d="M42.0727 47.7109H28.1933C27.4741 47.7109 26.8921 48.293 26.8921 49.0121C26.8921 49.7313 27.4741 50.3133 28.1933 50.3133H42.0727C42.791 50.3133 43.373 49.7313 43.373 49.0121C43.373 48.293 42.791 47.7109 42.0727 47.7109Z" fill="#188EF8"></path><path d="M53.3503 30.3613H28.1938C27.4746 30.3613 26.8926 30.9434 26.8926 31.6625C26.8926 32.3817 27.4748 32.9637 28.1938 32.9637H53.3503C54.0686 32.9637 54.6515 32.3817 54.6515 31.6625C54.6515 30.9434 54.0686 30.3613 53.3503 30.3613Z" fill="#188EF8"></path><defs><linearGradient id="paint0_linear" x1="36" y1="0" x2="36" y2="72" gradientUnits="userSpaceOnUse"><stop stop-color="white"></stop><stop offset="1" stop-color="white" stop-opacity="0"></stop></linearGradient></defs></svg> 