<?xml version="1.0" encoding="UTF-8"?> <svg xmlns="http://www.w3.org/2000/svg" width="76" height="76" viewBox="0 0 76 76" fill="none"><path d="M74.8867 73.7735H73.7734V57.1945C73.7734 52.8509 71.2068 48.9066 67.2221 47.1404L61.355 44.6257C62.7827 44.1752 64.0725 43.3718 65.1219 42.2575C66.7053 40.5765 67.6133 38.2954 67.6133 35.9992C67.6133 33.8893 66.8761 31.8979 65.4813 30.2397C63.7365 28.168 62.7757 25.535 62.7757 22.8254V17.4906C62.7757 12.818 60.956 8.42608 57.6521 5.12379C54.3482 1.81957 49.9557 2.51201e-05 45.2838 2.51201e-05C35.6395 2.51201e-05 27.7934 7.84613 27.7934 17.4904V22.6516C27.794 25.4553 26.6922 28.1315 24.9017 30.2887C22.6483 33.0036 22.1801 36.6743 23.6801 39.8683C24.7934 42.2391 26.8014 43.9424 29.2054 44.6634L23.3792 47.1969C19.2917 48.917 16.6504 52.8938 16.6504 57.3282V70.4338C16.6504 71.0486 17.1487 71.5471 17.7637 71.5471C18.3786 71.5471 18.8769 71.0486 18.8769 70.4338V57.3282C18.8769 53.7921 20.9831 50.6208 24.255 49.244L31.5578 46.0683V52.7696H28.2027C27.2571 52.7696 26.3521 53.1727 25.7196 53.8757C25.0873 54.5787 24.7818 55.5211 24.8815 56.4613L26.7167 73.7735H1.11328C0.498305 73.7735 0 74.2719 0 74.8867C0 75.5016 0.498305 76 1.11328 76H74.8867C75.5017 76 76 75.5016 76 74.8867C76 74.2719 75.5017 73.7735 74.8867 73.7735ZM63.7778 31.6733C64.8304 32.9247 65.3867 34.4205 65.3867 35.9991C65.3867 37.7339 64.6995 39.4584 63.5011 40.7308C62.2323 42.0779 60.4892 42.8198 58.5929 42.8198H57.1421L55.2363 42.0029C53.5715 41.289 52.4327 39.7584 52.2 37.9966C55.635 36.1471 57.9754 32.5172 57.9754 28.3501V19.9808C58.3012 20.0029 58.6267 20.0149 58.9514 20.0149C59.4868 20.0149 60.0201 19.9845 60.5493 19.9245V22.8253C60.5491 26.0588 61.696 29.2012 63.7778 31.6733ZM45.5544 49.2485C41.5717 49.319 37.619 48.8143 33.7844 47.7507V45.1001L34.1063 44.9601C34.1089 44.9591 34.1114 44.9579 34.1141 44.9568L36.1001 44.0932C38.311 43.1321 39.8733 41.1635 40.3469 38.863C41.3164 39.1449 42.3396 39.299 43.3988 39.299H47.0265C48.0897 39.299 49.1168 39.1437 50.0895 38.8598C50.5787 41.1497 52.147 43.1006 54.3589 44.0494L56.4785 44.9579L56.4825 44.9595L56.6396 45.0268V47.5319C53.0366 48.6054 49.3117 49.1829 45.5544 49.2485ZM56.6393 49.8499V52.7697H33.7844V50.0563C37.3935 51.0026 41.0991 51.4814 44.8298 51.4814C45.0842 51.4814 45.3387 51.4792 45.5933 51.4747C49.3325 51.4094 53.041 50.863 56.6393 49.8499ZM60.5491 17.6795C57.4826 18.0938 54.0259 17.2724 51.6444 15.4271C51.1585 15.0507 50.4593 15.1392 50.0825 15.6253C49.7059 16.1113 49.7947 16.8106 50.2807 17.1872C51.8376 18.3934 53.7155 19.243 55.7488 19.6714V25.7323C55.2139 26.9515 54.6183 27.9655 53.2757 29.0731C52.7105 29.5395 52.0918 29.9268 51.4291 30.2341C50.8881 29.1782 49.7892 28.4536 48.5236 28.4536H45.9147C44.1152 28.4536 42.6513 29.9176 42.6513 31.717C42.6513 33.5163 44.1152 34.9804 45.9147 34.9804H48.5236C50.038 34.9804 51.3145 33.9434 51.681 32.5424C53.1703 31.9749 55.5992 29.9498 55.5992 29.9498C54.8453 33.9973 51.2893 37.0718 47.0266 37.0718H43.3987C38.5893 37.0718 34.6765 33.1592 34.6765 28.3497V19.7441C38.4576 19.1514 42.0298 17.8719 45.3058 15.9342C50.2939 12.9837 53.4935 9.12819 55.4243 6.0821C58.7281 9.02458 60.6075 13.243 60.5491 17.6795ZM49.5602 31.7201C49.5585 32.2905 49.0942 32.7541 48.5235 32.7541H45.9145C45.3428 32.7541 44.8777 32.2889 44.8777 31.7173C44.8777 31.1456 45.3429 30.6804 45.9145 30.6804H48.5235C49.0941 30.6804 49.5582 31.1437 49.5602 31.7138V31.7201ZM30.02 17.4904C30.02 9.07386 36.8673 2.22659 45.2838 2.22659C48.3023 2.22659 51.1867 3.09792 53.6515 4.72004C51.8746 7.56841 48.8837 11.2313 44.1722 14.0183C40.94 15.9302 37.3945 17.1508 33.634 17.6463H33.5645H33.5631H33.5616H30.0199L30.02 17.4904ZM25.6953 38.9218C24.5664 36.5174 24.9188 33.7543 26.6137 31.7124C28.7403 29.1502 30.0224 25.9843 30.02 22.6516V19.8728H32.4499V28.3501C32.4499 32.5196 34.7933 36.1512 38.2314 37.9997C38.0163 39.7749 36.8809 41.3256 35.2122 42.0512L33.4446 42.8198H31.8309C29.1754 42.8198 26.8244 41.3262 25.6953 38.9218ZM64.4504 56.2268L62.5903 73.7735H28.9557L27.0956 56.2268C27.0619 55.9087 27.1611 55.6026 27.375 55.365C27.5889 55.1272 27.8829 54.9963 28.2027 54.9963H63.3433C63.6631 54.9963 63.9571 55.1272 64.171 55.365C64.3849 55.6026 64.4841 55.9087 64.4504 56.2268ZM71.5469 73.7735H64.8293L66.6645 56.4616C66.7642 55.5213 66.4586 54.5789 65.8264 53.8759C65.1939 53.1729 64.289 52.7697 63.3433 52.7697H58.8659V45.9812L66.3324 49.1814C69.5001 50.5856 71.5469 53.7308 71.5469 57.1945V73.7735Z" fill="#008BFF"></path></svg> 