<?xml version="1.0" encoding="UTF-8"?> <svg xmlns="http://www.w3.org/2000/svg" xmlns:xlink="http://www.w3.org/1999/xlink" version="1.1" id="Warstwa_1" x="0px" y="0px" viewBox="0 0 379 293" style="enable-background:new 0 0 379 293;" xml:space="preserve"> <style type="text/css"> .st0{fill:#008BFF;} .st1{fill:#F6FBFE;} .st2{fill:#FFFFFF;} .st3{fill:#398AFF;} .st4{fill:#DCEAFF;} .st5{fill:#E1E1E1;} .st6{fill:#F5F5F5;} .st7{fill:#ECECEC;} .st8{fill:#1A2E35;} .st9{fill:#007CFF;} .st10{fill:url(#SVGID_1_);} .st11{fill:#375A64;} .st12{fill:#070143;} .st13{fill:#EBF3FA;} .st14{fill:#A3D5FF;} .st15{fill:#1269B2;} </style> <g> <path class="st0" d="M272.7,178.4c0,0.9-0.2,1.8-0.4,2.6c-0.3,1-0.8,1.9-1.5,2.7c-1.2,1.4-2.9,2.4-4.8,2.8c-0.5,0.1-1,0.1-1.5,0.1 c-0.5,0-1-0.1-1.6-0.1c-1.9-0.4-3.5-1.3-4.7-2.7c-0.7-0.8-1.2-1.7-1.5-2.6c-0.3-0.8-0.4-1.7-0.4-2.7c0-1,0.2-2,0.5-2.8 c0.4-1,0.9-1.8,1.5-2.6c1.2-1.3,2.8-2.3,4.6-2.6c0.5-0.1,1-0.1,1.5-0.1c0.5,0,1,0,1.5,0.1c1.8,0.3,3.4,1.3,4.6,2.6 c0.7,0.7,1.2,1.6,1.6,2.6C272.5,176.4,272.7,177.4,272.7,178.4z"></path> <ellipse transform="matrix(0.9981 -6.213797e-02 6.213797e-02 0.9981 -10.5756 16.779)" class="st1" cx="264.5" cy="178.4" rx="6.1" ry="6.1"></ellipse> <ellipse transform="matrix(0.1854 -0.9827 0.9827 0.1854 40.1138 405.2316)" class="st0" cx="264.5" cy="178.4" rx="5.4" ry="5.4"></ellipse> <path class="st2" d="M266,170.4l-0.1,1.4h-2.7l-0.2-1.4c0.5-0.1,1-0.1,1.5-0.1C265,170.2,265.5,170.3,266,170.4z"></path> <path class="st2" d="M266,186.5c-0.5,0.1-1,0.1-1.5,0.1c-0.5,0-1-0.1-1.6-0.1l0.2-1.6h2.7L266,186.5z"></path> <path class="st2" d="M272.2,175.6l-1.3,0.6l-1.4-2.3l1.1-0.9C271.3,173.7,271.8,174.6,272.2,175.6z"></path> <path class="st2" d="M259.5,182.8l-1.2,0.9c-0.7-0.8-1.2-1.7-1.5-2.6l1.4-0.6L259.5,182.8z"></path> <path class="st2" d="M272.2,181c-0.3,1-0.8,1.9-1.5,2.7l-1.3-0.9l1.4-2.3L272.2,181z"></path> <path class="st2" d="M259.5,173.8l-1.4,2.3l-1.3-0.6c0.4-1,0.9-1.8,1.5-2.6L259.5,173.8z"></path> </g> <g> <path class="st0" d="M253.7,175.5c0,0.6-0.1,1.2-0.3,1.7c-0.2,0.6-0.6,1.2-1,1.8c-0.8,0.9-1.9,1.6-3.2,1.8c-0.3,0.1-0.7,0.1-1,0.1 c-0.4,0-0.7,0-1-0.1c-1.2-0.2-2.3-0.9-3.1-1.8c-0.4-0.5-0.8-1.1-1-1.7c-0.2-0.6-0.3-1.1-0.3-1.8c0-0.7,0.1-1.3,0.3-1.9 c0.2-0.6,0.6-1.2,1-1.7c0.8-0.9,1.9-1.5,3.1-1.7c0.3-0.1,0.7-0.1,1-0.1c0.3,0,0.7,0,1,0.1c1.2,0.2,2.3,0.8,3.1,1.7 c0.4,0.5,0.8,1.1,1,1.7C253.6,174.2,253.7,174.8,253.7,175.5z"></path> <ellipse transform="matrix(0.9981 -6.213794e-02 6.213794e-02 0.9981 -10.4262 15.7678)" class="st1" cx="248.3" cy="175.5" rx="4" ry="4"></ellipse> <ellipse transform="matrix(0.1854 -0.9827 0.9827 0.1854 29.7893 386.961)" class="st0" cx="248.3" cy="175.5" rx="3.6" ry="3.6"></ellipse> <path class="st2" d="M249.3,170.2l-0.1,0.9h-1.8l-0.1-0.9c0.3-0.1,0.7-0.1,1-0.1C248.6,170.1,249,170.1,249.3,170.2z"></path> <path class="st2" d="M249.3,180.8c-0.3,0.1-0.7,0.1-1,0.1c-0.4,0-0.7,0-1-0.1l0.1-1.1h1.8L249.3,180.8z"></path> <path class="st2" d="M253.4,173.6l-0.9,0.4l-0.9-1.5l0.7-0.6C252.8,172.4,253.1,173,253.4,173.6z"></path> <path class="st2" d="M245,178.4l-0.8,0.6c-0.4-0.5-0.8-1.1-1-1.7l0.9-0.4L245,178.4z"></path> <path class="st2" d="M253.4,177.2c-0.2,0.6-0.6,1.2-1,1.8l-0.8-0.6l0.9-1.6L253.4,177.2z"></path> <path class="st2" d="M245,172.5l-0.9,1.6l-0.9-0.4c0.2-0.6,0.6-1.2,1-1.7L245,172.5z"></path> </g> <g> <path class="st0" d="M264.2,162.1c0,0.6-0.1,1.2-0.3,1.7c-0.2,0.6-0.6,1.2-1,1.8c-0.8,0.9-1.9,1.6-3.2,1.8c-0.3,0.1-0.7,0.1-1,0.1 c-0.4,0-0.7,0-1-0.1c-1.2-0.2-2.3-0.9-3.1-1.8c-0.4-0.5-0.8-1.1-1-1.7c-0.2-0.6-0.3-1.1-0.3-1.8c0-0.7,0.1-1.3,0.3-1.9 c0.2-0.6,0.6-1.2,1-1.7c0.8-0.9,1.9-1.5,3.1-1.7c0.3-0.1,0.7-0.1,1-0.1c0.3,0,0.7,0,1,0.1c1.2,0.2,2.3,0.8,3.1,1.7 c0.4,0.5,0.8,1.1,1,1.7C264,160.8,264.2,161.5,264.2,162.1z"></path> <ellipse transform="matrix(0.9981 -6.213797e-02 6.213797e-02 0.9981 -9.5755 16.3906)" class="st1" cx="258.7" cy="162.1" rx="4" ry="4"></ellipse> <ellipse transform="matrix(0.1854 -0.9827 0.9827 0.1854 51.4267 386.3317)" class="st0" cx="258.7" cy="162.1" rx="3.6" ry="3.6"></ellipse> <path class="st2" d="M259.7,156.8l-0.1,0.9h-1.8l-0.1-0.9c0.3-0.1,0.7-0.1,1-0.1C259.1,156.7,259.4,156.8,259.7,156.8z"></path> <path class="st2" d="M259.7,167.5c-0.3,0.1-0.7,0.1-1,0.1c-0.4,0-0.7,0-1-0.1l0.1-1.1h1.8L259.7,167.5z"></path> <path class="st2" d="M263.8,160.3l-0.9,0.4l-0.9-1.5l0.7-0.6C263.2,159,263.6,159.6,263.8,160.3z"></path> <path class="st2" d="M255.4,165l-0.8,0.6c-0.4-0.5-0.8-1.1-1-1.7l0.9-0.4L255.4,165z"></path> <path class="st2" d="M263.9,163.9c-0.2,0.6-0.6,1.2-1,1.8L262,165l0.9-1.6L263.9,163.9z"></path> <path class="st2" d="M255.4,159.1l-0.9,1.6l-0.9-0.4c0.2-0.6,0.6-1.2,1-1.7L255.4,159.1z"></path> </g> <g> <circle class="st3" cx="108.6" cy="124.4" r="8.4"></circle> <g> <path class="st4" d="M107.9,132.1c-2,0-4-0.8-5.4-2.2c-1.4-1.4-2.2-3.4-2.2-5.4s0.8-4,2.2-5.4c1.4-1.4,3.4-2.2,5.4-2.2 c2,0,4,0.8,5.4,2.2c1.4,1.4,2.2,3.4,2.2,5.4s-0.8,4-2.2,5.4S109.9,132.1,107.9,132.1z M107.9,117.3c-4,0-7.2,3.2-7.2,7.2 c0,4,3.2,7.2,7.2,7.2c4,0,7.2-3.2,7.2-7.2C115.1,120.5,111.8,117.3,107.9,117.3z"></path> </g> <g> <path class="st4" d="M108.9,126.7c0-0.2,0-0.3,0-0.4c0-0.1-0.1-0.3-0.2-0.4c-0.1-0.1-0.2-0.2-0.4-0.3c-0.2-0.1-0.4-0.2-0.6-0.3 c-0.4-0.2-0.8-0.4-1.1-0.6c-0.3-0.2-0.6-0.4-0.8-0.7c-0.2-0.2-0.4-0.5-0.5-0.8c-0.1-0.3-0.1-0.6-0.1-1c0-0.3,0.1-0.6,0.3-0.9 c0.2-0.3,0.3-0.5,0.6-0.7c0.2-0.2,0.5-0.3,0.8-0.4c0.3-0.1,0.7-0.1,1.1-0.1l0.1-1.3l1,0.1l-0.2,1.3c0.4,0.1,0.7,0.2,1,0.4 c0.3,0.2,0.5,0.4,0.7,0.7c0.2,0.3,0.3,0.5,0.4,0.9c0.1,0.3,0.1,0.7,0,1.1l-1.8-0.2c0.1-0.5,0-0.8-0.2-1.1 c-0.2-0.3-0.4-0.4-0.8-0.4c-0.2,0-0.4,0-0.5,0c-0.1,0-0.3,0.1-0.4,0.2c-0.1,0.1-0.2,0.2-0.2,0.3c-0.1,0.1-0.1,0.3-0.1,0.4 c0,0.1,0,0.3,0,0.4c0,0.1,0.1,0.2,0.2,0.4c0.1,0.1,0.2,0.2,0.4,0.3c0.2,0.1,0.4,0.2,0.6,0.3c0.4,0.2,0.7,0.4,1.1,0.6 c0.3,0.2,0.6,0.4,0.8,0.7c0.2,0.2,0.4,0.5,0.5,0.8c0.1,0.3,0.1,0.6,0.1,1c0,0.3-0.1,0.6-0.3,0.9c-0.2,0.3-0.4,0.5-0.6,0.7 c-0.2,0.2-0.5,0.3-0.9,0.4c-0.3,0.1-0.7,0.1-1.1,0.1l-0.1,1.2l-1-0.1l0.1-1.2c-0.3-0.1-0.7-0.2-1-0.4c-0.3-0.2-0.6-0.4-0.8-0.6 c-0.2-0.3-0.4-0.6-0.5-0.9c-0.1-0.4-0.1-0.8-0.1-1.2l1.8,0.2c0,0.3,0,0.5,0,0.7c0.1,0.2,0.1,0.4,0.3,0.5c0.1,0.1,0.3,0.2,0.4,0.3 c0.2,0.1,0.3,0.1,0.5,0.1c0.2,0,0.4,0,0.5,0c0.2,0,0.3-0.1,0.4-0.2c0.1-0.1,0.2-0.2,0.3-0.3C108.9,127,108.9,126.9,108.9,126.7z"></path> </g> </g> <g> <circle class="st3" cx="105.5" cy="142.2" r="4.1"></circle> <g> <path class="st4" d="M105.1,145.9c-1,0-1.9-0.4-2.6-1.1c-0.7-0.7-1.1-1.6-1.1-2.6c0-1,0.4-1.9,1.1-2.6c0.7-0.7,1.6-1.1,2.6-1.1 c1,0,1.9,0.4,2.6,1.1c0.7,0.7,1.1,1.6,1.1,2.6c0,1-0.4,1.9-1.1,2.6C107,145.5,106.1,145.9,105.1,145.9z M105.1,138.7 c-1.9,0-3.5,1.6-3.5,3.5s1.6,3.5,3.5,3.5c1.9,0,3.5-1.6,3.5-3.5S107,138.7,105.1,138.7z"></path> </g> <g> <path class="st4" d="M105.6,143.3c0-0.1,0-0.2,0-0.2c0-0.1,0-0.1-0.1-0.2c0-0.1-0.1-0.1-0.2-0.2c-0.1-0.1-0.2-0.1-0.3-0.2 c-0.2-0.1-0.4-0.2-0.5-0.3c-0.2-0.1-0.3-0.2-0.4-0.3c-0.1-0.1-0.2-0.2-0.2-0.4s-0.1-0.3,0-0.5c0-0.2,0.1-0.3,0.1-0.4 c0.1-0.1,0.2-0.2,0.3-0.3c0.1-0.1,0.3-0.2,0.4-0.2c0.2,0,0.3-0.1,0.5-0.1l0.1-0.6l0.5,0.1l-0.1,0.6c0.2,0,0.3,0.1,0.5,0.2 c0.1,0.1,0.2,0.2,0.3,0.3c0.1,0.1,0.1,0.3,0.2,0.4c0,0.2,0,0.3,0,0.5l-0.9-0.1c0-0.2,0-0.4-0.1-0.5c-0.1-0.1-0.2-0.2-0.4-0.2 c-0.1,0-0.2,0-0.2,0c-0.1,0-0.1,0-0.2,0.1c0,0-0.1,0.1-0.1,0.1c0,0.1,0,0.1-0.1,0.2c0,0.1,0,0.1,0,0.2c0,0.1,0,0.1,0.1,0.2 c0,0.1,0.1,0.1,0.2,0.2c0.1,0.1,0.2,0.1,0.3,0.2c0.2,0.1,0.4,0.2,0.5,0.3c0.2,0.1,0.3,0.2,0.4,0.3c0.1,0.1,0.2,0.2,0.2,0.4 c0,0.1,0.1,0.3,0,0.5c0,0.2-0.1,0.3-0.1,0.4c-0.1,0.1-0.2,0.2-0.3,0.3c-0.1,0.1-0.3,0.1-0.4,0.2c-0.2,0-0.3,0.1-0.5,0.1l-0.1,0.6 l-0.5-0.1l0.1-0.6c-0.2,0-0.3-0.1-0.5-0.2c-0.2-0.1-0.3-0.2-0.4-0.3c-0.1-0.1-0.2-0.3-0.2-0.4c-0.1-0.2-0.1-0.4,0-0.6l0.9,0.1 c0,0.1,0,0.2,0,0.3c0,0.1,0.1,0.2,0.1,0.2c0.1,0.1,0.1,0.1,0.2,0.1c0.1,0,0.2,0.1,0.2,0.1c0.1,0,0.2,0,0.3,0c0.1,0,0.1,0,0.2-0.1 c0.1,0,0.1-0.1,0.1-0.1C105.6,143.4,105.6,143.3,105.6,143.3z"></path> </g> </g> <g> <circle class="st3" cx="117.4" cy="139.1" r="5.1"></circle> <g> <path class="st4" d="M117,143.8c-1.2,0-2.4-0.5-3.3-1.4c-0.9-0.9-1.4-2-1.4-3.3c0-1.2,0.5-2.4,1.4-3.3c0.9-0.9,2-1.4,3.3-1.4 s2.4,0.5,3.3,1.4c0.9,0.9,1.4,2,1.4,3.3c0,1.2-0.5,2.4-1.4,3.3C119.4,143.3,118.2,143.8,117,143.8z M117,134.8 c-2.4,0-4.4,2-4.4,4.4c0,2.4,2,4.4,4.4,4.4c2.4,0,4.4-2,4.4-4.4C121.4,136.8,119.4,134.8,117,134.8z"></path> </g> <g> <path class="st4" d="M117.6,140.5c0-0.1,0-0.2,0-0.3c0-0.1-0.1-0.2-0.1-0.2c-0.1-0.1-0.1-0.1-0.2-0.2c-0.1-0.1-0.2-0.1-0.4-0.2 c-0.2-0.1-0.5-0.2-0.7-0.4c-0.2-0.1-0.4-0.3-0.5-0.4c-0.1-0.1-0.2-0.3-0.3-0.5c-0.1-0.2-0.1-0.4,0-0.6c0-0.2,0.1-0.4,0.2-0.5 c0.1-0.2,0.2-0.3,0.4-0.4c0.1-0.1,0.3-0.2,0.5-0.2c0.2-0.1,0.4-0.1,0.6-0.1l0.1-0.8l0.6,0.1l-0.1,0.8c0.2,0.1,0.4,0.1,0.6,0.2 c0.2,0.1,0.3,0.2,0.4,0.4c0.1,0.2,0.2,0.3,0.2,0.5c0,0.2,0.1,0.4,0,0.7l-1.1-0.1c0-0.3,0-0.5-0.1-0.7c-0.1-0.2-0.3-0.2-0.5-0.3 c-0.1,0-0.2,0-0.3,0c-0.1,0-0.2,0.1-0.2,0.1c-0.1,0-0.1,0.1-0.1,0.2c0,0.1-0.1,0.2-0.1,0.2c0,0.1,0,0.2,0,0.2 c0,0.1,0.1,0.1,0.1,0.2c0.1,0.1,0.1,0.1,0.2,0.2c0.1,0.1,0.2,0.1,0.4,0.2c0.2,0.1,0.5,0.2,0.6,0.4c0.2,0.1,0.4,0.3,0.5,0.4 c0.1,0.1,0.2,0.3,0.3,0.5c0.1,0.2,0.1,0.4,0,0.6c0,0.2-0.1,0.4-0.2,0.6c-0.1,0.2-0.2,0.3-0.4,0.4c-0.1,0.1-0.3,0.2-0.5,0.2 c-0.2,0.1-0.4,0.1-0.6,0.1l-0.1,0.7l-0.6-0.1l0.1-0.7c-0.2,0-0.4-0.1-0.6-0.2c-0.2-0.1-0.4-0.2-0.5-0.4c-0.1-0.2-0.2-0.3-0.3-0.6 c-0.1-0.2-0.1-0.5-0.1-0.8l1.1,0.1c0,0.2,0,0.3,0,0.4c0,0.1,0.1,0.2,0.2,0.3c0.1,0.1,0.2,0.1,0.3,0.2c0.1,0,0.2,0.1,0.3,0.1 c0.1,0,0.2,0,0.3,0c0.1,0,0.2-0.1,0.2-0.1c0.1,0,0.1-0.1,0.2-0.2C117.6,140.7,117.6,140.6,117.6,140.5z"></path> </g> </g> <g> <rect x="224.7" y="129.2" class="st5" width="3" height="3"></rect> </g> <g> <rect x="223" y="160.1" class="st5" width="3" height="3"></rect> </g> <g> <rect x="226.2" y="168.7" class="st5" width="4.5" height="4.5"></rect> </g> <g> <rect x="152.1" y="162.7" class="st5" width="4.5" height="4.5"></rect> </g> <g> <rect x="147.2" y="158.8" class="st5" width="2.9" height="2.9"></rect> </g> <g> <rect x="155.2" y="176.4" class="st5" width="2.9" height="2.9"></rect> </g> <g> <rect x="143.7" y="137.6" class="st5" width="2.1" height="2.1"></rect> </g> <g> <rect x="234.2" y="133.8" class="st5" width="1.1" height="1.1"></rect> </g> <g> <rect x="222.9" y="124.4" class="st5" width="1.7" height="1.7"></rect> </g> <g> <rect x="231.7" y="158.5" class="st5" width="1.7" height="1.7"></rect> </g> <g> <rect x="152.9" y="131.5" class="st5" width="2.9" height="2.9"></rect> </g> <g> <g> <g> <path class="st6" d="M126,130.5c0.1,0,10.1,0.2,10.1,0.2l-4.9-6.4L126,130.5z"></path> </g> </g> <g> <g> <rect x="129" y="135.5" class="st6" width="1.7" height="1.7"></rect> </g> </g> <g> <g> <rect x="130.6" y="137.4" class="st6" width="1.7" height="1.7"></rect> </g> </g> <g> <g> <rect x="129" y="139.7" class="st6" width="1.3" height="1.3"></rect> </g> </g> <g> <g> <rect x="132.2" y="135.9" class="st6" width="1.3" height="1.3"></rect> </g> </g> <g> <g> <rect x="128.1" y="137.6" class="st6" width="0.9" height="0.9"></rect> </g> </g> <g> <g> <path class="st6" d="M131.7,142.7h-1.1v-1.1h1.1V142.7z M130.8,142.5h0.8v-0.8h-0.8V142.5z"></path> </g> </g> <g> <g> <rect x="132.4" y="139" class="st6" width="0.9" height="0.9"></rect> </g> </g> <g> <g> <path class="st6" d="M133.4,129.7l-4.8,0.1l-0.3,6.2h5.3L133.4,129.7z M131.7,134.9h-0.9v-0.9h0.9V134.9z"></path> </g> </g> </g> <g> <g> <g> <path class="st7" d="M130.7,188c0.2,0,16.4,0.3,16.4,0.3l-8-10.6L130.7,188z"></path> </g> </g> <g> <g> <rect x="135.6" y="196.4" class="st7" width="2.8" height="2.9"></rect> </g> </g> <g> <g> <rect x="138.2" y="199.5" class="st7" width="2.8" height="2.9"></rect> </g> </g> <g> <g> <rect x="135.6" y="203.4" class="st7" width="2.1" height="2.2"></rect> </g> </g> <g> <g> <rect x="140.7" y="197" class="st7" width="2.1" height="2.2"></rect> </g> </g> <g> <g> <rect x="134" y="199.8" class="st7" width="1.5" height="1.6"></rect> </g> </g> <g> <g> <path class="st7" d="M140,208.4h-1.8v-1.9h1.8V208.4z M138.5,208.1h1.3v-1.3h-1.3V208.1z"></path> </g> </g> <g> <g> <rect x="141" y="202.2" class="st7" width="1.5" height="1.6"></rect> </g> </g> <g> <g> <path class="st7" d="M142.7,186.6l-7.8,0.1l-0.5,10.4h8.6L142.7,186.6z M139.9,195.2h-1.5v-1.6h1.5V195.2z"></path> </g> </g> </g> <g> <g> <g> <path class="st5" d="M132,99.5c0.2,0,16.9,0.3,16.9,0.3l-8.3-10.6L132,99.5z"></path> </g> </g> <g> <g> <rect x="137" y="107.8" class="st5" width="2.9" height="2.9"></rect> </g> </g> <g> <g> <rect x="139.8" y="110.9" class="st5" width="2.9" height="2.9"></rect> </g> </g> <g> <g> <rect x="137" y="114.8" class="st5" width="2.2" height="2.2"></rect> </g> </g> <g> <g> <rect x="142.4" y="108.5" class="st5" width="2.2" height="2.2"></rect> </g> </g> <g> <g> <rect x="135.5" y="111.2" class="st5" width="1.6" height="1.6"></rect> </g> </g> <g> <g> <path class="st5" d="M141.6,119.8h-1.8v-1.8h1.8V119.8z M140,119.5h1.3v-1.3H140V119.5z"></path> </g> </g> <g> <g> <rect x="142.7" y="113.7" class="st5" width="1.6" height="1.6"></rect> </g> </g> <g> <g> <path class="st5" d="M144.4,98.1l-8.1,0.1l-0.5,10.3h8.8L144.4,98.1z M141.5,106.7H140v-1.6h1.6V106.7z"></path> </g> </g> </g> <g> <g> <g> <path class="st6" d="M222.3,188.5c0.1,0,14.6,0.2,14.6,0.2l-7.1-9.1L222.3,188.5z"></path> </g> </g> <g> <g> <rect x="226.6" y="195.7" class="st6" width="2.5" height="2.5"></rect> </g> </g> <g> <g> <rect x="228.9" y="198.4" class="st6" width="2.5" height="2.5"></rect> </g> </g> <g> <g> <rect x="226.6" y="201.7" class="st6" width="1.9" height="1.9"></rect> </g> </g> <g> <g> <rect x="231.2" y="196.3" class="st6" width="1.9" height="1.9"></rect> </g> </g> <g> <g> <rect x="225.2" y="198.6" class="st6" width="1.4" height="1.4"></rect> </g> </g> <g> <g> <path class="st6" d="M230.5,206h-1.6v-1.6h1.6V206z M229.2,205.7h1.1v-1.1h-1.1V205.7z"></path> </g> </g> <g> <g> <rect x="231.4" y="200.7" class="st6" width="1.4" height="1.4"></rect> </g> </g> <g> <g> <path class="st6" d="M232.9,187.3l-6.9,0.1l-0.4,8.9h7.6L232.9,187.3z M230.4,194.7h-1.4v-1.4h1.4V194.7z"></path> </g> </g> </g> <g> <g> <g> <path class="st6" d="M217.6,93.9c0.1,0,14.6,0.2,14.6,0.2l-7.1-9.1L217.6,93.9z"></path> </g> </g> <g> <g> <rect x="221.9" y="101" class="st6" width="2.5" height="2.5"></rect> </g> </g> <g> <g> <rect x="224.3" y="103.7" class="st6" width="2.5" height="2.5"></rect> </g> </g> <g> <g> <rect x="221.9" y="107.1" class="st6" width="1.9" height="1.9"></rect> </g> </g> <g> <g> <rect x="226.5" y="101.6" class="st6" width="1.9" height="1.9"></rect> </g> </g> <g> <g> <rect x="220.6" y="104" class="st6" width="1.4" height="1.4"></rect> </g> </g> <g> <g> <path class="st6" d="M225.9,111.3h-1.6v-1.6h1.6V111.3z M224.5,111.1h1.1V110h-1.1V111.1z"></path> </g> </g> <g> <g> <rect x="226.8" y="106.1" class="st6" width="1.4" height="1.4"></rect> </g> </g> <g> <g> <path class="st6" d="M228.2,92.7l-6.9,0.1l-0.4,8.9h7.6L228.2,92.7z M225.8,100.1h-1.4v-1.4h1.4V100.1z"></path> </g> </g> </g> <g> <g> <g> <path class="st7" d="M237,144.1c0.2,0,16.8,0.3,16.8,0.3l-8.2-10.5L237,144.1z"></path> </g> </g> <g> <g> <rect x="241.9" y="152.4" class="st7" width="2.8" height="2.8"></rect> </g> </g> <g> <g> <rect x="244.6" y="155.5" class="st7" width="2.8" height="2.8"></rect> </g> </g> <g> <g> <rect x="241.9" y="159.3" class="st7" width="2.2" height="2.2"></rect> </g> </g> <g> <g> <rect x="247.2" y="153" class="st7" width="2.2" height="2.2"></rect> </g> </g> <g> <g> <rect x="240.4" y="155.7" class="st7" width="1.6" height="1.6"></rect> </g> </g> <g> <g> <path class="st7" d="M246.5,164.2h-1.8v-1.8h1.8V164.2z M244.9,164h1.3v-1.3h-1.3V164z"></path> </g> </g> <g> <g> <rect x="247.5" y="158.2" class="st7" width="1.6" height="1.6"></rect> </g> </g> <g> <g> <path class="st7" d="M249.2,142.7l-8,0.1l-0.5,10.3h8.8L249.2,142.7z M246.4,151.3h-1.6v-1.6h1.6V151.3z"></path> </g> </g> </g> <g> <g> <g> <g> <g> <g> <g> <g> <g> <path class="st8" d="M208.8,218.5l-40,0c-4.8,0-8.7-3.7-8.7-8.3l0-95.6c0-4.6,3.9-8.3,8.7-8.3l40,0c4.8,0,8.7,3.7,8.7,8.3 l0,95.6C217.5,214.8,213.6,218.5,208.8,218.5z"></path> </g> </g> </g> </g> </g> <g> <path class="st2" d="M208.5,109.7l-7.8,0l-22.6,0l-2.7,0l-6.8,0c-3.4,0-6.1,2.6-6.1,5.8l0,93.3c0,3.2,2.7,5.8,6.1,5.8l39.9,0 c3.4,0,6.1-2.6,6.1-5.8l0-93.3C214.6,112.3,211.9,109.7,208.5,109.7z"></path> </g> </g> </g> </g> </g> <g> <g> <g> <rect x="202.9" y="117.9" class="st9" width="2.6" height="2.4"></rect> </g> <g> <rect x="175.9" y="117.7" class="st9" width="1.1" height="0.9"></rect> </g> <g> <rect x="201.8" y="116.1" class="st9" width="1.1" height="0.9"></rect> </g> <g> <rect x="192.3" y="111.6" class="st9" width="1.7" height="1.6"></rect> </g> <g> <rect x="173" y="120.4" class="st9" width="3.3" height="2.9"></rect> </g> <g> <rect x="186" y="114" class="st9" width="1.1" height="0.9"></rect> </g> <g> <g> <linearGradient id="SVGID_1_" gradientUnits="userSpaceOnUse" x1="189.7248" y1="116.1075" x2="189.7248" y2="184.5185"> <stop offset="0" style="stop-color:#007CFF"></stop> <stop offset="1" style="stop-color:#007CFF;stop-opacity:0"></stop> </linearGradient> <polygon class="st10" points="200.4,116.1 179.3,116.1 179.1,184.5 200.4,184.5 "></polygon> </g> <g> <rect x="188.5" y="115.7" class="st9" width="2.3" height="1.9"></rect> </g> <g> <rect x="195.2" y="115.7" class="st9" width="2.2" height="3.1"></rect> </g> <g> <rect x="197.7" y="115.6" class="st9" width="1.5" height="2.6"></rect> </g> <g> <rect x="179.6" y="115.8" class="st9" width="2" height="2.8"></rect> </g> <g> <rect x="183.6" y="116" class="st9" width="1.1" height="2"></rect> </g> <g> <rect x="192" y="114.9" class="st9" width="2.1" height="1.7"></rect> </g> </g> <g> <g> <path class="st9" d="M189,103c0,0.5-0.4,0.9-0.9,0.9s-0.9-0.4-0.9-0.9c0-0.5,0.4-0.9,0.9-0.9S189,102.5,189,103z"></path> </g> <g> <ellipse class="st9" cx="171.4" cy="99.2" rx="0.9" ry="0.9"></ellipse> </g> <g> <g> <path class="st9" d="M179.5,116.6l-0.3,0l0.2-15.2h-10.3l0.2-0.2c0.1-0.1,1.7-1.7,2-2l0.2,0.2c-0.2,0.2-1.2,1.1-1.8,1.7h9.9 L179.5,116.6z"></path> </g> <g> <path class="st9" d="M174.1,97.4c0,0.5-0.4,0.8-0.9,0.8c-0.5,0-0.9-0.4-0.9-0.8c0-0.5,0.4-0.8,0.9-0.8 C173.7,96.5,174.1,96.9,174.1,97.4z"></path> </g> <g> <path class="st9" d="M175.8,95.3c0,0.5-0.4,0.8-0.9,0.8c-0.5,0-0.9-0.4-0.9-0.8c0-0.5,0.4-0.8,0.9-0.8 C175.4,94.5,175.8,94.8,175.8,95.3z"></path> </g> <g> <ellipse class="st9" cx="180.9" cy="90.5" rx="0.8" ry="0.8"></ellipse> </g> <g> <path class="st9" d="M189,91.3c0,0.5-0.4,0.8-0.8,0.8c-0.5,0-0.8-0.4-0.8-0.8c0-0.5,0.4-0.8,0.8-0.8 C188.6,90.5,189,90.9,189,91.3z"></path> </g> <g> <path class="st9" d="M190.6,84.6c0,0.5-0.4,0.8-0.8,0.8S189,85,189,84.6c0-0.5,0.4-0.8,0.8-0.8S190.6,84.1,190.6,84.6z"></path> </g> <g> <ellipse class="st9" cx="195" cy="86" rx="0.8" ry="0.8"></ellipse> </g> <g> <path class="st9" d="M203.5,93.6c0,0.5-0.3,0.8-0.8,0.8c-0.4,0-0.8-0.4-0.8-0.8c0-0.5,0.3-0.8,0.8-0.8 C203.1,92.8,203.5,93.2,203.5,93.6z"></path> </g> <g> <path class="st9" d="M192,95.6c0,0.5-0.4,0.8-0.8,0.8c-0.4,0-0.8-0.4-0.8-0.8s0.4-0.8,0.8-0.8C191.7,94.8,192,95.2,192,95.6z"></path> </g> <g> <path class="st9" d="M195.6,95.4c0,0.5-0.4,0.8-0.8,0.8c-0.4,0-0.8-0.4-0.8-0.8s0.4-0.8,0.8-0.8 C195.2,94.5,195.6,94.9,195.6,95.4z"></path> </g> <g> <ellipse class="st9" cx="205.3" cy="96.6" rx="0.8" ry="0.8"></ellipse> </g> <g> <path class="st9" d="M193.1,82.8c0,0.5-0.4,0.8-0.8,0.8s-0.8-0.4-0.8-0.8c0-0.5,0.4-0.8,0.8-0.8S193.1,82.4,193.1,82.8z"></path> </g> <g> <path class="st9" d="M185,117.8h-0.3v-9.7c-0.2-0.2-1.5-0.9-2.3-1.4l-0.1,0v-7.5l-5.8-0.1l-2.6-1.8l0.2-0.2l2.6,1.8l6,0.1v7.6 c2.4,1.4,2.4,1.5,2.4,1.6V117.8z"></path> </g> <g> <path class="st9" d="M188.5,117.1h-0.3l0-10l-2.8-2v-8.8l-6.3-4.2c-1.2,1.1-3,2.8-3.1,2.9l-0.2-0.2c0.1-0.2,2.9-2.7,3.2-3 l0.1-0.1l6.7,4.4v8.8l2.8,2L188.5,117.1z"></path> </g> <g> <polygon class="st9" points="188.3,103.2 188,103.2 188,94 192.1,91.4 192.1,83.6 192.4,83.6 192.4,91.5 188.3,94.2 "></polygon> </g> <g> <polygon class="st9" points="188.3,91.3 188,91.3 188,87.2 189.7,86.4 189.7,84.6 190,84.6 190,86.5 188.3,87.4 "></polygon> </g> <g> <polygon class="st9" points="191.1,117.4 190.8,117.4 190.8,106.2 193.1,104.1 193.1,102.7 191.2,100.9 191.2,96.2 191.4,96.2 191.4,100.7 193.4,102.5 193.4,104.2 191.1,106.3 "></polygon> </g> <g> <rect x="194.9" y="95.4" class="st9" width="0.3" height="23"></rect> </g> <g> <polygon class="st9" points="197.7,118.7 197.4,118.7 197.5,98.9 201.3,96.5 205.4,96.5 205.4,96.8 201.4,96.8 197.7,99.1 "></polygon> </g> <g> <polygon class="st9" points="200.4,120.9 200.1,120.9 200.1,101 209.4,100.7 205.5,97.1 205.7,96.9 210.2,101 200.4,101.3 "></polygon> </g> <g> <path class="st9" d="M202.9,93.8l-3.5-0.6l-4.2-4.3l0,0c-0.1-0.6-0.5-2.7-0.5-2.8h0.3h-0.1l0.1,0c0,0.1,0.3,1.7,0.5,2.7 l4.1,4.2l3.4,0.6L202.9,93.8z"></path> </g> <g> <polygon class="st9" points="181.5,90.3 181.4,90 183.7,89.2 185.6,87.4 184.1,86.3 189.8,80.4 192.1,82.4 191.9,82.7 189.8,80.8 184.5,86.3 186.1,87.3 183.9,89.5 "></polygon> </g> </g> </g> </g> <g> <rect x="203.3" y="123.3" class="st9" width="2.2" height="2.2"></rect> </g> <g> <path class="st9" d="M171.9,119.8h-2.5v-2.5h2.5V119.8z M169.7,119.5h1.9v-1.9h-1.9V119.5z"></path> </g> </g> <g> <g> <rect x="151.2" y="145.2" class="st8" width="4.5" height="4.5"></rect> </g> <g> <rect x="222.7" y="145.8" class="st8" width="4.5" height="4.5"></rect> </g> <g> <rect x="219.4" y="136.9" class="st8" width="1.1" height="1.1"></rect> </g> <g> <rect x="207" y="133.8" class="st11" width="2.2" height="2.2"></rect> </g> <g> <rect x="205.1" y="131.7" class="st11" width="1.3" height="1.3"></rect> </g> <g> <path class="st11" d="M211.2,127.6h-1.6V126h1.6V127.6z M209.8,127.3h1v-1h-1V127.3z"></path> </g> <g> <path class="st8" d="M223.6,140.5h-2v-2h2V140.5z M221.9,140.2h1.4v-1.4h-1.4V140.2z"></path> </g> <g> <path class="st8" d="M146.9,145h-2v-2h2V145z M145.1,144.7h1.4v-1.4h-1.4V144.7z"></path> </g> <g> <rect x="167.2" y="140.4" class="st11" width="2.9" height="2.9"></rect> </g> <g> <rect x="170.2" y="135.6" class="st11" width="1.5" height="1.5"></rect> </g> <g> <rect x="154.2" y="125.6" class="st8" width="1.5" height="1.5"></rect> </g> <g> <rect x="228.1" y="151.4" class="st8" width="1.5" height="1.5"></rect> </g> <g> <rect x="149.9" y="152.7" class="st8" width="1.5" height="1.5"></rect> </g> <g> <rect x="165.9" y="132" class="st11" width="2.5" height="2.5"></rect> </g> <g> <path class="st11" d="M175.2,130.9h-2.3v-2.3h2.3V130.9z M173.2,130.6h1.7v-1.7h-1.7V130.6z"></path> </g> </g> <g> <g> <path class="st11" d="M203.9,146.6c0.1,0,7.4,0.1,7.4,0.1l-3.6-4.7L203.9,146.6z"></path> </g> <g> <rect x="206.2" y="150.2" class="st11" width="1.3" height="1.3"></rect> </g> <g> <rect x="207.5" y="151.6" class="st11" width="1.2" height="1.1"></rect> </g> <g> <rect x="206.2" y="153.2" class="st11" width="1" height="1"></rect> </g> <g> <rect x="208.6" y="150.5" class="st11" width="1" height="1"></rect> </g> <g> <rect x="205.4" y="151.6" class="st11" width="0.7" height="0.7"></rect> </g> <g> <path class="st11" d="M208.3,155.6h-1v-1h1V155.6z M207.7,155.3h0.4v-0.4h-0.4V155.3z"></path> </g> <g> <rect x="208.7" y="152.8" class="st11" width="0.7" height="0.7"></rect> </g> <g> <path class="st11" d="M209.6,146l-3.9,0v4.5h3.9L209.6,146z M208.3,149.7h-0.7v-0.7h0.7V149.7z"></path> </g> </g> <g> <g> <path class="st9" d="M178.9,175.8c0.1,0,8.3,0.1,8.3,0.1l-4-5.2L178.9,175.8z"></path> </g> <g> <rect x="181.4" y="179.9" class="st9" width="1.4" height="1.4"></rect> </g> <g> <rect x="182.7" y="181.4" class="st9" width="1.4" height="1.4"></rect> </g> <g> <rect x="181.4" y="183.3" class="st9" width="1.1" height="1.1"></rect> </g> <g> <rect x="184" y="180.2" class="st9" width="1.1" height="1.1"></rect> </g> <g> <rect x="180.6" y="181.6" class="st9" width="0.8" height="0.8"></rect> </g> <g> <rect x="184.1" y="182.8" class="st9" width="0.8" height="0.8"></rect> </g> <g> <path class="st9" d="M185,175.1l-4,0l-0.3,5.1h4.3L185,175.1z M183.6,179.4h-0.8v-0.8h0.8V179.4z"></path> </g> </g> <g> <g> <path class="st11" d="M165,155c0.1,0,12.1,0.2,12.1,0.2l-5.9-7.6L165,155z"></path> </g> <g> <rect x="168.6" y="160.9" class="st11" width="2.1" height="2.1"></rect> </g> <g> <rect x="170.7" y="163" class="st11" width="1.8" height="1.8"></rect> </g> <g> <rect x="168.6" y="165.1" class="st11" width="1.6" height="1.6"></rect> </g> <g> <rect x="172.4" y="161.4" class="st11" width="1.6" height="1.6"></rect> </g> <g> <rect x="167.5" y="163.2" class="st11" width="1.1" height="1.1"></rect> </g> <g> <path class="st11" d="M172,168.8h-1.4v-1.4h1.4V168.8z M170.8,168.5h0.8v-0.8h-0.8V168.5z"></path> </g> <g> <rect x="172.4" y="164.9" class="st11" width="1.1" height="1.1"></rect> </g> <g> <path class="st11" d="M174,154.1l-6.3,0l0,7.4h6.3V154.1z M171.8,160.1h-1.1V159h1.1V160.1z"></path> </g> </g> <g> <g> <path class="st9" d="M202.4,164.8c0.1,0,9.8,0.2,9.8,0.2l-4.8-6.1L202.4,164.8z"></path> </g> <g> <rect x="205.3" y="169.6" class="st9" width="1.7" height="1.7"></rect> </g> <g> <rect x="206.9" y="171.4" class="st9" width="1.7" height="1.7"></rect> </g> <g> <rect x="205.3" y="173.6" class="st9" width="1.3" height="1.3"></rect> </g> <g> <rect x="208.4" y="170" class="st9" width="1.3" height="1.3"></rect> </g> <g> <rect x="204.4" y="171.5" class="st9" width="0.9" height="0.9"></rect> </g> <g> <path class="st9" d="M208,176.6h-1.2v-1.2h1.2V176.6z M207.1,176.3h0.6v-0.6h-0.6V176.3z"></path> </g> <g> <rect x="208.6" y="173" class="st9" width="0.9" height="0.9"></rect> </g> <g> <path class="st9" d="M209.5,164l-4.7,0.1l-0.3,6h5.1L209.5,164z M208.2,169h-0.9v-0.9h0.9V169z"></path> </g> </g> <g> <g> <path class="st9" d="M126.8,154.6c0.1,0,12.1,0.2,12.1,0.2l-5.9-7.6L126.8,154.6z"></path> </g> <g> <rect x="130.4" y="160.5" class="st9" width="2.1" height="2.1"></rect> </g> <g> <rect x="132.4" y="162.6" class="st9" width="1.8" height="1.8"></rect> </g> <g> <rect x="130.4" y="164.8" class="st9" width="1.6" height="1.6"></rect> </g> <g> <rect x="134.2" y="161" class="st9" width="1.6" height="1.6"></rect> </g> <g> <rect x="129.3" y="162.8" class="st9" width="1.1" height="1.1"></rect> </g> <g> <rect x="132.5" y="167.1" class="st9" width="1.1" height="1.1"></rect> </g> <g> <rect x="134.2" y="164.5" class="st9" width="1.1" height="1.1"></rect> </g> <g> <path class="st9" d="M135.8,153.7l-6.3,0l0,7.4h6.3V153.7z M133.6,159.8h-1.1v-1.1h1.1V159.8z"></path> </g> </g> <g> <g> <path class="st9" d="M238.7,197c0.1,0,9.4,0.2,9.4,0.2l-4.6-5.9L238.7,197z"></path> </g> <g> <rect x="241.4" y="201.6" class="st9" width="1.6" height="1.6"></rect> </g> <g> <rect x="243" y="203.2" class="st9" width="1.4" height="1.4"></rect> </g> <g> <rect x="241.4" y="204.9" class="st9" width="1.2" height="1.2"></rect> </g> <g> <rect x="244.4" y="202" class="st9" width="1.2" height="1.2"></rect> </g> <g> <rect x="240.5" y="203.3" class="st9" width="0.9" height="0.9"></rect> </g> <g> <rect x="243" y="206.7" class="st9" width="0.9" height="0.9"></rect> </g> <g> <rect x="244.4" y="204.7" class="st9" width="0.9" height="0.9"></rect> </g> <g> <path class="st9" d="M245.6,196.3l-4.8,0l0,5.7h4.9V196.3z M243.9,201H243v-0.9h0.9V201z"></path> </g> </g> <g> <g> <path class="st9" d="M237.7,109.2c0.1,0,12.1,0.2,12.1,0.2l-5.9-7.6L237.7,109.2z"></path> </g> <g> <rect x="241.3" y="115.2" class="st9" width="2.1" height="2.1"></rect> </g> <g> <rect x="243.3" y="117.3" class="st9" width="1.8" height="1.8"></rect> </g> <g> <rect x="241.3" y="119.4" class="st9" width="1.6" height="1.6"></rect> </g> <g> <rect x="245.1" y="115.7" class="st9" width="1.6" height="1.6"></rect> </g> <g> <rect x="240.1" y="117.4" class="st9" width="1.1" height="1.1"></rect> </g> <g> <rect x="243.3" y="121.8" class="st9" width="1.1" height="1.1"></rect> </g> <g> <rect x="245.1" y="119.2" class="st9" width="1.1" height="1.1"></rect> </g> <g> <path class="st9" d="M246.7,108.4l-6.3,0l0,7.4h6.3V108.4z M244.5,114.4h-1.1v-1.1h1.1V114.4z"></path> </g> </g> <g> <ellipse transform="matrix(0.8847 -0.4661 0.4661 0.8847 -66.5348 110.0551)" class="st12" cx="189.3" cy="189.6" rx="21.8" ry="21.8"></ellipse> <path class="st13" d="M209.7,193.5c-2.2,11.3-13.1,18.6-24.4,16.4c-11.3-2.2-18.6-13.1-16.4-24.4c1.1-5.6,4.3-10.2,8.7-13.2 c2.3-1.6,5-2.7,7.8-3.3c2.5-0.5,5.2-0.5,7.9,0c2.7,0.5,5.2,1.6,7.4,3C207.5,176.6,211.3,185,209.7,193.5z"></path> <path class="st2" d="M208.9,193.4c-2.1,10.8-12.6,17.9-23.4,15.8l0,0c0,0,0,0-0.1,0c-2.6-0.5-5-1.5-7.1-2.9c0,0,0,0,0,0 c-2.2-1.5-4.1-3.4-5.6-5.6c-2.8-4.2-4-9.5-3-14.9c1-5.4,4.1-9.8,8.3-12.7c2.2-1.5,4.8-2.6,7.5-3.1l0,0c2.4-0.5,5-0.5,7.6,0l0,0 c2.6,0.5,5,1.5,7.1,2.9c0,0,0,0,0,0c2.3,1.5,4.2,3.4,5.6,5.6C208.7,182.6,209.9,188,208.9,193.4z"></path> <path class="st1" d="M190.8,197.5L190.8,197.5l2.3-2.2l7.4,10.7c-2.2,1.5-4.8,2.6-7.5,3.1l0-0.1L190.8,197.5z"></path> <g> <path class="st1" d="M200.2,172.8c-1.5,2.4-3.9,6.3-6.2,9.8c-2.6,4.1-4.9,7.5-4.8,6.9l3.8-19.6l0,0 C195.7,170.5,198.1,171.4,200.2,172.8C200.2,172.8,200.2,172.8,200.2,172.8z"></path> <path class="st1" d="M187.6,181.6L187.6,181.6l-2.4,2.1l-7.3-10.5c2.2-1.5,4.8-2.6,7.5-3.1l0,0L187.6,181.6z"></path> <path class="st1" d="M189.2,189.5c0,0-3.6,18.7-3.8,19.6c-2.6-0.5-5-1.5-7.1-2.9c0,0,0,0,0,0c1.5-2.4,3.9-6.3,6.1-9.8 C187,192.4,189.3,189,189.2,189.5z"></path> <path class="st1" d="M189.1,189.6c0,0-18.7-3.6-19.6-3.8c0.5-2.6,1.5-5,2.9-7.1c0,0,0,0,0,0c2.4,1.5,6.3,3.9,9.8,6.1 C186.2,187.4,189.7,189.7,189.1,189.6z"></path> <path class="st1" d="M181.1,191.2L181.1,191.2l2.1,2.5l-10.5,7.1c-1.5-2.2-2.7-4.7-3.2-7.4l0,0L181.1,191.2z"></path> <path class="st1" d="M189.5,189.6c0,0,18.7,3.6,19.6,3.8c-0.5,2.6-1.5,5-2.9,7.1c0,0,0,0,0,0c-2.4-1.5-6.3-3.9-9.8-6.1 C192.3,191.8,188.9,189.5,189.5,189.6z"></path> <path class="st1" d="M197.5,188L197.5,188l-2.3-2.6l10.7-7c1.5,2.2,2.7,4.7,3.2,7.4l0,0L197.5,188z"></path> </g> <g> <path class="st14" d="M205.8,178.4l-10.5,6.9l-1.4-2.7l-0.1-0.1l6.2-9.7c0,0,0,0,0,0C202.4,174.3,204.3,176.2,205.8,178.4z"></path> <path class="st14" d="M190.8,181.7l-3.1,0.4l-0.1-0.6l-2.2-11.6l0,0c2.4-0.5,5-0.5,7.6,0l0,0C192.3,174.1,190.8,181.7,190.8,181.7 z"></path> <path class="st14" d="M184.5,196.6c0,0-5.6,8.7-6.2,9.6c0,0,0,0,0,0c-2.2-1.5-4.1-3.4-5.6-5.6l10.4-6.8l1.4,2.7L184.5,196.6z"></path> <path class="st14" d="M193,209.2L193,209.2c-2.4,0.5-5,0.5-7.6,0c0,0,0,0-0.1,0c0.8-4,2.2-11.3,2.3-11.8l0,0c0,0,0,0,0,0l3.1-0.4 l0.1,0.6L193,209.2z"></path> <path class="st14" d="M182,184.9c0,0-8.7-5.6-9.6-6.2c0,0,0,0,0,0c1.5-2.2,3.4-4.1,5.6-5.6l7,10.1l-2.8,1.7L182,184.9z"></path> <path class="st14" d="M169.5,193.4L169.5,193.4c-0.5-2.4-0.5-5,0-7.6c0,0,0,0,0-0.1c4,0.8,11.3,2.2,11.8,2.3l0,0c0,0,0,0,0,0 l0.4,3.1l-0.6,0.1L169.5,193.4z"></path> <path class="st14" d="M196.5,194.3c0,0,8.7,5.6,9.6,6.2c0,0,0,0,0,0c-1.5,2.2-3.5,4.1-5.7,5.6l-6.9-10l2.8-1.7L196.5,194.3z"></path> <path class="st14" d="M209.1,185.8L209.1,185.8c0.5,2.4,0.5,5,0,7.6c0,0,0,0,0,0.1c-4-0.8-11.3-2.2-11.8-2.3l0,0c0,0,0,0,0,0 l-0.4-3.1l0.6-0.1L209.1,185.8z"></path> </g> <ellipse transform="matrix(0.5621 -0.8271 0.8271 0.5621 -73.9482 239.5462)" class="st0" cx="189.2" cy="189.6" rx="9.6" ry="9.6"></ellipse> <path class="st2" d="M197.7,191.2C197.7,191.2,197.6,191.3,197.7,191.2c-0.5,2.3-1.8,4.2-3.5,5.4c-0.1,0-0.1,0.1-0.2,0.1 c-1.8,1.2-4,1.7-6.2,1.3c0,0-0.1,0-0.1,0c0,0-0.1,0-0.1,0c-2.2-0.5-4.1-1.7-5.3-3.5c0-0.1-0.1-0.1-0.1-0.2c-1.2-1.8-1.7-4-1.3-6.2 c0,0,0-0.1,0-0.1c0,0,0,0,0-0.1c0.5-2.2,1.8-4.1,3.5-5.3c0.1,0,0.1-0.1,0.2-0.1c1.8-1.2,4-1.7,6.2-1.3c0,0,0.1,0,0.1,0 c0,0,0.1,0,0.1,0c2.2,0.5,4,1.7,5.2,3.4c0,0.1,0.1,0.1,0.1,0.2c1.2,1.8,1.8,4,1.3,6.3C197.7,191.1,197.7,191.2,197.7,191.2z"></path> <g> <path class="st15" d="M186.6,203.4c-7.6-1.5-12.6-8.9-11.1-16.5c1.5-7.6,8.9-12.6,16.5-11.1c7.6,1.5,12.6,8.9,11.1,16.5 C201.6,199.9,194.2,204.9,186.6,203.4z M191.8,176.3c-7.3-1.4-14.5,3.4-15.9,10.7c-1.4,7.3,3.4,14.5,10.7,15.9 c7.3,1.4,14.5-3.4,15.9-10.7C204,184.8,199.2,177.7,191.8,176.3z"></path> </g> <g> <g> <path class="st0" d="M189.4,189.2l-1.7,8.7c0,0-0.1,0-0.1,0c0,0-0.1,0-0.1,0l1.6-8.2l-6.9,4.8c0-0.1-0.1-0.1-0.1-0.2l6.9-4.8 l0.1-0.1l0,0l0.1-0.1l0.1,0L189.4,189.2L189.4,189.2z"></path> </g> <g> <path class="st0" d="M197.6,191.3l-8.1-1.6l4.6,6.9c-0.1,0-0.1,0.1-0.2,0.1l-4.6-6.9l-0.1-0.1l0-0.1l0,0l0,0c0,0,0,0,0,0 l-0.1-0.1l-0.1-0.1l0.1,0l0.1,0l0.1,0l0.1,0l0.1,0l0,0l8.1,1.6C197.7,191.1,197.7,191.2,197.6,191.3 C197.7,191.2,197.6,191.3,197.6,191.3z"></path> </g> <g> <path class="st0" d="M196.3,184.8l-6.8,4.7l0,0l-0.1,0.1l-0.1,0l-0.1,0.1l-0.1,0l0-0.1l0,0l0,0c0,0,0,0,0,0c0,0,0,0,0-0.1 c0,0,0,0,0-0.1c0,0,0-0.1,0-0.2c0.1-0.5,0.3-1.6,0.8-4.4c0.3-1.4,0.6-2.7,0.7-3.6c0,0,0.1,0,0.1,0c0,0,0.1,0,0.1,0 c-0.7,3.1-1.5,7.1-1.6,8.1c0,0,0,0,0,0l0,0l6.8-4.7C196.3,184.6,196.3,184.7,196.3,184.8z"></path> </g> <g> <path class="st0" d="M189.5,189.6l-0.2,0l-0.1,0l-0.1,0l0,0l-0.2,0l-8.2-1.5c0,0,0-0.1,0-0.1c0,0,0,0,0-0.1l8.2,1.5l-4.7-6.8 c0.1,0,0.1-0.1,0.2-0.1l4.6,6.7l0.1,0.2l0,0.1l0.1,0.1l0,0.1L189.5,189.6z"></path> </g> </g> <g> <path class="st12" d="M188,189.2c0.1-0.7,0.8-1.2,1.6-1.1c0.7,0.1,1.2,0.8,1.1,1.6c-0.1,0.7-0.8,1.2-1.6,1.1 C188.3,190.7,187.8,190,188,189.2z"></path> <g> <rect x="184.7" y="189.3" transform="matrix(0.9816 0.191 -0.191 0.9816 39.6742 -32.6596)" class="st12" width="9.1" height="0.4"></rect> <path class="st12" d="M185.5,188.8c0,0.2-0.4,0.4-0.9,0.3c-0.4-0.1-0.7-0.3-0.7-0.6c0-0.2,0.4-0.4,0.9-0.3 C185.3,188.3,185.6,188.5,185.5,188.8z"></path> <path class="st12" d="M194.6,190.5c0,0.2-0.4,0.4-0.9,0.3c-0.4-0.1-0.7-0.3-0.7-0.6c0-0.2,0.4-0.4,0.9-0.3 C194.3,190,194.6,190.3,194.6,190.5z"></path> </g> <g> <rect x="184.7" y="189.3" transform="matrix(-0.191 0.9816 -0.9816 -0.191 411.4047 39.8811)" class="st12" width="9.1" height="0.4"></rect> <path class="st12" d="M190,185.7c-0.2,0-0.4-0.4-0.3-0.9c0.1-0.4,0.3-0.7,0.6-0.7c0.2,0,0.4,0.4,0.3,0.9 C190.5,185.5,190.2,185.8,190,185.7z"></path> <path class="st12" d="M188.2,194.8c-0.2,0-0.4-0.4-0.3-0.9c0.1-0.4,0.3-0.7,0.6-0.7c0.2,0,0.4,0.4,0.3,0.9 C188.7,194.5,188.5,194.8,188.2,194.8z"></path> </g> </g> </g> </svg> 