<?xml version="1.0" encoding="UTF-8"?> <svg xmlns="http://www.w3.org/2000/svg" width="24" height="24" viewBox="0 0 24 24" fill="none"><path d="M14.0093 11.9138C14.0093 11.9138 19.3531 14.2994 19.5439 15.1583C19.7348 16.0171 19.9256 17.5439 19.9256 17.6393C17.7308 18.5936 15.1544 19.2615 12.1962 19.2615C9.23804 19.2615 6.66157 18.5936 4.4668 17.6393C4.4668 17.5439 4.65765 16.0171 4.8485 15.1583C5.03935 14.204 10.3831 11.9138 10.3831 11.9138" stroke="#008BFF" stroke-width="0.954248" stroke-miterlimit="10" stroke-linecap="round" stroke-linejoin="round"></path><path d="M8.76109 7.61964C8.76109 5.71114 10.1925 4.08892 12.101 4.08892C12.4827 4.08892 14.0095 3.99349 14.2957 4.08892C14.582 4.18434 14.2957 4.75689 14.4866 4.85232C15.4408 5.42487 15.5363 6.37912 15.5363 7.61964C15.5363 7.61964 16.0134 8.00134 16.0134 8.47846C16.0134 8.95559 15.3454 9.52814 15.3454 9.52814C15.25 10.1961 14.6774 11.3412 13.914 11.7229C13.8186 11.7229 14.4866 13.2497 14.582 13.4406C14.7729 14.3948 12.1964 14.8719 12.1964 14.8719C12.1964 14.8719 9.52449 14.3948 9.81077 13.4406C9.90619 13.2497 10.4787 11.7229 10.4787 11.7229C9.71534 11.3412 9.14279 10.1961 9.04737 9.52814C9.04737 9.52814 8.37939 8.95559 8.37939 8.47846C8.37939 8.00134 8.76109 7.61964 8.76109 7.61964Z" stroke="#008BFF" stroke-width="0.954248" stroke-miterlimit="10" stroke-linecap="round" stroke-linejoin="round"></path><path d="M15.0588 16.3987H16.0131" stroke="#008BFF" stroke-width="0.954248" stroke-miterlimit="10" stroke-linecap="round" stroke-linejoin="round"></path></svg> 