<?xml version="1.0" encoding="UTF-8"?> <svg xmlns="http://www.w3.org/2000/svg" width="24" height="24" viewBox="0 0 24 24" fill="none"><path d="M12.1 14C13.8 14 18.5 15.5 18.7 16.4C18.9 17.2 19.1 18.6 19 18.6C17 19.5 14.6 20 12 20C9.4 20 7 19.4 5 18.6C5 18.5 5.2 17.1 5.3 16.4C5.5 15.5 10.3 13.9 12.1 14Z" stroke="#008BFF" stroke-miterlimit="10" stroke-linecap="round" stroke-linejoin="round"></path><path d="M12.1001 5C13.8001 5 15.1001 6.3 15.1001 8C15.1001 9.7 13.8001 11 12.1001 11C10.4001 11 9.1001 9.7 9.1001 8C9.1001 6.3 10.5001 5 12.1001 5ZM12.1001 4C9.9001 4 8.1001 5.8 8.1001 8C8.1001 10.2 9.9001 12 12.1001 12C14.3001 12 16.1001 10.2 16.1001 8C16.1001 5.8 14.3001 4 12.1001 4Z" fill="#008BFF"></path></svg> 