<?xml version="1.0" encoding="UTF-8"?> <svg xmlns="http://www.w3.org/2000/svg" width="24" height="24" viewBox="0 0 24 24" fill="none"><path d="M19.0339 6.667L17.4117 5.71275C16.8392 6.667 15.6941 6.95327 14.8352 6.38072C13.9764 5.80817 13.5947 4.66307 14.0718 3.80425L12.4496 2.85C11.4954 2.27745 10.3503 2.65915 9.87315 3.51798L4.62478 12.5833C4.05223 13.5376 4.43393 14.6827 5.29276 15.1598L6.91498 16.1141C7.48753 15.1598 8.63263 14.8735 9.49145 15.4461C10.3503 16.0186 10.732 17.1637 10.1594 18.0226L11.7816 18.9768C12.7359 19.5493 13.881 19.1676 14.3581 18.3088L19.6065 9.24347C20.2745 8.28922 19.9882 7.14412 19.0339 6.667Z" stroke="#008BFF" stroke-width="0.954248" stroke-miterlimit="10" stroke-linecap="round"></path><path d="M8.44189 6.00049L9.20529 6.47761" stroke="#008BFF" stroke-width="0.954248" stroke-miterlimit="10" stroke-linecap="round"></path><path d="M10.9231 7.43274L16.6486 10.7726" stroke="#008BFF" stroke-width="0.954248" stroke-miterlimit="10" stroke-linecap="round" stroke-dasharray="1.91 1.91"></path><path d="M17.5073 11.2496L18.2707 11.7268" stroke="#008BFF" stroke-width="0.954248" stroke-miterlimit="10" stroke-linecap="round"></path><path d="M12.736 10.0076L12.6406 11.3435L13.6903 12.2023L12.3543 12.4886L11.8772 13.7291L11.2092 12.584H9.87329L10.7321 11.5344L10.3504 10.2938L11.5909 10.771L12.736 10.0076Z" fill="#008BFF"></path><path d="M14.0717 20.2164H6.43774" stroke="#008BFF" stroke-width="0.954248" stroke-miterlimit="10" stroke-linecap="round"></path></svg> 