<?xml version="1.0" encoding="UTF-8"?> <svg xmlns="http://www.w3.org/2000/svg" width="24" height="19" viewBox="0 0 24 19" fill="none"><path d="M23.7309 8.99401V9.77482C23.7285 9.81762 23.7285 9.86051 23.7309 9.90331C23.6864 10.2394 23.6617 10.5803 23.6073 10.9213C23.4238 12.0056 23.0292 13.0432 22.446 13.9754C21.5784 15.3833 20.3291 16.516 18.8433 17.242C17.9693 17.6716 17.0284 17.9491 16.0611 18.0623L15.4186 18.1315H7.06687L6.9285 18.1068C6.09346 18.059 5.27355 17.8632 4.50698 17.5286C2.87121 16.8289 1.54165 15.5643 0.761048 13.9655C0.401106 13.2428 0.167127 12.464 0.0691861 11.6626C0.0444767 11.4649 0.0247093 11.2722 0 11.0795V10.3184C0.010607 10.2778 0.018857 10.2365 0.0247092 10.1949C0.0713212 9.46888 0.23313 8.75492 0.504071 8.07976C1.16946 6.3032 2.49065 4.84936 4.19565 4.01754C5.09835 3.56956 6.08479 3.31538 7.09158 3.27132C7.58669 3.24621 8.08306 3.26772 8.57414 3.33557C8.59908 3.33976 8.62466 3.3379 8.64874 3.33017C8.67282 3.32243 8.69469 3.30903 8.71251 3.29109C9.41518 2.56851 10.2378 1.97325 11.1439 1.53178C12.02 1.09759 12.9647 0.818367 13.9361 0.706492L14.6279 0.637306H15.3297H15.473C15.8239 0.676841 16.1797 0.706492 16.5256 0.760853C17.6048 0.943091 18.6375 1.33603 19.5649 1.91725C20.9805 2.78204 22.1191 4.03383 22.8463 5.52481C23.2759 6.39885 23.5533 7.33976 23.6666 8.30709C23.6666 8.52947 23.7111 8.75185 23.7358 8.97424L23.7309 8.99401ZM10.4669 3.94836L10.4916 3.98295C10.9749 4.21831 11.4363 4.49614 11.8704 4.81318C11.8901 4.824 11.9122 4.82967 11.9346 4.82967C11.9571 4.82967 11.9792 4.824 11.9989 4.81318C13.1492 4.07358 14.5347 3.79124 15.8828 4.02171C17.2308 4.25218 18.4438 4.97877 19.2832 6.05854C19.757 6.6423 20.0983 7.32207 20.2835 8.05078C20.4686 8.77949 20.4932 9.53974 20.3556 10.2789C20.1952 11.3123 19.7386 12.2771 19.041 13.0562C18.4497 13.7383 17.6941 14.2583 16.8458 14.567C15.9975 14.8757 15.0845 14.9629 14.193 14.8205C13.0385 14.6846 11.9638 14.1621 11.1439 13.3379C10.0616 12.2408 8.96455 11.1536 7.87734 10.0614C7.74934 9.91234 7.57556 9.80981 7.38315 9.76988C7.20973 9.74595 7.0332 9.77813 6.87937 9.86171C6.72555 9.94529 6.6025 10.0759 6.52821 10.2344C6.44962 10.3864 6.42491 10.5606 6.45812 10.7284C6.49134 10.8963 6.58051 11.0479 6.71106 11.1585C7.91687 12.3495 9.10786 13.5306 10.3186 14.7266C10.525 14.94 10.7481 15.1367 10.9858 15.3147C11.8619 15.9395 12.882 16.3323 13.9509 16.4562C14.7918 16.5743 15.6471 16.5408 16.4762 16.3574C18.0319 16.0223 19.4266 15.1663 20.4297 13.9309C21.2794 12.9151 21.8197 11.6767 21.9864 10.3629C22.0911 9.60022 22.0693 8.8255 21.9221 8.06988C21.6983 6.85032 21.1445 5.71543 20.321 4.78848C19.5955 3.92884 18.6727 3.25773 17.6313 2.83258C16.5899 2.40743 15.4611 2.24088 14.3413 2.34719C13.4281 2.42039 12.5398 2.68115 11.732 3.11318C11.2829 3.34761 10.8589 3.62746 10.4669 3.94836ZM9.89362 16.4711L9.79478 16.3772C9.3006 15.9077 8.80641 15.4431 8.31222 14.9687C8.27187 14.9255 8.22284 14.8912 8.16833 14.8682C8.11383 14.8452 8.05508 14.834 7.99594 14.8353C7.49977 14.8658 7.00174 14.8342 6.51338 14.7414C5.43536 14.5232 4.48818 13.8856 3.88021 12.9691C3.27225 12.0525 3.05329 10.9319 3.27152 9.85389C3.48974 8.77587 4.12727 7.82869 5.04386 7.22072C5.96044 6.61275 7.081 6.3938 8.15902 6.61202C9.00714 6.7505 9.78839 7.15759 10.3878 7.77336C11.1489 8.55912 11.9346 9.32017 12.7006 10.096C12.7768 10.1817 12.8733 10.247 12.9812 10.2858C13.0891 10.3247 13.205 10.3359 13.3183 10.3184C13.4665 10.3089 13.6089 10.2574 13.7288 10.1699C13.8487 10.0824 13.9412 9.96245 13.9954 9.82424C14.0562 9.68765 14.0746 9.53595 14.0481 9.3888C14.0217 9.24165 13.9517 9.10583 13.8471 8.99895C13.0416 8.18354 12.2558 7.34342 11.4157 6.56261C10.6884 5.83521 9.77217 5.32571 8.77052 5.09167C7.76886 4.85763 6.72172 4.90838 5.74739 5.23819C4.43587 5.65221 3.31608 6.52243 2.59102 7.6911C1.86596 8.85978 1.58362 10.2496 1.79517 11.6085C2.00673 12.9675 2.69817 14.2057 3.74417 15.0986C4.79017 15.9916 6.1215 16.4802 7.49681 16.476H9.89362" fill="#D3D3D3"></path></svg> 