<?xml version="1.0" encoding="UTF-8"?> <svg xmlns="http://www.w3.org/2000/svg" width="33" height="32" viewBox="0 0 33 32" fill="none"><path d="M27.342 4H5.99002C5.25902 4 4.66602 4.593 4.66602 5.324V26.676C4.66602 27.408 5.25902 28 5.99002 28H17.484V18.706H14.355V15.085H17.484V12.41C17.484 9.311 19.378 7.625 22.143 7.625C23.468 7.625 24.607 7.722 24.939 7.766V11.006H23.018C21.518 11.006 21.226 11.727 21.226 12.777V15.088H24.81L24.345 18.718H21.226V28H27.341C28.074 28 28.666 27.408 28.666 26.676V5.324C28.666 4.593 28.074 4 27.342 4Z" fill="#002EFF"></path></svg> 