<?xml version="1.0" encoding="UTF-8"?> <svg xmlns="http://www.w3.org/2000/svg" width="32" height="32" viewBox="0 0 32 32" fill="none"><path fill-rule="evenodd" clip-rule="evenodd" d="M16 4C9.37527 4 4 9.37527 4 16C4 22.6248 9.37527 28 16 28C22.6117 28 28 22.6248 28 16C28 9.37527 22.6117 4 16 4ZM23.9262 9.53145C25.3579 11.2755 26.217 13.5011 26.243 15.9089C25.9046 15.8439 22.5206 15.154 19.1106 15.5835C19.0325 15.4143 18.9675 15.2321 18.8894 15.0499C18.6811 14.5554 18.4469 14.0477 18.2126 13.5662C21.9869 12.0304 23.705 9.81779 23.9262 9.53145ZM16 5.77007C18.603 5.77007 20.9848 6.74621 22.7939 8.34707C22.6117 8.60738 21.0629 10.6768 17.4186 12.0434C15.7397 8.95878 13.8786 6.43384 13.5922 6.04338C14.3601 5.86117 15.1671 5.77007 16 5.77007ZM11.6399 6.73319C11.9132 7.09761 13.7354 9.63558 15.4404 12.6551C10.6508 13.9306 6.42083 13.9046 5.96529 13.9046C6.62907 10.7289 8.77657 8.08676 11.6399 6.73319ZM5.74404 16.0131C5.74404 15.9089 5.74404 15.8048 5.74404 15.7007C6.18655 15.7136 11.1584 15.7787 16.2733 14.243C16.5727 14.8156 16.846 15.4013 17.1063 15.9869C16.9761 16.026 16.8329 16.0651 16.7028 16.1041C11.4187 17.8091 8.60738 22.4685 8.3731 22.859C6.7462 21.0499 5.74404 18.6421 5.74404 16.0131ZM16 26.256C13.6312 26.256 11.4447 25.449 9.71367 24.0954C9.89588 23.718 11.9783 19.7094 17.757 17.692C17.783 17.679 17.7961 17.679 17.8221 17.666C19.2668 21.4013 19.8525 24.5379 20.0087 25.436C18.7722 25.9696 17.4186 26.256 16 26.256ZM21.7136 24.4989C21.6096 23.8742 21.0629 20.8807 19.7223 17.1974C22.9371 16.6898 25.7484 17.5228 26.0998 17.6399C25.6573 20.4902 24.0173 22.9501 21.7136 24.4989Z" fill="#002EFF"></path></svg> 