<?xml version="1.0" encoding="UTF-8"?> <svg xmlns="http://www.w3.org/2000/svg" width="600" height="520" viewBox="0 0 600 520" fill="none"><path opacity="0.05" d="M332.401 383.357C297.684 397.854 259.908 409.864 224.131 404.431C187.875 398.924 155.503 376.282 136.127 345.318C81.5462 258.056 122.644 127.182 210.253 77.2924C308.249 21.4728 432.143 53.1874 514.601 121.871C548.295 149.936 565.757 194.834 557.341 238.549C548.004 287.284 508.84 321.889 462.14 334.866C460.799 335.232 459.438 335.588 458.087 335.926C437.36 341.03 418.584 351.267 398.326 357.817C375.995 365.013 354.048 374.274 332.401 383.357Z" fill="#4BB1E4"></path><path d="M355.033 46H288.592V272.319H355.033V46Z" fill="#20BAFC"></path><path d="M353.166 47.8766V270.442H290.469V47.8766H353.166ZM355.043 46H288.592V272.319H355.043V46Z" fill="white"></path><path d="M288.592 173.027H336.258C336.258 173.027 323.469 163.353 318.674 164.752C318.674 164.752 306.476 151.775 294.485 155.228C292.464 155.792 290.494 156.52 288.592 157.405V173.027Z" fill="white"></path><path d="M311.796 188.04V203.569H288.592V272.318H355.043V188.04H311.796Z" fill="white"></path><path d="M353.166 47.8766V270.442H290.469V47.8766H353.166ZM355.043 46H288.592V272.319H355.043V46Z" fill="white"></path><path d="M501.925 46H358.871V272.319H501.925V46Z" fill="#20BAFC"></path><path d="M500.039 47.8766V270.442H360.748V47.8766H500.039ZM501.915 46H358.871V272.319H501.915V46Z" fill="white"></path><path d="M360.729 154.993H427.479C427.479 154.993 414.69 145.329 409.886 146.717C409.886 146.717 397.688 133.75 385.697 137.194C373.705 140.637 372.467 145.798 372.467 145.798C368.936 143.744 364.943 142.615 360.86 142.514L360.729 154.993Z" fill="white"></path><path d="M378.087 103.903H467.873C467.873 103.903 455.112 94.2287 450.28 95.5986C450.28 95.5986 438.082 82.6219 426.091 86.0655C414.099 89.509 412.889 94.7166 412.889 94.7166C407.223 91.4819 400.528 90.5577 394.198 92.1363C387.51 93.8307 381.736 98.0471 378.087 103.903Z" fill="white"></path><path d="M501.915 141.313C499.353 143.386 498.94 145.066 498.94 145.066C493.268 141.838 486.57 140.924 480.24 142.514C473.562 144.215 467.802 148.435 464.167 154.289H501.915V141.313Z" fill="white"></path><path d="M489.764 203.569V163.156H468.924V193.614H449.089V177.118C421.381 177.118 421.24 191.606 421.24 191.606V227.139H407.362L400.222 219.999H379.035V185.46H358.871V272.318H501.915V203.569H489.764Z" fill="white"></path><path d="M92.712 302.119L288.02 333.477L209.615 415.109L91.314 371.506L92.712 302.119Z" fill="white"></path><path d="M494.455 221.031C494.511 220.985 494.547 220.92 494.556 220.848C494.564 220.776 494.545 220.704 494.502 220.646C494.48 220.618 494.453 220.594 494.422 220.576C494.39 220.558 494.356 220.547 494.32 220.542C494.284 220.538 494.248 220.541 494.213 220.55C494.178 220.56 494.146 220.577 494.118 220.599L491.556 222.579C491.875 219.942 492.091 218.235 492.1 218.169C492.104 218.133 492.101 218.097 492.091 218.063C492.081 218.028 492.064 217.996 492.041 217.968C492.018 217.94 491.99 217.917 491.959 217.9C491.927 217.883 491.892 217.872 491.856 217.869C491.821 217.864 491.785 217.866 491.751 217.875C491.716 217.884 491.684 217.9 491.656 217.922C491.628 217.944 491.604 217.971 491.587 218.002C491.57 218.034 491.559 218.068 491.556 218.103C491.556 218.169 491.34 219.877 491.021 222.504L488.769 219.595C488.747 219.567 488.72 219.543 488.688 219.525C488.657 219.507 488.623 219.496 488.587 219.491C488.551 219.487 488.515 219.49 488.48 219.5C488.445 219.509 488.413 219.526 488.385 219.548C488.36 219.573 488.34 219.602 488.326 219.634C488.313 219.667 488.306 219.701 488.306 219.736C488.306 219.771 488.313 219.806 488.326 219.838C488.34 219.87 488.36 219.899 488.385 219.924L490.974 223.273C490.824 224.54 490.655 225.976 490.468 227.533L488.178 224.643C488.126 224.595 488.057 224.567 487.986 224.567C487.914 224.567 487.846 224.595 487.793 224.643C487.769 224.668 487.749 224.697 487.735 224.729C487.722 224.761 487.715 224.796 487.715 224.831C487.715 224.866 487.722 224.901 487.735 224.933C487.749 224.965 487.769 224.994 487.793 225.019L490.421 228.34C490.271 229.645 490.111 231.014 489.942 232.422L487.634 229.541C487.582 229.493 487.513 229.465 487.442 229.465C487.37 229.465 487.301 229.493 487.249 229.541C487.224 229.566 487.204 229.595 487.191 229.627C487.177 229.659 487.17 229.694 487.17 229.729C487.17 229.764 487.177 229.799 487.191 229.831C487.204 229.863 487.224 229.892 487.249 229.917L489.905 233.219C489.755 234.477 489.614 235.753 489.464 236.973L487.118 234.158C487.072 234.102 487.005 234.066 486.933 234.059C486.861 234.052 486.789 234.074 486.733 234.12C486.677 234.166 486.642 234.233 486.635 234.305C486.628 234.377 486.65 234.449 486.696 234.505L489.379 237.78C489.248 238.99 489.107 240.2 488.976 241.383L486.536 238.568C486.512 238.543 486.482 238.523 486.45 238.509C486.418 238.496 486.383 238.489 486.349 238.489C486.314 238.489 486.279 238.496 486.247 238.509C486.214 238.523 486.185 238.543 486.161 238.568C486.11 238.619 486.081 238.688 486.081 238.76C486.081 238.832 486.11 238.901 486.161 238.952L488.929 242.143C488.807 243.287 488.685 244.385 488.572 245.436L486.452 242.828C486.427 242.801 486.397 242.78 486.364 242.766C486.331 242.751 486.295 242.744 486.259 242.744C486.223 242.744 486.188 242.751 486.154 242.766C486.121 242.78 486.092 242.801 486.067 242.828C486.019 242.878 485.992 242.945 485.992 243.015C485.992 243.085 486.019 243.152 486.067 243.203L488.535 246.243C488.347 248.045 488.188 249.668 488.075 250.991C488.072 251.027 488.077 251.063 488.088 251.097C488.1 251.131 488.118 251.162 488.141 251.189C488.165 251.216 488.193 251.238 488.226 251.254C488.258 251.27 488.293 251.279 488.328 251.282C488.397 251.282 488.464 251.256 488.514 251.209C488.565 251.162 488.596 251.097 488.6 251.028C488.713 249.715 488.873 248.082 489.06 246.271L491.734 244.094C491.763 244.072 491.787 244.045 491.805 244.014C491.822 243.982 491.834 243.948 491.838 243.912C491.843 243.876 491.84 243.84 491.83 243.805C491.82 243.77 491.804 243.738 491.781 243.71C491.729 243.661 491.66 243.634 491.589 243.634C491.517 243.634 491.449 243.661 491.397 243.71L489.135 245.586C489.248 244.545 489.36 243.447 489.492 242.312L492.307 239.835C492.361 239.787 492.395 239.72 492.4 239.648C492.406 239.576 492.382 239.505 492.335 239.45C492.311 239.423 492.283 239.4 492.251 239.384C492.219 239.368 492.184 239.359 492.148 239.356C492.076 239.351 492.005 239.374 491.95 239.422L489.539 241.514C489.661 240.36 489.801 239.178 489.933 237.977L492.851 235.584C492.902 235.533 492.931 235.464 492.931 235.392C492.931 235.319 492.902 235.25 492.851 235.199C492.799 235.15 492.73 235.123 492.659 235.123C492.587 235.123 492.518 235.15 492.466 235.199L489.83 236.982C489.98 235.715 490.12 234.449 490.261 233.229L493.207 230.864C493.236 230.843 493.259 230.817 493.277 230.786C493.295 230.755 493.306 230.722 493.311 230.687C493.315 230.652 493.312 230.616 493.303 230.582C493.293 230.548 493.277 230.516 493.254 230.489C493.203 230.438 493.134 230.409 493.062 230.409C492.99 230.409 492.921 230.438 492.87 230.489L490.355 232.506C490.515 231.108 490.674 229.691 490.834 228.434L493.789 226.088C493.817 226.067 493.841 226.041 493.859 226.01C493.877 225.98 493.888 225.946 493.892 225.911C493.897 225.876 493.894 225.84 493.884 225.806C493.875 225.772 493.858 225.741 493.836 225.713C493.814 225.684 493.787 225.661 493.755 225.643C493.724 225.625 493.689 225.613 493.654 225.609C493.618 225.605 493.582 225.608 493.547 225.617C493.512 225.627 493.48 225.644 493.451 225.666L490.927 227.674C491.106 226.117 491.284 224.681 491.434 223.414L494.455 221.031Z" fill="white"></path><path d="M453.865 277.198H444.791H297.44V295.457H444.791H453.865H507.189V277.198H453.865Z" fill="#20BAFC"></path><path d="M254.364 148.324C257.588 135.109 249.489 121.782 236.273 118.558C223.058 115.334 209.731 123.433 206.507 136.649C203.283 149.864 211.383 163.191 224.598 166.415C237.814 169.639 251.14 161.539 254.364 148.324Z" fill="#0D3BFB"></path><path d="M233.544 161.871C244.242 160.152 251.521 150.085 249.802 139.387C248.082 128.688 238.016 121.409 227.317 123.128C216.619 124.848 209.34 134.914 211.059 145.613C212.778 156.311 222.845 163.59 233.544 161.871Z" fill="white"></path><path d="M230.53 160.585L231.44 142.927L239.753 134.519L229.77 141.707L229.413 142.495L230.53 160.585Z" fill="#0D3BFB"></path><path d="M391.195 472.899H384.684C384.684 472.036 385.027 471.208 385.637 470.597C386.248 469.987 387.076 469.644 387.94 469.644C388.803 469.644 389.631 469.987 390.242 470.597C390.852 471.208 391.195 472.036 391.195 472.899Z" fill="#C1C7D7"></path><path d="M144.544 472.712L163.31 337.925H169.85L151.084 472.712H144.544Z" fill="#B8BDCC"></path><path d="M142.667 472.712L161.433 337.925H167.973L149.207 472.712H142.667Z" fill="#C1C7D7"></path><path d="M231.59 472.712L212.824 337.925H219.364L238.13 472.712H231.59Z" fill="#B8BDCC"></path><path d="M237.183 331.385H144.544V337.925H237.183V331.385Z" fill="#C1C7D7"></path><path d="M229.714 472.712L210.948 337.925H217.487L236.254 472.712H229.714Z" fill="#C1C7D7"></path><path d="M152.472 401.476H158.984" stroke="white" stroke-width="0.938302" stroke-miterlimit="10"></path><path d="M220.34 401.476H226.852" stroke="white" stroke-width="0.938302" stroke-miterlimit="10"></path><path d="M158.75 382.428L156.066 401.476" stroke="white" stroke-width="0.938302" stroke-miterlimit="10"></path><path d="M223.033 401.476L220.34 382.428" stroke="white" stroke-width="0.938302" stroke-miterlimit="10"></path><path d="M155.325 408.654C156.035 408.654 156.61 408.078 156.61 407.368C156.61 406.658 156.035 406.083 155.325 406.083C154.615 406.083 154.04 406.658 154.04 407.368C154.04 408.078 154.615 408.654 155.325 408.654Z" stroke="white" stroke-width="0.938302" stroke-miterlimit="10"></path><path d="M223.596 407.368C224.306 407.368 224.881 406.793 224.881 406.083C224.881 405.373 224.306 404.797 223.596 404.797C222.886 404.797 222.31 405.373 222.31 406.083C222.31 406.793 222.886 407.368 223.596 407.368Z" stroke="white" stroke-width="0.938302" stroke-miterlimit="10"></path><path d="M198.881 329.396L197.746 330.531H165.44C158.506 330.531 157.314 324.282 158.196 320.904L175.761 268.847C176.453 267.666 177.368 266.63 178.454 265.797" stroke="#B8BDCC" stroke-width="0.938302" stroke-miterlimit="10"></path><path d="M194.49 310.47C194.49 310.47 181.579 288.392 178.116 266.482C174.429 243.24 178.116 218.845 178.116 218.845L192.322 298.375L193.26 298.206L195.4 310.47H194.49Z" fill="#C1C7D7"></path><path d="M180.228 218.31L194.18 296.339" stroke="#B8BDCC" stroke-width="0.938302" stroke-miterlimit="10"></path><path d="M243.028 329.442H207.607V331.385H243.028V329.442Z" fill="#B8BDCC"></path><path d="M135.743 331.385H246.838" stroke="#B8BDCC" stroke-width="0.938302" stroke-miterlimit="10"></path><path d="M144.544 331.385V333.261H235.315V337.925H237.192V331.385H144.544Z" fill="#B8BDCC"></path><path d="M228.4 455.044H153.336L154.255 448.504H227.471L228.4 455.044Z" fill="#C1C7D7"></path><path d="M279.809 296.724L279.931 266.867L276.779 273.022L273.119 268.453C273.119 268.453 273.148 287.519 279.809 296.724Z" fill="white" stroke="#188EF8" stroke-width="0.938302" stroke-miterlimit="10"></path><path d="M362.07 331.319C362.07 331.319 333.227 346.998 322.662 346.998C317.97 346.998 312.612 346.895 307.133 346.754C307.133 346.754 301.747 338.656 295.216 327.228C285.698 327.213 276.197 326.4 266.814 324.798V308.274C273.007 307.946 277.576 307.261 279.012 305.778C280.682 304.033 279.894 258.225 279.894 258.225C279.894 258.225 281.086 247.904 288.873 245.37C295.395 243.259 303.464 248.786 307.208 251.882C337.018 276.541 362.07 331.319 362.07 331.319Z" fill="#188EF8"></path><path d="M298.416 462.043C300.124 461.377 301.231 460.917 301.231 460.917C303.717 461.799 301.756 463.92 302.591 464.22C303.285 464.467 304.002 464.643 304.731 464.746L301.738 457.83H295.038L296.474 461.124L297.14 460.852C297.937 461.152 298.266 461.583 298.416 462.043Z" fill="#FFAE90"></path><path d="M297.102 460.852C297.102 460.852 283.966 466.294 277.82 467.345C277.527 467.402 277.255 467.541 277.036 467.745C276.818 467.949 276.66 468.21 276.582 468.499C276.499 468.828 276.449 469.164 276.432 469.503L280.279 469.559C280.356 469.545 280.436 469.545 280.513 469.559C280.537 469.22 280.59 468.884 280.673 468.555C280.749 468.265 280.906 468.003 281.125 467.799C281.344 467.595 281.617 467.457 281.911 467.401C286.274 466.65 294.166 463.648 298.369 462.034C298.266 461.583 297.938 461.152 297.102 460.852Z" fill="#0D3BFB"></path><path d="M276.432 469.503L280.513 469.568C281.104 469.662 279.631 472.721 280.598 472.768C281.564 472.815 278.224 472.768 276.507 472.712C275.55 472.665 275.193 469.212 276.432 469.503Z" fill="#CED4D7"></path><path d="M262.92 253.168C264.965 251.976 266.561 250.869 266.561 250.869C266.561 250.869 261.869 237.423 266.561 234.918C274.067 230.939 269.207 240.998 271.355 242.255C273.091 243.269 274.986 242.64 276.535 241.505L281.761 244.507L271.44 263.151L262.92 253.168Z" fill="#FFAE90"></path><path d="M271.975 307.458C266.767 308.274 267.527 308.95 266.767 309.475L255.77 310.629C255.536 309.532 274.255 302.091 274.133 300.89C272.979 289.63 272.491 274.083 272.65 268.434H273.589C273.392 275.265 275.887 285.689 280.251 296.33V307.458C279.087 308.856 271.975 307.458 271.975 307.458Z" fill="#188EF8"></path><path d="M299.636 453.092L301.7 457.858H293.255C293.255 457.858 257.131 396.184 246.809 374.743C245.346 371.703 240.682 359.177 251.811 353.472C248.01 359.618 251.051 367.631 252.186 369.977C262.507 391.427 298.613 453.064 298.613 453.064L299.636 453.092Z" fill="#0C0641"></path><path opacity="0.7" d="M299.636 453.092L301.7 457.858H293.255C293.255 457.858 257.131 396.184 246.809 374.744C246.265 373.627 240.879 356.616 249.953 371.094C249.953 384.305 268.184 409.686 271.233 414.255C278.543 425.14 287.11 444.375 292.57 451.6C297.478 458.027 299.636 453.092 299.636 453.092Z" fill="#1D0344"></path><path d="M284.923 384.305C288.92 387.289 301.306 388.443 302.272 388.537C311.092 389.409 356.291 393.172 365.946 380.28C370.543 374.143 370.862 362.977 369.23 350.779C369.23 350.779 365.589 336.527 362.07 331.319C362.07 331.319 333.227 346.998 322.662 346.998C307.18 346.998 285.299 345.919 272.838 345.853C242.878 345.675 250.319 365.989 252.195 369.977C262.517 391.427 298.622 453.064 298.622 453.064H310.07L284.923 384.305Z" fill="#0C0641"></path><path d="M308.681 453.092L312.763 462.747C311.186 463.469 308.465 465.299 304.693 464.774L299.636 453.092H308.681Z" fill="#FFAE90"></path><path d="M280.589 266.145C280.532 261.021 280.589 258.169 280.589 258.169C280.589 258.169 281.076 248.974 288.864 246.44V245.37L282.728 242.79L270.37 265.047L276.779 273.041L280.589 266.145Z" fill="#188EF8"></path><path d="M266.561 250.869C266.561 250.869 257.966 256.865 254.954 255.898C252.571 255.129 249.831 247.303 249.831 247.303C249.831 247.303 261.653 244.845 260.959 238.981C260.546 235.528 261.897 232.187 258.454 232.938C254.509 233.589 250.53 234.012 246.537 234.205C246.537 234.205 241.724 231.108 241.846 229.607C242.062 227.618 249.24 226.952 249.24 226.952C249.24 226.952 246.875 221.753 248.301 220.59C248.695 220.261 249.54 220.421 250.431 220.731C251.453 221.112 252.441 221.577 253.387 222.119C253.387 222.119 264.637 214.951 272.284 219.455C277.492 222.504 280.616 232.591 279.688 237.479C279.359 239.234 274.996 244.395 271.355 242.255C269.207 240.998 274.086 230.939 266.561 234.918C261.822 237.423 266.561 250.869 266.561 250.869Z" fill="#1D0344"></path><path d="M361.01 294.688C361.01 294.688 388.84 362.321 372.908 384.305C359.152 403.277 300.781 394.917 300.781 394.917C300.781 394.917 296.202 394.57 296.202 391.22C296.202 386.82 300.781 388.405 300.781 388.405C300.781 388.405 301.625 388.499 303.136 388.64C313.71 389.635 356.619 392.815 365.946 380.298C379.861 361.72 354.583 297.08 354.583 297.08C354.583 297.08 352.209 292.389 356.459 291.179C359.856 290.165 361.01 294.688 361.01 294.688Z" fill="#C1C7D7"></path><path d="M387.939 469.653L349.337 395.292L358.889 393.097L387.939 469.653Z" fill="#C1C7D7"></path><path d="M323.872 470.16L312.274 396.587L321.948 397.263L323.872 470.16Z" fill="#C1C7D7"></path><path d="M321.705 412.341L374.006 441.635" stroke="#C1C7D7" stroke-width="0.938302" stroke-miterlimit="10"></path><path d="M322.155 443.465L359.002 412.069" stroke="#C1C7D7" stroke-width="0.938302" stroke-miterlimit="10"></path><path d="M326.893 472.899H320.382C320.382 472.036 320.725 471.208 321.335 470.597C321.946 469.987 322.774 469.644 323.638 469.644C324.501 469.644 325.329 469.987 325.94 470.597C326.55 471.208 326.893 472.036 326.893 472.899Z" fill="#C1C7D7"></path><path d="M242.034 319.515C239.65 320.029 237.179 319.961 234.827 319.318C234.827 319.318 230.436 325.145 229.629 324.76C228.409 324.179 230.455 320.069 229.892 319.872C229.188 319.628 225.867 325.126 224.609 324.432C223.164 323.634 228.85 313.66 232.012 311.821C235.175 309.982 241.63 312.103 241.63 312.103L266.767 309.475V322.949C266.767 322.949 247.57 318.033 242.034 319.515Z" fill="#FFAE90"></path><path d="M266.767 237.601C270.089 235.293 268.522 240.275 268.456 241.279" stroke="black" stroke-width="0.938302" stroke-miterlimit="10"></path><path d="M273.148 326.534L266.767 324.807V308.274L273.148 307.28V326.534Z" fill="white"></path><path d="M272.866 376.235C282.765 383.46 284.923 384.305 284.923 384.305" stroke="black" stroke-width="0.938302" stroke-miterlimit="10"></path><path d="M246.537 234.205L246.002 246.102L249.831 247.303C249.831 247.303 261.653 244.845 260.959 238.981C260.546 235.528 261.897 232.187 258.454 232.938C254.509 233.589 250.53 234.012 246.537 234.205Z" fill="#FFAE90"></path><path d="M314.621 468.743C314.621 468.743 315.324 462.522 313.739 462.437C312.331 462.362 308.512 466.331 302.554 464.22C301.719 463.92 303.68 461.799 301.194 460.917C301.194 460.917 288.057 466.359 281.911 467.41C281.617 467.466 281.344 467.604 281.125 467.808C280.906 468.012 280.749 468.275 280.673 468.564C280.59 468.894 280.537 469.23 280.513 469.568C297.234 471.276 314.621 468.743 314.621 468.743Z" fill="#0D3BFB" stroke="#0D3BFB" stroke-width="0.938302" stroke-miterlimit="10"></path><path d="M314.292 472.899C308.081 473.021 287.006 473.087 280.598 472.768C279.66 472.721 279.275 469.278 280.513 469.569C297.234 471.276 314.621 468.743 314.621 468.743C315.812 468.855 315.643 472.881 314.292 472.899Z" fill="#CED4D7"></path><path opacity="0.6" d="M298.21 453.298C297.844 452.688 261.963 391.37 251.764 370.183C251.276 369.17 247.025 360.697 251.285 353.791L252.13 352.994C248.123 359.477 252.13 368.813 252.608 369.771C262.789 390.957 298.66 452.21 299.017 452.829L298.21 453.298Z" fill="#0C0042"></path><path d="M302.554 464.22C301.719 463.92 303.68 461.799 301.194 460.917C301.194 460.917 288.057 466.359 281.911 467.41C281.617 467.466 281.344 467.604 281.125 467.808C280.906 468.012 280.749 468.275 280.673 468.564C280.59 468.894 280.537 469.23 280.513 469.568" stroke="#0D3BFB" stroke-width="0.938302" stroke-miterlimit="10"></path><path d="M304.693 464.755L299.636 453.073" stroke="#C17963" stroke-width="0.938302" stroke-miterlimit="10"></path><path d="M304.243 464.68C304.243 464.68 297.722 467.626 297.262 466.557C296.802 465.487 302.479 462.869 302.479 462.869C302.394 463.516 302.15 464.079 302.554 464.22C303.104 464.416 303.669 464.57 304.243 464.68Z" fill="white" stroke="#0D3BFB" stroke-width="0.938302" stroke-miterlimit="10"></path><path d="M56.9843 392.881C60.9721 390.817 65.673 390.554 70.1205 391.286C72.5038 391.68 74.9903 392.393 76.6042 394.176C78.2181 395.959 78.5371 399.121 76.6699 400.65C75.4742 401.467 74.0289 401.836 72.5882 401.692C69.1165 401.692 65.2601 401.044 62.4921 403.127C60.9064 404.319 59.8555 406.299 57.9601 406.881C57.0133 407.098 56.0216 407.001 55.1346 406.605C54.2477 406.209 53.5137 405.535 53.0434 404.685C52.1438 402.949 51.9424 400.935 52.4804 399.055C52.7062 397.749 53.2299 396.513 54.011 395.442C54.7921 394.371 55.8096 393.495 56.9843 392.881Z" fill="#EDF7FC"></path><path d="M47.8264 375.213C50.2753 378.703 55.0231 377.549 57.2094 375.419C59.3956 373.289 60.3433 370.202 61.1878 367.266C63.1207 360.538 65.0724 353.482 63.6368 346.623C63.2921 344.54 62.3798 342.592 61.0001 340.993C60.3064 340.217 59.422 339.636 58.4346 339.307C57.4471 338.978 56.3909 338.912 55.3703 339.116C52.9776 339.745 51.4857 342.091 50.4067 344.324C47.2427 350.907 45.5855 358.113 45.5557 365.417C45.5557 368.814 45.9404 372.379 47.8545 375.185" fill="#EDF7FC"></path><path d="M41.1456 380.223C43.7916 377.071 44.2983 372.483 43.116 368.542C41.7748 364.624 39.3826 361.151 36.2007 358.502C32.5848 355.286 28.3783 352.803 23.8152 351.192C22.0474 350.479 20.1455 350.159 18.2416 350.254C17.289 350.303 16.363 350.586 15.545 351.077C14.7269 351.568 14.042 352.252 13.5501 353.069C12.2459 355.602 13.4938 358.577 14.8731 361.045C17.2464 365.379 19.9571 369.521 22.9801 373.43C25.4196 376.574 28.2158 379.679 31.9315 381.096C35.6471 382.513 39.5036 382.353 41.474 379.773" fill="#EDF7FC"></path><path d="M47.7138 427.852C47.8442 427.333 47.9165 426.801 47.9296 426.266L48.3519 421.941C48.5576 419.812 48.8707 417.695 49.2902 415.598C49.8574 413.038 50.6293 410.528 51.5984 408.091C52.543 405.663 53.8289 403.382 55.4173 401.317C56.7102 399.634 58.3607 398.259 60.2495 397.291C61.533 396.66 62.9069 396.233 64.3218 396.025C64.8537 396.006 65.3821 395.93 65.8981 395.799C65.365 395.738 64.8267 395.738 64.2936 395.799C62.8226 395.902 61.3825 396.271 60.0431 396.888C58.0526 397.829 56.3059 399.216 54.9387 400.941C53.2847 403.038 51.9504 405.369 50.9791 407.857C49.9821 410.317 49.2034 412.86 48.6521 415.457C48.2406 417.577 47.9586 419.72 47.8076 421.875C47.6669 423.751 47.62 425.206 47.5918 426.229C47.5725 426.772 47.6134 427.317 47.7138 427.852Z" fill="#C1C7D7"></path><path d="M47.9672 424.502C47.9894 424.259 47.9894 424.014 47.9672 423.77C47.9672 423.217 47.9672 422.522 47.9672 421.668C47.9672 419.792 47.9672 417.202 48.061 413.937C48.2299 407.416 48.7929 400.397 49.8719 390.479C50.9041 381.171 52.2834 370.343 53.7377 363.269C54.0474 361.664 54.357 360.228 54.676 358.962C54.9951 357.695 55.2015 356.607 55.4267 355.725C55.6519 354.843 55.7926 354.223 55.924 353.679C55.9919 353.443 56.0359 353.201 56.0553 352.957C55.9364 353.175 55.848 353.409 55.7926 353.651C55.6331 354.176 55.4361 354.843 55.1827 355.659C54.9294 356.475 54.6385 357.62 54.3195 358.877C54.0005 360.135 53.6439 361.57 53.2967 363.175C51.501 371.52 50.151 379.954 49.2527 388.443C48.1642 398.361 47.6763 407.387 47.6294 413.927C47.6294 417.202 47.6294 419.848 47.742 421.668C47.7983 422.522 47.8358 423.217 47.8734 423.77C47.8711 424.017 47.9027 424.264 47.9672 424.502Z" fill="#C1C7D7"></path><path d="M48.0047 407.087C48.0619 406.356 48.0619 405.622 48.0047 404.892C47.9203 403.475 47.7232 401.439 47.3291 398.933C46.8453 396.01 46.2 393.115 45.3962 390.263C44.4441 386.755 43.2271 383.323 41.7556 379.998C39.239 373.872 35.6305 368.255 31.1059 363.419C30.3202 362.591 29.4835 361.814 28.6006 361.092C28.2159 360.763 27.8781 360.444 27.531 360.153L26.5927 359.487C26.0007 359.042 25.373 358.647 24.7161 358.305C26.8493 359.976 28.8738 361.781 30.7775 363.709C35.1511 368.596 38.6577 374.194 41.1457 380.261C42.5848 383.568 43.8041 386.965 44.7957 390.432C45.734 393.613 46.3721 396.55 46.8506 399.018C47.3292 401.485 47.5731 403.512 47.7326 404.91C47.7633 405.642 47.8543 406.37 48.0047 407.087Z" fill="#C1C7D7"></path><path d="M30.0083 435.171L31.7535 459.078H62.4736L64.2188 435.171H30.0083Z" fill="#0D3BFB"></path><path d="M67.8873 425.741H27.043V435.161H67.8873V425.741Z" fill="#0D3BFB"></path><path d="M27.0334 458.168V460.777H28.957H67.2022V458.168H27.0334Z" fill="#E4E9F2"></path><path d="M30.8433 465.084L28.9573 460.486H65.7387L63.5431 465.084H30.8433Z" fill="#0D3BFB"></path><path d="M63.665 442.977C63.6219 443.057 63.5717 443.132 63.5149 443.202C63.3929 443.362 63.2428 443.559 63.0645 443.812C62.6235 444.366 62.023 445.135 61.2723 446.102L61.1879 446.195L61.1128 446.092L56.7028 440.05H56.9561L52.6212 446.177L52.4898 446.374L52.3397 446.186C50.7352 444.309 48.9993 442.226 47.2072 440.087H47.4981L47.2166 440.444L42.6283 446.195L42.4688 446.393L42.328 446.186L38.0024 440.05H38.2558L32.9168 446.12L32.823 446.233L32.7573 446.111L31.0872 443.296L30.6555 442.545C30.6018 442.463 30.5578 442.375 30.5242 442.283C30.5242 442.283 30.5899 442.358 30.7024 442.517L31.181 443.24L32.9262 445.989H32.7667L38.0118 439.834L38.1432 439.684L38.2652 439.853L42.6283 445.952H42.3374L46.9163 440.19L47.1978 439.834L47.3479 439.646L47.4981 439.824L52.6118 445.952H52.3303L56.7028 439.853L56.8248 439.674L56.9561 439.853L61.2536 445.998H61.1034L62.98 443.775L63.4773 443.193C63.5285 443.112 63.5918 443.039 63.665 442.977Z" fill="#F5F5F5" stroke="white" stroke-width="0.938302" stroke-miterlimit="10" stroke-linecap="square"></path><path d="M64.6033 435.011C64.6033 435.114 56.9092 435.199 47.4136 435.199C37.918 435.199 30.2239 435.114 30.2239 435.011C30.2239 434.908 37.918 434.814 47.4136 434.814C56.9092 434.814 64.6033 434.898 64.6033 435.011Z" fill="#F5F5F5"></path></svg> 