<?xml version="1.0" encoding="UTF-8"?> <svg xmlns="http://www.w3.org/2000/svg" width="24" height="24" viewBox="0 0 24 24" fill="none"><path d="M21.7358 6.27329e-06H1.92658C1.67381 -0.000635659 1.4234 0.0479942 1.18968 0.14311C0.955966 0.238226 0.743546 0.377958 0.564582 0.554304C0.385618 0.73065 0.243629 0.940145 0.146749 1.17079C0.0498687 1.40143 -8.352e-07 1.64869 0 1.8984V21.5265C0 21.7758 0.0497064 22.0227 0.146278 22.253C0.242849 22.4833 0.384393 22.6926 0.562833 22.8689C0.741274 23.0452 0.953115 23.185 1.18626 23.2804C1.4194 23.3758 1.66929 23.4249 1.92164 23.4249H21.7358C22.2446 23.4236 22.7321 23.223 23.0914 22.8672C23.4507 22.5113 23.6525 22.0292 23.6525 21.5265V1.8984C23.6525 1.39576 23.4507 0.913633 23.0914 0.557755C22.7321 0.201877 22.2446 0.00129841 21.7358 6.27329e-06ZM19.0287 5.94408C18.9776 6.24861 18.8078 6.52128 18.5558 6.7037C18.3037 6.88613 17.9894 6.96381 17.6801 6.92011C16.5291 6.74931 14.81 8.52082 12.8834 12.1517C10.4134 16.7927 8.13115 18.9839 5.72046 18.8278C5.41849 18.7895 5.14285 18.6384 4.9502 18.4055C4.75754 18.1726 4.66252 17.8757 4.68466 17.5757C4.7068 17.2757 4.84442 16.9955 5.06923 16.7927C5.29404 16.5899 5.58896 16.4799 5.89336 16.4853C7.08388 16.5731 8.85732 14.7284 10.779 11.0634C13.2489 6.39305 15.5757 4.23113 18.0259 4.59714C18.1812 4.62034 18.3302 4.67366 18.4646 4.75403C18.5989 4.8344 18.7158 4.94023 18.8086 5.06543C18.9013 5.19063 18.9681 5.33272 19.005 5.48351C19.0419 5.63431 19.0483 5.79084 19.0237 5.94408H19.0287Z" fill="#D3D3D3"></path></svg> 