<svg width="9" height="15" viewBox="0 0 9 15" fill="none" xmlns="http://www.w3.org/2000/svg">
<path d="M8.75564 6.91519L1.93832 0.240121C1.78065 0.0856097 1.57016 0.000488369 1.34573 0.000488356C1.12129 0.000488344 0.910811 0.0856096 0.753134 0.240121L0.251086 0.73158C-0.0755998 1.05182 -0.0755999 1.5723 0.251086 1.89206L5.97575 7.49738L0.244734 13.1089C0.0870575 13.2634 -7.4936e-07 13.4694 -7.6158e-07 13.689C-7.73813e-07 13.9089 0.0870574 14.1149 0.244734 14.2695L0.746782 14.7609C0.904582 14.9154 1.11494 15.0005 1.33938 15.0005C1.56381 15.0005 1.77429 14.9154 1.93197 14.7609L8.75564 8.07969C8.91369 7.92469 9.0005 7.71774 9 7.49775C9.0005 7.27689 8.91369 7.07007 8.75564 6.91519Z" fill="#0C0042"/>
</svg>
